M48
; DRILL file {KiCad 6.0.2+dfsg-1} date Wed 31 Aug 2022 10:25:46 PM PDT
; FORMAT={-:-/ absolute / inch / decimal}
; #@! TF.CreationDate,2022-08-31T22:25:46-07:00
; #@! TF.GenerationSoftware,Kicad,Pcbnew,6.0.2+dfsg-1
; #@! TF.FileFunction,Plated,1,2,PTH
FMAT,2
INCH
; #@! TA.AperFunction,Plated,PTH,ViaDrill
T1C0.0157
; #@! TA.AperFunction,Plated,PTH,ComponentDrill
T2C0.0236
; #@! TA.AperFunction,Plated,PTH,ComponentDrill
T3C0.0315
; #@! TA.AperFunction,Plated,PTH,ComponentDrill
T4C0.0630
; #@! TA.AperFunction,Plated,PTH,ComponentDrill
T5C0.1260
%
G90
G05
T1
X2.0866Y-2.3346
X2.0866Y-2.4213
X2.0866Y-2.5157
X2.0866Y-2.5807
X2.1024Y-2.2362
X2.1496Y-2.3346
X2.1496Y-2.4213
X2.1496Y-2.5157
X2.1496Y-2.5807
X2.1535Y-2.2992
X2.1713Y-2.2077
X2.1713Y-2.2411
X2.1732Y-2.1693
X2.1732Y-2.69
X2.1732Y-2.7234
X2.1949Y-2.748
X2.2918Y-2.1836
X2.2933Y-2.2343
X2.3228Y-2.5039
X2.3346Y-2.1299
X2.3366Y-2.2067
X2.3602Y-2.7362
X2.3701Y-2.1732
X2.378Y-3.0787
X2.3819Y-2.1142
X2.3976Y-2.7232
X2.4134Y-2.5637
X2.4154Y-2.6346
X2.4291Y-2.7232
X2.435Y-2.4823
X2.438Y-2.3917
X2.4488Y-3.2165
X2.4705Y-3.1417
X2.4764Y-2.1417
X2.4803Y-2.0276
X2.4843Y-2.5637
X2.4849Y-2.6352
X2.4921Y-2.4567
X2.4961Y-3.1614
X2.5195Y-2.5246
X2.5197Y-2.7047
X2.5591Y-2.0276
X2.5591Y-2.1772
X2.56Y-3.2522
X2.5689Y-2.7756
X2.5689Y-2.9626
X2.5689Y-3.0217
X2.5854Y-2.6567
X2.5862Y-2.5645
X2.6024Y-2.2126
X2.6024Y-3.2717
X2.6201Y-2.7047
X2.6255Y-3.293
X2.628Y-2.7756
X2.628Y-2.9626
X2.628Y-3.0217
X2.6378Y-2.0276
X2.6428Y-2.4577
X2.6453Y-2.374
X2.6457Y-3.2323
X2.6535Y-2.6171
X2.6563Y-2.5058
X2.6575Y-3.2598
X2.6614Y-2.7047
X2.6622Y-2.4134
X2.663Y-2.478
X2.6693Y-2.2913
X2.687Y-2.4567
X2.6929Y-2.7008
X2.7008Y-2.2913
X2.7323Y-2.2913
X2.7343Y-2.163
X2.748Y-2.3213
X2.748Y-2.3866
X2.752Y-3.248
X2.752Y-3.2795
X2.7539Y-2.4606
X2.7626Y-2.4135
X2.7669Y-2.6035
X2.7721Y-2.298
X2.7944Y-2.6143
X2.7953Y-2.0315
X2.8012Y-2.2988
X2.8091Y-2.163
X2.8165Y-2.4445
X2.8173Y-2.413
X2.824Y-2.3846
X2.826Y-2.6038
X2.8301Y-2.3004
X2.843Y-2.1656
X2.8449Y-2.5094
X2.8543Y-2.3356
X2.8543Y-2.3691
X2.8583Y-2.2795
X2.8649Y-2.4727
X2.8709Y-2.4189
X2.872Y-2.1809
X2.874Y-2.0315
X2.8829Y-2.2106
X2.8917Y-2.249
X2.8937Y-2.5354
X2.9154Y-2.1496
X2.9252Y-2.6929
X2.9252Y-2.7185
X2.9291Y-2.1211
X2.9449Y-2.2559
X2.9577Y-2.1014
X2.9646Y-2.1969
X2.9724Y-2.2283
X2.9882Y-2.3031
X2.9921Y-2.3307
X3.0236Y-2.0472
X3.0311Y-2.4799
X3.0492Y-2.3012
X3.0551Y-2.3346
X3.0551Y-2.3661
X3.0551Y-2.563
X3.0571Y-2.4626
X3.1535Y-2.7205
X3.2175Y-2.1132
X3.2303Y-2.5922
X3.4078Y-2.1359
X3.5738Y-2.1152
X3.589Y-2.7138
X3.6654Y-2.4882
X3.685Y-2.5513
X3.685Y-2.6299
X3.8091Y-2.7116
T3
X2.0709Y-2.998
X2.0709Y-3.0768
X2.0709Y-3.1555
X2.0709Y-3.2343
X2.3622Y-2.063
X2.4409Y-2.063
X2.5197Y-2.063
X2.5984Y-2.063
X2.6772Y-2.063
X2.7559Y-2.063
X2.8346Y-2.063
X2.9134Y-2.063
T4
X3.1988Y-2.2835
X3.1988Y-3.0315
T5
X3.4055Y-2.6575
T2
G00X2.0553Y-2.0346
M15
G01X2.0317Y-2.0346
M16
G05
G00X2.0553Y-2.3748
M15
G01X2.0317Y-2.3748
M16
G05
G00X2.0553Y-2.5406
M15
G01X2.0317Y-2.5406
M16
G05
G00X2.0553Y-2.8807
M15
G01X2.0317Y-2.8807
M16
G05
G00X2.2297Y-2.0346
M15
G01X2.1864Y-2.0346
M16
G05
G00X2.2297Y-2.3748
M15
G01X2.1864Y-2.3748
M16
G05
G00X2.2297Y-2.5406
M15
G01X2.1864Y-2.5406
M16
G05
G00X2.2297Y-2.8807
M15
G01X2.1864Y-2.8807
M16
G05
T4
G00X3.8012Y-2.2835
M15
G01X3.8169Y-2.2835
M16
G05
G00X3.8012Y-3.0315
M15
G01X3.8169Y-3.0315
M16
G05
T0
M30
