G04 #@! TF.GenerationSoftware,KiCad,Pcbnew,6.0.2+dfsg-1*
G04 #@! TF.CreationDate,2022-08-31T22:25:43-07:00*
G04 #@! TF.ProjectId,OPS,4f50532e-6b69-4636-9164-5f7063625858,rev?*
G04 #@! TF.SameCoordinates,Original*
G04 #@! TF.FileFunction,Legend,Bot*
G04 #@! TF.FilePolarity,Positive*
%FSLAX46Y46*%
G04 Gerber Fmt 4.6, Leading zero omitted, Abs format (unit mm)*
G04 Created by KiCad (PCBNEW 6.0.2+dfsg-1) date 2022-08-31 22:25:43*
%MOMM*%
%LPD*%
G01*
G04 APERTURE LIST*
%ADD10C,0.120000*%
%ADD11C,0.150000*%
%ADD12C,0.100000*%
%ADD13C,0.200000*%
%ADD14C,0.127000*%
%ADD15C,0.988060*%
%ADD16C,0.985520*%
G04 APERTURE END LIST*
D10*
X53600000Y-75500000D02*
X53600000Y-78800000D01*
X93350000Y-77000000D02*
X91900000Y-77000000D01*
X53600000Y-79500000D02*
X53600000Y-82800000D01*
X91900000Y-77000000D02*
X91900000Y-58000000D01*
X93350000Y-72850000D02*
X93350000Y-77000000D01*
X93350000Y-58000000D02*
X93350000Y-62150000D01*
X95350000Y-62150000D02*
X95350000Y-72850000D01*
X93350000Y-62150000D02*
X95350000Y-62150000D01*
X95350000Y-72850000D02*
X93350000Y-72850000D01*
X92000000Y-58000000D02*
X93350000Y-58000000D01*
D11*
X54847619Y-78273809D02*
X53847619Y-77940476D01*
X54847619Y-77607142D01*
X53847619Y-77273809D02*
X54514285Y-77273809D01*
X54847619Y-77273809D02*
X54800000Y-77321428D01*
X54752380Y-77273809D01*
X54800000Y-77226190D01*
X54847619Y-77273809D01*
X54752380Y-77273809D01*
X54514285Y-76797619D02*
X53847619Y-76797619D01*
X54419047Y-76797619D02*
X54466666Y-76750000D01*
X54514285Y-76654761D01*
X54514285Y-76511904D01*
X54466666Y-76416666D01*
X54371428Y-76369047D01*
X53847619Y-76369047D01*
D12*
X73332142Y-53557142D02*
X73410714Y-53528571D01*
X73541666Y-53528571D01*
X73594047Y-53557142D01*
X73620238Y-53585714D01*
X73646428Y-53642857D01*
X73646428Y-53700000D01*
X73620238Y-53757142D01*
X73594047Y-53785714D01*
X73541666Y-53814285D01*
X73436904Y-53842857D01*
X73384523Y-53871428D01*
X73358333Y-53900000D01*
X73332142Y-53957142D01*
X73332142Y-54014285D01*
X73358333Y-54071428D01*
X73384523Y-54100000D01*
X73436904Y-54128571D01*
X73567857Y-54128571D01*
X73646428Y-54100000D01*
X73882142Y-53528571D02*
X73882142Y-54128571D01*
X74013095Y-54128571D01*
X74091666Y-54100000D01*
X74144047Y-54042857D01*
X74170238Y-53985714D01*
X74196428Y-53871428D01*
X74196428Y-53785714D01*
X74170238Y-53671428D01*
X74144047Y-53614285D01*
X74091666Y-53557142D01*
X74013095Y-53528571D01*
X73882142Y-53528571D01*
X74405952Y-53700000D02*
X74667857Y-53700000D01*
X74353571Y-53528571D02*
X74536904Y-54128571D01*
X74720238Y-53528571D01*
D11*
X53447619Y-70726190D02*
X54447619Y-70726190D01*
X54447619Y-70345238D01*
X54400000Y-70250000D01*
X54352380Y-70202380D01*
X54257142Y-70154761D01*
X54114285Y-70154761D01*
X54019047Y-70202380D01*
X53971428Y-70250000D01*
X53923809Y-70345238D01*
X53923809Y-70726190D01*
X53447619Y-69583333D02*
X53495238Y-69678571D01*
X53542857Y-69726190D01*
X53638095Y-69773809D01*
X53923809Y-69773809D01*
X54019047Y-69726190D01*
X54066666Y-69678571D01*
X54114285Y-69583333D01*
X54114285Y-69440476D01*
X54066666Y-69345238D01*
X54019047Y-69297619D01*
X53923809Y-69250000D01*
X53638095Y-69250000D01*
X53542857Y-69297619D01*
X53495238Y-69345238D01*
X53447619Y-69440476D01*
X53447619Y-69583333D01*
X54114285Y-68916666D02*
X53447619Y-68726190D01*
X53923809Y-68535714D01*
X53447619Y-68345238D01*
X54114285Y-68154761D01*
X53495238Y-67392857D02*
X53447619Y-67488095D01*
X53447619Y-67678571D01*
X53495238Y-67773809D01*
X53590476Y-67821428D01*
X53971428Y-67821428D01*
X54066666Y-67773809D01*
X54114285Y-67678571D01*
X54114285Y-67488095D01*
X54066666Y-67392857D01*
X53971428Y-67345238D01*
X53876190Y-67345238D01*
X53780952Y-67821428D01*
X53447619Y-66916666D02*
X54114285Y-66916666D01*
X53923809Y-66916666D02*
X54019047Y-66869047D01*
X54066666Y-66821428D01*
X54114285Y-66726190D01*
X54114285Y-66630952D01*
X53447619Y-57352380D02*
X54447619Y-57352380D01*
X54447619Y-57114285D01*
X54400000Y-56971428D01*
X54304761Y-56876190D01*
X54209523Y-56828571D01*
X54019047Y-56780952D01*
X53876190Y-56780952D01*
X53685714Y-56828571D01*
X53590476Y-56876190D01*
X53495238Y-56971428D01*
X53447619Y-57114285D01*
X53447619Y-57352380D01*
X53447619Y-55923809D02*
X53971428Y-55923809D01*
X54066666Y-55971428D01*
X54114285Y-56066666D01*
X54114285Y-56257142D01*
X54066666Y-56352380D01*
X53495238Y-55923809D02*
X53447619Y-56019047D01*
X53447619Y-56257142D01*
X53495238Y-56352380D01*
X53590476Y-56400000D01*
X53685714Y-56400000D01*
X53780952Y-56352380D01*
X53828571Y-56257142D01*
X53828571Y-56019047D01*
X53876190Y-55923809D01*
X54114285Y-55590476D02*
X54114285Y-55209523D01*
X54447619Y-55447619D02*
X53590476Y-55447619D01*
X53495238Y-55400000D01*
X53447619Y-55304761D01*
X53447619Y-55209523D01*
X53447619Y-54447619D02*
X53971428Y-54447619D01*
X54066666Y-54495238D01*
X54114285Y-54590476D01*
X54114285Y-54780952D01*
X54066666Y-54876190D01*
X53495238Y-54447619D02*
X53447619Y-54542857D01*
X53447619Y-54780952D01*
X53495238Y-54876190D01*
X53590476Y-54923809D01*
X53685714Y-54923809D01*
X53780952Y-54876190D01*
X53828571Y-54780952D01*
X53828571Y-54542857D01*
X53876190Y-54447619D01*
X92147380Y-58214285D02*
X93147380Y-58547619D01*
X92147380Y-58880952D01*
X93147380Y-59357142D02*
X93099761Y-59261904D01*
X93052142Y-59214285D01*
X92956904Y-59166666D01*
X92671190Y-59166666D01*
X92575952Y-59214285D01*
X92528333Y-59261904D01*
X92480714Y-59357142D01*
X92480714Y-59500000D01*
X92528333Y-59595238D01*
X92575952Y-59642857D01*
X92671190Y-59690476D01*
X92956904Y-59690476D01*
X93052142Y-59642857D01*
X93099761Y-59595238D01*
X93147380Y-59500000D01*
X93147380Y-59357142D01*
X92480714Y-60547619D02*
X93147380Y-60547619D01*
X92480714Y-60119047D02*
X93004523Y-60119047D01*
X93099761Y-60166666D01*
X93147380Y-60261904D01*
X93147380Y-60404761D01*
X93099761Y-60500000D01*
X93052142Y-60547619D01*
X92480714Y-60880952D02*
X92480714Y-61261904D01*
X92147380Y-61023809D02*
X93004523Y-61023809D01*
X93099761Y-61071428D01*
X93147380Y-61166666D01*
X93147380Y-61261904D01*
X92147380Y-62547619D02*
X92147380Y-62642857D01*
X92195000Y-62738095D01*
X92242619Y-62785714D01*
X92337857Y-62833333D01*
X92528333Y-62880952D01*
X92766428Y-62880952D01*
X92956904Y-62833333D01*
X93052142Y-62785714D01*
X93099761Y-62738095D01*
X93147380Y-62642857D01*
X93147380Y-62547619D01*
X93099761Y-62452380D01*
X93052142Y-62404761D01*
X92956904Y-62357142D01*
X92766428Y-62309523D01*
X92528333Y-62309523D01*
X92337857Y-62357142D01*
X92242619Y-62404761D01*
X92195000Y-62452380D01*
X92147380Y-62547619D01*
X92766428Y-63309523D02*
X92766428Y-64071428D01*
X92242619Y-64500000D02*
X92195000Y-64547619D01*
X92147380Y-64642857D01*
X92147380Y-64880952D01*
X92195000Y-64976190D01*
X92242619Y-65023809D01*
X92337857Y-65071428D01*
X92433095Y-65071428D01*
X92575952Y-65023809D01*
X93147380Y-64452380D01*
X93147380Y-65071428D01*
X92147380Y-65690476D02*
X92147380Y-65785714D01*
X92195000Y-65880952D01*
X92242619Y-65928571D01*
X92337857Y-65976190D01*
X92528333Y-66023809D01*
X92766428Y-66023809D01*
X92956904Y-65976190D01*
X93052142Y-65928571D01*
X93099761Y-65880952D01*
X93147380Y-65785714D01*
X93147380Y-65690476D01*
X93099761Y-65595238D01*
X93052142Y-65547619D01*
X92956904Y-65500000D01*
X92766428Y-65452380D01*
X92528333Y-65452380D01*
X92337857Y-65500000D01*
X92242619Y-65547619D01*
X92195000Y-65595238D01*
X92147380Y-65690476D01*
X93052142Y-66452380D02*
X93099761Y-66500000D01*
X93147380Y-66452380D01*
X93099761Y-66404761D01*
X93052142Y-66452380D01*
X93147380Y-66452380D01*
X92147380Y-67404761D02*
X92147380Y-66928571D01*
X92623571Y-66880952D01*
X92575952Y-66928571D01*
X92528333Y-67023809D01*
X92528333Y-67261904D01*
X92575952Y-67357142D01*
X92623571Y-67404761D01*
X92718809Y-67452380D01*
X92956904Y-67452380D01*
X93052142Y-67404761D01*
X93099761Y-67357142D01*
X93147380Y-67261904D01*
X93147380Y-67023809D01*
X93099761Y-66928571D01*
X93052142Y-66880952D01*
X92147380Y-67738095D02*
X93147380Y-68071428D01*
X92147380Y-68404761D01*
X93147380Y-69500000D02*
X92147380Y-69500000D01*
X93147380Y-70119047D02*
X93099761Y-70023809D01*
X93052142Y-69976190D01*
X92956904Y-69928571D01*
X92671190Y-69928571D01*
X92575952Y-69976190D01*
X92528333Y-70023809D01*
X92480714Y-70119047D01*
X92480714Y-70261904D01*
X92528333Y-70357142D01*
X92575952Y-70404761D01*
X92671190Y-70452380D01*
X92956904Y-70452380D01*
X93052142Y-70404761D01*
X93099761Y-70357142D01*
X93147380Y-70261904D01*
X93147380Y-70119047D01*
X92480714Y-71309523D02*
X93147380Y-71309523D01*
X92480714Y-70880952D02*
X93004523Y-70880952D01*
X93099761Y-70928571D01*
X93147380Y-71023809D01*
X93147380Y-71166666D01*
X93099761Y-71261904D01*
X93052142Y-71309523D01*
X92480714Y-71642857D02*
X92480714Y-72023809D01*
X92147380Y-71785714D02*
X93004523Y-71785714D01*
X93099761Y-71833333D01*
X93147380Y-71928571D01*
X93147380Y-72023809D01*
X92147380Y-73309523D02*
X92147380Y-73404761D01*
X92195000Y-73500000D01*
X92242619Y-73547619D01*
X92337857Y-73595238D01*
X92528333Y-73642857D01*
X92766428Y-73642857D01*
X92956904Y-73595238D01*
X93052142Y-73547619D01*
X93099761Y-73500000D01*
X93147380Y-73404761D01*
X93147380Y-73309523D01*
X93099761Y-73214285D01*
X93052142Y-73166666D01*
X92956904Y-73119047D01*
X92766428Y-73071428D01*
X92528333Y-73071428D01*
X92337857Y-73119047D01*
X92242619Y-73166666D01*
X92195000Y-73214285D01*
X92147380Y-73309523D01*
X92766428Y-74071428D02*
X92766428Y-74833333D01*
X92147380Y-75214285D02*
X92147380Y-75833333D01*
X92528333Y-75500000D01*
X92528333Y-75642857D01*
X92575952Y-75738095D01*
X92623571Y-75785714D01*
X92718809Y-75833333D01*
X92956904Y-75833333D01*
X93052142Y-75785714D01*
X93099761Y-75738095D01*
X93147380Y-75642857D01*
X93147380Y-75357142D01*
X93099761Y-75261904D01*
X93052142Y-75214285D01*
X92861666Y-76214285D02*
X92861666Y-76690476D01*
X93147380Y-76119047D02*
X92147380Y-76452380D01*
X93147380Y-76785714D01*
X94376428Y-62380952D02*
X94376428Y-63142857D01*
X94757380Y-62761904D02*
X93995476Y-62761904D01*
X94090714Y-64238095D02*
X94090714Y-64619047D01*
X93757380Y-64380952D02*
X94614523Y-64380952D01*
X94709761Y-64428571D01*
X94757380Y-64523809D01*
X94757380Y-64619047D01*
X94090714Y-64857142D02*
X94757380Y-65095238D01*
X94090714Y-65333333D02*
X94757380Y-65095238D01*
X94995476Y-65000000D01*
X95043095Y-64952380D01*
X95090714Y-64857142D01*
X94090714Y-65714285D02*
X95090714Y-65714285D01*
X94138333Y-65714285D02*
X94090714Y-65809523D01*
X94090714Y-66000000D01*
X94138333Y-66095238D01*
X94185952Y-66142857D01*
X94281190Y-66190476D01*
X94566904Y-66190476D01*
X94662142Y-66142857D01*
X94709761Y-66095238D01*
X94757380Y-66000000D01*
X94757380Y-65809523D01*
X94709761Y-65714285D01*
X94709761Y-67000000D02*
X94757380Y-66904761D01*
X94757380Y-66714285D01*
X94709761Y-66619047D01*
X94614523Y-66571428D01*
X94233571Y-66571428D01*
X94138333Y-66619047D01*
X94090714Y-66714285D01*
X94090714Y-66904761D01*
X94138333Y-67000000D01*
X94233571Y-67047619D01*
X94328809Y-67047619D01*
X94424047Y-66571428D01*
X94757380Y-67476190D02*
X93757380Y-67476190D01*
X94757380Y-68047619D02*
X94185952Y-67619047D01*
X93757380Y-68047619D02*
X94328809Y-67476190D01*
X94376428Y-68476190D02*
X94376428Y-69238095D01*
X94757380Y-69714285D02*
X93757380Y-69714285D01*
X94090714Y-70190476D02*
X94757380Y-70190476D01*
X94185952Y-70190476D02*
X94138333Y-70238095D01*
X94090714Y-70333333D01*
X94090714Y-70476190D01*
X94138333Y-70571428D01*
X94233571Y-70619047D01*
X94757380Y-70619047D01*
X94376428Y-71857142D02*
X94376428Y-72619047D01*
X54800000Y-81911904D02*
X54847619Y-82007142D01*
X54847619Y-82150000D01*
X54800000Y-82292857D01*
X54704761Y-82388095D01*
X54609523Y-82435714D01*
X54419047Y-82483333D01*
X54276190Y-82483333D01*
X54085714Y-82435714D01*
X53990476Y-82388095D01*
X53895238Y-82292857D01*
X53847619Y-82150000D01*
X53847619Y-82054761D01*
X53895238Y-81911904D01*
X53942857Y-81864285D01*
X54276190Y-81864285D01*
X54276190Y-82054761D01*
X53847619Y-81435714D02*
X54847619Y-81435714D01*
X53847619Y-80864285D01*
X54847619Y-80864285D01*
X53847619Y-80388095D02*
X54847619Y-80388095D01*
X54847619Y-80150000D01*
X54800000Y-80007142D01*
X54704761Y-79911904D01*
X54609523Y-79864285D01*
X54419047Y-79816666D01*
X54276190Y-79816666D01*
X54085714Y-79864285D01*
X53990476Y-79911904D01*
X53895238Y-80007142D01*
X53847619Y-80150000D01*
X53847619Y-80388095D01*
D12*
X59345238Y-53528571D02*
X59345238Y-54128571D01*
X59685714Y-53528571D02*
X59633333Y-53557142D01*
X59607142Y-53585714D01*
X59580952Y-53642857D01*
X59580952Y-53814285D01*
X59607142Y-53871428D01*
X59633333Y-53900000D01*
X59685714Y-53928571D01*
X59764285Y-53928571D01*
X59816666Y-53900000D01*
X59842857Y-53871428D01*
X59869047Y-53814285D01*
X59869047Y-53642857D01*
X59842857Y-53585714D01*
X59816666Y-53557142D01*
X59764285Y-53528571D01*
X59685714Y-53528571D01*
X60340476Y-53928571D02*
X60340476Y-53528571D01*
X60104761Y-53928571D02*
X60104761Y-53614285D01*
X60130952Y-53557142D01*
X60183333Y-53528571D01*
X60261904Y-53528571D01*
X60314285Y-53557142D01*
X60340476Y-53585714D01*
X60523809Y-53928571D02*
X60733333Y-53928571D01*
X60602380Y-54128571D02*
X60602380Y-53614285D01*
X60628571Y-53557142D01*
X60680952Y-53528571D01*
X60733333Y-53528571D01*
D11*
X79885714Y-53997619D02*
X79885714Y-54997619D01*
X80123809Y-54997619D01*
X80266666Y-54950000D01*
X80361904Y-54854761D01*
X80409523Y-54759523D01*
X80457142Y-54569047D01*
X80457142Y-54426190D01*
X80409523Y-54235714D01*
X80361904Y-54140476D01*
X80266666Y-54045238D01*
X80123809Y-53997619D01*
X79885714Y-53997619D01*
X81219047Y-54521428D02*
X80885714Y-54521428D01*
X80885714Y-53997619D02*
X80885714Y-54997619D01*
X81361904Y-54997619D01*
X81742857Y-54997619D02*
X81742857Y-54188095D01*
X81790476Y-54092857D01*
X81838095Y-54045238D01*
X81933333Y-53997619D01*
X82123809Y-53997619D01*
X82219047Y-54045238D01*
X82266666Y-54092857D01*
X82314285Y-54188095D01*
X82314285Y-54997619D01*
D12*
X61188095Y-54128571D02*
X61188095Y-53642857D01*
X61214285Y-53585714D01*
X61240476Y-53557142D01*
X61292857Y-53528571D01*
X61397619Y-53528571D01*
X61450000Y-53557142D01*
X61476190Y-53585714D01*
X61502380Y-53642857D01*
X61502380Y-54128571D01*
X61842857Y-53528571D02*
X61790476Y-53557142D01*
X61764285Y-53585714D01*
X61738095Y-53642857D01*
X61738095Y-53814285D01*
X61764285Y-53871428D01*
X61790476Y-53900000D01*
X61842857Y-53928571D01*
X61921428Y-53928571D01*
X61973809Y-53900000D01*
X62000000Y-53871428D01*
X62026190Y-53814285D01*
X62026190Y-53642857D01*
X62000000Y-53585714D01*
X61973809Y-53557142D01*
X61921428Y-53528571D01*
X61842857Y-53528571D01*
X62497619Y-53928571D02*
X62497619Y-53528571D01*
X62261904Y-53928571D02*
X62261904Y-53614285D01*
X62288095Y-53557142D01*
X62340476Y-53528571D01*
X62419047Y-53528571D01*
X62471428Y-53557142D01*
X62497619Y-53585714D01*
X62680952Y-53928571D02*
X62890476Y-53928571D01*
X62759523Y-54128571D02*
X62759523Y-53614285D01*
X62785714Y-53557142D01*
X62838095Y-53528571D01*
X62890476Y-53528571D01*
X69457142Y-53578571D02*
X69457142Y-54178571D01*
X69742857Y-53578571D02*
X69742857Y-54178571D01*
X70085714Y-53578571D01*
X70085714Y-54178571D01*
X70285714Y-54178571D02*
X70628571Y-54178571D01*
X70457142Y-53578571D02*
X70457142Y-54178571D01*
D11*
X58492738Y-68107619D02*
X59064166Y-68107619D01*
X58778452Y-67107619D02*
X58778452Y-68107619D01*
X59397500Y-67107619D02*
X59397500Y-68107619D01*
X59826071Y-67107619D02*
X59826071Y-67631428D01*
X59778452Y-67726666D01*
X59683214Y-67774285D01*
X59540357Y-67774285D01*
X59445119Y-67726666D01*
X59397500Y-67679047D01*
X60683214Y-67155238D02*
X60587976Y-67107619D01*
X60397500Y-67107619D01*
X60302261Y-67155238D01*
X60254642Y-67250476D01*
X60254642Y-67631428D01*
X60302261Y-67726666D01*
X60397500Y-67774285D01*
X60587976Y-67774285D01*
X60683214Y-67726666D01*
X60730833Y-67631428D01*
X60730833Y-67536190D01*
X60254642Y-67440952D01*
X62111785Y-68107619D02*
X62302261Y-68107619D01*
X62397500Y-68060000D01*
X62492738Y-67964761D01*
X62540357Y-67774285D01*
X62540357Y-67440952D01*
X62492738Y-67250476D01*
X62397500Y-67155238D01*
X62302261Y-67107619D01*
X62111785Y-67107619D01*
X62016547Y-67155238D01*
X61921309Y-67250476D01*
X61873690Y-67440952D01*
X61873690Y-67774285D01*
X61921309Y-67964761D01*
X62016547Y-68060000D01*
X62111785Y-68107619D01*
X62826071Y-67774285D02*
X63207023Y-67774285D01*
X62968928Y-68107619D02*
X62968928Y-67250476D01*
X63016547Y-67155238D01*
X63111785Y-67107619D01*
X63207023Y-67107619D01*
X63397499Y-67774285D02*
X63778452Y-67774285D01*
X63540357Y-68107619D02*
X63540357Y-67250476D01*
X63587976Y-67155238D01*
X63683214Y-67107619D01*
X63778452Y-67107619D01*
X64492738Y-67155238D02*
X64397499Y-67107619D01*
X64207023Y-67107619D01*
X64111785Y-67155238D01*
X64064166Y-67250476D01*
X64064166Y-67631428D01*
X64111785Y-67726666D01*
X64207023Y-67774285D01*
X64397499Y-67774285D01*
X64492738Y-67726666D01*
X64540357Y-67631428D01*
X64540357Y-67536190D01*
X64064166Y-67440952D01*
X64968928Y-67107619D02*
X64968928Y-67774285D01*
X64968928Y-67583809D02*
X65016547Y-67679047D01*
X65064166Y-67726666D01*
X65159404Y-67774285D01*
X65254642Y-67774285D01*
X66349880Y-67107619D02*
X66349880Y-68107619D01*
X66730833Y-68107619D01*
X66826071Y-68060000D01*
X66873690Y-68012380D01*
X66921309Y-67917142D01*
X66921309Y-67774285D01*
X66873690Y-67679047D01*
X66826071Y-67631428D01*
X66730833Y-67583809D01*
X66349880Y-67583809D01*
X67492738Y-67107619D02*
X67397500Y-67155238D01*
X67349880Y-67202857D01*
X67302261Y-67298095D01*
X67302261Y-67583809D01*
X67349880Y-67679047D01*
X67397500Y-67726666D01*
X67492738Y-67774285D01*
X67635595Y-67774285D01*
X67730833Y-67726666D01*
X67778452Y-67679047D01*
X67826071Y-67583809D01*
X67826071Y-67298095D01*
X67778452Y-67202857D01*
X67730833Y-67155238D01*
X67635595Y-67107619D01*
X67492738Y-67107619D01*
X68159404Y-67774285D02*
X68349880Y-67107619D01*
X68540357Y-67583809D01*
X68730833Y-67107619D01*
X68921309Y-67774285D01*
X69683214Y-67155238D02*
X69587976Y-67107619D01*
X69397500Y-67107619D01*
X69302261Y-67155238D01*
X69254642Y-67250476D01*
X69254642Y-67631428D01*
X69302261Y-67726666D01*
X69397500Y-67774285D01*
X69587976Y-67774285D01*
X69683214Y-67726666D01*
X69730833Y-67631428D01*
X69730833Y-67536190D01*
X69254642Y-67440952D01*
X70159404Y-67107619D02*
X70159404Y-67774285D01*
X70159404Y-67583809D02*
X70207023Y-67679047D01*
X70254642Y-67726666D01*
X70349880Y-67774285D01*
X70445119Y-67774285D01*
X71492738Y-67155238D02*
X71635595Y-67107619D01*
X71873690Y-67107619D01*
X71968928Y-67155238D01*
X72016547Y-67202857D01*
X72064166Y-67298095D01*
X72064166Y-67393333D01*
X72016547Y-67488571D01*
X71968928Y-67536190D01*
X71873690Y-67583809D01*
X71683214Y-67631428D01*
X71587976Y-67679047D01*
X71540357Y-67726666D01*
X71492738Y-67821904D01*
X71492738Y-67917142D01*
X71540357Y-68012380D01*
X71587976Y-68060000D01*
X71683214Y-68107619D01*
X71921309Y-68107619D01*
X72064166Y-68060000D01*
X72921309Y-67774285D02*
X72921309Y-67107619D01*
X72492738Y-67774285D02*
X72492738Y-67250476D01*
X72540357Y-67155238D01*
X72635595Y-67107619D01*
X72778452Y-67107619D01*
X72873690Y-67155238D01*
X72921309Y-67202857D01*
X73397500Y-67774285D02*
X73397500Y-66774285D01*
X73397500Y-67726666D02*
X73492738Y-67774285D01*
X73683214Y-67774285D01*
X73778452Y-67726666D01*
X73826071Y-67679047D01*
X73873690Y-67583809D01*
X73873690Y-67298095D01*
X73826071Y-67202857D01*
X73778452Y-67155238D01*
X73683214Y-67107619D01*
X73492738Y-67107619D01*
X73397500Y-67155238D01*
X74302261Y-67774285D02*
X74302261Y-66774285D01*
X74302261Y-67726666D02*
X74397500Y-67774285D01*
X74587976Y-67774285D01*
X74683214Y-67726666D01*
X74730833Y-67679047D01*
X74778452Y-67583809D01*
X74778452Y-67298095D01*
X74730833Y-67202857D01*
X74683214Y-67155238D01*
X74587976Y-67107619D01*
X74397500Y-67107619D01*
X74302261Y-67155238D01*
X75349880Y-67107619D02*
X75254642Y-67155238D01*
X75207023Y-67250476D01*
X75207023Y-68107619D01*
X75635595Y-67774285D02*
X75873690Y-67107619D01*
X76111785Y-67774285D02*
X75873690Y-67107619D01*
X75778452Y-66869523D01*
X75730833Y-66821904D01*
X75635595Y-66774285D01*
X59064166Y-66164285D02*
X59064166Y-65354761D01*
X59016547Y-65259523D01*
X58968928Y-65211904D01*
X58873690Y-65164285D01*
X58730833Y-65164285D01*
X58635595Y-65211904D01*
X59064166Y-65545238D02*
X58968928Y-65497619D01*
X58778452Y-65497619D01*
X58683214Y-65545238D01*
X58635595Y-65592857D01*
X58587976Y-65688095D01*
X58587976Y-65973809D01*
X58635595Y-66069047D01*
X58683214Y-66116666D01*
X58778452Y-66164285D01*
X58968928Y-66164285D01*
X59064166Y-66116666D01*
X59540357Y-65497619D02*
X59540357Y-66164285D01*
X59540357Y-66497619D02*
X59492738Y-66450000D01*
X59540357Y-66402380D01*
X59587976Y-66450000D01*
X59540357Y-66497619D01*
X59540357Y-66402380D01*
X59873690Y-66164285D02*
X60254642Y-66164285D01*
X60016547Y-66497619D02*
X60016547Y-65640476D01*
X60064166Y-65545238D01*
X60159404Y-65497619D01*
X60254642Y-65497619D01*
X60587976Y-65497619D02*
X60587976Y-66497619D01*
X61016547Y-65497619D02*
X61016547Y-66021428D01*
X60968928Y-66116666D01*
X60873690Y-66164285D01*
X60730833Y-66164285D01*
X60635595Y-66116666D01*
X60587976Y-66069047D01*
X61921309Y-66164285D02*
X61921309Y-65497619D01*
X61492738Y-66164285D02*
X61492738Y-65640476D01*
X61540357Y-65545238D01*
X61635595Y-65497619D01*
X61778452Y-65497619D01*
X61873690Y-65545238D01*
X61921309Y-65592857D01*
X62397499Y-65497619D02*
X62397499Y-66497619D01*
X62397499Y-66116666D02*
X62492738Y-66164285D01*
X62683214Y-66164285D01*
X62778452Y-66116666D01*
X62826071Y-66069047D01*
X62873690Y-65973809D01*
X62873690Y-65688095D01*
X62826071Y-65592857D01*
X62778452Y-65545238D01*
X62683214Y-65497619D01*
X62492738Y-65497619D01*
X62397499Y-65545238D01*
X63302261Y-65592857D02*
X63349880Y-65545238D01*
X63302261Y-65497619D01*
X63254642Y-65545238D01*
X63302261Y-65592857D01*
X63302261Y-65497619D01*
X64207023Y-65545238D02*
X64111785Y-65497619D01*
X63921309Y-65497619D01*
X63826071Y-65545238D01*
X63778452Y-65592857D01*
X63730833Y-65688095D01*
X63730833Y-65973809D01*
X63778452Y-66069047D01*
X63826071Y-66116666D01*
X63921309Y-66164285D01*
X64111785Y-66164285D01*
X64207023Y-66116666D01*
X64778452Y-65497619D02*
X64683214Y-65545238D01*
X64635595Y-65592857D01*
X64587976Y-65688095D01*
X64587976Y-65973809D01*
X64635595Y-66069047D01*
X64683214Y-66116666D01*
X64778452Y-66164285D01*
X64921309Y-66164285D01*
X65016547Y-66116666D01*
X65064166Y-66069047D01*
X65111785Y-65973809D01*
X65111785Y-65688095D01*
X65064166Y-65592857D01*
X65016547Y-65545238D01*
X64921309Y-65497619D01*
X64778452Y-65497619D01*
X65540357Y-65497619D02*
X65540357Y-66164285D01*
X65540357Y-66069047D02*
X65587976Y-66116666D01*
X65683214Y-66164285D01*
X65826071Y-66164285D01*
X65921309Y-66116666D01*
X65968928Y-66021428D01*
X65968928Y-65497619D01*
X65968928Y-66021428D02*
X66016547Y-66116666D01*
X66111785Y-66164285D01*
X66254642Y-66164285D01*
X66349880Y-66116666D01*
X66397499Y-66021428D01*
X66397499Y-65497619D01*
X67587976Y-66545238D02*
X66730833Y-65259523D01*
X68207023Y-66497619D02*
X68207023Y-65783333D01*
X68159404Y-65640476D01*
X68064166Y-65545238D01*
X67921309Y-65497619D01*
X67826071Y-65497619D01*
X69111785Y-65497619D02*
X69111785Y-66021428D01*
X69064166Y-66116666D01*
X68968928Y-66164285D01*
X68778452Y-66164285D01*
X68683214Y-66116666D01*
X69111785Y-65545238D02*
X69016547Y-65497619D01*
X68778452Y-65497619D01*
X68683214Y-65545238D01*
X68635595Y-65640476D01*
X68635595Y-65735714D01*
X68683214Y-65830952D01*
X68778452Y-65878571D01*
X69016547Y-65878571D01*
X69111785Y-65926190D01*
X69587976Y-66164285D02*
X69587976Y-65497619D01*
X69587976Y-66069047D02*
X69635595Y-66116666D01*
X69730833Y-66164285D01*
X69873690Y-66164285D01*
X69968928Y-66116666D01*
X70016547Y-66021428D01*
X70016547Y-65497619D01*
X70921309Y-65497619D02*
X70921309Y-66021428D01*
X70873690Y-66116666D01*
X70778452Y-66164285D01*
X70587976Y-66164285D01*
X70492738Y-66116666D01*
X70921309Y-65545238D02*
X70826071Y-65497619D01*
X70587976Y-65497619D01*
X70492738Y-65545238D01*
X70445119Y-65640476D01*
X70445119Y-65735714D01*
X70492738Y-65830952D01*
X70587976Y-65878571D01*
X70826071Y-65878571D01*
X70921309Y-65926190D01*
X71397500Y-65878571D02*
X72159404Y-65878571D01*
X72635595Y-65497619D02*
X72635595Y-66497619D01*
X72968928Y-65783333D01*
X73302261Y-66497619D01*
X73302261Y-65497619D01*
X74207023Y-65497619D02*
X74207023Y-66021428D01*
X74159404Y-66116666D01*
X74064166Y-66164285D01*
X73873690Y-66164285D01*
X73778452Y-66116666D01*
X74207023Y-65545238D02*
X74111785Y-65497619D01*
X73873690Y-65497619D01*
X73778452Y-65545238D01*
X73730833Y-65640476D01*
X73730833Y-65735714D01*
X73778452Y-65830952D01*
X73873690Y-65878571D01*
X74111785Y-65878571D01*
X74207023Y-65926190D01*
X74683214Y-65497619D02*
X74683214Y-66164285D01*
X74683214Y-65973809D02*
X74730833Y-66069047D01*
X74778452Y-66116666D01*
X74873690Y-66164285D01*
X74968928Y-66164285D01*
X75302261Y-65497619D02*
X75302261Y-66164285D01*
X75302261Y-66497619D02*
X75254642Y-66450000D01*
X75302261Y-66402380D01*
X75349880Y-66450000D01*
X75302261Y-66497619D01*
X75302261Y-66402380D01*
X76159404Y-65545238D02*
X76064166Y-65497619D01*
X75873690Y-65497619D01*
X75778452Y-65545238D01*
X75730833Y-65640476D01*
X75730833Y-66021428D01*
X75778452Y-66116666D01*
X75873690Y-66164285D01*
X76064166Y-66164285D01*
X76159404Y-66116666D01*
X76207023Y-66021428D01*
X76207023Y-65926190D01*
X75730833Y-65830952D01*
X77349880Y-66545238D02*
X76492738Y-65259523D01*
X77873690Y-66497619D02*
X78064166Y-66497619D01*
X78159404Y-66450000D01*
X78254642Y-66354761D01*
X78302261Y-66164285D01*
X78302261Y-65830952D01*
X78254642Y-65640476D01*
X78159404Y-65545238D01*
X78064166Y-65497619D01*
X77873690Y-65497619D01*
X77778452Y-65545238D01*
X77683214Y-65640476D01*
X77635595Y-65830952D01*
X77635595Y-66164285D01*
X77683214Y-66354761D01*
X77778452Y-66450000D01*
X77873690Y-66497619D01*
X78730833Y-65497619D02*
X78730833Y-66497619D01*
X79111785Y-66497619D01*
X79207023Y-66450000D01*
X79254642Y-66402380D01*
X79302261Y-66307142D01*
X79302261Y-66164285D01*
X79254642Y-66069047D01*
X79207023Y-66021428D01*
X79111785Y-65973809D01*
X78730833Y-65973809D01*
X79683214Y-65545238D02*
X79826071Y-65497619D01*
X80064166Y-65497619D01*
X80159404Y-65545238D01*
X80207023Y-65592857D01*
X80254642Y-65688095D01*
X80254642Y-65783333D01*
X80207023Y-65878571D01*
X80159404Y-65926190D01*
X80064166Y-65973809D01*
X79873690Y-66021428D01*
X79778452Y-66069047D01*
X79730833Y-66116666D01*
X79683214Y-66211904D01*
X79683214Y-66307142D01*
X79730833Y-66402380D01*
X79778452Y-66450000D01*
X79873690Y-66497619D01*
X80111785Y-66497619D01*
X80254642Y-66450000D01*
X59254642Y-64363809D02*
X59207023Y-64411428D01*
X59111785Y-64459047D01*
X59016547Y-64459047D01*
X58921309Y-64411428D01*
X58873690Y-64363809D01*
X58826071Y-64268571D01*
X58826071Y-64173333D01*
X58873690Y-64078095D01*
X58921309Y-64030476D01*
X59016547Y-63982857D01*
X59111785Y-63982857D01*
X59207023Y-64030476D01*
X59254642Y-64078095D01*
X59254642Y-64459047D02*
X59254642Y-64078095D01*
X59302261Y-64030476D01*
X59349880Y-64030476D01*
X59445119Y-64078095D01*
X59492738Y-64173333D01*
X59492738Y-64411428D01*
X59397500Y-64554285D01*
X59254642Y-64649523D01*
X59064166Y-64697142D01*
X58873690Y-64649523D01*
X58730833Y-64554285D01*
X58635595Y-64411428D01*
X58587976Y-64220952D01*
X58635595Y-64030476D01*
X58730833Y-63887619D01*
X58873690Y-63792380D01*
X59064166Y-63744761D01*
X59254642Y-63792380D01*
X59397500Y-63887619D01*
X59683214Y-63792380D02*
X60445119Y-63792380D01*
X60968928Y-64887619D02*
X60968928Y-64173333D01*
X60921309Y-64030476D01*
X60826071Y-63935238D01*
X60683214Y-63887619D01*
X60587976Y-63887619D01*
X61873690Y-63887619D02*
X61873690Y-64411428D01*
X61826071Y-64506666D01*
X61730833Y-64554285D01*
X61540357Y-64554285D01*
X61445119Y-64506666D01*
X61873690Y-63935238D02*
X61778452Y-63887619D01*
X61540357Y-63887619D01*
X61445119Y-63935238D01*
X61397500Y-64030476D01*
X61397500Y-64125714D01*
X61445119Y-64220952D01*
X61540357Y-64268571D01*
X61778452Y-64268571D01*
X61873690Y-64316190D01*
X62349880Y-64554285D02*
X62349880Y-63887619D01*
X62349880Y-64459047D02*
X62397500Y-64506666D01*
X62492738Y-64554285D01*
X62635595Y-64554285D01*
X62730833Y-64506666D01*
X62778452Y-64411428D01*
X62778452Y-63887619D01*
X63683214Y-63887619D02*
X63683214Y-64411428D01*
X63635595Y-64506666D01*
X63540357Y-64554285D01*
X63349880Y-64554285D01*
X63254642Y-64506666D01*
X63683214Y-63935238D02*
X63587976Y-63887619D01*
X63349880Y-63887619D01*
X63254642Y-63935238D01*
X63207023Y-64030476D01*
X63207023Y-64125714D01*
X63254642Y-64220952D01*
X63349880Y-64268571D01*
X63587976Y-64268571D01*
X63683214Y-64316190D01*
X63921309Y-63792380D02*
X64683214Y-63792380D01*
X64921309Y-63887619D02*
X64921309Y-64887619D01*
X65254642Y-64173333D01*
X65587976Y-64887619D01*
X65587976Y-63887619D01*
X66492738Y-63887619D02*
X66492738Y-64411428D01*
X66445119Y-64506666D01*
X66349880Y-64554285D01*
X66159404Y-64554285D01*
X66064166Y-64506666D01*
X66492738Y-63935238D02*
X66397500Y-63887619D01*
X66159404Y-63887619D01*
X66064166Y-63935238D01*
X66016547Y-64030476D01*
X66016547Y-64125714D01*
X66064166Y-64220952D01*
X66159404Y-64268571D01*
X66397500Y-64268571D01*
X66492738Y-64316190D01*
X66968928Y-63887619D02*
X66968928Y-64554285D01*
X66968928Y-64363809D02*
X67016547Y-64459047D01*
X67064166Y-64506666D01*
X67159404Y-64554285D01*
X67254642Y-64554285D01*
X67587976Y-63887619D02*
X67587976Y-64554285D01*
X67587976Y-64887619D02*
X67540357Y-64840000D01*
X67587976Y-64792380D01*
X67635595Y-64840000D01*
X67587976Y-64887619D01*
X67587976Y-64792380D01*
X68445119Y-63935238D02*
X68349880Y-63887619D01*
X68159404Y-63887619D01*
X68064166Y-63935238D01*
X68016547Y-64030476D01*
X68016547Y-64411428D01*
X68064166Y-64506666D01*
X68159404Y-64554285D01*
X68349880Y-64554285D01*
X68445119Y-64506666D01*
X68492738Y-64411428D01*
X68492738Y-64316190D01*
X68016547Y-64220952D01*
X69635595Y-64792380D02*
X69683214Y-64840000D01*
X69778452Y-64887619D01*
X70016547Y-64887619D01*
X70111785Y-64840000D01*
X70159404Y-64792380D01*
X70207023Y-64697142D01*
X70207023Y-64601904D01*
X70159404Y-64459047D01*
X69587976Y-63887619D01*
X70207023Y-63887619D01*
X70826071Y-64887619D02*
X70921309Y-64887619D01*
X71016547Y-64840000D01*
X71064166Y-64792380D01*
X71111785Y-64697142D01*
X71159404Y-64506666D01*
X71159404Y-64268571D01*
X71111785Y-64078095D01*
X71064166Y-63982857D01*
X71016547Y-63935238D01*
X70921309Y-63887619D01*
X70826071Y-63887619D01*
X70730833Y-63935238D01*
X70683214Y-63982857D01*
X70635595Y-64078095D01*
X70587976Y-64268571D01*
X70587976Y-64506666D01*
X70635595Y-64697142D01*
X70683214Y-64792380D01*
X70730833Y-64840000D01*
X70826071Y-64887619D01*
X71540357Y-64792380D02*
X71587976Y-64840000D01*
X71683214Y-64887619D01*
X71921309Y-64887619D01*
X72016547Y-64840000D01*
X72064166Y-64792380D01*
X72111785Y-64697142D01*
X72111785Y-64601904D01*
X72064166Y-64459047D01*
X71492738Y-63887619D01*
X72111785Y-63887619D01*
X72492738Y-64792380D02*
X72540357Y-64840000D01*
X72635595Y-64887619D01*
X72873690Y-64887619D01*
X72968928Y-64840000D01*
X73016547Y-64792380D01*
X73064166Y-64697142D01*
X73064166Y-64601904D01*
X73016547Y-64459047D01*
X72445119Y-63887619D01*
X73064166Y-63887619D01*
X74159404Y-64554285D02*
X74397500Y-63887619D01*
X74635595Y-64554285D01*
X75540357Y-63887619D02*
X74968928Y-63887619D01*
X75254642Y-63887619D02*
X75254642Y-64887619D01*
X75159404Y-64744761D01*
X75064166Y-64649523D01*
X74968928Y-64601904D01*
X75968928Y-63982857D02*
X76016547Y-63935238D01*
X75968928Y-63887619D01*
X75921309Y-63935238D01*
X75968928Y-63982857D01*
X75968928Y-63887619D01*
X76968928Y-63887619D02*
X76397500Y-63887619D01*
X76683214Y-63887619D02*
X76683214Y-64887619D01*
X76587976Y-64744761D01*
X76492738Y-64649523D01*
X76397500Y-64601904D01*
D12*
X67557142Y-53892857D02*
X67757142Y-53892857D01*
X67842857Y-53578571D02*
X67557142Y-53578571D01*
X67557142Y-54178571D01*
X67842857Y-54178571D01*
X68100000Y-53578571D02*
X68100000Y-54178571D01*
X68442857Y-53578571D01*
X68442857Y-54178571D01*
D11*
X97707142Y-74071428D02*
X97707142Y-72547619D01*
X97707142Y-62452380D02*
X97707142Y-60928571D01*
X96945238Y-61690476D02*
X98469047Y-61690476D01*
D12*
X65257142Y-54128571D02*
X65628571Y-54128571D01*
X65428571Y-53900000D01*
X65514285Y-53900000D01*
X65571428Y-53871428D01*
X65600000Y-53842857D01*
X65628571Y-53785714D01*
X65628571Y-53642857D01*
X65600000Y-53585714D01*
X65571428Y-53557142D01*
X65514285Y-53528571D01*
X65342857Y-53528571D01*
X65285714Y-53557142D01*
X65257142Y-53585714D01*
X65800000Y-54128571D02*
X66000000Y-53528571D01*
X66200000Y-54128571D01*
X66342857Y-54128571D02*
X66714285Y-54128571D01*
X66514285Y-53900000D01*
X66600000Y-53900000D01*
X66657142Y-53871428D01*
X66685714Y-53842857D01*
X66714285Y-53785714D01*
X66714285Y-53642857D01*
X66685714Y-53585714D01*
X66657142Y-53557142D01*
X66600000Y-53528571D01*
X66428571Y-53528571D01*
X66371428Y-53557142D01*
X66342857Y-53585714D01*
D13*
X59414285Y-73440476D02*
X60176190Y-73440476D01*
X60557142Y-73250000D01*
X60938095Y-72869047D01*
X61128571Y-72107142D01*
X61128571Y-70773809D01*
X60938095Y-70011904D01*
X60557142Y-69630952D01*
X60176190Y-69440476D01*
X59414285Y-69440476D01*
X59033333Y-69630952D01*
X58652380Y-70011904D01*
X58461904Y-70773809D01*
X58461904Y-72107142D01*
X58652380Y-72869047D01*
X59033333Y-73250000D01*
X59414285Y-73440476D01*
X62842857Y-69440476D02*
X62842857Y-73440476D01*
X64366666Y-73440476D01*
X64747619Y-73250000D01*
X64938095Y-73059523D01*
X65128571Y-72678571D01*
X65128571Y-72107142D01*
X64938095Y-71726190D01*
X64747619Y-71535714D01*
X64366666Y-71345238D01*
X62842857Y-71345238D01*
X66652380Y-69630952D02*
X67223809Y-69440476D01*
X68176190Y-69440476D01*
X68557142Y-69630952D01*
X68747619Y-69821428D01*
X68938095Y-70202380D01*
X68938095Y-70583333D01*
X68747619Y-70964285D01*
X68557142Y-71154761D01*
X68176190Y-71345238D01*
X67414285Y-71535714D01*
X67033333Y-71726190D01*
X66842857Y-71916666D01*
X66652380Y-72297619D01*
X66652380Y-72678571D01*
X66842857Y-73059523D01*
X67033333Y-73250000D01*
X67414285Y-73440476D01*
X68366666Y-73440476D01*
X68938095Y-73250000D01*
D12*
X71345238Y-53557142D02*
X71423809Y-53528571D01*
X71554761Y-53528571D01*
X71607142Y-53557142D01*
X71633333Y-53585714D01*
X71659523Y-53642857D01*
X71659523Y-53700000D01*
X71633333Y-53757142D01*
X71607142Y-53785714D01*
X71554761Y-53814285D01*
X71450000Y-53842857D01*
X71397619Y-53871428D01*
X71371428Y-53900000D01*
X71345238Y-53957142D01*
X71345238Y-54014285D01*
X71371428Y-54071428D01*
X71397619Y-54100000D01*
X71450000Y-54128571D01*
X71580952Y-54128571D01*
X71659523Y-54100000D01*
X72209523Y-53585714D02*
X72183333Y-53557142D01*
X72104761Y-53528571D01*
X72052380Y-53528571D01*
X71973809Y-53557142D01*
X71921428Y-53614285D01*
X71895238Y-53671428D01*
X71869047Y-53785714D01*
X71869047Y-53871428D01*
X71895238Y-53985714D01*
X71921428Y-54042857D01*
X71973809Y-54100000D01*
X72052380Y-54128571D01*
X72104761Y-54128571D01*
X72183333Y-54100000D01*
X72209523Y-54071428D01*
X72707142Y-53528571D02*
X72445238Y-53528571D01*
X72445238Y-54128571D01*
X63148809Y-54128571D02*
X63463095Y-54128571D01*
X63305952Y-53528571D02*
X63305952Y-54128571D01*
X63620238Y-53557142D02*
X63672619Y-53528571D01*
X63777380Y-53528571D01*
X63829761Y-53557142D01*
X63855952Y-53614285D01*
X63855952Y-53642857D01*
X63829761Y-53700000D01*
X63777380Y-53728571D01*
X63698809Y-53728571D01*
X63646428Y-53757142D01*
X63620238Y-53814285D01*
X63620238Y-53842857D01*
X63646428Y-53900000D01*
X63698809Y-53928571D01*
X63777380Y-53928571D01*
X63829761Y-53900000D01*
X64091666Y-53928571D02*
X64091666Y-53528571D01*
X64091666Y-53871428D02*
X64117857Y-53900000D01*
X64170238Y-53928571D01*
X64248809Y-53928571D01*
X64301190Y-53900000D01*
X64327380Y-53842857D01*
X64327380Y-53528571D01*
X64563095Y-53557142D02*
X64615476Y-53528571D01*
X64720238Y-53528571D01*
X64772619Y-53557142D01*
X64798809Y-53614285D01*
X64798809Y-53642857D01*
X64772619Y-53700000D01*
X64720238Y-53728571D01*
X64641666Y-53728571D01*
X64589285Y-53757142D01*
X64563095Y-53814285D01*
X64563095Y-53842857D01*
X64589285Y-53900000D01*
X64641666Y-53928571D01*
X64720238Y-53928571D01*
X64772619Y-53900000D01*
D14*
X74895000Y-51496500D02*
X74895000Y-56182800D01*
X77752500Y-50544000D02*
X75847500Y-50544000D01*
X78705000Y-51496500D02*
X78705000Y-56182800D01*
X77523900Y-57363900D02*
X78705000Y-56182800D01*
X76076100Y-57363900D02*
X74895000Y-56182800D01*
X76076100Y-57363900D02*
G75*
G03*
X77523900Y-57363900I723900J723901D01*
G01*
X75847500Y-50544000D02*
G75*
G03*
X74895000Y-51496500I1J-952501D01*
G01*
X78705000Y-51496500D02*
G75*
G03*
X77752500Y-50544000I-952501J-1D01*
G01*
D10*
X79325000Y-53700000D02*
X82825000Y-53700000D01*
X82825000Y-50600000D02*
X79325000Y-50600000D01*
X82025000Y-50600000D02*
X82025000Y-49950000D01*
X82025000Y-49950000D02*
X80125000Y-49950000D01*
X80125000Y-49950000D02*
X80125000Y-50600000D01*
D15*
X76800000Y-56640000D03*
D16*
X77816000Y-51560000D03*
X75784000Y-51560000D03*
M02*
