M48
; DRILL file {KiCad 5.1.5+dfsg1-2build2} date Thu 30 Dec 2021 02:49:36 AM CET
; FORMAT={-:-/ absolute / metric / decimal}
; #@! TF.CreationDate,2021-12-30T02:49:36+01:00
; #@! TF.GenerationSoftware,Kicad,Pcbnew,5.1.5+dfsg1-2build2
; #@! TF.FileFunction,Plated,1,2,PTH
FMAT,2
METRIC
T1C0.400
T2C0.600
T3C0.800
T4C1.400
T5C3.200
%
G90
G05
T1
X53.0Y-59.3
X53.0Y-61.5
X53.0Y-63.9
X53.0Y-65.55
X53.4Y-56.8
X54.6Y-59.3
X54.6Y-61.5
X54.6Y-63.9
X54.6Y-65.55
X54.7Y-58.4
X55.15Y-56.075
X55.15Y-56.925
X55.2Y-55.1
X55.2Y-68.325
X55.2Y-69.175
X55.75Y-69.8
X55.95Y-82.25
X56.05Y-79.75
X58.2Y-63.2
X58.212Y-55.462
X58.25Y-56.75
X58.55Y-79.75
X58.65Y-82.25
X58.95Y-71.5
X59.05Y-68.45
X59.2Y-66.65
X59.4Y-54.3
X59.4Y-56.2
X59.7Y-81.6
X60.25Y-55.25
X60.4Y-71.1
X60.4Y-78.2
X60.5Y-53.7
X60.5Y-56.8
X60.5Y-81.6
X60.52Y-66.292
X60.7Y-64.55
X61.0Y-71.8
X61.4Y-67.75
X61.4Y-81.6
X61.45Y-69.55
X61.8Y-71.8
X61.8Y-82.5
X61.9Y-65.457
X62.0Y-59.0
X62.0Y-60.0
X62.2Y-81.7
X62.5Y-61.5
X62.5Y-62.5
X62.65Y-79.75
X62.7Y-73.6
X62.9Y-54.4
X62.9Y-56.7
X63.0Y-51.5
X63.0Y-59.0
X63.0Y-60.0
X63.2Y-67.75
X63.402Y-64.116
X63.75Y-80.5
X63.9Y-64.7
X63.9Y-66.0
X64.575Y-66.827
X64.6Y-57.8
X64.6Y-60.8
X65.0Y-51.5
X65.0Y-55.3
X65.025Y-82.605
X65.197Y-65.41
X65.25Y-68.79
X65.3Y-70.7
X65.934Y-68.439
X66.1Y-56.2
X66.1Y-83.1
X66.475Y-65.507
X66.688Y-83.641
X67.0Y-51.5
X67.0Y-68.61
X67.126Y-62.426
X67.19Y-60.3
X67.2Y-82.1
X67.4Y-66.475
X67.471Y-63.647
X67.5Y-82.8
X67.62Y-61.3
X67.64Y-62.94
X67.8Y-58.2
X67.802Y-68.535
X68.25Y-62.4
X68.6Y-58.2
X68.8Y-70.7
X69.2Y-72.2
X69.2Y-74.2
X69.4Y-58.2
X69.45Y-54.94
X69.8Y-58.96
X69.8Y-60.62
X69.9Y-82.5
X69.9Y-83.3
X69.95Y-62.5
X70.0Y-81.6
X70.171Y-61.303
X70.28Y-66.13
X70.3Y-69.11
X70.412Y-58.369
X70.8Y-81.6
X70.977Y-66.402
X71.0Y-51.6
X71.15Y-58.39
X71.2Y-72.2
X71.351Y-54.939
X71.54Y-62.09
X71.56Y-61.29
X71.6Y-81.6
X71.7Y-66.329
X71.72Y-69.12
X71.73Y-60.57
X71.8Y-70.7
X71.885Y-58.429
X72.211Y-55.005
X72.26Y-63.74
X72.4Y-81.6
X72.5Y-59.325
X72.5Y-60.175
X72.6Y-57.9
X72.767Y-62.808
X72.921Y-61.441
X72.949Y-55.395
X73.0Y-51.6
X73.15Y-78.45
X73.15Y-80.6
X73.225Y-56.15
X73.45Y-57.125
X73.5Y-64.4
X74.05Y-54.6
X74.3Y-68.4
X74.3Y-69.5
X74.4Y-53.875
X74.8Y-57.3
X75.125Y-53.375
X75.3Y-55.8
X75.75Y-78.45
X75.75Y-80.65
X75.85Y-56.6
X75.9Y-58.5
X75.9Y-70.1
X76.0Y-59.2
X76.5Y-73.5
X76.8Y-52.0
X76.99Y-62.99
X77.0Y-69.0
X77.0Y-71.6
X77.4Y-58.225
X77.5Y-74.2
X77.6Y-59.0
X77.6Y-60.1
X77.6Y-65.1
X77.65Y-62.55
X77.67Y-66.51
X77.8Y-56.875
X80.475Y-66.95
X81.725Y-53.675
X82.049Y-65.841
X86.558Y-54.252
X90.775Y-53.725
X91.16Y-68.93
X93.1Y-63.2
X93.6Y-64.802
X93.6Y-66.8
X96.75Y-68.875
T3
X52.6Y-76.15
X52.6Y-78.15
X52.6Y-80.15
X52.6Y-82.15
X60.0Y-52.4
X62.0Y-52.4
X64.0Y-52.4
X66.0Y-52.4
X68.0Y-52.4
X70.0Y-52.4
X72.0Y-52.4
X74.0Y-52.4
T4
X81.25Y-77.0
X81.25Y-58.0
T5
X86.5Y-67.5
T2
X52.205Y-64.53G85X51.605Y-64.53
G05
X52.205Y-73.17G85X51.605Y-73.17
G05
X56.635Y-64.53G85X55.535Y-64.53
G05
X56.635Y-73.17G85X55.535Y-73.17
G05
X52.205Y-51.68G85X51.605Y-51.68
G05
X52.205Y-60.32G85X51.605Y-60.32
G05
X56.635Y-51.68G85X55.535Y-51.68
G05
X56.635Y-60.32G85X55.535Y-60.32
G05
T4
X96.45Y-77.0G85X97.05Y-77.0
G05
X96.45Y-58.0G85X97.05Y-58.0
G05
T0
M30
