G04 #@! TF.GenerationSoftware,KiCad,Pcbnew,5.1.5+dfsg1-2build2*
G04 #@! TF.CreationDate,2021-12-30T02:49:34+01:00*
G04 #@! TF.ProjectId,OPS,4f50532e-6b69-4636-9164-5f7063625858,rev?*
G04 #@! TF.SameCoordinates,Original*
G04 #@! TF.FileFunction,Soldermask,Top*
G04 #@! TF.FilePolarity,Negative*
%FSLAX46Y46*%
G04 Gerber Fmt 4.6, Leading zero omitted, Abs format (unit mm)*
G04 Created by KiCad (PCBNEW 5.1.5+dfsg1-2build2) date 2021-12-30 02:49:34*
%MOMM*%
%LPD*%
G04 APERTURE LIST*
%ADD10C,3.500000*%
%ADD11O,1.350000X1.350000*%
%ADD12R,1.350000X1.350000*%
%ADD13R,1.300000X0.700000*%
%ADD14C,0.100000*%
%ADD15R,0.600000X0.500000*%
%ADD16R,0.500000X0.600000*%
%ADD17C,6.400000*%
%ADD18R,1.060000X0.650000*%
%ADD19R,0.900000X0.800000*%
%ADD20R,1.500000X4.200000*%
%ADD21R,0.250000X0.700000*%
%ADD22R,0.250000X1.200000*%
%ADD23R,0.700000X0.250000*%
%ADD24R,0.800000X0.250000*%
%ADD25R,2.200000X1.840000*%
%ADD26R,1.000000X1.500000*%
%ADD27R,1.000000X1.800000*%
%ADD28C,0.700000*%
%ADD29C,0.985520*%
%ADD30C,0.988060*%
%ADD31R,1.450000X0.600000*%
%ADD32O,2.100000X1.000000*%
%ADD33O,1.600000X1.000000*%
%ADD34C,0.650000*%
%ADD35R,1.450000X0.300000*%
%ADD36R,0.430000X1.080000*%
%ADD37R,1.410000X0.600000*%
%ADD38R,1.200000X0.900000*%
%ADD39R,0.600000X0.900000*%
G04 APERTURE END LIST*
D10*
X96750000Y-77000000D03*
X81250000Y-77000000D03*
X96750000Y-58000000D03*
X81250000Y-58000000D03*
D11*
X74000000Y-52400000D03*
X72000000Y-52400000D03*
X70000000Y-52400000D03*
X68000000Y-52400000D03*
X66000000Y-52400000D03*
X64000000Y-52400000D03*
X62000000Y-52400000D03*
D12*
X60000000Y-52400000D03*
D13*
X68700000Y-80750000D03*
X68700000Y-78850000D03*
X63125000Y-80750000D03*
X63125000Y-78850000D03*
D14*
G36*
X75024504Y-78601204D02*
G01*
X75048773Y-78604804D01*
X75072571Y-78610765D01*
X75095671Y-78619030D01*
X75117849Y-78629520D01*
X75138893Y-78642133D01*
X75158598Y-78656747D01*
X75176777Y-78673223D01*
X75193253Y-78691402D01*
X75207867Y-78711107D01*
X75220480Y-78732151D01*
X75230970Y-78754329D01*
X75239235Y-78777429D01*
X75245196Y-78801227D01*
X75248796Y-78825496D01*
X75250000Y-78850000D01*
X75250000Y-81850000D01*
X75248796Y-81874504D01*
X75245196Y-81898773D01*
X75239235Y-81922571D01*
X75230970Y-81945671D01*
X75220480Y-81967849D01*
X75207867Y-81988893D01*
X75193253Y-82008598D01*
X75176777Y-82026777D01*
X75158598Y-82043253D01*
X75138893Y-82057867D01*
X75117849Y-82070480D01*
X75095671Y-82080970D01*
X75072571Y-82089235D01*
X75048773Y-82095196D01*
X75024504Y-82098796D01*
X75000000Y-82100000D01*
X73900000Y-82100000D01*
X73875496Y-82098796D01*
X73851227Y-82095196D01*
X73827429Y-82089235D01*
X73804329Y-82080970D01*
X73782151Y-82070480D01*
X73761107Y-82057867D01*
X73741402Y-82043253D01*
X73723223Y-82026777D01*
X73706747Y-82008598D01*
X73692133Y-81988893D01*
X73679520Y-81967849D01*
X73669030Y-81945671D01*
X73660765Y-81922571D01*
X73654804Y-81898773D01*
X73651204Y-81874504D01*
X73650000Y-81850000D01*
X73650000Y-78850000D01*
X73651204Y-78825496D01*
X73654804Y-78801227D01*
X73660765Y-78777429D01*
X73669030Y-78754329D01*
X73679520Y-78732151D01*
X73692133Y-78711107D01*
X73706747Y-78691402D01*
X73723223Y-78673223D01*
X73741402Y-78656747D01*
X73761107Y-78642133D01*
X73782151Y-78629520D01*
X73804329Y-78619030D01*
X73827429Y-78610765D01*
X73851227Y-78604804D01*
X73875496Y-78601204D01*
X73900000Y-78600000D01*
X75000000Y-78600000D01*
X75024504Y-78601204D01*
G37*
G36*
X75024504Y-73201204D02*
G01*
X75048773Y-73204804D01*
X75072571Y-73210765D01*
X75095671Y-73219030D01*
X75117849Y-73229520D01*
X75138893Y-73242133D01*
X75158598Y-73256747D01*
X75176777Y-73273223D01*
X75193253Y-73291402D01*
X75207867Y-73311107D01*
X75220480Y-73332151D01*
X75230970Y-73354329D01*
X75239235Y-73377429D01*
X75245196Y-73401227D01*
X75248796Y-73425496D01*
X75250000Y-73450000D01*
X75250000Y-76450000D01*
X75248796Y-76474504D01*
X75245196Y-76498773D01*
X75239235Y-76522571D01*
X75230970Y-76545671D01*
X75220480Y-76567849D01*
X75207867Y-76588893D01*
X75193253Y-76608598D01*
X75176777Y-76626777D01*
X75158598Y-76643253D01*
X75138893Y-76657867D01*
X75117849Y-76670480D01*
X75095671Y-76680970D01*
X75072571Y-76689235D01*
X75048773Y-76695196D01*
X75024504Y-76698796D01*
X75000000Y-76700000D01*
X73900000Y-76700000D01*
X73875496Y-76698796D01*
X73851227Y-76695196D01*
X73827429Y-76689235D01*
X73804329Y-76680970D01*
X73782151Y-76670480D01*
X73761107Y-76657867D01*
X73741402Y-76643253D01*
X73723223Y-76626777D01*
X73706747Y-76608598D01*
X73692133Y-76588893D01*
X73679520Y-76567849D01*
X73669030Y-76545671D01*
X73660765Y-76522571D01*
X73654804Y-76498773D01*
X73651204Y-76474504D01*
X73650000Y-76450000D01*
X73650000Y-73450000D01*
X73651204Y-73425496D01*
X73654804Y-73401227D01*
X73660765Y-73377429D01*
X73669030Y-73354329D01*
X73679520Y-73332151D01*
X73692133Y-73311107D01*
X73706747Y-73291402D01*
X73723223Y-73273223D01*
X73741402Y-73256747D01*
X73761107Y-73242133D01*
X73782151Y-73229520D01*
X73804329Y-73219030D01*
X73827429Y-73210765D01*
X73851227Y-73204804D01*
X73875496Y-73201204D01*
X73900000Y-73200000D01*
X75000000Y-73200000D01*
X75024504Y-73201204D01*
G37*
G36*
X57874504Y-80101204D02*
G01*
X57898773Y-80104804D01*
X57922571Y-80110765D01*
X57945671Y-80119030D01*
X57967849Y-80129520D01*
X57988893Y-80142133D01*
X58008598Y-80156747D01*
X58026777Y-80173223D01*
X58043253Y-80191402D01*
X58057867Y-80211107D01*
X58070480Y-80232151D01*
X58080970Y-80254329D01*
X58089235Y-80277429D01*
X58095196Y-80301227D01*
X58098796Y-80325496D01*
X58100000Y-80350000D01*
X58100000Y-83350000D01*
X58098796Y-83374504D01*
X58095196Y-83398773D01*
X58089235Y-83422571D01*
X58080970Y-83445671D01*
X58070480Y-83467849D01*
X58057867Y-83488893D01*
X58043253Y-83508598D01*
X58026777Y-83526777D01*
X58008598Y-83543253D01*
X57988893Y-83557867D01*
X57967849Y-83570480D01*
X57945671Y-83580970D01*
X57922571Y-83589235D01*
X57898773Y-83595196D01*
X57874504Y-83598796D01*
X57850000Y-83600000D01*
X56750000Y-83600000D01*
X56725496Y-83598796D01*
X56701227Y-83595196D01*
X56677429Y-83589235D01*
X56654329Y-83580970D01*
X56632151Y-83570480D01*
X56611107Y-83557867D01*
X56591402Y-83543253D01*
X56573223Y-83526777D01*
X56556747Y-83508598D01*
X56542133Y-83488893D01*
X56529520Y-83467849D01*
X56519030Y-83445671D01*
X56510765Y-83422571D01*
X56504804Y-83398773D01*
X56501204Y-83374504D01*
X56500000Y-83350000D01*
X56500000Y-80350000D01*
X56501204Y-80325496D01*
X56504804Y-80301227D01*
X56510765Y-80277429D01*
X56519030Y-80254329D01*
X56529520Y-80232151D01*
X56542133Y-80211107D01*
X56556747Y-80191402D01*
X56573223Y-80173223D01*
X56591402Y-80156747D01*
X56611107Y-80142133D01*
X56632151Y-80129520D01*
X56654329Y-80119030D01*
X56677429Y-80110765D01*
X56701227Y-80104804D01*
X56725496Y-80101204D01*
X56750000Y-80100000D01*
X57850000Y-80100000D01*
X57874504Y-80101204D01*
G37*
G36*
X57874504Y-74701204D02*
G01*
X57898773Y-74704804D01*
X57922571Y-74710765D01*
X57945671Y-74719030D01*
X57967849Y-74729520D01*
X57988893Y-74742133D01*
X58008598Y-74756747D01*
X58026777Y-74773223D01*
X58043253Y-74791402D01*
X58057867Y-74811107D01*
X58070480Y-74832151D01*
X58080970Y-74854329D01*
X58089235Y-74877429D01*
X58095196Y-74901227D01*
X58098796Y-74925496D01*
X58100000Y-74950000D01*
X58100000Y-77950000D01*
X58098796Y-77974504D01*
X58095196Y-77998773D01*
X58089235Y-78022571D01*
X58080970Y-78045671D01*
X58070480Y-78067849D01*
X58057867Y-78088893D01*
X58043253Y-78108598D01*
X58026777Y-78126777D01*
X58008598Y-78143253D01*
X57988893Y-78157867D01*
X57967849Y-78170480D01*
X57945671Y-78180970D01*
X57922571Y-78189235D01*
X57898773Y-78195196D01*
X57874504Y-78198796D01*
X57850000Y-78200000D01*
X56750000Y-78200000D01*
X56725496Y-78198796D01*
X56701227Y-78195196D01*
X56677429Y-78189235D01*
X56654329Y-78180970D01*
X56632151Y-78170480D01*
X56611107Y-78157867D01*
X56591402Y-78143253D01*
X56573223Y-78126777D01*
X56556747Y-78108598D01*
X56542133Y-78088893D01*
X56529520Y-78067849D01*
X56519030Y-78045671D01*
X56510765Y-78022571D01*
X56504804Y-77998773D01*
X56501204Y-77974504D01*
X56500000Y-77950000D01*
X56500000Y-74950000D01*
X56501204Y-74925496D01*
X56504804Y-74901227D01*
X56510765Y-74877429D01*
X56519030Y-74854329D01*
X56529520Y-74832151D01*
X56542133Y-74811107D01*
X56556747Y-74791402D01*
X56573223Y-74773223D01*
X56591402Y-74756747D01*
X56611107Y-74742133D01*
X56632151Y-74729520D01*
X56654329Y-74719030D01*
X56677429Y-74710765D01*
X56701227Y-74704804D01*
X56725496Y-74701204D01*
X56750000Y-74700000D01*
X57850000Y-74700000D01*
X57874504Y-74701204D01*
G37*
D15*
X66550000Y-67870000D03*
X66550000Y-66930000D03*
X68250000Y-67870000D03*
X68250000Y-66930000D03*
X69100000Y-67870000D03*
X69100000Y-66930000D03*
X69950000Y-67870000D03*
X69950000Y-66930000D03*
X94250000Y-64720000D03*
X94250000Y-63780000D03*
D16*
X77470000Y-61750000D03*
X76530000Y-61750000D03*
D17*
X86500000Y-67500000D03*
D18*
X93100000Y-64050000D03*
X93100000Y-65950000D03*
X90900000Y-65950000D03*
X90900000Y-65000000D03*
X90900000Y-64050000D03*
D19*
X78000000Y-64000000D03*
X76000000Y-64950000D03*
X76000000Y-63050000D03*
D16*
X88680000Y-63650000D03*
X89620000Y-63650000D03*
D15*
X90500000Y-67030000D03*
X90500000Y-67970000D03*
X92250000Y-67030000D03*
X92250000Y-67970000D03*
D16*
X94250000Y-65750000D03*
X95190000Y-65750000D03*
X75280000Y-66000000D03*
X76220000Y-66000000D03*
X75780000Y-60050000D03*
X76720000Y-60050000D03*
D15*
X96500000Y-52220000D03*
X96500000Y-51280000D03*
X82000000Y-52220000D03*
X82000000Y-51280000D03*
D20*
X67800000Y-74550000D03*
X64200000Y-74550000D03*
D11*
X52600000Y-82150000D03*
X52600000Y-80150000D03*
X52600000Y-78150000D03*
D12*
X52600000Y-76150000D03*
D14*
G36*
X90202691Y-51276053D02*
G01*
X90223926Y-51279203D01*
X90244750Y-51284419D01*
X90264962Y-51291651D01*
X90284368Y-51300830D01*
X90302781Y-51311866D01*
X90320024Y-51324654D01*
X90335930Y-51339070D01*
X90350346Y-51354976D01*
X90363134Y-51372219D01*
X90374170Y-51390632D01*
X90383349Y-51410038D01*
X90390581Y-51430250D01*
X90395797Y-51451074D01*
X90398947Y-51472309D01*
X90400000Y-51493750D01*
X90400000Y-52006250D01*
X90398947Y-52027691D01*
X90395797Y-52048926D01*
X90390581Y-52069750D01*
X90383349Y-52089962D01*
X90374170Y-52109368D01*
X90363134Y-52127781D01*
X90350346Y-52145024D01*
X90335930Y-52160930D01*
X90320024Y-52175346D01*
X90302781Y-52188134D01*
X90284368Y-52199170D01*
X90264962Y-52208349D01*
X90244750Y-52215581D01*
X90223926Y-52220797D01*
X90202691Y-52223947D01*
X90181250Y-52225000D01*
X89743750Y-52225000D01*
X89722309Y-52223947D01*
X89701074Y-52220797D01*
X89680250Y-52215581D01*
X89660038Y-52208349D01*
X89640632Y-52199170D01*
X89622219Y-52188134D01*
X89604976Y-52175346D01*
X89589070Y-52160930D01*
X89574654Y-52145024D01*
X89561866Y-52127781D01*
X89550830Y-52109368D01*
X89541651Y-52089962D01*
X89534419Y-52069750D01*
X89529203Y-52048926D01*
X89526053Y-52027691D01*
X89525000Y-52006250D01*
X89525000Y-51493750D01*
X89526053Y-51472309D01*
X89529203Y-51451074D01*
X89534419Y-51430250D01*
X89541651Y-51410038D01*
X89550830Y-51390632D01*
X89561866Y-51372219D01*
X89574654Y-51354976D01*
X89589070Y-51339070D01*
X89604976Y-51324654D01*
X89622219Y-51311866D01*
X89640632Y-51300830D01*
X89660038Y-51291651D01*
X89680250Y-51284419D01*
X89701074Y-51279203D01*
X89722309Y-51276053D01*
X89743750Y-51275000D01*
X90181250Y-51275000D01*
X90202691Y-51276053D01*
G37*
G36*
X91777691Y-51276053D02*
G01*
X91798926Y-51279203D01*
X91819750Y-51284419D01*
X91839962Y-51291651D01*
X91859368Y-51300830D01*
X91877781Y-51311866D01*
X91895024Y-51324654D01*
X91910930Y-51339070D01*
X91925346Y-51354976D01*
X91938134Y-51372219D01*
X91949170Y-51390632D01*
X91958349Y-51410038D01*
X91965581Y-51430250D01*
X91970797Y-51451074D01*
X91973947Y-51472309D01*
X91975000Y-51493750D01*
X91975000Y-52006250D01*
X91973947Y-52027691D01*
X91970797Y-52048926D01*
X91965581Y-52069750D01*
X91958349Y-52089962D01*
X91949170Y-52109368D01*
X91938134Y-52127781D01*
X91925346Y-52145024D01*
X91910930Y-52160930D01*
X91895024Y-52175346D01*
X91877781Y-52188134D01*
X91859368Y-52199170D01*
X91839962Y-52208349D01*
X91819750Y-52215581D01*
X91798926Y-52220797D01*
X91777691Y-52223947D01*
X91756250Y-52225000D01*
X91318750Y-52225000D01*
X91297309Y-52223947D01*
X91276074Y-52220797D01*
X91255250Y-52215581D01*
X91235038Y-52208349D01*
X91215632Y-52199170D01*
X91197219Y-52188134D01*
X91179976Y-52175346D01*
X91164070Y-52160930D01*
X91149654Y-52145024D01*
X91136866Y-52127781D01*
X91125830Y-52109368D01*
X91116651Y-52089962D01*
X91109419Y-52069750D01*
X91104203Y-52048926D01*
X91101053Y-52027691D01*
X91100000Y-52006250D01*
X91100000Y-51493750D01*
X91101053Y-51472309D01*
X91104203Y-51451074D01*
X91109419Y-51430250D01*
X91116651Y-51410038D01*
X91125830Y-51390632D01*
X91136866Y-51372219D01*
X91149654Y-51354976D01*
X91164070Y-51339070D01*
X91179976Y-51324654D01*
X91197219Y-51311866D01*
X91215632Y-51300830D01*
X91235038Y-51291651D01*
X91255250Y-51284419D01*
X91276074Y-51279203D01*
X91297309Y-51276053D01*
X91318750Y-51275000D01*
X91756250Y-51275000D01*
X91777691Y-51276053D01*
G37*
G36*
X88777691Y-51276053D02*
G01*
X88798926Y-51279203D01*
X88819750Y-51284419D01*
X88839962Y-51291651D01*
X88859368Y-51300830D01*
X88877781Y-51311866D01*
X88895024Y-51324654D01*
X88910930Y-51339070D01*
X88925346Y-51354976D01*
X88938134Y-51372219D01*
X88949170Y-51390632D01*
X88958349Y-51410038D01*
X88965581Y-51430250D01*
X88970797Y-51451074D01*
X88973947Y-51472309D01*
X88975000Y-51493750D01*
X88975000Y-52006250D01*
X88973947Y-52027691D01*
X88970797Y-52048926D01*
X88965581Y-52069750D01*
X88958349Y-52089962D01*
X88949170Y-52109368D01*
X88938134Y-52127781D01*
X88925346Y-52145024D01*
X88910930Y-52160930D01*
X88895024Y-52175346D01*
X88877781Y-52188134D01*
X88859368Y-52199170D01*
X88839962Y-52208349D01*
X88819750Y-52215581D01*
X88798926Y-52220797D01*
X88777691Y-52223947D01*
X88756250Y-52225000D01*
X88318750Y-52225000D01*
X88297309Y-52223947D01*
X88276074Y-52220797D01*
X88255250Y-52215581D01*
X88235038Y-52208349D01*
X88215632Y-52199170D01*
X88197219Y-52188134D01*
X88179976Y-52175346D01*
X88164070Y-52160930D01*
X88149654Y-52145024D01*
X88136866Y-52127781D01*
X88125830Y-52109368D01*
X88116651Y-52089962D01*
X88109419Y-52069750D01*
X88104203Y-52048926D01*
X88101053Y-52027691D01*
X88100000Y-52006250D01*
X88100000Y-51493750D01*
X88101053Y-51472309D01*
X88104203Y-51451074D01*
X88109419Y-51430250D01*
X88116651Y-51410038D01*
X88125830Y-51390632D01*
X88136866Y-51372219D01*
X88149654Y-51354976D01*
X88164070Y-51339070D01*
X88179976Y-51324654D01*
X88197219Y-51311866D01*
X88215632Y-51300830D01*
X88235038Y-51291651D01*
X88255250Y-51284419D01*
X88276074Y-51279203D01*
X88297309Y-51276053D01*
X88318750Y-51275000D01*
X88756250Y-51275000D01*
X88777691Y-51276053D01*
G37*
G36*
X87202691Y-51276053D02*
G01*
X87223926Y-51279203D01*
X87244750Y-51284419D01*
X87264962Y-51291651D01*
X87284368Y-51300830D01*
X87302781Y-51311866D01*
X87320024Y-51324654D01*
X87335930Y-51339070D01*
X87350346Y-51354976D01*
X87363134Y-51372219D01*
X87374170Y-51390632D01*
X87383349Y-51410038D01*
X87390581Y-51430250D01*
X87395797Y-51451074D01*
X87398947Y-51472309D01*
X87400000Y-51493750D01*
X87400000Y-52006250D01*
X87398947Y-52027691D01*
X87395797Y-52048926D01*
X87390581Y-52069750D01*
X87383349Y-52089962D01*
X87374170Y-52109368D01*
X87363134Y-52127781D01*
X87350346Y-52145024D01*
X87335930Y-52160930D01*
X87320024Y-52175346D01*
X87302781Y-52188134D01*
X87284368Y-52199170D01*
X87264962Y-52208349D01*
X87244750Y-52215581D01*
X87223926Y-52220797D01*
X87202691Y-52223947D01*
X87181250Y-52225000D01*
X86743750Y-52225000D01*
X86722309Y-52223947D01*
X86701074Y-52220797D01*
X86680250Y-52215581D01*
X86660038Y-52208349D01*
X86640632Y-52199170D01*
X86622219Y-52188134D01*
X86604976Y-52175346D01*
X86589070Y-52160930D01*
X86574654Y-52145024D01*
X86561866Y-52127781D01*
X86550830Y-52109368D01*
X86541651Y-52089962D01*
X86534419Y-52069750D01*
X86529203Y-52048926D01*
X86526053Y-52027691D01*
X86525000Y-52006250D01*
X86525000Y-51493750D01*
X86526053Y-51472309D01*
X86529203Y-51451074D01*
X86534419Y-51430250D01*
X86541651Y-51410038D01*
X86550830Y-51390632D01*
X86561866Y-51372219D01*
X86574654Y-51354976D01*
X86589070Y-51339070D01*
X86604976Y-51324654D01*
X86622219Y-51311866D01*
X86640632Y-51300830D01*
X86660038Y-51291651D01*
X86680250Y-51284419D01*
X86701074Y-51279203D01*
X86722309Y-51276053D01*
X86743750Y-51275000D01*
X87181250Y-51275000D01*
X87202691Y-51276053D01*
G37*
D15*
X91350000Y-67030000D03*
X91350000Y-67970000D03*
X93100000Y-67230000D03*
X93100000Y-68170000D03*
X67400000Y-67870000D03*
X67400000Y-66930000D03*
D18*
X75375000Y-67200000D03*
X75375000Y-69100000D03*
X73175000Y-69100000D03*
X73175000Y-68150000D03*
X73175000Y-67200000D03*
X61600000Y-55250000D03*
X61600000Y-54300000D03*
X61600000Y-56200000D03*
X59400000Y-56200000D03*
X59400000Y-55250000D03*
X59400000Y-54300000D03*
D21*
X65250000Y-79100000D03*
D22*
X65750000Y-79350000D03*
X66250000Y-79350000D03*
D21*
X66750000Y-79100000D03*
D23*
X67450000Y-79800000D03*
X67450000Y-80300000D03*
X67450000Y-80800000D03*
X67450000Y-81300000D03*
D21*
X66700000Y-82000000D03*
D22*
X66250000Y-81750000D03*
X65750000Y-81750000D03*
D21*
X65250000Y-82000000D03*
D23*
X64550000Y-81300000D03*
X64550000Y-80800000D03*
X64550000Y-80300000D03*
D24*
X64600000Y-79800000D03*
D14*
G36*
X67332351Y-55850361D02*
G01*
X67339632Y-55851441D01*
X67346771Y-55853229D01*
X67353701Y-55855709D01*
X67360355Y-55858856D01*
X67366668Y-55862640D01*
X67372579Y-55867024D01*
X67378033Y-55871967D01*
X67382976Y-55877421D01*
X67387360Y-55883332D01*
X67391144Y-55889645D01*
X67394291Y-55896299D01*
X67396771Y-55903229D01*
X67398559Y-55910368D01*
X67399639Y-55917649D01*
X67400000Y-55925000D01*
X67400000Y-57250000D01*
X67399639Y-57257351D01*
X67398559Y-57264632D01*
X67396771Y-57271771D01*
X67394291Y-57278701D01*
X67391144Y-57285355D01*
X67387360Y-57291668D01*
X67382976Y-57297579D01*
X67378033Y-57303033D01*
X67372579Y-57307976D01*
X67366668Y-57312360D01*
X67360355Y-57316144D01*
X67353701Y-57319291D01*
X67346771Y-57321771D01*
X67339632Y-57323559D01*
X67332351Y-57324639D01*
X67325000Y-57325000D01*
X67175000Y-57325000D01*
X67167649Y-57324639D01*
X67160368Y-57323559D01*
X67153229Y-57321771D01*
X67146299Y-57319291D01*
X67139645Y-57316144D01*
X67133332Y-57312360D01*
X67127421Y-57307976D01*
X67121967Y-57303033D01*
X67117024Y-57297579D01*
X67112640Y-57291668D01*
X67108856Y-57285355D01*
X67105709Y-57278701D01*
X67103229Y-57271771D01*
X67101441Y-57264632D01*
X67100361Y-57257351D01*
X67100000Y-57250000D01*
X67100000Y-55925000D01*
X67100361Y-55917649D01*
X67101441Y-55910368D01*
X67103229Y-55903229D01*
X67105709Y-55896299D01*
X67108856Y-55889645D01*
X67112640Y-55883332D01*
X67117024Y-55877421D01*
X67121967Y-55871967D01*
X67127421Y-55867024D01*
X67133332Y-55862640D01*
X67139645Y-55858856D01*
X67146299Y-55855709D01*
X67153229Y-55853229D01*
X67160368Y-55851441D01*
X67167649Y-55850361D01*
X67175000Y-55850000D01*
X67325000Y-55850000D01*
X67332351Y-55850361D01*
G37*
G36*
X67832351Y-55850361D02*
G01*
X67839632Y-55851441D01*
X67846771Y-55853229D01*
X67853701Y-55855709D01*
X67860355Y-55858856D01*
X67866668Y-55862640D01*
X67872579Y-55867024D01*
X67878033Y-55871967D01*
X67882976Y-55877421D01*
X67887360Y-55883332D01*
X67891144Y-55889645D01*
X67894291Y-55896299D01*
X67896771Y-55903229D01*
X67898559Y-55910368D01*
X67899639Y-55917649D01*
X67900000Y-55925000D01*
X67900000Y-57250000D01*
X67899639Y-57257351D01*
X67898559Y-57264632D01*
X67896771Y-57271771D01*
X67894291Y-57278701D01*
X67891144Y-57285355D01*
X67887360Y-57291668D01*
X67882976Y-57297579D01*
X67878033Y-57303033D01*
X67872579Y-57307976D01*
X67866668Y-57312360D01*
X67860355Y-57316144D01*
X67853701Y-57319291D01*
X67846771Y-57321771D01*
X67839632Y-57323559D01*
X67832351Y-57324639D01*
X67825000Y-57325000D01*
X67675000Y-57325000D01*
X67667649Y-57324639D01*
X67660368Y-57323559D01*
X67653229Y-57321771D01*
X67646299Y-57319291D01*
X67639645Y-57316144D01*
X67633332Y-57312360D01*
X67627421Y-57307976D01*
X67621967Y-57303033D01*
X67617024Y-57297579D01*
X67612640Y-57291668D01*
X67608856Y-57285355D01*
X67605709Y-57278701D01*
X67603229Y-57271771D01*
X67601441Y-57264632D01*
X67600361Y-57257351D01*
X67600000Y-57250000D01*
X67600000Y-55925000D01*
X67600361Y-55917649D01*
X67601441Y-55910368D01*
X67603229Y-55903229D01*
X67605709Y-55896299D01*
X67608856Y-55889645D01*
X67612640Y-55883332D01*
X67617024Y-55877421D01*
X67621967Y-55871967D01*
X67627421Y-55867024D01*
X67633332Y-55862640D01*
X67639645Y-55858856D01*
X67646299Y-55855709D01*
X67653229Y-55853229D01*
X67660368Y-55851441D01*
X67667649Y-55850361D01*
X67675000Y-55850000D01*
X67825000Y-55850000D01*
X67832351Y-55850361D01*
G37*
G36*
X68332351Y-55850361D02*
G01*
X68339632Y-55851441D01*
X68346771Y-55853229D01*
X68353701Y-55855709D01*
X68360355Y-55858856D01*
X68366668Y-55862640D01*
X68372579Y-55867024D01*
X68378033Y-55871967D01*
X68382976Y-55877421D01*
X68387360Y-55883332D01*
X68391144Y-55889645D01*
X68394291Y-55896299D01*
X68396771Y-55903229D01*
X68398559Y-55910368D01*
X68399639Y-55917649D01*
X68400000Y-55925000D01*
X68400000Y-57250000D01*
X68399639Y-57257351D01*
X68398559Y-57264632D01*
X68396771Y-57271771D01*
X68394291Y-57278701D01*
X68391144Y-57285355D01*
X68387360Y-57291668D01*
X68382976Y-57297579D01*
X68378033Y-57303033D01*
X68372579Y-57307976D01*
X68366668Y-57312360D01*
X68360355Y-57316144D01*
X68353701Y-57319291D01*
X68346771Y-57321771D01*
X68339632Y-57323559D01*
X68332351Y-57324639D01*
X68325000Y-57325000D01*
X68175000Y-57325000D01*
X68167649Y-57324639D01*
X68160368Y-57323559D01*
X68153229Y-57321771D01*
X68146299Y-57319291D01*
X68139645Y-57316144D01*
X68133332Y-57312360D01*
X68127421Y-57307976D01*
X68121967Y-57303033D01*
X68117024Y-57297579D01*
X68112640Y-57291668D01*
X68108856Y-57285355D01*
X68105709Y-57278701D01*
X68103229Y-57271771D01*
X68101441Y-57264632D01*
X68100361Y-57257351D01*
X68100000Y-57250000D01*
X68100000Y-55925000D01*
X68100361Y-55917649D01*
X68101441Y-55910368D01*
X68103229Y-55903229D01*
X68105709Y-55896299D01*
X68108856Y-55889645D01*
X68112640Y-55883332D01*
X68117024Y-55877421D01*
X68121967Y-55871967D01*
X68127421Y-55867024D01*
X68133332Y-55862640D01*
X68139645Y-55858856D01*
X68146299Y-55855709D01*
X68153229Y-55853229D01*
X68160368Y-55851441D01*
X68167649Y-55850361D01*
X68175000Y-55850000D01*
X68325000Y-55850000D01*
X68332351Y-55850361D01*
G37*
G36*
X68832351Y-55850361D02*
G01*
X68839632Y-55851441D01*
X68846771Y-55853229D01*
X68853701Y-55855709D01*
X68860355Y-55858856D01*
X68866668Y-55862640D01*
X68872579Y-55867024D01*
X68878033Y-55871967D01*
X68882976Y-55877421D01*
X68887360Y-55883332D01*
X68891144Y-55889645D01*
X68894291Y-55896299D01*
X68896771Y-55903229D01*
X68898559Y-55910368D01*
X68899639Y-55917649D01*
X68900000Y-55925000D01*
X68900000Y-57250000D01*
X68899639Y-57257351D01*
X68898559Y-57264632D01*
X68896771Y-57271771D01*
X68894291Y-57278701D01*
X68891144Y-57285355D01*
X68887360Y-57291668D01*
X68882976Y-57297579D01*
X68878033Y-57303033D01*
X68872579Y-57307976D01*
X68866668Y-57312360D01*
X68860355Y-57316144D01*
X68853701Y-57319291D01*
X68846771Y-57321771D01*
X68839632Y-57323559D01*
X68832351Y-57324639D01*
X68825000Y-57325000D01*
X68675000Y-57325000D01*
X68667649Y-57324639D01*
X68660368Y-57323559D01*
X68653229Y-57321771D01*
X68646299Y-57319291D01*
X68639645Y-57316144D01*
X68633332Y-57312360D01*
X68627421Y-57307976D01*
X68621967Y-57303033D01*
X68617024Y-57297579D01*
X68612640Y-57291668D01*
X68608856Y-57285355D01*
X68605709Y-57278701D01*
X68603229Y-57271771D01*
X68601441Y-57264632D01*
X68600361Y-57257351D01*
X68600000Y-57250000D01*
X68600000Y-55925000D01*
X68600361Y-55917649D01*
X68601441Y-55910368D01*
X68603229Y-55903229D01*
X68605709Y-55896299D01*
X68608856Y-55889645D01*
X68612640Y-55883332D01*
X68617024Y-55877421D01*
X68621967Y-55871967D01*
X68627421Y-55867024D01*
X68633332Y-55862640D01*
X68639645Y-55858856D01*
X68646299Y-55855709D01*
X68653229Y-55853229D01*
X68660368Y-55851441D01*
X68667649Y-55850361D01*
X68675000Y-55850000D01*
X68825000Y-55850000D01*
X68832351Y-55850361D01*
G37*
G36*
X69332351Y-55850361D02*
G01*
X69339632Y-55851441D01*
X69346771Y-55853229D01*
X69353701Y-55855709D01*
X69360355Y-55858856D01*
X69366668Y-55862640D01*
X69372579Y-55867024D01*
X69378033Y-55871967D01*
X69382976Y-55877421D01*
X69387360Y-55883332D01*
X69391144Y-55889645D01*
X69394291Y-55896299D01*
X69396771Y-55903229D01*
X69398559Y-55910368D01*
X69399639Y-55917649D01*
X69400000Y-55925000D01*
X69400000Y-57250000D01*
X69399639Y-57257351D01*
X69398559Y-57264632D01*
X69396771Y-57271771D01*
X69394291Y-57278701D01*
X69391144Y-57285355D01*
X69387360Y-57291668D01*
X69382976Y-57297579D01*
X69378033Y-57303033D01*
X69372579Y-57307976D01*
X69366668Y-57312360D01*
X69360355Y-57316144D01*
X69353701Y-57319291D01*
X69346771Y-57321771D01*
X69339632Y-57323559D01*
X69332351Y-57324639D01*
X69325000Y-57325000D01*
X69175000Y-57325000D01*
X69167649Y-57324639D01*
X69160368Y-57323559D01*
X69153229Y-57321771D01*
X69146299Y-57319291D01*
X69139645Y-57316144D01*
X69133332Y-57312360D01*
X69127421Y-57307976D01*
X69121967Y-57303033D01*
X69117024Y-57297579D01*
X69112640Y-57291668D01*
X69108856Y-57285355D01*
X69105709Y-57278701D01*
X69103229Y-57271771D01*
X69101441Y-57264632D01*
X69100361Y-57257351D01*
X69100000Y-57250000D01*
X69100000Y-55925000D01*
X69100361Y-55917649D01*
X69101441Y-55910368D01*
X69103229Y-55903229D01*
X69105709Y-55896299D01*
X69108856Y-55889645D01*
X69112640Y-55883332D01*
X69117024Y-55877421D01*
X69121967Y-55871967D01*
X69127421Y-55867024D01*
X69133332Y-55862640D01*
X69139645Y-55858856D01*
X69146299Y-55855709D01*
X69153229Y-55853229D01*
X69160368Y-55851441D01*
X69167649Y-55850361D01*
X69175000Y-55850000D01*
X69325000Y-55850000D01*
X69332351Y-55850361D01*
G37*
G36*
X69832351Y-55850361D02*
G01*
X69839632Y-55851441D01*
X69846771Y-55853229D01*
X69853701Y-55855709D01*
X69860355Y-55858856D01*
X69866668Y-55862640D01*
X69872579Y-55867024D01*
X69878033Y-55871967D01*
X69882976Y-55877421D01*
X69887360Y-55883332D01*
X69891144Y-55889645D01*
X69894291Y-55896299D01*
X69896771Y-55903229D01*
X69898559Y-55910368D01*
X69899639Y-55917649D01*
X69900000Y-55925000D01*
X69900000Y-57250000D01*
X69899639Y-57257351D01*
X69898559Y-57264632D01*
X69896771Y-57271771D01*
X69894291Y-57278701D01*
X69891144Y-57285355D01*
X69887360Y-57291668D01*
X69882976Y-57297579D01*
X69878033Y-57303033D01*
X69872579Y-57307976D01*
X69866668Y-57312360D01*
X69860355Y-57316144D01*
X69853701Y-57319291D01*
X69846771Y-57321771D01*
X69839632Y-57323559D01*
X69832351Y-57324639D01*
X69825000Y-57325000D01*
X69675000Y-57325000D01*
X69667649Y-57324639D01*
X69660368Y-57323559D01*
X69653229Y-57321771D01*
X69646299Y-57319291D01*
X69639645Y-57316144D01*
X69633332Y-57312360D01*
X69627421Y-57307976D01*
X69621967Y-57303033D01*
X69617024Y-57297579D01*
X69612640Y-57291668D01*
X69608856Y-57285355D01*
X69605709Y-57278701D01*
X69603229Y-57271771D01*
X69601441Y-57264632D01*
X69600361Y-57257351D01*
X69600000Y-57250000D01*
X69600000Y-55925000D01*
X69600361Y-55917649D01*
X69601441Y-55910368D01*
X69603229Y-55903229D01*
X69605709Y-55896299D01*
X69608856Y-55889645D01*
X69612640Y-55883332D01*
X69617024Y-55877421D01*
X69621967Y-55871967D01*
X69627421Y-55867024D01*
X69633332Y-55862640D01*
X69639645Y-55858856D01*
X69646299Y-55855709D01*
X69653229Y-55853229D01*
X69660368Y-55851441D01*
X69667649Y-55850361D01*
X69675000Y-55850000D01*
X69825000Y-55850000D01*
X69832351Y-55850361D01*
G37*
G36*
X70332351Y-55850361D02*
G01*
X70339632Y-55851441D01*
X70346771Y-55853229D01*
X70353701Y-55855709D01*
X70360355Y-55858856D01*
X70366668Y-55862640D01*
X70372579Y-55867024D01*
X70378033Y-55871967D01*
X70382976Y-55877421D01*
X70387360Y-55883332D01*
X70391144Y-55889645D01*
X70394291Y-55896299D01*
X70396771Y-55903229D01*
X70398559Y-55910368D01*
X70399639Y-55917649D01*
X70400000Y-55925000D01*
X70400000Y-57250000D01*
X70399639Y-57257351D01*
X70398559Y-57264632D01*
X70396771Y-57271771D01*
X70394291Y-57278701D01*
X70391144Y-57285355D01*
X70387360Y-57291668D01*
X70382976Y-57297579D01*
X70378033Y-57303033D01*
X70372579Y-57307976D01*
X70366668Y-57312360D01*
X70360355Y-57316144D01*
X70353701Y-57319291D01*
X70346771Y-57321771D01*
X70339632Y-57323559D01*
X70332351Y-57324639D01*
X70325000Y-57325000D01*
X70175000Y-57325000D01*
X70167649Y-57324639D01*
X70160368Y-57323559D01*
X70153229Y-57321771D01*
X70146299Y-57319291D01*
X70139645Y-57316144D01*
X70133332Y-57312360D01*
X70127421Y-57307976D01*
X70121967Y-57303033D01*
X70117024Y-57297579D01*
X70112640Y-57291668D01*
X70108856Y-57285355D01*
X70105709Y-57278701D01*
X70103229Y-57271771D01*
X70101441Y-57264632D01*
X70100361Y-57257351D01*
X70100000Y-57250000D01*
X70100000Y-55925000D01*
X70100361Y-55917649D01*
X70101441Y-55910368D01*
X70103229Y-55903229D01*
X70105709Y-55896299D01*
X70108856Y-55889645D01*
X70112640Y-55883332D01*
X70117024Y-55877421D01*
X70121967Y-55871967D01*
X70127421Y-55867024D01*
X70133332Y-55862640D01*
X70139645Y-55858856D01*
X70146299Y-55855709D01*
X70153229Y-55853229D01*
X70160368Y-55851441D01*
X70167649Y-55850361D01*
X70175000Y-55850000D01*
X70325000Y-55850000D01*
X70332351Y-55850361D01*
G37*
G36*
X70832351Y-55850361D02*
G01*
X70839632Y-55851441D01*
X70846771Y-55853229D01*
X70853701Y-55855709D01*
X70860355Y-55858856D01*
X70866668Y-55862640D01*
X70872579Y-55867024D01*
X70878033Y-55871967D01*
X70882976Y-55877421D01*
X70887360Y-55883332D01*
X70891144Y-55889645D01*
X70894291Y-55896299D01*
X70896771Y-55903229D01*
X70898559Y-55910368D01*
X70899639Y-55917649D01*
X70900000Y-55925000D01*
X70900000Y-57250000D01*
X70899639Y-57257351D01*
X70898559Y-57264632D01*
X70896771Y-57271771D01*
X70894291Y-57278701D01*
X70891144Y-57285355D01*
X70887360Y-57291668D01*
X70882976Y-57297579D01*
X70878033Y-57303033D01*
X70872579Y-57307976D01*
X70866668Y-57312360D01*
X70860355Y-57316144D01*
X70853701Y-57319291D01*
X70846771Y-57321771D01*
X70839632Y-57323559D01*
X70832351Y-57324639D01*
X70825000Y-57325000D01*
X70675000Y-57325000D01*
X70667649Y-57324639D01*
X70660368Y-57323559D01*
X70653229Y-57321771D01*
X70646299Y-57319291D01*
X70639645Y-57316144D01*
X70633332Y-57312360D01*
X70627421Y-57307976D01*
X70621967Y-57303033D01*
X70617024Y-57297579D01*
X70612640Y-57291668D01*
X70608856Y-57285355D01*
X70605709Y-57278701D01*
X70603229Y-57271771D01*
X70601441Y-57264632D01*
X70600361Y-57257351D01*
X70600000Y-57250000D01*
X70600000Y-55925000D01*
X70600361Y-55917649D01*
X70601441Y-55910368D01*
X70603229Y-55903229D01*
X70605709Y-55896299D01*
X70608856Y-55889645D01*
X70612640Y-55883332D01*
X70617024Y-55877421D01*
X70621967Y-55871967D01*
X70627421Y-55867024D01*
X70633332Y-55862640D01*
X70639645Y-55858856D01*
X70646299Y-55855709D01*
X70653229Y-55853229D01*
X70660368Y-55851441D01*
X70667649Y-55850361D01*
X70675000Y-55850000D01*
X70825000Y-55850000D01*
X70832351Y-55850361D01*
G37*
G36*
X71332351Y-55850361D02*
G01*
X71339632Y-55851441D01*
X71346771Y-55853229D01*
X71353701Y-55855709D01*
X71360355Y-55858856D01*
X71366668Y-55862640D01*
X71372579Y-55867024D01*
X71378033Y-55871967D01*
X71382976Y-55877421D01*
X71387360Y-55883332D01*
X71391144Y-55889645D01*
X71394291Y-55896299D01*
X71396771Y-55903229D01*
X71398559Y-55910368D01*
X71399639Y-55917649D01*
X71400000Y-55925000D01*
X71400000Y-57250000D01*
X71399639Y-57257351D01*
X71398559Y-57264632D01*
X71396771Y-57271771D01*
X71394291Y-57278701D01*
X71391144Y-57285355D01*
X71387360Y-57291668D01*
X71382976Y-57297579D01*
X71378033Y-57303033D01*
X71372579Y-57307976D01*
X71366668Y-57312360D01*
X71360355Y-57316144D01*
X71353701Y-57319291D01*
X71346771Y-57321771D01*
X71339632Y-57323559D01*
X71332351Y-57324639D01*
X71325000Y-57325000D01*
X71175000Y-57325000D01*
X71167649Y-57324639D01*
X71160368Y-57323559D01*
X71153229Y-57321771D01*
X71146299Y-57319291D01*
X71139645Y-57316144D01*
X71133332Y-57312360D01*
X71127421Y-57307976D01*
X71121967Y-57303033D01*
X71117024Y-57297579D01*
X71112640Y-57291668D01*
X71108856Y-57285355D01*
X71105709Y-57278701D01*
X71103229Y-57271771D01*
X71101441Y-57264632D01*
X71100361Y-57257351D01*
X71100000Y-57250000D01*
X71100000Y-55925000D01*
X71100361Y-55917649D01*
X71101441Y-55910368D01*
X71103229Y-55903229D01*
X71105709Y-55896299D01*
X71108856Y-55889645D01*
X71112640Y-55883332D01*
X71117024Y-55877421D01*
X71121967Y-55871967D01*
X71127421Y-55867024D01*
X71133332Y-55862640D01*
X71139645Y-55858856D01*
X71146299Y-55855709D01*
X71153229Y-55853229D01*
X71160368Y-55851441D01*
X71167649Y-55850361D01*
X71175000Y-55850000D01*
X71325000Y-55850000D01*
X71332351Y-55850361D01*
G37*
G36*
X71832351Y-55850361D02*
G01*
X71839632Y-55851441D01*
X71846771Y-55853229D01*
X71853701Y-55855709D01*
X71860355Y-55858856D01*
X71866668Y-55862640D01*
X71872579Y-55867024D01*
X71878033Y-55871967D01*
X71882976Y-55877421D01*
X71887360Y-55883332D01*
X71891144Y-55889645D01*
X71894291Y-55896299D01*
X71896771Y-55903229D01*
X71898559Y-55910368D01*
X71899639Y-55917649D01*
X71900000Y-55925000D01*
X71900000Y-57250000D01*
X71899639Y-57257351D01*
X71898559Y-57264632D01*
X71896771Y-57271771D01*
X71894291Y-57278701D01*
X71891144Y-57285355D01*
X71887360Y-57291668D01*
X71882976Y-57297579D01*
X71878033Y-57303033D01*
X71872579Y-57307976D01*
X71866668Y-57312360D01*
X71860355Y-57316144D01*
X71853701Y-57319291D01*
X71846771Y-57321771D01*
X71839632Y-57323559D01*
X71832351Y-57324639D01*
X71825000Y-57325000D01*
X71675000Y-57325000D01*
X71667649Y-57324639D01*
X71660368Y-57323559D01*
X71653229Y-57321771D01*
X71646299Y-57319291D01*
X71639645Y-57316144D01*
X71633332Y-57312360D01*
X71627421Y-57307976D01*
X71621967Y-57303033D01*
X71617024Y-57297579D01*
X71612640Y-57291668D01*
X71608856Y-57285355D01*
X71605709Y-57278701D01*
X71603229Y-57271771D01*
X71601441Y-57264632D01*
X71600361Y-57257351D01*
X71600000Y-57250000D01*
X71600000Y-55925000D01*
X71600361Y-55917649D01*
X71601441Y-55910368D01*
X71603229Y-55903229D01*
X71605709Y-55896299D01*
X71608856Y-55889645D01*
X71612640Y-55883332D01*
X71617024Y-55877421D01*
X71621967Y-55871967D01*
X71627421Y-55867024D01*
X71633332Y-55862640D01*
X71639645Y-55858856D01*
X71646299Y-55855709D01*
X71653229Y-55853229D01*
X71660368Y-55851441D01*
X71667649Y-55850361D01*
X71675000Y-55850000D01*
X71825000Y-55850000D01*
X71832351Y-55850361D01*
G37*
G36*
X72332351Y-55850361D02*
G01*
X72339632Y-55851441D01*
X72346771Y-55853229D01*
X72353701Y-55855709D01*
X72360355Y-55858856D01*
X72366668Y-55862640D01*
X72372579Y-55867024D01*
X72378033Y-55871967D01*
X72382976Y-55877421D01*
X72387360Y-55883332D01*
X72391144Y-55889645D01*
X72394291Y-55896299D01*
X72396771Y-55903229D01*
X72398559Y-55910368D01*
X72399639Y-55917649D01*
X72400000Y-55925000D01*
X72400000Y-57250000D01*
X72399639Y-57257351D01*
X72398559Y-57264632D01*
X72396771Y-57271771D01*
X72394291Y-57278701D01*
X72391144Y-57285355D01*
X72387360Y-57291668D01*
X72382976Y-57297579D01*
X72378033Y-57303033D01*
X72372579Y-57307976D01*
X72366668Y-57312360D01*
X72360355Y-57316144D01*
X72353701Y-57319291D01*
X72346771Y-57321771D01*
X72339632Y-57323559D01*
X72332351Y-57324639D01*
X72325000Y-57325000D01*
X72175000Y-57325000D01*
X72167649Y-57324639D01*
X72160368Y-57323559D01*
X72153229Y-57321771D01*
X72146299Y-57319291D01*
X72139645Y-57316144D01*
X72133332Y-57312360D01*
X72127421Y-57307976D01*
X72121967Y-57303033D01*
X72117024Y-57297579D01*
X72112640Y-57291668D01*
X72108856Y-57285355D01*
X72105709Y-57278701D01*
X72103229Y-57271771D01*
X72101441Y-57264632D01*
X72100361Y-57257351D01*
X72100000Y-57250000D01*
X72100000Y-55925000D01*
X72100361Y-55917649D01*
X72101441Y-55910368D01*
X72103229Y-55903229D01*
X72105709Y-55896299D01*
X72108856Y-55889645D01*
X72112640Y-55883332D01*
X72117024Y-55877421D01*
X72121967Y-55871967D01*
X72127421Y-55867024D01*
X72133332Y-55862640D01*
X72139645Y-55858856D01*
X72146299Y-55855709D01*
X72153229Y-55853229D01*
X72160368Y-55851441D01*
X72167649Y-55850361D01*
X72175000Y-55850000D01*
X72325000Y-55850000D01*
X72332351Y-55850361D01*
G37*
G36*
X72832351Y-55850361D02*
G01*
X72839632Y-55851441D01*
X72846771Y-55853229D01*
X72853701Y-55855709D01*
X72860355Y-55858856D01*
X72866668Y-55862640D01*
X72872579Y-55867024D01*
X72878033Y-55871967D01*
X72882976Y-55877421D01*
X72887360Y-55883332D01*
X72891144Y-55889645D01*
X72894291Y-55896299D01*
X72896771Y-55903229D01*
X72898559Y-55910368D01*
X72899639Y-55917649D01*
X72900000Y-55925000D01*
X72900000Y-57250000D01*
X72899639Y-57257351D01*
X72898559Y-57264632D01*
X72896771Y-57271771D01*
X72894291Y-57278701D01*
X72891144Y-57285355D01*
X72887360Y-57291668D01*
X72882976Y-57297579D01*
X72878033Y-57303033D01*
X72872579Y-57307976D01*
X72866668Y-57312360D01*
X72860355Y-57316144D01*
X72853701Y-57319291D01*
X72846771Y-57321771D01*
X72839632Y-57323559D01*
X72832351Y-57324639D01*
X72825000Y-57325000D01*
X72675000Y-57325000D01*
X72667649Y-57324639D01*
X72660368Y-57323559D01*
X72653229Y-57321771D01*
X72646299Y-57319291D01*
X72639645Y-57316144D01*
X72633332Y-57312360D01*
X72627421Y-57307976D01*
X72621967Y-57303033D01*
X72617024Y-57297579D01*
X72612640Y-57291668D01*
X72608856Y-57285355D01*
X72605709Y-57278701D01*
X72603229Y-57271771D01*
X72601441Y-57264632D01*
X72600361Y-57257351D01*
X72600000Y-57250000D01*
X72600000Y-55925000D01*
X72600361Y-55917649D01*
X72601441Y-55910368D01*
X72603229Y-55903229D01*
X72605709Y-55896299D01*
X72608856Y-55889645D01*
X72612640Y-55883332D01*
X72617024Y-55877421D01*
X72621967Y-55871967D01*
X72627421Y-55867024D01*
X72633332Y-55862640D01*
X72639645Y-55858856D01*
X72646299Y-55855709D01*
X72653229Y-55853229D01*
X72660368Y-55851441D01*
X72667649Y-55850361D01*
X72675000Y-55850000D01*
X72825000Y-55850000D01*
X72832351Y-55850361D01*
G37*
G36*
X74832351Y-57850361D02*
G01*
X74839632Y-57851441D01*
X74846771Y-57853229D01*
X74853701Y-57855709D01*
X74860355Y-57858856D01*
X74866668Y-57862640D01*
X74872579Y-57867024D01*
X74878033Y-57871967D01*
X74882976Y-57877421D01*
X74887360Y-57883332D01*
X74891144Y-57889645D01*
X74894291Y-57896299D01*
X74896771Y-57903229D01*
X74898559Y-57910368D01*
X74899639Y-57917649D01*
X74900000Y-57925000D01*
X74900000Y-58075000D01*
X74899639Y-58082351D01*
X74898559Y-58089632D01*
X74896771Y-58096771D01*
X74894291Y-58103701D01*
X74891144Y-58110355D01*
X74887360Y-58116668D01*
X74882976Y-58122579D01*
X74878033Y-58128033D01*
X74872579Y-58132976D01*
X74866668Y-58137360D01*
X74860355Y-58141144D01*
X74853701Y-58144291D01*
X74846771Y-58146771D01*
X74839632Y-58148559D01*
X74832351Y-58149639D01*
X74825000Y-58150000D01*
X73500000Y-58150000D01*
X73492649Y-58149639D01*
X73485368Y-58148559D01*
X73478229Y-58146771D01*
X73471299Y-58144291D01*
X73464645Y-58141144D01*
X73458332Y-58137360D01*
X73452421Y-58132976D01*
X73446967Y-58128033D01*
X73442024Y-58122579D01*
X73437640Y-58116668D01*
X73433856Y-58110355D01*
X73430709Y-58103701D01*
X73428229Y-58096771D01*
X73426441Y-58089632D01*
X73425361Y-58082351D01*
X73425000Y-58075000D01*
X73425000Y-57925000D01*
X73425361Y-57917649D01*
X73426441Y-57910368D01*
X73428229Y-57903229D01*
X73430709Y-57896299D01*
X73433856Y-57889645D01*
X73437640Y-57883332D01*
X73442024Y-57877421D01*
X73446967Y-57871967D01*
X73452421Y-57867024D01*
X73458332Y-57862640D01*
X73464645Y-57858856D01*
X73471299Y-57855709D01*
X73478229Y-57853229D01*
X73485368Y-57851441D01*
X73492649Y-57850361D01*
X73500000Y-57850000D01*
X74825000Y-57850000D01*
X74832351Y-57850361D01*
G37*
G36*
X74832351Y-58350361D02*
G01*
X74839632Y-58351441D01*
X74846771Y-58353229D01*
X74853701Y-58355709D01*
X74860355Y-58358856D01*
X74866668Y-58362640D01*
X74872579Y-58367024D01*
X74878033Y-58371967D01*
X74882976Y-58377421D01*
X74887360Y-58383332D01*
X74891144Y-58389645D01*
X74894291Y-58396299D01*
X74896771Y-58403229D01*
X74898559Y-58410368D01*
X74899639Y-58417649D01*
X74900000Y-58425000D01*
X74900000Y-58575000D01*
X74899639Y-58582351D01*
X74898559Y-58589632D01*
X74896771Y-58596771D01*
X74894291Y-58603701D01*
X74891144Y-58610355D01*
X74887360Y-58616668D01*
X74882976Y-58622579D01*
X74878033Y-58628033D01*
X74872579Y-58632976D01*
X74866668Y-58637360D01*
X74860355Y-58641144D01*
X74853701Y-58644291D01*
X74846771Y-58646771D01*
X74839632Y-58648559D01*
X74832351Y-58649639D01*
X74825000Y-58650000D01*
X73500000Y-58650000D01*
X73492649Y-58649639D01*
X73485368Y-58648559D01*
X73478229Y-58646771D01*
X73471299Y-58644291D01*
X73464645Y-58641144D01*
X73458332Y-58637360D01*
X73452421Y-58632976D01*
X73446967Y-58628033D01*
X73442024Y-58622579D01*
X73437640Y-58616668D01*
X73433856Y-58610355D01*
X73430709Y-58603701D01*
X73428229Y-58596771D01*
X73426441Y-58589632D01*
X73425361Y-58582351D01*
X73425000Y-58575000D01*
X73425000Y-58425000D01*
X73425361Y-58417649D01*
X73426441Y-58410368D01*
X73428229Y-58403229D01*
X73430709Y-58396299D01*
X73433856Y-58389645D01*
X73437640Y-58383332D01*
X73442024Y-58377421D01*
X73446967Y-58371967D01*
X73452421Y-58367024D01*
X73458332Y-58362640D01*
X73464645Y-58358856D01*
X73471299Y-58355709D01*
X73478229Y-58353229D01*
X73485368Y-58351441D01*
X73492649Y-58350361D01*
X73500000Y-58350000D01*
X74825000Y-58350000D01*
X74832351Y-58350361D01*
G37*
G36*
X74832351Y-58850361D02*
G01*
X74839632Y-58851441D01*
X74846771Y-58853229D01*
X74853701Y-58855709D01*
X74860355Y-58858856D01*
X74866668Y-58862640D01*
X74872579Y-58867024D01*
X74878033Y-58871967D01*
X74882976Y-58877421D01*
X74887360Y-58883332D01*
X74891144Y-58889645D01*
X74894291Y-58896299D01*
X74896771Y-58903229D01*
X74898559Y-58910368D01*
X74899639Y-58917649D01*
X74900000Y-58925000D01*
X74900000Y-59075000D01*
X74899639Y-59082351D01*
X74898559Y-59089632D01*
X74896771Y-59096771D01*
X74894291Y-59103701D01*
X74891144Y-59110355D01*
X74887360Y-59116668D01*
X74882976Y-59122579D01*
X74878033Y-59128033D01*
X74872579Y-59132976D01*
X74866668Y-59137360D01*
X74860355Y-59141144D01*
X74853701Y-59144291D01*
X74846771Y-59146771D01*
X74839632Y-59148559D01*
X74832351Y-59149639D01*
X74825000Y-59150000D01*
X73500000Y-59150000D01*
X73492649Y-59149639D01*
X73485368Y-59148559D01*
X73478229Y-59146771D01*
X73471299Y-59144291D01*
X73464645Y-59141144D01*
X73458332Y-59137360D01*
X73452421Y-59132976D01*
X73446967Y-59128033D01*
X73442024Y-59122579D01*
X73437640Y-59116668D01*
X73433856Y-59110355D01*
X73430709Y-59103701D01*
X73428229Y-59096771D01*
X73426441Y-59089632D01*
X73425361Y-59082351D01*
X73425000Y-59075000D01*
X73425000Y-58925000D01*
X73425361Y-58917649D01*
X73426441Y-58910368D01*
X73428229Y-58903229D01*
X73430709Y-58896299D01*
X73433856Y-58889645D01*
X73437640Y-58883332D01*
X73442024Y-58877421D01*
X73446967Y-58871967D01*
X73452421Y-58867024D01*
X73458332Y-58862640D01*
X73464645Y-58858856D01*
X73471299Y-58855709D01*
X73478229Y-58853229D01*
X73485368Y-58851441D01*
X73492649Y-58850361D01*
X73500000Y-58850000D01*
X74825000Y-58850000D01*
X74832351Y-58850361D01*
G37*
G36*
X74832351Y-59350361D02*
G01*
X74839632Y-59351441D01*
X74846771Y-59353229D01*
X74853701Y-59355709D01*
X74860355Y-59358856D01*
X74866668Y-59362640D01*
X74872579Y-59367024D01*
X74878033Y-59371967D01*
X74882976Y-59377421D01*
X74887360Y-59383332D01*
X74891144Y-59389645D01*
X74894291Y-59396299D01*
X74896771Y-59403229D01*
X74898559Y-59410368D01*
X74899639Y-59417649D01*
X74900000Y-59425000D01*
X74900000Y-59575000D01*
X74899639Y-59582351D01*
X74898559Y-59589632D01*
X74896771Y-59596771D01*
X74894291Y-59603701D01*
X74891144Y-59610355D01*
X74887360Y-59616668D01*
X74882976Y-59622579D01*
X74878033Y-59628033D01*
X74872579Y-59632976D01*
X74866668Y-59637360D01*
X74860355Y-59641144D01*
X74853701Y-59644291D01*
X74846771Y-59646771D01*
X74839632Y-59648559D01*
X74832351Y-59649639D01*
X74825000Y-59650000D01*
X73500000Y-59650000D01*
X73492649Y-59649639D01*
X73485368Y-59648559D01*
X73478229Y-59646771D01*
X73471299Y-59644291D01*
X73464645Y-59641144D01*
X73458332Y-59637360D01*
X73452421Y-59632976D01*
X73446967Y-59628033D01*
X73442024Y-59622579D01*
X73437640Y-59616668D01*
X73433856Y-59610355D01*
X73430709Y-59603701D01*
X73428229Y-59596771D01*
X73426441Y-59589632D01*
X73425361Y-59582351D01*
X73425000Y-59575000D01*
X73425000Y-59425000D01*
X73425361Y-59417649D01*
X73426441Y-59410368D01*
X73428229Y-59403229D01*
X73430709Y-59396299D01*
X73433856Y-59389645D01*
X73437640Y-59383332D01*
X73442024Y-59377421D01*
X73446967Y-59371967D01*
X73452421Y-59367024D01*
X73458332Y-59362640D01*
X73464645Y-59358856D01*
X73471299Y-59355709D01*
X73478229Y-59353229D01*
X73485368Y-59351441D01*
X73492649Y-59350361D01*
X73500000Y-59350000D01*
X74825000Y-59350000D01*
X74832351Y-59350361D01*
G37*
G36*
X74832351Y-59850361D02*
G01*
X74839632Y-59851441D01*
X74846771Y-59853229D01*
X74853701Y-59855709D01*
X74860355Y-59858856D01*
X74866668Y-59862640D01*
X74872579Y-59867024D01*
X74878033Y-59871967D01*
X74882976Y-59877421D01*
X74887360Y-59883332D01*
X74891144Y-59889645D01*
X74894291Y-59896299D01*
X74896771Y-59903229D01*
X74898559Y-59910368D01*
X74899639Y-59917649D01*
X74900000Y-59925000D01*
X74900000Y-60075000D01*
X74899639Y-60082351D01*
X74898559Y-60089632D01*
X74896771Y-60096771D01*
X74894291Y-60103701D01*
X74891144Y-60110355D01*
X74887360Y-60116668D01*
X74882976Y-60122579D01*
X74878033Y-60128033D01*
X74872579Y-60132976D01*
X74866668Y-60137360D01*
X74860355Y-60141144D01*
X74853701Y-60144291D01*
X74846771Y-60146771D01*
X74839632Y-60148559D01*
X74832351Y-60149639D01*
X74825000Y-60150000D01*
X73500000Y-60150000D01*
X73492649Y-60149639D01*
X73485368Y-60148559D01*
X73478229Y-60146771D01*
X73471299Y-60144291D01*
X73464645Y-60141144D01*
X73458332Y-60137360D01*
X73452421Y-60132976D01*
X73446967Y-60128033D01*
X73442024Y-60122579D01*
X73437640Y-60116668D01*
X73433856Y-60110355D01*
X73430709Y-60103701D01*
X73428229Y-60096771D01*
X73426441Y-60089632D01*
X73425361Y-60082351D01*
X73425000Y-60075000D01*
X73425000Y-59925000D01*
X73425361Y-59917649D01*
X73426441Y-59910368D01*
X73428229Y-59903229D01*
X73430709Y-59896299D01*
X73433856Y-59889645D01*
X73437640Y-59883332D01*
X73442024Y-59877421D01*
X73446967Y-59871967D01*
X73452421Y-59867024D01*
X73458332Y-59862640D01*
X73464645Y-59858856D01*
X73471299Y-59855709D01*
X73478229Y-59853229D01*
X73485368Y-59851441D01*
X73492649Y-59850361D01*
X73500000Y-59850000D01*
X74825000Y-59850000D01*
X74832351Y-59850361D01*
G37*
G36*
X74832351Y-60350361D02*
G01*
X74839632Y-60351441D01*
X74846771Y-60353229D01*
X74853701Y-60355709D01*
X74860355Y-60358856D01*
X74866668Y-60362640D01*
X74872579Y-60367024D01*
X74878033Y-60371967D01*
X74882976Y-60377421D01*
X74887360Y-60383332D01*
X74891144Y-60389645D01*
X74894291Y-60396299D01*
X74896771Y-60403229D01*
X74898559Y-60410368D01*
X74899639Y-60417649D01*
X74900000Y-60425000D01*
X74900000Y-60575000D01*
X74899639Y-60582351D01*
X74898559Y-60589632D01*
X74896771Y-60596771D01*
X74894291Y-60603701D01*
X74891144Y-60610355D01*
X74887360Y-60616668D01*
X74882976Y-60622579D01*
X74878033Y-60628033D01*
X74872579Y-60632976D01*
X74866668Y-60637360D01*
X74860355Y-60641144D01*
X74853701Y-60644291D01*
X74846771Y-60646771D01*
X74839632Y-60648559D01*
X74832351Y-60649639D01*
X74825000Y-60650000D01*
X73500000Y-60650000D01*
X73492649Y-60649639D01*
X73485368Y-60648559D01*
X73478229Y-60646771D01*
X73471299Y-60644291D01*
X73464645Y-60641144D01*
X73458332Y-60637360D01*
X73452421Y-60632976D01*
X73446967Y-60628033D01*
X73442024Y-60622579D01*
X73437640Y-60616668D01*
X73433856Y-60610355D01*
X73430709Y-60603701D01*
X73428229Y-60596771D01*
X73426441Y-60589632D01*
X73425361Y-60582351D01*
X73425000Y-60575000D01*
X73425000Y-60425000D01*
X73425361Y-60417649D01*
X73426441Y-60410368D01*
X73428229Y-60403229D01*
X73430709Y-60396299D01*
X73433856Y-60389645D01*
X73437640Y-60383332D01*
X73442024Y-60377421D01*
X73446967Y-60371967D01*
X73452421Y-60367024D01*
X73458332Y-60362640D01*
X73464645Y-60358856D01*
X73471299Y-60355709D01*
X73478229Y-60353229D01*
X73485368Y-60351441D01*
X73492649Y-60350361D01*
X73500000Y-60350000D01*
X74825000Y-60350000D01*
X74832351Y-60350361D01*
G37*
G36*
X74832351Y-60850361D02*
G01*
X74839632Y-60851441D01*
X74846771Y-60853229D01*
X74853701Y-60855709D01*
X74860355Y-60858856D01*
X74866668Y-60862640D01*
X74872579Y-60867024D01*
X74878033Y-60871967D01*
X74882976Y-60877421D01*
X74887360Y-60883332D01*
X74891144Y-60889645D01*
X74894291Y-60896299D01*
X74896771Y-60903229D01*
X74898559Y-60910368D01*
X74899639Y-60917649D01*
X74900000Y-60925000D01*
X74900000Y-61075000D01*
X74899639Y-61082351D01*
X74898559Y-61089632D01*
X74896771Y-61096771D01*
X74894291Y-61103701D01*
X74891144Y-61110355D01*
X74887360Y-61116668D01*
X74882976Y-61122579D01*
X74878033Y-61128033D01*
X74872579Y-61132976D01*
X74866668Y-61137360D01*
X74860355Y-61141144D01*
X74853701Y-61144291D01*
X74846771Y-61146771D01*
X74839632Y-61148559D01*
X74832351Y-61149639D01*
X74825000Y-61150000D01*
X73500000Y-61150000D01*
X73492649Y-61149639D01*
X73485368Y-61148559D01*
X73478229Y-61146771D01*
X73471299Y-61144291D01*
X73464645Y-61141144D01*
X73458332Y-61137360D01*
X73452421Y-61132976D01*
X73446967Y-61128033D01*
X73442024Y-61122579D01*
X73437640Y-61116668D01*
X73433856Y-61110355D01*
X73430709Y-61103701D01*
X73428229Y-61096771D01*
X73426441Y-61089632D01*
X73425361Y-61082351D01*
X73425000Y-61075000D01*
X73425000Y-60925000D01*
X73425361Y-60917649D01*
X73426441Y-60910368D01*
X73428229Y-60903229D01*
X73430709Y-60896299D01*
X73433856Y-60889645D01*
X73437640Y-60883332D01*
X73442024Y-60877421D01*
X73446967Y-60871967D01*
X73452421Y-60867024D01*
X73458332Y-60862640D01*
X73464645Y-60858856D01*
X73471299Y-60855709D01*
X73478229Y-60853229D01*
X73485368Y-60851441D01*
X73492649Y-60850361D01*
X73500000Y-60850000D01*
X74825000Y-60850000D01*
X74832351Y-60850361D01*
G37*
G36*
X74832351Y-61350361D02*
G01*
X74839632Y-61351441D01*
X74846771Y-61353229D01*
X74853701Y-61355709D01*
X74860355Y-61358856D01*
X74866668Y-61362640D01*
X74872579Y-61367024D01*
X74878033Y-61371967D01*
X74882976Y-61377421D01*
X74887360Y-61383332D01*
X74891144Y-61389645D01*
X74894291Y-61396299D01*
X74896771Y-61403229D01*
X74898559Y-61410368D01*
X74899639Y-61417649D01*
X74900000Y-61425000D01*
X74900000Y-61575000D01*
X74899639Y-61582351D01*
X74898559Y-61589632D01*
X74896771Y-61596771D01*
X74894291Y-61603701D01*
X74891144Y-61610355D01*
X74887360Y-61616668D01*
X74882976Y-61622579D01*
X74878033Y-61628033D01*
X74872579Y-61632976D01*
X74866668Y-61637360D01*
X74860355Y-61641144D01*
X74853701Y-61644291D01*
X74846771Y-61646771D01*
X74839632Y-61648559D01*
X74832351Y-61649639D01*
X74825000Y-61650000D01*
X73500000Y-61650000D01*
X73492649Y-61649639D01*
X73485368Y-61648559D01*
X73478229Y-61646771D01*
X73471299Y-61644291D01*
X73464645Y-61641144D01*
X73458332Y-61637360D01*
X73452421Y-61632976D01*
X73446967Y-61628033D01*
X73442024Y-61622579D01*
X73437640Y-61616668D01*
X73433856Y-61610355D01*
X73430709Y-61603701D01*
X73428229Y-61596771D01*
X73426441Y-61589632D01*
X73425361Y-61582351D01*
X73425000Y-61575000D01*
X73425000Y-61425000D01*
X73425361Y-61417649D01*
X73426441Y-61410368D01*
X73428229Y-61403229D01*
X73430709Y-61396299D01*
X73433856Y-61389645D01*
X73437640Y-61383332D01*
X73442024Y-61377421D01*
X73446967Y-61371967D01*
X73452421Y-61367024D01*
X73458332Y-61362640D01*
X73464645Y-61358856D01*
X73471299Y-61355709D01*
X73478229Y-61353229D01*
X73485368Y-61351441D01*
X73492649Y-61350361D01*
X73500000Y-61350000D01*
X74825000Y-61350000D01*
X74832351Y-61350361D01*
G37*
G36*
X74832351Y-61850361D02*
G01*
X74839632Y-61851441D01*
X74846771Y-61853229D01*
X74853701Y-61855709D01*
X74860355Y-61858856D01*
X74866668Y-61862640D01*
X74872579Y-61867024D01*
X74878033Y-61871967D01*
X74882976Y-61877421D01*
X74887360Y-61883332D01*
X74891144Y-61889645D01*
X74894291Y-61896299D01*
X74896771Y-61903229D01*
X74898559Y-61910368D01*
X74899639Y-61917649D01*
X74900000Y-61925000D01*
X74900000Y-62075000D01*
X74899639Y-62082351D01*
X74898559Y-62089632D01*
X74896771Y-62096771D01*
X74894291Y-62103701D01*
X74891144Y-62110355D01*
X74887360Y-62116668D01*
X74882976Y-62122579D01*
X74878033Y-62128033D01*
X74872579Y-62132976D01*
X74866668Y-62137360D01*
X74860355Y-62141144D01*
X74853701Y-62144291D01*
X74846771Y-62146771D01*
X74839632Y-62148559D01*
X74832351Y-62149639D01*
X74825000Y-62150000D01*
X73500000Y-62150000D01*
X73492649Y-62149639D01*
X73485368Y-62148559D01*
X73478229Y-62146771D01*
X73471299Y-62144291D01*
X73464645Y-62141144D01*
X73458332Y-62137360D01*
X73452421Y-62132976D01*
X73446967Y-62128033D01*
X73442024Y-62122579D01*
X73437640Y-62116668D01*
X73433856Y-62110355D01*
X73430709Y-62103701D01*
X73428229Y-62096771D01*
X73426441Y-62089632D01*
X73425361Y-62082351D01*
X73425000Y-62075000D01*
X73425000Y-61925000D01*
X73425361Y-61917649D01*
X73426441Y-61910368D01*
X73428229Y-61903229D01*
X73430709Y-61896299D01*
X73433856Y-61889645D01*
X73437640Y-61883332D01*
X73442024Y-61877421D01*
X73446967Y-61871967D01*
X73452421Y-61867024D01*
X73458332Y-61862640D01*
X73464645Y-61858856D01*
X73471299Y-61855709D01*
X73478229Y-61853229D01*
X73485368Y-61851441D01*
X73492649Y-61850361D01*
X73500000Y-61850000D01*
X74825000Y-61850000D01*
X74832351Y-61850361D01*
G37*
G36*
X74832351Y-62350361D02*
G01*
X74839632Y-62351441D01*
X74846771Y-62353229D01*
X74853701Y-62355709D01*
X74860355Y-62358856D01*
X74866668Y-62362640D01*
X74872579Y-62367024D01*
X74878033Y-62371967D01*
X74882976Y-62377421D01*
X74887360Y-62383332D01*
X74891144Y-62389645D01*
X74894291Y-62396299D01*
X74896771Y-62403229D01*
X74898559Y-62410368D01*
X74899639Y-62417649D01*
X74900000Y-62425000D01*
X74900000Y-62575000D01*
X74899639Y-62582351D01*
X74898559Y-62589632D01*
X74896771Y-62596771D01*
X74894291Y-62603701D01*
X74891144Y-62610355D01*
X74887360Y-62616668D01*
X74882976Y-62622579D01*
X74878033Y-62628033D01*
X74872579Y-62632976D01*
X74866668Y-62637360D01*
X74860355Y-62641144D01*
X74853701Y-62644291D01*
X74846771Y-62646771D01*
X74839632Y-62648559D01*
X74832351Y-62649639D01*
X74825000Y-62650000D01*
X73500000Y-62650000D01*
X73492649Y-62649639D01*
X73485368Y-62648559D01*
X73478229Y-62646771D01*
X73471299Y-62644291D01*
X73464645Y-62641144D01*
X73458332Y-62637360D01*
X73452421Y-62632976D01*
X73446967Y-62628033D01*
X73442024Y-62622579D01*
X73437640Y-62616668D01*
X73433856Y-62610355D01*
X73430709Y-62603701D01*
X73428229Y-62596771D01*
X73426441Y-62589632D01*
X73425361Y-62582351D01*
X73425000Y-62575000D01*
X73425000Y-62425000D01*
X73425361Y-62417649D01*
X73426441Y-62410368D01*
X73428229Y-62403229D01*
X73430709Y-62396299D01*
X73433856Y-62389645D01*
X73437640Y-62383332D01*
X73442024Y-62377421D01*
X73446967Y-62371967D01*
X73452421Y-62367024D01*
X73458332Y-62362640D01*
X73464645Y-62358856D01*
X73471299Y-62355709D01*
X73478229Y-62353229D01*
X73485368Y-62351441D01*
X73492649Y-62350361D01*
X73500000Y-62350000D01*
X74825000Y-62350000D01*
X74832351Y-62350361D01*
G37*
G36*
X74832351Y-62850361D02*
G01*
X74839632Y-62851441D01*
X74846771Y-62853229D01*
X74853701Y-62855709D01*
X74860355Y-62858856D01*
X74866668Y-62862640D01*
X74872579Y-62867024D01*
X74878033Y-62871967D01*
X74882976Y-62877421D01*
X74887360Y-62883332D01*
X74891144Y-62889645D01*
X74894291Y-62896299D01*
X74896771Y-62903229D01*
X74898559Y-62910368D01*
X74899639Y-62917649D01*
X74900000Y-62925000D01*
X74900000Y-63075000D01*
X74899639Y-63082351D01*
X74898559Y-63089632D01*
X74896771Y-63096771D01*
X74894291Y-63103701D01*
X74891144Y-63110355D01*
X74887360Y-63116668D01*
X74882976Y-63122579D01*
X74878033Y-63128033D01*
X74872579Y-63132976D01*
X74866668Y-63137360D01*
X74860355Y-63141144D01*
X74853701Y-63144291D01*
X74846771Y-63146771D01*
X74839632Y-63148559D01*
X74832351Y-63149639D01*
X74825000Y-63150000D01*
X73500000Y-63150000D01*
X73492649Y-63149639D01*
X73485368Y-63148559D01*
X73478229Y-63146771D01*
X73471299Y-63144291D01*
X73464645Y-63141144D01*
X73458332Y-63137360D01*
X73452421Y-63132976D01*
X73446967Y-63128033D01*
X73442024Y-63122579D01*
X73437640Y-63116668D01*
X73433856Y-63110355D01*
X73430709Y-63103701D01*
X73428229Y-63096771D01*
X73426441Y-63089632D01*
X73425361Y-63082351D01*
X73425000Y-63075000D01*
X73425000Y-62925000D01*
X73425361Y-62917649D01*
X73426441Y-62910368D01*
X73428229Y-62903229D01*
X73430709Y-62896299D01*
X73433856Y-62889645D01*
X73437640Y-62883332D01*
X73442024Y-62877421D01*
X73446967Y-62871967D01*
X73452421Y-62867024D01*
X73458332Y-62862640D01*
X73464645Y-62858856D01*
X73471299Y-62855709D01*
X73478229Y-62853229D01*
X73485368Y-62851441D01*
X73492649Y-62850361D01*
X73500000Y-62850000D01*
X74825000Y-62850000D01*
X74832351Y-62850361D01*
G37*
G36*
X74832351Y-63350361D02*
G01*
X74839632Y-63351441D01*
X74846771Y-63353229D01*
X74853701Y-63355709D01*
X74860355Y-63358856D01*
X74866668Y-63362640D01*
X74872579Y-63367024D01*
X74878033Y-63371967D01*
X74882976Y-63377421D01*
X74887360Y-63383332D01*
X74891144Y-63389645D01*
X74894291Y-63396299D01*
X74896771Y-63403229D01*
X74898559Y-63410368D01*
X74899639Y-63417649D01*
X74900000Y-63425000D01*
X74900000Y-63575000D01*
X74899639Y-63582351D01*
X74898559Y-63589632D01*
X74896771Y-63596771D01*
X74894291Y-63603701D01*
X74891144Y-63610355D01*
X74887360Y-63616668D01*
X74882976Y-63622579D01*
X74878033Y-63628033D01*
X74872579Y-63632976D01*
X74866668Y-63637360D01*
X74860355Y-63641144D01*
X74853701Y-63644291D01*
X74846771Y-63646771D01*
X74839632Y-63648559D01*
X74832351Y-63649639D01*
X74825000Y-63650000D01*
X73500000Y-63650000D01*
X73492649Y-63649639D01*
X73485368Y-63648559D01*
X73478229Y-63646771D01*
X73471299Y-63644291D01*
X73464645Y-63641144D01*
X73458332Y-63637360D01*
X73452421Y-63632976D01*
X73446967Y-63628033D01*
X73442024Y-63622579D01*
X73437640Y-63616668D01*
X73433856Y-63610355D01*
X73430709Y-63603701D01*
X73428229Y-63596771D01*
X73426441Y-63589632D01*
X73425361Y-63582351D01*
X73425000Y-63575000D01*
X73425000Y-63425000D01*
X73425361Y-63417649D01*
X73426441Y-63410368D01*
X73428229Y-63403229D01*
X73430709Y-63396299D01*
X73433856Y-63389645D01*
X73437640Y-63383332D01*
X73442024Y-63377421D01*
X73446967Y-63371967D01*
X73452421Y-63367024D01*
X73458332Y-63362640D01*
X73464645Y-63358856D01*
X73471299Y-63355709D01*
X73478229Y-63353229D01*
X73485368Y-63351441D01*
X73492649Y-63350361D01*
X73500000Y-63350000D01*
X74825000Y-63350000D01*
X74832351Y-63350361D01*
G37*
G36*
X72832351Y-64175361D02*
G01*
X72839632Y-64176441D01*
X72846771Y-64178229D01*
X72853701Y-64180709D01*
X72860355Y-64183856D01*
X72866668Y-64187640D01*
X72872579Y-64192024D01*
X72878033Y-64196967D01*
X72882976Y-64202421D01*
X72887360Y-64208332D01*
X72891144Y-64214645D01*
X72894291Y-64221299D01*
X72896771Y-64228229D01*
X72898559Y-64235368D01*
X72899639Y-64242649D01*
X72900000Y-64250000D01*
X72900000Y-65575000D01*
X72899639Y-65582351D01*
X72898559Y-65589632D01*
X72896771Y-65596771D01*
X72894291Y-65603701D01*
X72891144Y-65610355D01*
X72887360Y-65616668D01*
X72882976Y-65622579D01*
X72878033Y-65628033D01*
X72872579Y-65632976D01*
X72866668Y-65637360D01*
X72860355Y-65641144D01*
X72853701Y-65644291D01*
X72846771Y-65646771D01*
X72839632Y-65648559D01*
X72832351Y-65649639D01*
X72825000Y-65650000D01*
X72675000Y-65650000D01*
X72667649Y-65649639D01*
X72660368Y-65648559D01*
X72653229Y-65646771D01*
X72646299Y-65644291D01*
X72639645Y-65641144D01*
X72633332Y-65637360D01*
X72627421Y-65632976D01*
X72621967Y-65628033D01*
X72617024Y-65622579D01*
X72612640Y-65616668D01*
X72608856Y-65610355D01*
X72605709Y-65603701D01*
X72603229Y-65596771D01*
X72601441Y-65589632D01*
X72600361Y-65582351D01*
X72600000Y-65575000D01*
X72600000Y-64250000D01*
X72600361Y-64242649D01*
X72601441Y-64235368D01*
X72603229Y-64228229D01*
X72605709Y-64221299D01*
X72608856Y-64214645D01*
X72612640Y-64208332D01*
X72617024Y-64202421D01*
X72621967Y-64196967D01*
X72627421Y-64192024D01*
X72633332Y-64187640D01*
X72639645Y-64183856D01*
X72646299Y-64180709D01*
X72653229Y-64178229D01*
X72660368Y-64176441D01*
X72667649Y-64175361D01*
X72675000Y-64175000D01*
X72825000Y-64175000D01*
X72832351Y-64175361D01*
G37*
G36*
X72332351Y-64175361D02*
G01*
X72339632Y-64176441D01*
X72346771Y-64178229D01*
X72353701Y-64180709D01*
X72360355Y-64183856D01*
X72366668Y-64187640D01*
X72372579Y-64192024D01*
X72378033Y-64196967D01*
X72382976Y-64202421D01*
X72387360Y-64208332D01*
X72391144Y-64214645D01*
X72394291Y-64221299D01*
X72396771Y-64228229D01*
X72398559Y-64235368D01*
X72399639Y-64242649D01*
X72400000Y-64250000D01*
X72400000Y-65575000D01*
X72399639Y-65582351D01*
X72398559Y-65589632D01*
X72396771Y-65596771D01*
X72394291Y-65603701D01*
X72391144Y-65610355D01*
X72387360Y-65616668D01*
X72382976Y-65622579D01*
X72378033Y-65628033D01*
X72372579Y-65632976D01*
X72366668Y-65637360D01*
X72360355Y-65641144D01*
X72353701Y-65644291D01*
X72346771Y-65646771D01*
X72339632Y-65648559D01*
X72332351Y-65649639D01*
X72325000Y-65650000D01*
X72175000Y-65650000D01*
X72167649Y-65649639D01*
X72160368Y-65648559D01*
X72153229Y-65646771D01*
X72146299Y-65644291D01*
X72139645Y-65641144D01*
X72133332Y-65637360D01*
X72127421Y-65632976D01*
X72121967Y-65628033D01*
X72117024Y-65622579D01*
X72112640Y-65616668D01*
X72108856Y-65610355D01*
X72105709Y-65603701D01*
X72103229Y-65596771D01*
X72101441Y-65589632D01*
X72100361Y-65582351D01*
X72100000Y-65575000D01*
X72100000Y-64250000D01*
X72100361Y-64242649D01*
X72101441Y-64235368D01*
X72103229Y-64228229D01*
X72105709Y-64221299D01*
X72108856Y-64214645D01*
X72112640Y-64208332D01*
X72117024Y-64202421D01*
X72121967Y-64196967D01*
X72127421Y-64192024D01*
X72133332Y-64187640D01*
X72139645Y-64183856D01*
X72146299Y-64180709D01*
X72153229Y-64178229D01*
X72160368Y-64176441D01*
X72167649Y-64175361D01*
X72175000Y-64175000D01*
X72325000Y-64175000D01*
X72332351Y-64175361D01*
G37*
G36*
X71832351Y-64175361D02*
G01*
X71839632Y-64176441D01*
X71846771Y-64178229D01*
X71853701Y-64180709D01*
X71860355Y-64183856D01*
X71866668Y-64187640D01*
X71872579Y-64192024D01*
X71878033Y-64196967D01*
X71882976Y-64202421D01*
X71887360Y-64208332D01*
X71891144Y-64214645D01*
X71894291Y-64221299D01*
X71896771Y-64228229D01*
X71898559Y-64235368D01*
X71899639Y-64242649D01*
X71900000Y-64250000D01*
X71900000Y-65575000D01*
X71899639Y-65582351D01*
X71898559Y-65589632D01*
X71896771Y-65596771D01*
X71894291Y-65603701D01*
X71891144Y-65610355D01*
X71887360Y-65616668D01*
X71882976Y-65622579D01*
X71878033Y-65628033D01*
X71872579Y-65632976D01*
X71866668Y-65637360D01*
X71860355Y-65641144D01*
X71853701Y-65644291D01*
X71846771Y-65646771D01*
X71839632Y-65648559D01*
X71832351Y-65649639D01*
X71825000Y-65650000D01*
X71675000Y-65650000D01*
X71667649Y-65649639D01*
X71660368Y-65648559D01*
X71653229Y-65646771D01*
X71646299Y-65644291D01*
X71639645Y-65641144D01*
X71633332Y-65637360D01*
X71627421Y-65632976D01*
X71621967Y-65628033D01*
X71617024Y-65622579D01*
X71612640Y-65616668D01*
X71608856Y-65610355D01*
X71605709Y-65603701D01*
X71603229Y-65596771D01*
X71601441Y-65589632D01*
X71600361Y-65582351D01*
X71600000Y-65575000D01*
X71600000Y-64250000D01*
X71600361Y-64242649D01*
X71601441Y-64235368D01*
X71603229Y-64228229D01*
X71605709Y-64221299D01*
X71608856Y-64214645D01*
X71612640Y-64208332D01*
X71617024Y-64202421D01*
X71621967Y-64196967D01*
X71627421Y-64192024D01*
X71633332Y-64187640D01*
X71639645Y-64183856D01*
X71646299Y-64180709D01*
X71653229Y-64178229D01*
X71660368Y-64176441D01*
X71667649Y-64175361D01*
X71675000Y-64175000D01*
X71825000Y-64175000D01*
X71832351Y-64175361D01*
G37*
G36*
X71332351Y-64175361D02*
G01*
X71339632Y-64176441D01*
X71346771Y-64178229D01*
X71353701Y-64180709D01*
X71360355Y-64183856D01*
X71366668Y-64187640D01*
X71372579Y-64192024D01*
X71378033Y-64196967D01*
X71382976Y-64202421D01*
X71387360Y-64208332D01*
X71391144Y-64214645D01*
X71394291Y-64221299D01*
X71396771Y-64228229D01*
X71398559Y-64235368D01*
X71399639Y-64242649D01*
X71400000Y-64250000D01*
X71400000Y-65575000D01*
X71399639Y-65582351D01*
X71398559Y-65589632D01*
X71396771Y-65596771D01*
X71394291Y-65603701D01*
X71391144Y-65610355D01*
X71387360Y-65616668D01*
X71382976Y-65622579D01*
X71378033Y-65628033D01*
X71372579Y-65632976D01*
X71366668Y-65637360D01*
X71360355Y-65641144D01*
X71353701Y-65644291D01*
X71346771Y-65646771D01*
X71339632Y-65648559D01*
X71332351Y-65649639D01*
X71325000Y-65650000D01*
X71175000Y-65650000D01*
X71167649Y-65649639D01*
X71160368Y-65648559D01*
X71153229Y-65646771D01*
X71146299Y-65644291D01*
X71139645Y-65641144D01*
X71133332Y-65637360D01*
X71127421Y-65632976D01*
X71121967Y-65628033D01*
X71117024Y-65622579D01*
X71112640Y-65616668D01*
X71108856Y-65610355D01*
X71105709Y-65603701D01*
X71103229Y-65596771D01*
X71101441Y-65589632D01*
X71100361Y-65582351D01*
X71100000Y-65575000D01*
X71100000Y-64250000D01*
X71100361Y-64242649D01*
X71101441Y-64235368D01*
X71103229Y-64228229D01*
X71105709Y-64221299D01*
X71108856Y-64214645D01*
X71112640Y-64208332D01*
X71117024Y-64202421D01*
X71121967Y-64196967D01*
X71127421Y-64192024D01*
X71133332Y-64187640D01*
X71139645Y-64183856D01*
X71146299Y-64180709D01*
X71153229Y-64178229D01*
X71160368Y-64176441D01*
X71167649Y-64175361D01*
X71175000Y-64175000D01*
X71325000Y-64175000D01*
X71332351Y-64175361D01*
G37*
G36*
X70832351Y-64175361D02*
G01*
X70839632Y-64176441D01*
X70846771Y-64178229D01*
X70853701Y-64180709D01*
X70860355Y-64183856D01*
X70866668Y-64187640D01*
X70872579Y-64192024D01*
X70878033Y-64196967D01*
X70882976Y-64202421D01*
X70887360Y-64208332D01*
X70891144Y-64214645D01*
X70894291Y-64221299D01*
X70896771Y-64228229D01*
X70898559Y-64235368D01*
X70899639Y-64242649D01*
X70900000Y-64250000D01*
X70900000Y-65575000D01*
X70899639Y-65582351D01*
X70898559Y-65589632D01*
X70896771Y-65596771D01*
X70894291Y-65603701D01*
X70891144Y-65610355D01*
X70887360Y-65616668D01*
X70882976Y-65622579D01*
X70878033Y-65628033D01*
X70872579Y-65632976D01*
X70866668Y-65637360D01*
X70860355Y-65641144D01*
X70853701Y-65644291D01*
X70846771Y-65646771D01*
X70839632Y-65648559D01*
X70832351Y-65649639D01*
X70825000Y-65650000D01*
X70675000Y-65650000D01*
X70667649Y-65649639D01*
X70660368Y-65648559D01*
X70653229Y-65646771D01*
X70646299Y-65644291D01*
X70639645Y-65641144D01*
X70633332Y-65637360D01*
X70627421Y-65632976D01*
X70621967Y-65628033D01*
X70617024Y-65622579D01*
X70612640Y-65616668D01*
X70608856Y-65610355D01*
X70605709Y-65603701D01*
X70603229Y-65596771D01*
X70601441Y-65589632D01*
X70600361Y-65582351D01*
X70600000Y-65575000D01*
X70600000Y-64250000D01*
X70600361Y-64242649D01*
X70601441Y-64235368D01*
X70603229Y-64228229D01*
X70605709Y-64221299D01*
X70608856Y-64214645D01*
X70612640Y-64208332D01*
X70617024Y-64202421D01*
X70621967Y-64196967D01*
X70627421Y-64192024D01*
X70633332Y-64187640D01*
X70639645Y-64183856D01*
X70646299Y-64180709D01*
X70653229Y-64178229D01*
X70660368Y-64176441D01*
X70667649Y-64175361D01*
X70675000Y-64175000D01*
X70825000Y-64175000D01*
X70832351Y-64175361D01*
G37*
G36*
X70332351Y-64175361D02*
G01*
X70339632Y-64176441D01*
X70346771Y-64178229D01*
X70353701Y-64180709D01*
X70360355Y-64183856D01*
X70366668Y-64187640D01*
X70372579Y-64192024D01*
X70378033Y-64196967D01*
X70382976Y-64202421D01*
X70387360Y-64208332D01*
X70391144Y-64214645D01*
X70394291Y-64221299D01*
X70396771Y-64228229D01*
X70398559Y-64235368D01*
X70399639Y-64242649D01*
X70400000Y-64250000D01*
X70400000Y-65575000D01*
X70399639Y-65582351D01*
X70398559Y-65589632D01*
X70396771Y-65596771D01*
X70394291Y-65603701D01*
X70391144Y-65610355D01*
X70387360Y-65616668D01*
X70382976Y-65622579D01*
X70378033Y-65628033D01*
X70372579Y-65632976D01*
X70366668Y-65637360D01*
X70360355Y-65641144D01*
X70353701Y-65644291D01*
X70346771Y-65646771D01*
X70339632Y-65648559D01*
X70332351Y-65649639D01*
X70325000Y-65650000D01*
X70175000Y-65650000D01*
X70167649Y-65649639D01*
X70160368Y-65648559D01*
X70153229Y-65646771D01*
X70146299Y-65644291D01*
X70139645Y-65641144D01*
X70133332Y-65637360D01*
X70127421Y-65632976D01*
X70121967Y-65628033D01*
X70117024Y-65622579D01*
X70112640Y-65616668D01*
X70108856Y-65610355D01*
X70105709Y-65603701D01*
X70103229Y-65596771D01*
X70101441Y-65589632D01*
X70100361Y-65582351D01*
X70100000Y-65575000D01*
X70100000Y-64250000D01*
X70100361Y-64242649D01*
X70101441Y-64235368D01*
X70103229Y-64228229D01*
X70105709Y-64221299D01*
X70108856Y-64214645D01*
X70112640Y-64208332D01*
X70117024Y-64202421D01*
X70121967Y-64196967D01*
X70127421Y-64192024D01*
X70133332Y-64187640D01*
X70139645Y-64183856D01*
X70146299Y-64180709D01*
X70153229Y-64178229D01*
X70160368Y-64176441D01*
X70167649Y-64175361D01*
X70175000Y-64175000D01*
X70325000Y-64175000D01*
X70332351Y-64175361D01*
G37*
G36*
X69832351Y-64175361D02*
G01*
X69839632Y-64176441D01*
X69846771Y-64178229D01*
X69853701Y-64180709D01*
X69860355Y-64183856D01*
X69866668Y-64187640D01*
X69872579Y-64192024D01*
X69878033Y-64196967D01*
X69882976Y-64202421D01*
X69887360Y-64208332D01*
X69891144Y-64214645D01*
X69894291Y-64221299D01*
X69896771Y-64228229D01*
X69898559Y-64235368D01*
X69899639Y-64242649D01*
X69900000Y-64250000D01*
X69900000Y-65575000D01*
X69899639Y-65582351D01*
X69898559Y-65589632D01*
X69896771Y-65596771D01*
X69894291Y-65603701D01*
X69891144Y-65610355D01*
X69887360Y-65616668D01*
X69882976Y-65622579D01*
X69878033Y-65628033D01*
X69872579Y-65632976D01*
X69866668Y-65637360D01*
X69860355Y-65641144D01*
X69853701Y-65644291D01*
X69846771Y-65646771D01*
X69839632Y-65648559D01*
X69832351Y-65649639D01*
X69825000Y-65650000D01*
X69675000Y-65650000D01*
X69667649Y-65649639D01*
X69660368Y-65648559D01*
X69653229Y-65646771D01*
X69646299Y-65644291D01*
X69639645Y-65641144D01*
X69633332Y-65637360D01*
X69627421Y-65632976D01*
X69621967Y-65628033D01*
X69617024Y-65622579D01*
X69612640Y-65616668D01*
X69608856Y-65610355D01*
X69605709Y-65603701D01*
X69603229Y-65596771D01*
X69601441Y-65589632D01*
X69600361Y-65582351D01*
X69600000Y-65575000D01*
X69600000Y-64250000D01*
X69600361Y-64242649D01*
X69601441Y-64235368D01*
X69603229Y-64228229D01*
X69605709Y-64221299D01*
X69608856Y-64214645D01*
X69612640Y-64208332D01*
X69617024Y-64202421D01*
X69621967Y-64196967D01*
X69627421Y-64192024D01*
X69633332Y-64187640D01*
X69639645Y-64183856D01*
X69646299Y-64180709D01*
X69653229Y-64178229D01*
X69660368Y-64176441D01*
X69667649Y-64175361D01*
X69675000Y-64175000D01*
X69825000Y-64175000D01*
X69832351Y-64175361D01*
G37*
G36*
X69332351Y-64175361D02*
G01*
X69339632Y-64176441D01*
X69346771Y-64178229D01*
X69353701Y-64180709D01*
X69360355Y-64183856D01*
X69366668Y-64187640D01*
X69372579Y-64192024D01*
X69378033Y-64196967D01*
X69382976Y-64202421D01*
X69387360Y-64208332D01*
X69391144Y-64214645D01*
X69394291Y-64221299D01*
X69396771Y-64228229D01*
X69398559Y-64235368D01*
X69399639Y-64242649D01*
X69400000Y-64250000D01*
X69400000Y-65575000D01*
X69399639Y-65582351D01*
X69398559Y-65589632D01*
X69396771Y-65596771D01*
X69394291Y-65603701D01*
X69391144Y-65610355D01*
X69387360Y-65616668D01*
X69382976Y-65622579D01*
X69378033Y-65628033D01*
X69372579Y-65632976D01*
X69366668Y-65637360D01*
X69360355Y-65641144D01*
X69353701Y-65644291D01*
X69346771Y-65646771D01*
X69339632Y-65648559D01*
X69332351Y-65649639D01*
X69325000Y-65650000D01*
X69175000Y-65650000D01*
X69167649Y-65649639D01*
X69160368Y-65648559D01*
X69153229Y-65646771D01*
X69146299Y-65644291D01*
X69139645Y-65641144D01*
X69133332Y-65637360D01*
X69127421Y-65632976D01*
X69121967Y-65628033D01*
X69117024Y-65622579D01*
X69112640Y-65616668D01*
X69108856Y-65610355D01*
X69105709Y-65603701D01*
X69103229Y-65596771D01*
X69101441Y-65589632D01*
X69100361Y-65582351D01*
X69100000Y-65575000D01*
X69100000Y-64250000D01*
X69100361Y-64242649D01*
X69101441Y-64235368D01*
X69103229Y-64228229D01*
X69105709Y-64221299D01*
X69108856Y-64214645D01*
X69112640Y-64208332D01*
X69117024Y-64202421D01*
X69121967Y-64196967D01*
X69127421Y-64192024D01*
X69133332Y-64187640D01*
X69139645Y-64183856D01*
X69146299Y-64180709D01*
X69153229Y-64178229D01*
X69160368Y-64176441D01*
X69167649Y-64175361D01*
X69175000Y-64175000D01*
X69325000Y-64175000D01*
X69332351Y-64175361D01*
G37*
G36*
X68832351Y-64175361D02*
G01*
X68839632Y-64176441D01*
X68846771Y-64178229D01*
X68853701Y-64180709D01*
X68860355Y-64183856D01*
X68866668Y-64187640D01*
X68872579Y-64192024D01*
X68878033Y-64196967D01*
X68882976Y-64202421D01*
X68887360Y-64208332D01*
X68891144Y-64214645D01*
X68894291Y-64221299D01*
X68896771Y-64228229D01*
X68898559Y-64235368D01*
X68899639Y-64242649D01*
X68900000Y-64250000D01*
X68900000Y-65575000D01*
X68899639Y-65582351D01*
X68898559Y-65589632D01*
X68896771Y-65596771D01*
X68894291Y-65603701D01*
X68891144Y-65610355D01*
X68887360Y-65616668D01*
X68882976Y-65622579D01*
X68878033Y-65628033D01*
X68872579Y-65632976D01*
X68866668Y-65637360D01*
X68860355Y-65641144D01*
X68853701Y-65644291D01*
X68846771Y-65646771D01*
X68839632Y-65648559D01*
X68832351Y-65649639D01*
X68825000Y-65650000D01*
X68675000Y-65650000D01*
X68667649Y-65649639D01*
X68660368Y-65648559D01*
X68653229Y-65646771D01*
X68646299Y-65644291D01*
X68639645Y-65641144D01*
X68633332Y-65637360D01*
X68627421Y-65632976D01*
X68621967Y-65628033D01*
X68617024Y-65622579D01*
X68612640Y-65616668D01*
X68608856Y-65610355D01*
X68605709Y-65603701D01*
X68603229Y-65596771D01*
X68601441Y-65589632D01*
X68600361Y-65582351D01*
X68600000Y-65575000D01*
X68600000Y-64250000D01*
X68600361Y-64242649D01*
X68601441Y-64235368D01*
X68603229Y-64228229D01*
X68605709Y-64221299D01*
X68608856Y-64214645D01*
X68612640Y-64208332D01*
X68617024Y-64202421D01*
X68621967Y-64196967D01*
X68627421Y-64192024D01*
X68633332Y-64187640D01*
X68639645Y-64183856D01*
X68646299Y-64180709D01*
X68653229Y-64178229D01*
X68660368Y-64176441D01*
X68667649Y-64175361D01*
X68675000Y-64175000D01*
X68825000Y-64175000D01*
X68832351Y-64175361D01*
G37*
G36*
X68332351Y-64175361D02*
G01*
X68339632Y-64176441D01*
X68346771Y-64178229D01*
X68353701Y-64180709D01*
X68360355Y-64183856D01*
X68366668Y-64187640D01*
X68372579Y-64192024D01*
X68378033Y-64196967D01*
X68382976Y-64202421D01*
X68387360Y-64208332D01*
X68391144Y-64214645D01*
X68394291Y-64221299D01*
X68396771Y-64228229D01*
X68398559Y-64235368D01*
X68399639Y-64242649D01*
X68400000Y-64250000D01*
X68400000Y-65575000D01*
X68399639Y-65582351D01*
X68398559Y-65589632D01*
X68396771Y-65596771D01*
X68394291Y-65603701D01*
X68391144Y-65610355D01*
X68387360Y-65616668D01*
X68382976Y-65622579D01*
X68378033Y-65628033D01*
X68372579Y-65632976D01*
X68366668Y-65637360D01*
X68360355Y-65641144D01*
X68353701Y-65644291D01*
X68346771Y-65646771D01*
X68339632Y-65648559D01*
X68332351Y-65649639D01*
X68325000Y-65650000D01*
X68175000Y-65650000D01*
X68167649Y-65649639D01*
X68160368Y-65648559D01*
X68153229Y-65646771D01*
X68146299Y-65644291D01*
X68139645Y-65641144D01*
X68133332Y-65637360D01*
X68127421Y-65632976D01*
X68121967Y-65628033D01*
X68117024Y-65622579D01*
X68112640Y-65616668D01*
X68108856Y-65610355D01*
X68105709Y-65603701D01*
X68103229Y-65596771D01*
X68101441Y-65589632D01*
X68100361Y-65582351D01*
X68100000Y-65575000D01*
X68100000Y-64250000D01*
X68100361Y-64242649D01*
X68101441Y-64235368D01*
X68103229Y-64228229D01*
X68105709Y-64221299D01*
X68108856Y-64214645D01*
X68112640Y-64208332D01*
X68117024Y-64202421D01*
X68121967Y-64196967D01*
X68127421Y-64192024D01*
X68133332Y-64187640D01*
X68139645Y-64183856D01*
X68146299Y-64180709D01*
X68153229Y-64178229D01*
X68160368Y-64176441D01*
X68167649Y-64175361D01*
X68175000Y-64175000D01*
X68325000Y-64175000D01*
X68332351Y-64175361D01*
G37*
G36*
X67832351Y-64175361D02*
G01*
X67839632Y-64176441D01*
X67846771Y-64178229D01*
X67853701Y-64180709D01*
X67860355Y-64183856D01*
X67866668Y-64187640D01*
X67872579Y-64192024D01*
X67878033Y-64196967D01*
X67882976Y-64202421D01*
X67887360Y-64208332D01*
X67891144Y-64214645D01*
X67894291Y-64221299D01*
X67896771Y-64228229D01*
X67898559Y-64235368D01*
X67899639Y-64242649D01*
X67900000Y-64250000D01*
X67900000Y-65575000D01*
X67899639Y-65582351D01*
X67898559Y-65589632D01*
X67896771Y-65596771D01*
X67894291Y-65603701D01*
X67891144Y-65610355D01*
X67887360Y-65616668D01*
X67882976Y-65622579D01*
X67878033Y-65628033D01*
X67872579Y-65632976D01*
X67866668Y-65637360D01*
X67860355Y-65641144D01*
X67853701Y-65644291D01*
X67846771Y-65646771D01*
X67839632Y-65648559D01*
X67832351Y-65649639D01*
X67825000Y-65650000D01*
X67675000Y-65650000D01*
X67667649Y-65649639D01*
X67660368Y-65648559D01*
X67653229Y-65646771D01*
X67646299Y-65644291D01*
X67639645Y-65641144D01*
X67633332Y-65637360D01*
X67627421Y-65632976D01*
X67621967Y-65628033D01*
X67617024Y-65622579D01*
X67612640Y-65616668D01*
X67608856Y-65610355D01*
X67605709Y-65603701D01*
X67603229Y-65596771D01*
X67601441Y-65589632D01*
X67600361Y-65582351D01*
X67600000Y-65575000D01*
X67600000Y-64250000D01*
X67600361Y-64242649D01*
X67601441Y-64235368D01*
X67603229Y-64228229D01*
X67605709Y-64221299D01*
X67608856Y-64214645D01*
X67612640Y-64208332D01*
X67617024Y-64202421D01*
X67621967Y-64196967D01*
X67627421Y-64192024D01*
X67633332Y-64187640D01*
X67639645Y-64183856D01*
X67646299Y-64180709D01*
X67653229Y-64178229D01*
X67660368Y-64176441D01*
X67667649Y-64175361D01*
X67675000Y-64175000D01*
X67825000Y-64175000D01*
X67832351Y-64175361D01*
G37*
G36*
X67332351Y-64175361D02*
G01*
X67339632Y-64176441D01*
X67346771Y-64178229D01*
X67353701Y-64180709D01*
X67360355Y-64183856D01*
X67366668Y-64187640D01*
X67372579Y-64192024D01*
X67378033Y-64196967D01*
X67382976Y-64202421D01*
X67387360Y-64208332D01*
X67391144Y-64214645D01*
X67394291Y-64221299D01*
X67396771Y-64228229D01*
X67398559Y-64235368D01*
X67399639Y-64242649D01*
X67400000Y-64250000D01*
X67400000Y-65575000D01*
X67399639Y-65582351D01*
X67398559Y-65589632D01*
X67396771Y-65596771D01*
X67394291Y-65603701D01*
X67391144Y-65610355D01*
X67387360Y-65616668D01*
X67382976Y-65622579D01*
X67378033Y-65628033D01*
X67372579Y-65632976D01*
X67366668Y-65637360D01*
X67360355Y-65641144D01*
X67353701Y-65644291D01*
X67346771Y-65646771D01*
X67339632Y-65648559D01*
X67332351Y-65649639D01*
X67325000Y-65650000D01*
X67175000Y-65650000D01*
X67167649Y-65649639D01*
X67160368Y-65648559D01*
X67153229Y-65646771D01*
X67146299Y-65644291D01*
X67139645Y-65641144D01*
X67133332Y-65637360D01*
X67127421Y-65632976D01*
X67121967Y-65628033D01*
X67117024Y-65622579D01*
X67112640Y-65616668D01*
X67108856Y-65610355D01*
X67105709Y-65603701D01*
X67103229Y-65596771D01*
X67101441Y-65589632D01*
X67100361Y-65582351D01*
X67100000Y-65575000D01*
X67100000Y-64250000D01*
X67100361Y-64242649D01*
X67101441Y-64235368D01*
X67103229Y-64228229D01*
X67105709Y-64221299D01*
X67108856Y-64214645D01*
X67112640Y-64208332D01*
X67117024Y-64202421D01*
X67121967Y-64196967D01*
X67127421Y-64192024D01*
X67133332Y-64187640D01*
X67139645Y-64183856D01*
X67146299Y-64180709D01*
X67153229Y-64178229D01*
X67160368Y-64176441D01*
X67167649Y-64175361D01*
X67175000Y-64175000D01*
X67325000Y-64175000D01*
X67332351Y-64175361D01*
G37*
G36*
X66507351Y-63350361D02*
G01*
X66514632Y-63351441D01*
X66521771Y-63353229D01*
X66528701Y-63355709D01*
X66535355Y-63358856D01*
X66541668Y-63362640D01*
X66547579Y-63367024D01*
X66553033Y-63371967D01*
X66557976Y-63377421D01*
X66562360Y-63383332D01*
X66566144Y-63389645D01*
X66569291Y-63396299D01*
X66571771Y-63403229D01*
X66573559Y-63410368D01*
X66574639Y-63417649D01*
X66575000Y-63425000D01*
X66575000Y-63575000D01*
X66574639Y-63582351D01*
X66573559Y-63589632D01*
X66571771Y-63596771D01*
X66569291Y-63603701D01*
X66566144Y-63610355D01*
X66562360Y-63616668D01*
X66557976Y-63622579D01*
X66553033Y-63628033D01*
X66547579Y-63632976D01*
X66541668Y-63637360D01*
X66535355Y-63641144D01*
X66528701Y-63644291D01*
X66521771Y-63646771D01*
X66514632Y-63648559D01*
X66507351Y-63649639D01*
X66500000Y-63650000D01*
X65175000Y-63650000D01*
X65167649Y-63649639D01*
X65160368Y-63648559D01*
X65153229Y-63646771D01*
X65146299Y-63644291D01*
X65139645Y-63641144D01*
X65133332Y-63637360D01*
X65127421Y-63632976D01*
X65121967Y-63628033D01*
X65117024Y-63622579D01*
X65112640Y-63616668D01*
X65108856Y-63610355D01*
X65105709Y-63603701D01*
X65103229Y-63596771D01*
X65101441Y-63589632D01*
X65100361Y-63582351D01*
X65100000Y-63575000D01*
X65100000Y-63425000D01*
X65100361Y-63417649D01*
X65101441Y-63410368D01*
X65103229Y-63403229D01*
X65105709Y-63396299D01*
X65108856Y-63389645D01*
X65112640Y-63383332D01*
X65117024Y-63377421D01*
X65121967Y-63371967D01*
X65127421Y-63367024D01*
X65133332Y-63362640D01*
X65139645Y-63358856D01*
X65146299Y-63355709D01*
X65153229Y-63353229D01*
X65160368Y-63351441D01*
X65167649Y-63350361D01*
X65175000Y-63350000D01*
X66500000Y-63350000D01*
X66507351Y-63350361D01*
G37*
G36*
X66507351Y-62850361D02*
G01*
X66514632Y-62851441D01*
X66521771Y-62853229D01*
X66528701Y-62855709D01*
X66535355Y-62858856D01*
X66541668Y-62862640D01*
X66547579Y-62867024D01*
X66553033Y-62871967D01*
X66557976Y-62877421D01*
X66562360Y-62883332D01*
X66566144Y-62889645D01*
X66569291Y-62896299D01*
X66571771Y-62903229D01*
X66573559Y-62910368D01*
X66574639Y-62917649D01*
X66575000Y-62925000D01*
X66575000Y-63075000D01*
X66574639Y-63082351D01*
X66573559Y-63089632D01*
X66571771Y-63096771D01*
X66569291Y-63103701D01*
X66566144Y-63110355D01*
X66562360Y-63116668D01*
X66557976Y-63122579D01*
X66553033Y-63128033D01*
X66547579Y-63132976D01*
X66541668Y-63137360D01*
X66535355Y-63141144D01*
X66528701Y-63144291D01*
X66521771Y-63146771D01*
X66514632Y-63148559D01*
X66507351Y-63149639D01*
X66500000Y-63150000D01*
X65175000Y-63150000D01*
X65167649Y-63149639D01*
X65160368Y-63148559D01*
X65153229Y-63146771D01*
X65146299Y-63144291D01*
X65139645Y-63141144D01*
X65133332Y-63137360D01*
X65127421Y-63132976D01*
X65121967Y-63128033D01*
X65117024Y-63122579D01*
X65112640Y-63116668D01*
X65108856Y-63110355D01*
X65105709Y-63103701D01*
X65103229Y-63096771D01*
X65101441Y-63089632D01*
X65100361Y-63082351D01*
X65100000Y-63075000D01*
X65100000Y-62925000D01*
X65100361Y-62917649D01*
X65101441Y-62910368D01*
X65103229Y-62903229D01*
X65105709Y-62896299D01*
X65108856Y-62889645D01*
X65112640Y-62883332D01*
X65117024Y-62877421D01*
X65121967Y-62871967D01*
X65127421Y-62867024D01*
X65133332Y-62862640D01*
X65139645Y-62858856D01*
X65146299Y-62855709D01*
X65153229Y-62853229D01*
X65160368Y-62851441D01*
X65167649Y-62850361D01*
X65175000Y-62850000D01*
X66500000Y-62850000D01*
X66507351Y-62850361D01*
G37*
G36*
X66507351Y-62350361D02*
G01*
X66514632Y-62351441D01*
X66521771Y-62353229D01*
X66528701Y-62355709D01*
X66535355Y-62358856D01*
X66541668Y-62362640D01*
X66547579Y-62367024D01*
X66553033Y-62371967D01*
X66557976Y-62377421D01*
X66562360Y-62383332D01*
X66566144Y-62389645D01*
X66569291Y-62396299D01*
X66571771Y-62403229D01*
X66573559Y-62410368D01*
X66574639Y-62417649D01*
X66575000Y-62425000D01*
X66575000Y-62575000D01*
X66574639Y-62582351D01*
X66573559Y-62589632D01*
X66571771Y-62596771D01*
X66569291Y-62603701D01*
X66566144Y-62610355D01*
X66562360Y-62616668D01*
X66557976Y-62622579D01*
X66553033Y-62628033D01*
X66547579Y-62632976D01*
X66541668Y-62637360D01*
X66535355Y-62641144D01*
X66528701Y-62644291D01*
X66521771Y-62646771D01*
X66514632Y-62648559D01*
X66507351Y-62649639D01*
X66500000Y-62650000D01*
X65175000Y-62650000D01*
X65167649Y-62649639D01*
X65160368Y-62648559D01*
X65153229Y-62646771D01*
X65146299Y-62644291D01*
X65139645Y-62641144D01*
X65133332Y-62637360D01*
X65127421Y-62632976D01*
X65121967Y-62628033D01*
X65117024Y-62622579D01*
X65112640Y-62616668D01*
X65108856Y-62610355D01*
X65105709Y-62603701D01*
X65103229Y-62596771D01*
X65101441Y-62589632D01*
X65100361Y-62582351D01*
X65100000Y-62575000D01*
X65100000Y-62425000D01*
X65100361Y-62417649D01*
X65101441Y-62410368D01*
X65103229Y-62403229D01*
X65105709Y-62396299D01*
X65108856Y-62389645D01*
X65112640Y-62383332D01*
X65117024Y-62377421D01*
X65121967Y-62371967D01*
X65127421Y-62367024D01*
X65133332Y-62362640D01*
X65139645Y-62358856D01*
X65146299Y-62355709D01*
X65153229Y-62353229D01*
X65160368Y-62351441D01*
X65167649Y-62350361D01*
X65175000Y-62350000D01*
X66500000Y-62350000D01*
X66507351Y-62350361D01*
G37*
G36*
X66507351Y-61850361D02*
G01*
X66514632Y-61851441D01*
X66521771Y-61853229D01*
X66528701Y-61855709D01*
X66535355Y-61858856D01*
X66541668Y-61862640D01*
X66547579Y-61867024D01*
X66553033Y-61871967D01*
X66557976Y-61877421D01*
X66562360Y-61883332D01*
X66566144Y-61889645D01*
X66569291Y-61896299D01*
X66571771Y-61903229D01*
X66573559Y-61910368D01*
X66574639Y-61917649D01*
X66575000Y-61925000D01*
X66575000Y-62075000D01*
X66574639Y-62082351D01*
X66573559Y-62089632D01*
X66571771Y-62096771D01*
X66569291Y-62103701D01*
X66566144Y-62110355D01*
X66562360Y-62116668D01*
X66557976Y-62122579D01*
X66553033Y-62128033D01*
X66547579Y-62132976D01*
X66541668Y-62137360D01*
X66535355Y-62141144D01*
X66528701Y-62144291D01*
X66521771Y-62146771D01*
X66514632Y-62148559D01*
X66507351Y-62149639D01*
X66500000Y-62150000D01*
X65175000Y-62150000D01*
X65167649Y-62149639D01*
X65160368Y-62148559D01*
X65153229Y-62146771D01*
X65146299Y-62144291D01*
X65139645Y-62141144D01*
X65133332Y-62137360D01*
X65127421Y-62132976D01*
X65121967Y-62128033D01*
X65117024Y-62122579D01*
X65112640Y-62116668D01*
X65108856Y-62110355D01*
X65105709Y-62103701D01*
X65103229Y-62096771D01*
X65101441Y-62089632D01*
X65100361Y-62082351D01*
X65100000Y-62075000D01*
X65100000Y-61925000D01*
X65100361Y-61917649D01*
X65101441Y-61910368D01*
X65103229Y-61903229D01*
X65105709Y-61896299D01*
X65108856Y-61889645D01*
X65112640Y-61883332D01*
X65117024Y-61877421D01*
X65121967Y-61871967D01*
X65127421Y-61867024D01*
X65133332Y-61862640D01*
X65139645Y-61858856D01*
X65146299Y-61855709D01*
X65153229Y-61853229D01*
X65160368Y-61851441D01*
X65167649Y-61850361D01*
X65175000Y-61850000D01*
X66500000Y-61850000D01*
X66507351Y-61850361D01*
G37*
G36*
X66507351Y-61350361D02*
G01*
X66514632Y-61351441D01*
X66521771Y-61353229D01*
X66528701Y-61355709D01*
X66535355Y-61358856D01*
X66541668Y-61362640D01*
X66547579Y-61367024D01*
X66553033Y-61371967D01*
X66557976Y-61377421D01*
X66562360Y-61383332D01*
X66566144Y-61389645D01*
X66569291Y-61396299D01*
X66571771Y-61403229D01*
X66573559Y-61410368D01*
X66574639Y-61417649D01*
X66575000Y-61425000D01*
X66575000Y-61575000D01*
X66574639Y-61582351D01*
X66573559Y-61589632D01*
X66571771Y-61596771D01*
X66569291Y-61603701D01*
X66566144Y-61610355D01*
X66562360Y-61616668D01*
X66557976Y-61622579D01*
X66553033Y-61628033D01*
X66547579Y-61632976D01*
X66541668Y-61637360D01*
X66535355Y-61641144D01*
X66528701Y-61644291D01*
X66521771Y-61646771D01*
X66514632Y-61648559D01*
X66507351Y-61649639D01*
X66500000Y-61650000D01*
X65175000Y-61650000D01*
X65167649Y-61649639D01*
X65160368Y-61648559D01*
X65153229Y-61646771D01*
X65146299Y-61644291D01*
X65139645Y-61641144D01*
X65133332Y-61637360D01*
X65127421Y-61632976D01*
X65121967Y-61628033D01*
X65117024Y-61622579D01*
X65112640Y-61616668D01*
X65108856Y-61610355D01*
X65105709Y-61603701D01*
X65103229Y-61596771D01*
X65101441Y-61589632D01*
X65100361Y-61582351D01*
X65100000Y-61575000D01*
X65100000Y-61425000D01*
X65100361Y-61417649D01*
X65101441Y-61410368D01*
X65103229Y-61403229D01*
X65105709Y-61396299D01*
X65108856Y-61389645D01*
X65112640Y-61383332D01*
X65117024Y-61377421D01*
X65121967Y-61371967D01*
X65127421Y-61367024D01*
X65133332Y-61362640D01*
X65139645Y-61358856D01*
X65146299Y-61355709D01*
X65153229Y-61353229D01*
X65160368Y-61351441D01*
X65167649Y-61350361D01*
X65175000Y-61350000D01*
X66500000Y-61350000D01*
X66507351Y-61350361D01*
G37*
G36*
X66507351Y-60850361D02*
G01*
X66514632Y-60851441D01*
X66521771Y-60853229D01*
X66528701Y-60855709D01*
X66535355Y-60858856D01*
X66541668Y-60862640D01*
X66547579Y-60867024D01*
X66553033Y-60871967D01*
X66557976Y-60877421D01*
X66562360Y-60883332D01*
X66566144Y-60889645D01*
X66569291Y-60896299D01*
X66571771Y-60903229D01*
X66573559Y-60910368D01*
X66574639Y-60917649D01*
X66575000Y-60925000D01*
X66575000Y-61075000D01*
X66574639Y-61082351D01*
X66573559Y-61089632D01*
X66571771Y-61096771D01*
X66569291Y-61103701D01*
X66566144Y-61110355D01*
X66562360Y-61116668D01*
X66557976Y-61122579D01*
X66553033Y-61128033D01*
X66547579Y-61132976D01*
X66541668Y-61137360D01*
X66535355Y-61141144D01*
X66528701Y-61144291D01*
X66521771Y-61146771D01*
X66514632Y-61148559D01*
X66507351Y-61149639D01*
X66500000Y-61150000D01*
X65175000Y-61150000D01*
X65167649Y-61149639D01*
X65160368Y-61148559D01*
X65153229Y-61146771D01*
X65146299Y-61144291D01*
X65139645Y-61141144D01*
X65133332Y-61137360D01*
X65127421Y-61132976D01*
X65121967Y-61128033D01*
X65117024Y-61122579D01*
X65112640Y-61116668D01*
X65108856Y-61110355D01*
X65105709Y-61103701D01*
X65103229Y-61096771D01*
X65101441Y-61089632D01*
X65100361Y-61082351D01*
X65100000Y-61075000D01*
X65100000Y-60925000D01*
X65100361Y-60917649D01*
X65101441Y-60910368D01*
X65103229Y-60903229D01*
X65105709Y-60896299D01*
X65108856Y-60889645D01*
X65112640Y-60883332D01*
X65117024Y-60877421D01*
X65121967Y-60871967D01*
X65127421Y-60867024D01*
X65133332Y-60862640D01*
X65139645Y-60858856D01*
X65146299Y-60855709D01*
X65153229Y-60853229D01*
X65160368Y-60851441D01*
X65167649Y-60850361D01*
X65175000Y-60850000D01*
X66500000Y-60850000D01*
X66507351Y-60850361D01*
G37*
G36*
X66507351Y-60350361D02*
G01*
X66514632Y-60351441D01*
X66521771Y-60353229D01*
X66528701Y-60355709D01*
X66535355Y-60358856D01*
X66541668Y-60362640D01*
X66547579Y-60367024D01*
X66553033Y-60371967D01*
X66557976Y-60377421D01*
X66562360Y-60383332D01*
X66566144Y-60389645D01*
X66569291Y-60396299D01*
X66571771Y-60403229D01*
X66573559Y-60410368D01*
X66574639Y-60417649D01*
X66575000Y-60425000D01*
X66575000Y-60575000D01*
X66574639Y-60582351D01*
X66573559Y-60589632D01*
X66571771Y-60596771D01*
X66569291Y-60603701D01*
X66566144Y-60610355D01*
X66562360Y-60616668D01*
X66557976Y-60622579D01*
X66553033Y-60628033D01*
X66547579Y-60632976D01*
X66541668Y-60637360D01*
X66535355Y-60641144D01*
X66528701Y-60644291D01*
X66521771Y-60646771D01*
X66514632Y-60648559D01*
X66507351Y-60649639D01*
X66500000Y-60650000D01*
X65175000Y-60650000D01*
X65167649Y-60649639D01*
X65160368Y-60648559D01*
X65153229Y-60646771D01*
X65146299Y-60644291D01*
X65139645Y-60641144D01*
X65133332Y-60637360D01*
X65127421Y-60632976D01*
X65121967Y-60628033D01*
X65117024Y-60622579D01*
X65112640Y-60616668D01*
X65108856Y-60610355D01*
X65105709Y-60603701D01*
X65103229Y-60596771D01*
X65101441Y-60589632D01*
X65100361Y-60582351D01*
X65100000Y-60575000D01*
X65100000Y-60425000D01*
X65100361Y-60417649D01*
X65101441Y-60410368D01*
X65103229Y-60403229D01*
X65105709Y-60396299D01*
X65108856Y-60389645D01*
X65112640Y-60383332D01*
X65117024Y-60377421D01*
X65121967Y-60371967D01*
X65127421Y-60367024D01*
X65133332Y-60362640D01*
X65139645Y-60358856D01*
X65146299Y-60355709D01*
X65153229Y-60353229D01*
X65160368Y-60351441D01*
X65167649Y-60350361D01*
X65175000Y-60350000D01*
X66500000Y-60350000D01*
X66507351Y-60350361D01*
G37*
G36*
X66507351Y-59850361D02*
G01*
X66514632Y-59851441D01*
X66521771Y-59853229D01*
X66528701Y-59855709D01*
X66535355Y-59858856D01*
X66541668Y-59862640D01*
X66547579Y-59867024D01*
X66553033Y-59871967D01*
X66557976Y-59877421D01*
X66562360Y-59883332D01*
X66566144Y-59889645D01*
X66569291Y-59896299D01*
X66571771Y-59903229D01*
X66573559Y-59910368D01*
X66574639Y-59917649D01*
X66575000Y-59925000D01*
X66575000Y-60075000D01*
X66574639Y-60082351D01*
X66573559Y-60089632D01*
X66571771Y-60096771D01*
X66569291Y-60103701D01*
X66566144Y-60110355D01*
X66562360Y-60116668D01*
X66557976Y-60122579D01*
X66553033Y-60128033D01*
X66547579Y-60132976D01*
X66541668Y-60137360D01*
X66535355Y-60141144D01*
X66528701Y-60144291D01*
X66521771Y-60146771D01*
X66514632Y-60148559D01*
X66507351Y-60149639D01*
X66500000Y-60150000D01*
X65175000Y-60150000D01*
X65167649Y-60149639D01*
X65160368Y-60148559D01*
X65153229Y-60146771D01*
X65146299Y-60144291D01*
X65139645Y-60141144D01*
X65133332Y-60137360D01*
X65127421Y-60132976D01*
X65121967Y-60128033D01*
X65117024Y-60122579D01*
X65112640Y-60116668D01*
X65108856Y-60110355D01*
X65105709Y-60103701D01*
X65103229Y-60096771D01*
X65101441Y-60089632D01*
X65100361Y-60082351D01*
X65100000Y-60075000D01*
X65100000Y-59925000D01*
X65100361Y-59917649D01*
X65101441Y-59910368D01*
X65103229Y-59903229D01*
X65105709Y-59896299D01*
X65108856Y-59889645D01*
X65112640Y-59883332D01*
X65117024Y-59877421D01*
X65121967Y-59871967D01*
X65127421Y-59867024D01*
X65133332Y-59862640D01*
X65139645Y-59858856D01*
X65146299Y-59855709D01*
X65153229Y-59853229D01*
X65160368Y-59851441D01*
X65167649Y-59850361D01*
X65175000Y-59850000D01*
X66500000Y-59850000D01*
X66507351Y-59850361D01*
G37*
G36*
X66507351Y-59350361D02*
G01*
X66514632Y-59351441D01*
X66521771Y-59353229D01*
X66528701Y-59355709D01*
X66535355Y-59358856D01*
X66541668Y-59362640D01*
X66547579Y-59367024D01*
X66553033Y-59371967D01*
X66557976Y-59377421D01*
X66562360Y-59383332D01*
X66566144Y-59389645D01*
X66569291Y-59396299D01*
X66571771Y-59403229D01*
X66573559Y-59410368D01*
X66574639Y-59417649D01*
X66575000Y-59425000D01*
X66575000Y-59575000D01*
X66574639Y-59582351D01*
X66573559Y-59589632D01*
X66571771Y-59596771D01*
X66569291Y-59603701D01*
X66566144Y-59610355D01*
X66562360Y-59616668D01*
X66557976Y-59622579D01*
X66553033Y-59628033D01*
X66547579Y-59632976D01*
X66541668Y-59637360D01*
X66535355Y-59641144D01*
X66528701Y-59644291D01*
X66521771Y-59646771D01*
X66514632Y-59648559D01*
X66507351Y-59649639D01*
X66500000Y-59650000D01*
X65175000Y-59650000D01*
X65167649Y-59649639D01*
X65160368Y-59648559D01*
X65153229Y-59646771D01*
X65146299Y-59644291D01*
X65139645Y-59641144D01*
X65133332Y-59637360D01*
X65127421Y-59632976D01*
X65121967Y-59628033D01*
X65117024Y-59622579D01*
X65112640Y-59616668D01*
X65108856Y-59610355D01*
X65105709Y-59603701D01*
X65103229Y-59596771D01*
X65101441Y-59589632D01*
X65100361Y-59582351D01*
X65100000Y-59575000D01*
X65100000Y-59425000D01*
X65100361Y-59417649D01*
X65101441Y-59410368D01*
X65103229Y-59403229D01*
X65105709Y-59396299D01*
X65108856Y-59389645D01*
X65112640Y-59383332D01*
X65117024Y-59377421D01*
X65121967Y-59371967D01*
X65127421Y-59367024D01*
X65133332Y-59362640D01*
X65139645Y-59358856D01*
X65146299Y-59355709D01*
X65153229Y-59353229D01*
X65160368Y-59351441D01*
X65167649Y-59350361D01*
X65175000Y-59350000D01*
X66500000Y-59350000D01*
X66507351Y-59350361D01*
G37*
G36*
X66507351Y-58850361D02*
G01*
X66514632Y-58851441D01*
X66521771Y-58853229D01*
X66528701Y-58855709D01*
X66535355Y-58858856D01*
X66541668Y-58862640D01*
X66547579Y-58867024D01*
X66553033Y-58871967D01*
X66557976Y-58877421D01*
X66562360Y-58883332D01*
X66566144Y-58889645D01*
X66569291Y-58896299D01*
X66571771Y-58903229D01*
X66573559Y-58910368D01*
X66574639Y-58917649D01*
X66575000Y-58925000D01*
X66575000Y-59075000D01*
X66574639Y-59082351D01*
X66573559Y-59089632D01*
X66571771Y-59096771D01*
X66569291Y-59103701D01*
X66566144Y-59110355D01*
X66562360Y-59116668D01*
X66557976Y-59122579D01*
X66553033Y-59128033D01*
X66547579Y-59132976D01*
X66541668Y-59137360D01*
X66535355Y-59141144D01*
X66528701Y-59144291D01*
X66521771Y-59146771D01*
X66514632Y-59148559D01*
X66507351Y-59149639D01*
X66500000Y-59150000D01*
X65175000Y-59150000D01*
X65167649Y-59149639D01*
X65160368Y-59148559D01*
X65153229Y-59146771D01*
X65146299Y-59144291D01*
X65139645Y-59141144D01*
X65133332Y-59137360D01*
X65127421Y-59132976D01*
X65121967Y-59128033D01*
X65117024Y-59122579D01*
X65112640Y-59116668D01*
X65108856Y-59110355D01*
X65105709Y-59103701D01*
X65103229Y-59096771D01*
X65101441Y-59089632D01*
X65100361Y-59082351D01*
X65100000Y-59075000D01*
X65100000Y-58925000D01*
X65100361Y-58917649D01*
X65101441Y-58910368D01*
X65103229Y-58903229D01*
X65105709Y-58896299D01*
X65108856Y-58889645D01*
X65112640Y-58883332D01*
X65117024Y-58877421D01*
X65121967Y-58871967D01*
X65127421Y-58867024D01*
X65133332Y-58862640D01*
X65139645Y-58858856D01*
X65146299Y-58855709D01*
X65153229Y-58853229D01*
X65160368Y-58851441D01*
X65167649Y-58850361D01*
X65175000Y-58850000D01*
X66500000Y-58850000D01*
X66507351Y-58850361D01*
G37*
G36*
X66507351Y-58350361D02*
G01*
X66514632Y-58351441D01*
X66521771Y-58353229D01*
X66528701Y-58355709D01*
X66535355Y-58358856D01*
X66541668Y-58362640D01*
X66547579Y-58367024D01*
X66553033Y-58371967D01*
X66557976Y-58377421D01*
X66562360Y-58383332D01*
X66566144Y-58389645D01*
X66569291Y-58396299D01*
X66571771Y-58403229D01*
X66573559Y-58410368D01*
X66574639Y-58417649D01*
X66575000Y-58425000D01*
X66575000Y-58575000D01*
X66574639Y-58582351D01*
X66573559Y-58589632D01*
X66571771Y-58596771D01*
X66569291Y-58603701D01*
X66566144Y-58610355D01*
X66562360Y-58616668D01*
X66557976Y-58622579D01*
X66553033Y-58628033D01*
X66547579Y-58632976D01*
X66541668Y-58637360D01*
X66535355Y-58641144D01*
X66528701Y-58644291D01*
X66521771Y-58646771D01*
X66514632Y-58648559D01*
X66507351Y-58649639D01*
X66500000Y-58650000D01*
X65175000Y-58650000D01*
X65167649Y-58649639D01*
X65160368Y-58648559D01*
X65153229Y-58646771D01*
X65146299Y-58644291D01*
X65139645Y-58641144D01*
X65133332Y-58637360D01*
X65127421Y-58632976D01*
X65121967Y-58628033D01*
X65117024Y-58622579D01*
X65112640Y-58616668D01*
X65108856Y-58610355D01*
X65105709Y-58603701D01*
X65103229Y-58596771D01*
X65101441Y-58589632D01*
X65100361Y-58582351D01*
X65100000Y-58575000D01*
X65100000Y-58425000D01*
X65100361Y-58417649D01*
X65101441Y-58410368D01*
X65103229Y-58403229D01*
X65105709Y-58396299D01*
X65108856Y-58389645D01*
X65112640Y-58383332D01*
X65117024Y-58377421D01*
X65121967Y-58371967D01*
X65127421Y-58367024D01*
X65133332Y-58362640D01*
X65139645Y-58358856D01*
X65146299Y-58355709D01*
X65153229Y-58353229D01*
X65160368Y-58351441D01*
X65167649Y-58350361D01*
X65175000Y-58350000D01*
X66500000Y-58350000D01*
X66507351Y-58350361D01*
G37*
G36*
X66507351Y-57850361D02*
G01*
X66514632Y-57851441D01*
X66521771Y-57853229D01*
X66528701Y-57855709D01*
X66535355Y-57858856D01*
X66541668Y-57862640D01*
X66547579Y-57867024D01*
X66553033Y-57871967D01*
X66557976Y-57877421D01*
X66562360Y-57883332D01*
X66566144Y-57889645D01*
X66569291Y-57896299D01*
X66571771Y-57903229D01*
X66573559Y-57910368D01*
X66574639Y-57917649D01*
X66575000Y-57925000D01*
X66575000Y-58075000D01*
X66574639Y-58082351D01*
X66573559Y-58089632D01*
X66571771Y-58096771D01*
X66569291Y-58103701D01*
X66566144Y-58110355D01*
X66562360Y-58116668D01*
X66557976Y-58122579D01*
X66553033Y-58128033D01*
X66547579Y-58132976D01*
X66541668Y-58137360D01*
X66535355Y-58141144D01*
X66528701Y-58144291D01*
X66521771Y-58146771D01*
X66514632Y-58148559D01*
X66507351Y-58149639D01*
X66500000Y-58150000D01*
X65175000Y-58150000D01*
X65167649Y-58149639D01*
X65160368Y-58148559D01*
X65153229Y-58146771D01*
X65146299Y-58144291D01*
X65139645Y-58141144D01*
X65133332Y-58137360D01*
X65127421Y-58132976D01*
X65121967Y-58128033D01*
X65117024Y-58122579D01*
X65112640Y-58116668D01*
X65108856Y-58110355D01*
X65105709Y-58103701D01*
X65103229Y-58096771D01*
X65101441Y-58089632D01*
X65100361Y-58082351D01*
X65100000Y-58075000D01*
X65100000Y-57925000D01*
X65100361Y-57917649D01*
X65101441Y-57910368D01*
X65103229Y-57903229D01*
X65105709Y-57896299D01*
X65108856Y-57889645D01*
X65112640Y-57883332D01*
X65117024Y-57877421D01*
X65121967Y-57871967D01*
X65127421Y-57867024D01*
X65133332Y-57862640D01*
X65139645Y-57858856D01*
X65146299Y-57855709D01*
X65153229Y-57853229D01*
X65160368Y-57851441D01*
X65167649Y-57850361D01*
X65175000Y-57850000D01*
X66500000Y-57850000D01*
X66507351Y-57850361D01*
G37*
G36*
X63600000Y-60326200D02*
G01*
X62900000Y-61326200D01*
X62100000Y-61326200D01*
X61400000Y-60326200D01*
X63600000Y-60326200D01*
G37*
D25*
X62500000Y-59416500D03*
D26*
X64000000Y-62230000D03*
D27*
X62500000Y-62083500D03*
D26*
X61000000Y-62230000D03*
D14*
G36*
X61400000Y-58508000D02*
G01*
X62000000Y-57658000D01*
X63000000Y-57658000D01*
X63600000Y-58508000D01*
X61400000Y-58508000D01*
G37*
G36*
X61118626Y-66275301D02*
G01*
X61124693Y-66276201D01*
X61130643Y-66277691D01*
X61136418Y-66279758D01*
X61141962Y-66282380D01*
X61147223Y-66285533D01*
X61152150Y-66289187D01*
X61156694Y-66293306D01*
X61160813Y-66297850D01*
X61164467Y-66302777D01*
X61167620Y-66308038D01*
X61170242Y-66313582D01*
X61172309Y-66319357D01*
X61173799Y-66325307D01*
X61174699Y-66331374D01*
X61175000Y-66337500D01*
X61175000Y-67037500D01*
X61174699Y-67043626D01*
X61173799Y-67049693D01*
X61172309Y-67055643D01*
X61170242Y-67061418D01*
X61167620Y-67066962D01*
X61164467Y-67072223D01*
X61160813Y-67077150D01*
X61156694Y-67081694D01*
X61152150Y-67085813D01*
X61147223Y-67089467D01*
X61141962Y-67092620D01*
X61136418Y-67095242D01*
X61130643Y-67097309D01*
X61124693Y-67098799D01*
X61118626Y-67099699D01*
X61112500Y-67100000D01*
X60987500Y-67100000D01*
X60981374Y-67099699D01*
X60975307Y-67098799D01*
X60969357Y-67097309D01*
X60963582Y-67095242D01*
X60958038Y-67092620D01*
X60952777Y-67089467D01*
X60947850Y-67085813D01*
X60943306Y-67081694D01*
X60939187Y-67077150D01*
X60935533Y-67072223D01*
X60932380Y-67066962D01*
X60929758Y-67061418D01*
X60927691Y-67055643D01*
X60926201Y-67049693D01*
X60925301Y-67043626D01*
X60925000Y-67037500D01*
X60925000Y-66337500D01*
X60925301Y-66331374D01*
X60926201Y-66325307D01*
X60927691Y-66319357D01*
X60929758Y-66313582D01*
X60932380Y-66308038D01*
X60935533Y-66302777D01*
X60939187Y-66297850D01*
X60943306Y-66293306D01*
X60947850Y-66289187D01*
X60952777Y-66285533D01*
X60958038Y-66282380D01*
X60963582Y-66279758D01*
X60969357Y-66277691D01*
X60975307Y-66276201D01*
X60981374Y-66275301D01*
X60987500Y-66275000D01*
X61112500Y-66275000D01*
X61118626Y-66275301D01*
G37*
G36*
X61618626Y-66275301D02*
G01*
X61624693Y-66276201D01*
X61630643Y-66277691D01*
X61636418Y-66279758D01*
X61641962Y-66282380D01*
X61647223Y-66285533D01*
X61652150Y-66289187D01*
X61656694Y-66293306D01*
X61660813Y-66297850D01*
X61664467Y-66302777D01*
X61667620Y-66308038D01*
X61670242Y-66313582D01*
X61672309Y-66319357D01*
X61673799Y-66325307D01*
X61674699Y-66331374D01*
X61675000Y-66337500D01*
X61675000Y-67037500D01*
X61674699Y-67043626D01*
X61673799Y-67049693D01*
X61672309Y-67055643D01*
X61670242Y-67061418D01*
X61667620Y-67066962D01*
X61664467Y-67072223D01*
X61660813Y-67077150D01*
X61656694Y-67081694D01*
X61652150Y-67085813D01*
X61647223Y-67089467D01*
X61641962Y-67092620D01*
X61636418Y-67095242D01*
X61630643Y-67097309D01*
X61624693Y-67098799D01*
X61618626Y-67099699D01*
X61612500Y-67100000D01*
X61487500Y-67100000D01*
X61481374Y-67099699D01*
X61475307Y-67098799D01*
X61469357Y-67097309D01*
X61463582Y-67095242D01*
X61458038Y-67092620D01*
X61452777Y-67089467D01*
X61447850Y-67085813D01*
X61443306Y-67081694D01*
X61439187Y-67077150D01*
X61435533Y-67072223D01*
X61432380Y-67066962D01*
X61429758Y-67061418D01*
X61427691Y-67055643D01*
X61426201Y-67049693D01*
X61425301Y-67043626D01*
X61425000Y-67037500D01*
X61425000Y-66337500D01*
X61425301Y-66331374D01*
X61426201Y-66325307D01*
X61427691Y-66319357D01*
X61429758Y-66313582D01*
X61432380Y-66308038D01*
X61435533Y-66302777D01*
X61439187Y-66297850D01*
X61443306Y-66293306D01*
X61447850Y-66289187D01*
X61452777Y-66285533D01*
X61458038Y-66282380D01*
X61463582Y-66279758D01*
X61469357Y-66277691D01*
X61475307Y-66276201D01*
X61481374Y-66275301D01*
X61487500Y-66275000D01*
X61612500Y-66275000D01*
X61618626Y-66275301D01*
G37*
G36*
X62118626Y-66275301D02*
G01*
X62124693Y-66276201D01*
X62130643Y-66277691D01*
X62136418Y-66279758D01*
X62141962Y-66282380D01*
X62147223Y-66285533D01*
X62152150Y-66289187D01*
X62156694Y-66293306D01*
X62160813Y-66297850D01*
X62164467Y-66302777D01*
X62167620Y-66308038D01*
X62170242Y-66313582D01*
X62172309Y-66319357D01*
X62173799Y-66325307D01*
X62174699Y-66331374D01*
X62175000Y-66337500D01*
X62175000Y-67037500D01*
X62174699Y-67043626D01*
X62173799Y-67049693D01*
X62172309Y-67055643D01*
X62170242Y-67061418D01*
X62167620Y-67066962D01*
X62164467Y-67072223D01*
X62160813Y-67077150D01*
X62156694Y-67081694D01*
X62152150Y-67085813D01*
X62147223Y-67089467D01*
X62141962Y-67092620D01*
X62136418Y-67095242D01*
X62130643Y-67097309D01*
X62124693Y-67098799D01*
X62118626Y-67099699D01*
X62112500Y-67100000D01*
X61987500Y-67100000D01*
X61981374Y-67099699D01*
X61975307Y-67098799D01*
X61969357Y-67097309D01*
X61963582Y-67095242D01*
X61958038Y-67092620D01*
X61952777Y-67089467D01*
X61947850Y-67085813D01*
X61943306Y-67081694D01*
X61939187Y-67077150D01*
X61935533Y-67072223D01*
X61932380Y-67066962D01*
X61929758Y-67061418D01*
X61927691Y-67055643D01*
X61926201Y-67049693D01*
X61925301Y-67043626D01*
X61925000Y-67037500D01*
X61925000Y-66337500D01*
X61925301Y-66331374D01*
X61926201Y-66325307D01*
X61927691Y-66319357D01*
X61929758Y-66313582D01*
X61932380Y-66308038D01*
X61935533Y-66302777D01*
X61939187Y-66297850D01*
X61943306Y-66293306D01*
X61947850Y-66289187D01*
X61952777Y-66285533D01*
X61958038Y-66282380D01*
X61963582Y-66279758D01*
X61969357Y-66277691D01*
X61975307Y-66276201D01*
X61981374Y-66275301D01*
X61987500Y-66275000D01*
X62112500Y-66275000D01*
X62118626Y-66275301D01*
G37*
G36*
X62618626Y-66275301D02*
G01*
X62624693Y-66276201D01*
X62630643Y-66277691D01*
X62636418Y-66279758D01*
X62641962Y-66282380D01*
X62647223Y-66285533D01*
X62652150Y-66289187D01*
X62656694Y-66293306D01*
X62660813Y-66297850D01*
X62664467Y-66302777D01*
X62667620Y-66308038D01*
X62670242Y-66313582D01*
X62672309Y-66319357D01*
X62673799Y-66325307D01*
X62674699Y-66331374D01*
X62675000Y-66337500D01*
X62675000Y-67037500D01*
X62674699Y-67043626D01*
X62673799Y-67049693D01*
X62672309Y-67055643D01*
X62670242Y-67061418D01*
X62667620Y-67066962D01*
X62664467Y-67072223D01*
X62660813Y-67077150D01*
X62656694Y-67081694D01*
X62652150Y-67085813D01*
X62647223Y-67089467D01*
X62641962Y-67092620D01*
X62636418Y-67095242D01*
X62630643Y-67097309D01*
X62624693Y-67098799D01*
X62618626Y-67099699D01*
X62612500Y-67100000D01*
X62487500Y-67100000D01*
X62481374Y-67099699D01*
X62475307Y-67098799D01*
X62469357Y-67097309D01*
X62463582Y-67095242D01*
X62458038Y-67092620D01*
X62452777Y-67089467D01*
X62447850Y-67085813D01*
X62443306Y-67081694D01*
X62439187Y-67077150D01*
X62435533Y-67072223D01*
X62432380Y-67066962D01*
X62429758Y-67061418D01*
X62427691Y-67055643D01*
X62426201Y-67049693D01*
X62425301Y-67043626D01*
X62425000Y-67037500D01*
X62425000Y-66337500D01*
X62425301Y-66331374D01*
X62426201Y-66325307D01*
X62427691Y-66319357D01*
X62429758Y-66313582D01*
X62432380Y-66308038D01*
X62435533Y-66302777D01*
X62439187Y-66297850D01*
X62443306Y-66293306D01*
X62447850Y-66289187D01*
X62452777Y-66285533D01*
X62458038Y-66282380D01*
X62463582Y-66279758D01*
X62469357Y-66277691D01*
X62475307Y-66276201D01*
X62481374Y-66275301D01*
X62487500Y-66275000D01*
X62612500Y-66275000D01*
X62618626Y-66275301D01*
G37*
G36*
X63118626Y-66275301D02*
G01*
X63124693Y-66276201D01*
X63130643Y-66277691D01*
X63136418Y-66279758D01*
X63141962Y-66282380D01*
X63147223Y-66285533D01*
X63152150Y-66289187D01*
X63156694Y-66293306D01*
X63160813Y-66297850D01*
X63164467Y-66302777D01*
X63167620Y-66308038D01*
X63170242Y-66313582D01*
X63172309Y-66319357D01*
X63173799Y-66325307D01*
X63174699Y-66331374D01*
X63175000Y-66337500D01*
X63175000Y-67037500D01*
X63174699Y-67043626D01*
X63173799Y-67049693D01*
X63172309Y-67055643D01*
X63170242Y-67061418D01*
X63167620Y-67066962D01*
X63164467Y-67072223D01*
X63160813Y-67077150D01*
X63156694Y-67081694D01*
X63152150Y-67085813D01*
X63147223Y-67089467D01*
X63141962Y-67092620D01*
X63136418Y-67095242D01*
X63130643Y-67097309D01*
X63124693Y-67098799D01*
X63118626Y-67099699D01*
X63112500Y-67100000D01*
X62987500Y-67100000D01*
X62981374Y-67099699D01*
X62975307Y-67098799D01*
X62969357Y-67097309D01*
X62963582Y-67095242D01*
X62958038Y-67092620D01*
X62952777Y-67089467D01*
X62947850Y-67085813D01*
X62943306Y-67081694D01*
X62939187Y-67077150D01*
X62935533Y-67072223D01*
X62932380Y-67066962D01*
X62929758Y-67061418D01*
X62927691Y-67055643D01*
X62926201Y-67049693D01*
X62925301Y-67043626D01*
X62925000Y-67037500D01*
X62925000Y-66337500D01*
X62925301Y-66331374D01*
X62926201Y-66325307D01*
X62927691Y-66319357D01*
X62929758Y-66313582D01*
X62932380Y-66308038D01*
X62935533Y-66302777D01*
X62939187Y-66297850D01*
X62943306Y-66293306D01*
X62947850Y-66289187D01*
X62952777Y-66285533D01*
X62958038Y-66282380D01*
X62963582Y-66279758D01*
X62969357Y-66277691D01*
X62975307Y-66276201D01*
X62981374Y-66275301D01*
X62987500Y-66275000D01*
X63112500Y-66275000D01*
X63118626Y-66275301D01*
G37*
G36*
X63618626Y-66275301D02*
G01*
X63624693Y-66276201D01*
X63630643Y-66277691D01*
X63636418Y-66279758D01*
X63641962Y-66282380D01*
X63647223Y-66285533D01*
X63652150Y-66289187D01*
X63656694Y-66293306D01*
X63660813Y-66297850D01*
X63664467Y-66302777D01*
X63667620Y-66308038D01*
X63670242Y-66313582D01*
X63672309Y-66319357D01*
X63673799Y-66325307D01*
X63674699Y-66331374D01*
X63675000Y-66337500D01*
X63675000Y-67037500D01*
X63674699Y-67043626D01*
X63673799Y-67049693D01*
X63672309Y-67055643D01*
X63670242Y-67061418D01*
X63667620Y-67066962D01*
X63664467Y-67072223D01*
X63660813Y-67077150D01*
X63656694Y-67081694D01*
X63652150Y-67085813D01*
X63647223Y-67089467D01*
X63641962Y-67092620D01*
X63636418Y-67095242D01*
X63630643Y-67097309D01*
X63624693Y-67098799D01*
X63618626Y-67099699D01*
X63612500Y-67100000D01*
X63487500Y-67100000D01*
X63481374Y-67099699D01*
X63475307Y-67098799D01*
X63469357Y-67097309D01*
X63463582Y-67095242D01*
X63458038Y-67092620D01*
X63452777Y-67089467D01*
X63447850Y-67085813D01*
X63443306Y-67081694D01*
X63439187Y-67077150D01*
X63435533Y-67072223D01*
X63432380Y-67066962D01*
X63429758Y-67061418D01*
X63427691Y-67055643D01*
X63426201Y-67049693D01*
X63425301Y-67043626D01*
X63425000Y-67037500D01*
X63425000Y-66337500D01*
X63425301Y-66331374D01*
X63426201Y-66325307D01*
X63427691Y-66319357D01*
X63429758Y-66313582D01*
X63432380Y-66308038D01*
X63435533Y-66302777D01*
X63439187Y-66297850D01*
X63443306Y-66293306D01*
X63447850Y-66289187D01*
X63452777Y-66285533D01*
X63458038Y-66282380D01*
X63463582Y-66279758D01*
X63469357Y-66277691D01*
X63475307Y-66276201D01*
X63481374Y-66275301D01*
X63487500Y-66275000D01*
X63612500Y-66275000D01*
X63618626Y-66275301D01*
G37*
G36*
X64618626Y-67275301D02*
G01*
X64624693Y-67276201D01*
X64630643Y-67277691D01*
X64636418Y-67279758D01*
X64641962Y-67282380D01*
X64647223Y-67285533D01*
X64652150Y-67289187D01*
X64656694Y-67293306D01*
X64660813Y-67297850D01*
X64664467Y-67302777D01*
X64667620Y-67308038D01*
X64670242Y-67313582D01*
X64672309Y-67319357D01*
X64673799Y-67325307D01*
X64674699Y-67331374D01*
X64675000Y-67337500D01*
X64675000Y-67462500D01*
X64674699Y-67468626D01*
X64673799Y-67474693D01*
X64672309Y-67480643D01*
X64670242Y-67486418D01*
X64667620Y-67491962D01*
X64664467Y-67497223D01*
X64660813Y-67502150D01*
X64656694Y-67506694D01*
X64652150Y-67510813D01*
X64647223Y-67514467D01*
X64641962Y-67517620D01*
X64636418Y-67520242D01*
X64630643Y-67522309D01*
X64624693Y-67523799D01*
X64618626Y-67524699D01*
X64612500Y-67525000D01*
X63912500Y-67525000D01*
X63906374Y-67524699D01*
X63900307Y-67523799D01*
X63894357Y-67522309D01*
X63888582Y-67520242D01*
X63883038Y-67517620D01*
X63877777Y-67514467D01*
X63872850Y-67510813D01*
X63868306Y-67506694D01*
X63864187Y-67502150D01*
X63860533Y-67497223D01*
X63857380Y-67491962D01*
X63854758Y-67486418D01*
X63852691Y-67480643D01*
X63851201Y-67474693D01*
X63850301Y-67468626D01*
X63850000Y-67462500D01*
X63850000Y-67337500D01*
X63850301Y-67331374D01*
X63851201Y-67325307D01*
X63852691Y-67319357D01*
X63854758Y-67313582D01*
X63857380Y-67308038D01*
X63860533Y-67302777D01*
X63864187Y-67297850D01*
X63868306Y-67293306D01*
X63872850Y-67289187D01*
X63877777Y-67285533D01*
X63883038Y-67282380D01*
X63888582Y-67279758D01*
X63894357Y-67277691D01*
X63900307Y-67276201D01*
X63906374Y-67275301D01*
X63912500Y-67275000D01*
X64612500Y-67275000D01*
X64618626Y-67275301D01*
G37*
G36*
X64618626Y-67775301D02*
G01*
X64624693Y-67776201D01*
X64630643Y-67777691D01*
X64636418Y-67779758D01*
X64641962Y-67782380D01*
X64647223Y-67785533D01*
X64652150Y-67789187D01*
X64656694Y-67793306D01*
X64660813Y-67797850D01*
X64664467Y-67802777D01*
X64667620Y-67808038D01*
X64670242Y-67813582D01*
X64672309Y-67819357D01*
X64673799Y-67825307D01*
X64674699Y-67831374D01*
X64675000Y-67837500D01*
X64675000Y-67962500D01*
X64674699Y-67968626D01*
X64673799Y-67974693D01*
X64672309Y-67980643D01*
X64670242Y-67986418D01*
X64667620Y-67991962D01*
X64664467Y-67997223D01*
X64660813Y-68002150D01*
X64656694Y-68006694D01*
X64652150Y-68010813D01*
X64647223Y-68014467D01*
X64641962Y-68017620D01*
X64636418Y-68020242D01*
X64630643Y-68022309D01*
X64624693Y-68023799D01*
X64618626Y-68024699D01*
X64612500Y-68025000D01*
X63912500Y-68025000D01*
X63906374Y-68024699D01*
X63900307Y-68023799D01*
X63894357Y-68022309D01*
X63888582Y-68020242D01*
X63883038Y-68017620D01*
X63877777Y-68014467D01*
X63872850Y-68010813D01*
X63868306Y-68006694D01*
X63864187Y-68002150D01*
X63860533Y-67997223D01*
X63857380Y-67991962D01*
X63854758Y-67986418D01*
X63852691Y-67980643D01*
X63851201Y-67974693D01*
X63850301Y-67968626D01*
X63850000Y-67962500D01*
X63850000Y-67837500D01*
X63850301Y-67831374D01*
X63851201Y-67825307D01*
X63852691Y-67819357D01*
X63854758Y-67813582D01*
X63857380Y-67808038D01*
X63860533Y-67802777D01*
X63864187Y-67797850D01*
X63868306Y-67793306D01*
X63872850Y-67789187D01*
X63877777Y-67785533D01*
X63883038Y-67782380D01*
X63888582Y-67779758D01*
X63894357Y-67777691D01*
X63900307Y-67776201D01*
X63906374Y-67775301D01*
X63912500Y-67775000D01*
X64612500Y-67775000D01*
X64618626Y-67775301D01*
G37*
G36*
X64618626Y-68275301D02*
G01*
X64624693Y-68276201D01*
X64630643Y-68277691D01*
X64636418Y-68279758D01*
X64641962Y-68282380D01*
X64647223Y-68285533D01*
X64652150Y-68289187D01*
X64656694Y-68293306D01*
X64660813Y-68297850D01*
X64664467Y-68302777D01*
X64667620Y-68308038D01*
X64670242Y-68313582D01*
X64672309Y-68319357D01*
X64673799Y-68325307D01*
X64674699Y-68331374D01*
X64675000Y-68337500D01*
X64675000Y-68462500D01*
X64674699Y-68468626D01*
X64673799Y-68474693D01*
X64672309Y-68480643D01*
X64670242Y-68486418D01*
X64667620Y-68491962D01*
X64664467Y-68497223D01*
X64660813Y-68502150D01*
X64656694Y-68506694D01*
X64652150Y-68510813D01*
X64647223Y-68514467D01*
X64641962Y-68517620D01*
X64636418Y-68520242D01*
X64630643Y-68522309D01*
X64624693Y-68523799D01*
X64618626Y-68524699D01*
X64612500Y-68525000D01*
X63912500Y-68525000D01*
X63906374Y-68524699D01*
X63900307Y-68523799D01*
X63894357Y-68522309D01*
X63888582Y-68520242D01*
X63883038Y-68517620D01*
X63877777Y-68514467D01*
X63872850Y-68510813D01*
X63868306Y-68506694D01*
X63864187Y-68502150D01*
X63860533Y-68497223D01*
X63857380Y-68491962D01*
X63854758Y-68486418D01*
X63852691Y-68480643D01*
X63851201Y-68474693D01*
X63850301Y-68468626D01*
X63850000Y-68462500D01*
X63850000Y-68337500D01*
X63850301Y-68331374D01*
X63851201Y-68325307D01*
X63852691Y-68319357D01*
X63854758Y-68313582D01*
X63857380Y-68308038D01*
X63860533Y-68302777D01*
X63864187Y-68297850D01*
X63868306Y-68293306D01*
X63872850Y-68289187D01*
X63877777Y-68285533D01*
X63883038Y-68282380D01*
X63888582Y-68279758D01*
X63894357Y-68277691D01*
X63900307Y-68276201D01*
X63906374Y-68275301D01*
X63912500Y-68275000D01*
X64612500Y-68275000D01*
X64618626Y-68275301D01*
G37*
G36*
X64618626Y-68775301D02*
G01*
X64624693Y-68776201D01*
X64630643Y-68777691D01*
X64636418Y-68779758D01*
X64641962Y-68782380D01*
X64647223Y-68785533D01*
X64652150Y-68789187D01*
X64656694Y-68793306D01*
X64660813Y-68797850D01*
X64664467Y-68802777D01*
X64667620Y-68808038D01*
X64670242Y-68813582D01*
X64672309Y-68819357D01*
X64673799Y-68825307D01*
X64674699Y-68831374D01*
X64675000Y-68837500D01*
X64675000Y-68962500D01*
X64674699Y-68968626D01*
X64673799Y-68974693D01*
X64672309Y-68980643D01*
X64670242Y-68986418D01*
X64667620Y-68991962D01*
X64664467Y-68997223D01*
X64660813Y-69002150D01*
X64656694Y-69006694D01*
X64652150Y-69010813D01*
X64647223Y-69014467D01*
X64641962Y-69017620D01*
X64636418Y-69020242D01*
X64630643Y-69022309D01*
X64624693Y-69023799D01*
X64618626Y-69024699D01*
X64612500Y-69025000D01*
X63912500Y-69025000D01*
X63906374Y-69024699D01*
X63900307Y-69023799D01*
X63894357Y-69022309D01*
X63888582Y-69020242D01*
X63883038Y-69017620D01*
X63877777Y-69014467D01*
X63872850Y-69010813D01*
X63868306Y-69006694D01*
X63864187Y-69002150D01*
X63860533Y-68997223D01*
X63857380Y-68991962D01*
X63854758Y-68986418D01*
X63852691Y-68980643D01*
X63851201Y-68974693D01*
X63850301Y-68968626D01*
X63850000Y-68962500D01*
X63850000Y-68837500D01*
X63850301Y-68831374D01*
X63851201Y-68825307D01*
X63852691Y-68819357D01*
X63854758Y-68813582D01*
X63857380Y-68808038D01*
X63860533Y-68802777D01*
X63864187Y-68797850D01*
X63868306Y-68793306D01*
X63872850Y-68789187D01*
X63877777Y-68785533D01*
X63883038Y-68782380D01*
X63888582Y-68779758D01*
X63894357Y-68777691D01*
X63900307Y-68776201D01*
X63906374Y-68775301D01*
X63912500Y-68775000D01*
X64612500Y-68775000D01*
X64618626Y-68775301D01*
G37*
G36*
X64618626Y-69275301D02*
G01*
X64624693Y-69276201D01*
X64630643Y-69277691D01*
X64636418Y-69279758D01*
X64641962Y-69282380D01*
X64647223Y-69285533D01*
X64652150Y-69289187D01*
X64656694Y-69293306D01*
X64660813Y-69297850D01*
X64664467Y-69302777D01*
X64667620Y-69308038D01*
X64670242Y-69313582D01*
X64672309Y-69319357D01*
X64673799Y-69325307D01*
X64674699Y-69331374D01*
X64675000Y-69337500D01*
X64675000Y-69462500D01*
X64674699Y-69468626D01*
X64673799Y-69474693D01*
X64672309Y-69480643D01*
X64670242Y-69486418D01*
X64667620Y-69491962D01*
X64664467Y-69497223D01*
X64660813Y-69502150D01*
X64656694Y-69506694D01*
X64652150Y-69510813D01*
X64647223Y-69514467D01*
X64641962Y-69517620D01*
X64636418Y-69520242D01*
X64630643Y-69522309D01*
X64624693Y-69523799D01*
X64618626Y-69524699D01*
X64612500Y-69525000D01*
X63912500Y-69525000D01*
X63906374Y-69524699D01*
X63900307Y-69523799D01*
X63894357Y-69522309D01*
X63888582Y-69520242D01*
X63883038Y-69517620D01*
X63877777Y-69514467D01*
X63872850Y-69510813D01*
X63868306Y-69506694D01*
X63864187Y-69502150D01*
X63860533Y-69497223D01*
X63857380Y-69491962D01*
X63854758Y-69486418D01*
X63852691Y-69480643D01*
X63851201Y-69474693D01*
X63850301Y-69468626D01*
X63850000Y-69462500D01*
X63850000Y-69337500D01*
X63850301Y-69331374D01*
X63851201Y-69325307D01*
X63852691Y-69319357D01*
X63854758Y-69313582D01*
X63857380Y-69308038D01*
X63860533Y-69302777D01*
X63864187Y-69297850D01*
X63868306Y-69293306D01*
X63872850Y-69289187D01*
X63877777Y-69285533D01*
X63883038Y-69282380D01*
X63888582Y-69279758D01*
X63894357Y-69277691D01*
X63900307Y-69276201D01*
X63906374Y-69275301D01*
X63912500Y-69275000D01*
X64612500Y-69275000D01*
X64618626Y-69275301D01*
G37*
G36*
X64618626Y-69775301D02*
G01*
X64624693Y-69776201D01*
X64630643Y-69777691D01*
X64636418Y-69779758D01*
X64641962Y-69782380D01*
X64647223Y-69785533D01*
X64652150Y-69789187D01*
X64656694Y-69793306D01*
X64660813Y-69797850D01*
X64664467Y-69802777D01*
X64667620Y-69808038D01*
X64670242Y-69813582D01*
X64672309Y-69819357D01*
X64673799Y-69825307D01*
X64674699Y-69831374D01*
X64675000Y-69837500D01*
X64675000Y-69962500D01*
X64674699Y-69968626D01*
X64673799Y-69974693D01*
X64672309Y-69980643D01*
X64670242Y-69986418D01*
X64667620Y-69991962D01*
X64664467Y-69997223D01*
X64660813Y-70002150D01*
X64656694Y-70006694D01*
X64652150Y-70010813D01*
X64647223Y-70014467D01*
X64641962Y-70017620D01*
X64636418Y-70020242D01*
X64630643Y-70022309D01*
X64624693Y-70023799D01*
X64618626Y-70024699D01*
X64612500Y-70025000D01*
X63912500Y-70025000D01*
X63906374Y-70024699D01*
X63900307Y-70023799D01*
X63894357Y-70022309D01*
X63888582Y-70020242D01*
X63883038Y-70017620D01*
X63877777Y-70014467D01*
X63872850Y-70010813D01*
X63868306Y-70006694D01*
X63864187Y-70002150D01*
X63860533Y-69997223D01*
X63857380Y-69991962D01*
X63854758Y-69986418D01*
X63852691Y-69980643D01*
X63851201Y-69974693D01*
X63850301Y-69968626D01*
X63850000Y-69962500D01*
X63850000Y-69837500D01*
X63850301Y-69831374D01*
X63851201Y-69825307D01*
X63852691Y-69819357D01*
X63854758Y-69813582D01*
X63857380Y-69808038D01*
X63860533Y-69802777D01*
X63864187Y-69797850D01*
X63868306Y-69793306D01*
X63872850Y-69789187D01*
X63877777Y-69785533D01*
X63883038Y-69782380D01*
X63888582Y-69779758D01*
X63894357Y-69777691D01*
X63900307Y-69776201D01*
X63906374Y-69775301D01*
X63912500Y-69775000D01*
X64612500Y-69775000D01*
X64618626Y-69775301D01*
G37*
G36*
X63618626Y-70200301D02*
G01*
X63624693Y-70201201D01*
X63630643Y-70202691D01*
X63636418Y-70204758D01*
X63641962Y-70207380D01*
X63647223Y-70210533D01*
X63652150Y-70214187D01*
X63656694Y-70218306D01*
X63660813Y-70222850D01*
X63664467Y-70227777D01*
X63667620Y-70233038D01*
X63670242Y-70238582D01*
X63672309Y-70244357D01*
X63673799Y-70250307D01*
X63674699Y-70256374D01*
X63675000Y-70262500D01*
X63675000Y-70962500D01*
X63674699Y-70968626D01*
X63673799Y-70974693D01*
X63672309Y-70980643D01*
X63670242Y-70986418D01*
X63667620Y-70991962D01*
X63664467Y-70997223D01*
X63660813Y-71002150D01*
X63656694Y-71006694D01*
X63652150Y-71010813D01*
X63647223Y-71014467D01*
X63641962Y-71017620D01*
X63636418Y-71020242D01*
X63630643Y-71022309D01*
X63624693Y-71023799D01*
X63618626Y-71024699D01*
X63612500Y-71025000D01*
X63487500Y-71025000D01*
X63481374Y-71024699D01*
X63475307Y-71023799D01*
X63469357Y-71022309D01*
X63463582Y-71020242D01*
X63458038Y-71017620D01*
X63452777Y-71014467D01*
X63447850Y-71010813D01*
X63443306Y-71006694D01*
X63439187Y-71002150D01*
X63435533Y-70997223D01*
X63432380Y-70991962D01*
X63429758Y-70986418D01*
X63427691Y-70980643D01*
X63426201Y-70974693D01*
X63425301Y-70968626D01*
X63425000Y-70962500D01*
X63425000Y-70262500D01*
X63425301Y-70256374D01*
X63426201Y-70250307D01*
X63427691Y-70244357D01*
X63429758Y-70238582D01*
X63432380Y-70233038D01*
X63435533Y-70227777D01*
X63439187Y-70222850D01*
X63443306Y-70218306D01*
X63447850Y-70214187D01*
X63452777Y-70210533D01*
X63458038Y-70207380D01*
X63463582Y-70204758D01*
X63469357Y-70202691D01*
X63475307Y-70201201D01*
X63481374Y-70200301D01*
X63487500Y-70200000D01*
X63612500Y-70200000D01*
X63618626Y-70200301D01*
G37*
G36*
X63118626Y-70200301D02*
G01*
X63124693Y-70201201D01*
X63130643Y-70202691D01*
X63136418Y-70204758D01*
X63141962Y-70207380D01*
X63147223Y-70210533D01*
X63152150Y-70214187D01*
X63156694Y-70218306D01*
X63160813Y-70222850D01*
X63164467Y-70227777D01*
X63167620Y-70233038D01*
X63170242Y-70238582D01*
X63172309Y-70244357D01*
X63173799Y-70250307D01*
X63174699Y-70256374D01*
X63175000Y-70262500D01*
X63175000Y-70962500D01*
X63174699Y-70968626D01*
X63173799Y-70974693D01*
X63172309Y-70980643D01*
X63170242Y-70986418D01*
X63167620Y-70991962D01*
X63164467Y-70997223D01*
X63160813Y-71002150D01*
X63156694Y-71006694D01*
X63152150Y-71010813D01*
X63147223Y-71014467D01*
X63141962Y-71017620D01*
X63136418Y-71020242D01*
X63130643Y-71022309D01*
X63124693Y-71023799D01*
X63118626Y-71024699D01*
X63112500Y-71025000D01*
X62987500Y-71025000D01*
X62981374Y-71024699D01*
X62975307Y-71023799D01*
X62969357Y-71022309D01*
X62963582Y-71020242D01*
X62958038Y-71017620D01*
X62952777Y-71014467D01*
X62947850Y-71010813D01*
X62943306Y-71006694D01*
X62939187Y-71002150D01*
X62935533Y-70997223D01*
X62932380Y-70991962D01*
X62929758Y-70986418D01*
X62927691Y-70980643D01*
X62926201Y-70974693D01*
X62925301Y-70968626D01*
X62925000Y-70962500D01*
X62925000Y-70262500D01*
X62925301Y-70256374D01*
X62926201Y-70250307D01*
X62927691Y-70244357D01*
X62929758Y-70238582D01*
X62932380Y-70233038D01*
X62935533Y-70227777D01*
X62939187Y-70222850D01*
X62943306Y-70218306D01*
X62947850Y-70214187D01*
X62952777Y-70210533D01*
X62958038Y-70207380D01*
X62963582Y-70204758D01*
X62969357Y-70202691D01*
X62975307Y-70201201D01*
X62981374Y-70200301D01*
X62987500Y-70200000D01*
X63112500Y-70200000D01*
X63118626Y-70200301D01*
G37*
G36*
X62618626Y-70200301D02*
G01*
X62624693Y-70201201D01*
X62630643Y-70202691D01*
X62636418Y-70204758D01*
X62641962Y-70207380D01*
X62647223Y-70210533D01*
X62652150Y-70214187D01*
X62656694Y-70218306D01*
X62660813Y-70222850D01*
X62664467Y-70227777D01*
X62667620Y-70233038D01*
X62670242Y-70238582D01*
X62672309Y-70244357D01*
X62673799Y-70250307D01*
X62674699Y-70256374D01*
X62675000Y-70262500D01*
X62675000Y-70962500D01*
X62674699Y-70968626D01*
X62673799Y-70974693D01*
X62672309Y-70980643D01*
X62670242Y-70986418D01*
X62667620Y-70991962D01*
X62664467Y-70997223D01*
X62660813Y-71002150D01*
X62656694Y-71006694D01*
X62652150Y-71010813D01*
X62647223Y-71014467D01*
X62641962Y-71017620D01*
X62636418Y-71020242D01*
X62630643Y-71022309D01*
X62624693Y-71023799D01*
X62618626Y-71024699D01*
X62612500Y-71025000D01*
X62487500Y-71025000D01*
X62481374Y-71024699D01*
X62475307Y-71023799D01*
X62469357Y-71022309D01*
X62463582Y-71020242D01*
X62458038Y-71017620D01*
X62452777Y-71014467D01*
X62447850Y-71010813D01*
X62443306Y-71006694D01*
X62439187Y-71002150D01*
X62435533Y-70997223D01*
X62432380Y-70991962D01*
X62429758Y-70986418D01*
X62427691Y-70980643D01*
X62426201Y-70974693D01*
X62425301Y-70968626D01*
X62425000Y-70962500D01*
X62425000Y-70262500D01*
X62425301Y-70256374D01*
X62426201Y-70250307D01*
X62427691Y-70244357D01*
X62429758Y-70238582D01*
X62432380Y-70233038D01*
X62435533Y-70227777D01*
X62439187Y-70222850D01*
X62443306Y-70218306D01*
X62447850Y-70214187D01*
X62452777Y-70210533D01*
X62458038Y-70207380D01*
X62463582Y-70204758D01*
X62469357Y-70202691D01*
X62475307Y-70201201D01*
X62481374Y-70200301D01*
X62487500Y-70200000D01*
X62612500Y-70200000D01*
X62618626Y-70200301D01*
G37*
G36*
X62118626Y-70200301D02*
G01*
X62124693Y-70201201D01*
X62130643Y-70202691D01*
X62136418Y-70204758D01*
X62141962Y-70207380D01*
X62147223Y-70210533D01*
X62152150Y-70214187D01*
X62156694Y-70218306D01*
X62160813Y-70222850D01*
X62164467Y-70227777D01*
X62167620Y-70233038D01*
X62170242Y-70238582D01*
X62172309Y-70244357D01*
X62173799Y-70250307D01*
X62174699Y-70256374D01*
X62175000Y-70262500D01*
X62175000Y-70962500D01*
X62174699Y-70968626D01*
X62173799Y-70974693D01*
X62172309Y-70980643D01*
X62170242Y-70986418D01*
X62167620Y-70991962D01*
X62164467Y-70997223D01*
X62160813Y-71002150D01*
X62156694Y-71006694D01*
X62152150Y-71010813D01*
X62147223Y-71014467D01*
X62141962Y-71017620D01*
X62136418Y-71020242D01*
X62130643Y-71022309D01*
X62124693Y-71023799D01*
X62118626Y-71024699D01*
X62112500Y-71025000D01*
X61987500Y-71025000D01*
X61981374Y-71024699D01*
X61975307Y-71023799D01*
X61969357Y-71022309D01*
X61963582Y-71020242D01*
X61958038Y-71017620D01*
X61952777Y-71014467D01*
X61947850Y-71010813D01*
X61943306Y-71006694D01*
X61939187Y-71002150D01*
X61935533Y-70997223D01*
X61932380Y-70991962D01*
X61929758Y-70986418D01*
X61927691Y-70980643D01*
X61926201Y-70974693D01*
X61925301Y-70968626D01*
X61925000Y-70962500D01*
X61925000Y-70262500D01*
X61925301Y-70256374D01*
X61926201Y-70250307D01*
X61927691Y-70244357D01*
X61929758Y-70238582D01*
X61932380Y-70233038D01*
X61935533Y-70227777D01*
X61939187Y-70222850D01*
X61943306Y-70218306D01*
X61947850Y-70214187D01*
X61952777Y-70210533D01*
X61958038Y-70207380D01*
X61963582Y-70204758D01*
X61969357Y-70202691D01*
X61975307Y-70201201D01*
X61981374Y-70200301D01*
X61987500Y-70200000D01*
X62112500Y-70200000D01*
X62118626Y-70200301D01*
G37*
G36*
X61618626Y-70200301D02*
G01*
X61624693Y-70201201D01*
X61630643Y-70202691D01*
X61636418Y-70204758D01*
X61641962Y-70207380D01*
X61647223Y-70210533D01*
X61652150Y-70214187D01*
X61656694Y-70218306D01*
X61660813Y-70222850D01*
X61664467Y-70227777D01*
X61667620Y-70233038D01*
X61670242Y-70238582D01*
X61672309Y-70244357D01*
X61673799Y-70250307D01*
X61674699Y-70256374D01*
X61675000Y-70262500D01*
X61675000Y-70962500D01*
X61674699Y-70968626D01*
X61673799Y-70974693D01*
X61672309Y-70980643D01*
X61670242Y-70986418D01*
X61667620Y-70991962D01*
X61664467Y-70997223D01*
X61660813Y-71002150D01*
X61656694Y-71006694D01*
X61652150Y-71010813D01*
X61647223Y-71014467D01*
X61641962Y-71017620D01*
X61636418Y-71020242D01*
X61630643Y-71022309D01*
X61624693Y-71023799D01*
X61618626Y-71024699D01*
X61612500Y-71025000D01*
X61487500Y-71025000D01*
X61481374Y-71024699D01*
X61475307Y-71023799D01*
X61469357Y-71022309D01*
X61463582Y-71020242D01*
X61458038Y-71017620D01*
X61452777Y-71014467D01*
X61447850Y-71010813D01*
X61443306Y-71006694D01*
X61439187Y-71002150D01*
X61435533Y-70997223D01*
X61432380Y-70991962D01*
X61429758Y-70986418D01*
X61427691Y-70980643D01*
X61426201Y-70974693D01*
X61425301Y-70968626D01*
X61425000Y-70962500D01*
X61425000Y-70262500D01*
X61425301Y-70256374D01*
X61426201Y-70250307D01*
X61427691Y-70244357D01*
X61429758Y-70238582D01*
X61432380Y-70233038D01*
X61435533Y-70227777D01*
X61439187Y-70222850D01*
X61443306Y-70218306D01*
X61447850Y-70214187D01*
X61452777Y-70210533D01*
X61458038Y-70207380D01*
X61463582Y-70204758D01*
X61469357Y-70202691D01*
X61475307Y-70201201D01*
X61481374Y-70200301D01*
X61487500Y-70200000D01*
X61612500Y-70200000D01*
X61618626Y-70200301D01*
G37*
G36*
X61118626Y-70200301D02*
G01*
X61124693Y-70201201D01*
X61130643Y-70202691D01*
X61136418Y-70204758D01*
X61141962Y-70207380D01*
X61147223Y-70210533D01*
X61152150Y-70214187D01*
X61156694Y-70218306D01*
X61160813Y-70222850D01*
X61164467Y-70227777D01*
X61167620Y-70233038D01*
X61170242Y-70238582D01*
X61172309Y-70244357D01*
X61173799Y-70250307D01*
X61174699Y-70256374D01*
X61175000Y-70262500D01*
X61175000Y-70962500D01*
X61174699Y-70968626D01*
X61173799Y-70974693D01*
X61172309Y-70980643D01*
X61170242Y-70986418D01*
X61167620Y-70991962D01*
X61164467Y-70997223D01*
X61160813Y-71002150D01*
X61156694Y-71006694D01*
X61152150Y-71010813D01*
X61147223Y-71014467D01*
X61141962Y-71017620D01*
X61136418Y-71020242D01*
X61130643Y-71022309D01*
X61124693Y-71023799D01*
X61118626Y-71024699D01*
X61112500Y-71025000D01*
X60987500Y-71025000D01*
X60981374Y-71024699D01*
X60975307Y-71023799D01*
X60969357Y-71022309D01*
X60963582Y-71020242D01*
X60958038Y-71017620D01*
X60952777Y-71014467D01*
X60947850Y-71010813D01*
X60943306Y-71006694D01*
X60939187Y-71002150D01*
X60935533Y-70997223D01*
X60932380Y-70991962D01*
X60929758Y-70986418D01*
X60927691Y-70980643D01*
X60926201Y-70974693D01*
X60925301Y-70968626D01*
X60925000Y-70962500D01*
X60925000Y-70262500D01*
X60925301Y-70256374D01*
X60926201Y-70250307D01*
X60927691Y-70244357D01*
X60929758Y-70238582D01*
X60932380Y-70233038D01*
X60935533Y-70227777D01*
X60939187Y-70222850D01*
X60943306Y-70218306D01*
X60947850Y-70214187D01*
X60952777Y-70210533D01*
X60958038Y-70207380D01*
X60963582Y-70204758D01*
X60969357Y-70202691D01*
X60975307Y-70201201D01*
X60981374Y-70200301D01*
X60987500Y-70200000D01*
X61112500Y-70200000D01*
X61118626Y-70200301D01*
G37*
G36*
X60693626Y-69775301D02*
G01*
X60699693Y-69776201D01*
X60705643Y-69777691D01*
X60711418Y-69779758D01*
X60716962Y-69782380D01*
X60722223Y-69785533D01*
X60727150Y-69789187D01*
X60731694Y-69793306D01*
X60735813Y-69797850D01*
X60739467Y-69802777D01*
X60742620Y-69808038D01*
X60745242Y-69813582D01*
X60747309Y-69819357D01*
X60748799Y-69825307D01*
X60749699Y-69831374D01*
X60750000Y-69837500D01*
X60750000Y-69962500D01*
X60749699Y-69968626D01*
X60748799Y-69974693D01*
X60747309Y-69980643D01*
X60745242Y-69986418D01*
X60742620Y-69991962D01*
X60739467Y-69997223D01*
X60735813Y-70002150D01*
X60731694Y-70006694D01*
X60727150Y-70010813D01*
X60722223Y-70014467D01*
X60716962Y-70017620D01*
X60711418Y-70020242D01*
X60705643Y-70022309D01*
X60699693Y-70023799D01*
X60693626Y-70024699D01*
X60687500Y-70025000D01*
X59987500Y-70025000D01*
X59981374Y-70024699D01*
X59975307Y-70023799D01*
X59969357Y-70022309D01*
X59963582Y-70020242D01*
X59958038Y-70017620D01*
X59952777Y-70014467D01*
X59947850Y-70010813D01*
X59943306Y-70006694D01*
X59939187Y-70002150D01*
X59935533Y-69997223D01*
X59932380Y-69991962D01*
X59929758Y-69986418D01*
X59927691Y-69980643D01*
X59926201Y-69974693D01*
X59925301Y-69968626D01*
X59925000Y-69962500D01*
X59925000Y-69837500D01*
X59925301Y-69831374D01*
X59926201Y-69825307D01*
X59927691Y-69819357D01*
X59929758Y-69813582D01*
X59932380Y-69808038D01*
X59935533Y-69802777D01*
X59939187Y-69797850D01*
X59943306Y-69793306D01*
X59947850Y-69789187D01*
X59952777Y-69785533D01*
X59958038Y-69782380D01*
X59963582Y-69779758D01*
X59969357Y-69777691D01*
X59975307Y-69776201D01*
X59981374Y-69775301D01*
X59987500Y-69775000D01*
X60687500Y-69775000D01*
X60693626Y-69775301D01*
G37*
G36*
X60693626Y-69275301D02*
G01*
X60699693Y-69276201D01*
X60705643Y-69277691D01*
X60711418Y-69279758D01*
X60716962Y-69282380D01*
X60722223Y-69285533D01*
X60727150Y-69289187D01*
X60731694Y-69293306D01*
X60735813Y-69297850D01*
X60739467Y-69302777D01*
X60742620Y-69308038D01*
X60745242Y-69313582D01*
X60747309Y-69319357D01*
X60748799Y-69325307D01*
X60749699Y-69331374D01*
X60750000Y-69337500D01*
X60750000Y-69462500D01*
X60749699Y-69468626D01*
X60748799Y-69474693D01*
X60747309Y-69480643D01*
X60745242Y-69486418D01*
X60742620Y-69491962D01*
X60739467Y-69497223D01*
X60735813Y-69502150D01*
X60731694Y-69506694D01*
X60727150Y-69510813D01*
X60722223Y-69514467D01*
X60716962Y-69517620D01*
X60711418Y-69520242D01*
X60705643Y-69522309D01*
X60699693Y-69523799D01*
X60693626Y-69524699D01*
X60687500Y-69525000D01*
X59987500Y-69525000D01*
X59981374Y-69524699D01*
X59975307Y-69523799D01*
X59969357Y-69522309D01*
X59963582Y-69520242D01*
X59958038Y-69517620D01*
X59952777Y-69514467D01*
X59947850Y-69510813D01*
X59943306Y-69506694D01*
X59939187Y-69502150D01*
X59935533Y-69497223D01*
X59932380Y-69491962D01*
X59929758Y-69486418D01*
X59927691Y-69480643D01*
X59926201Y-69474693D01*
X59925301Y-69468626D01*
X59925000Y-69462500D01*
X59925000Y-69337500D01*
X59925301Y-69331374D01*
X59926201Y-69325307D01*
X59927691Y-69319357D01*
X59929758Y-69313582D01*
X59932380Y-69308038D01*
X59935533Y-69302777D01*
X59939187Y-69297850D01*
X59943306Y-69293306D01*
X59947850Y-69289187D01*
X59952777Y-69285533D01*
X59958038Y-69282380D01*
X59963582Y-69279758D01*
X59969357Y-69277691D01*
X59975307Y-69276201D01*
X59981374Y-69275301D01*
X59987500Y-69275000D01*
X60687500Y-69275000D01*
X60693626Y-69275301D01*
G37*
G36*
X60693626Y-68775301D02*
G01*
X60699693Y-68776201D01*
X60705643Y-68777691D01*
X60711418Y-68779758D01*
X60716962Y-68782380D01*
X60722223Y-68785533D01*
X60727150Y-68789187D01*
X60731694Y-68793306D01*
X60735813Y-68797850D01*
X60739467Y-68802777D01*
X60742620Y-68808038D01*
X60745242Y-68813582D01*
X60747309Y-68819357D01*
X60748799Y-68825307D01*
X60749699Y-68831374D01*
X60750000Y-68837500D01*
X60750000Y-68962500D01*
X60749699Y-68968626D01*
X60748799Y-68974693D01*
X60747309Y-68980643D01*
X60745242Y-68986418D01*
X60742620Y-68991962D01*
X60739467Y-68997223D01*
X60735813Y-69002150D01*
X60731694Y-69006694D01*
X60727150Y-69010813D01*
X60722223Y-69014467D01*
X60716962Y-69017620D01*
X60711418Y-69020242D01*
X60705643Y-69022309D01*
X60699693Y-69023799D01*
X60693626Y-69024699D01*
X60687500Y-69025000D01*
X59987500Y-69025000D01*
X59981374Y-69024699D01*
X59975307Y-69023799D01*
X59969357Y-69022309D01*
X59963582Y-69020242D01*
X59958038Y-69017620D01*
X59952777Y-69014467D01*
X59947850Y-69010813D01*
X59943306Y-69006694D01*
X59939187Y-69002150D01*
X59935533Y-68997223D01*
X59932380Y-68991962D01*
X59929758Y-68986418D01*
X59927691Y-68980643D01*
X59926201Y-68974693D01*
X59925301Y-68968626D01*
X59925000Y-68962500D01*
X59925000Y-68837500D01*
X59925301Y-68831374D01*
X59926201Y-68825307D01*
X59927691Y-68819357D01*
X59929758Y-68813582D01*
X59932380Y-68808038D01*
X59935533Y-68802777D01*
X59939187Y-68797850D01*
X59943306Y-68793306D01*
X59947850Y-68789187D01*
X59952777Y-68785533D01*
X59958038Y-68782380D01*
X59963582Y-68779758D01*
X59969357Y-68777691D01*
X59975307Y-68776201D01*
X59981374Y-68775301D01*
X59987500Y-68775000D01*
X60687500Y-68775000D01*
X60693626Y-68775301D01*
G37*
G36*
X60693626Y-68275301D02*
G01*
X60699693Y-68276201D01*
X60705643Y-68277691D01*
X60711418Y-68279758D01*
X60716962Y-68282380D01*
X60722223Y-68285533D01*
X60727150Y-68289187D01*
X60731694Y-68293306D01*
X60735813Y-68297850D01*
X60739467Y-68302777D01*
X60742620Y-68308038D01*
X60745242Y-68313582D01*
X60747309Y-68319357D01*
X60748799Y-68325307D01*
X60749699Y-68331374D01*
X60750000Y-68337500D01*
X60750000Y-68462500D01*
X60749699Y-68468626D01*
X60748799Y-68474693D01*
X60747309Y-68480643D01*
X60745242Y-68486418D01*
X60742620Y-68491962D01*
X60739467Y-68497223D01*
X60735813Y-68502150D01*
X60731694Y-68506694D01*
X60727150Y-68510813D01*
X60722223Y-68514467D01*
X60716962Y-68517620D01*
X60711418Y-68520242D01*
X60705643Y-68522309D01*
X60699693Y-68523799D01*
X60693626Y-68524699D01*
X60687500Y-68525000D01*
X59987500Y-68525000D01*
X59981374Y-68524699D01*
X59975307Y-68523799D01*
X59969357Y-68522309D01*
X59963582Y-68520242D01*
X59958038Y-68517620D01*
X59952777Y-68514467D01*
X59947850Y-68510813D01*
X59943306Y-68506694D01*
X59939187Y-68502150D01*
X59935533Y-68497223D01*
X59932380Y-68491962D01*
X59929758Y-68486418D01*
X59927691Y-68480643D01*
X59926201Y-68474693D01*
X59925301Y-68468626D01*
X59925000Y-68462500D01*
X59925000Y-68337500D01*
X59925301Y-68331374D01*
X59926201Y-68325307D01*
X59927691Y-68319357D01*
X59929758Y-68313582D01*
X59932380Y-68308038D01*
X59935533Y-68302777D01*
X59939187Y-68297850D01*
X59943306Y-68293306D01*
X59947850Y-68289187D01*
X59952777Y-68285533D01*
X59958038Y-68282380D01*
X59963582Y-68279758D01*
X59969357Y-68277691D01*
X59975307Y-68276201D01*
X59981374Y-68275301D01*
X59987500Y-68275000D01*
X60687500Y-68275000D01*
X60693626Y-68275301D01*
G37*
G36*
X60693626Y-67775301D02*
G01*
X60699693Y-67776201D01*
X60705643Y-67777691D01*
X60711418Y-67779758D01*
X60716962Y-67782380D01*
X60722223Y-67785533D01*
X60727150Y-67789187D01*
X60731694Y-67793306D01*
X60735813Y-67797850D01*
X60739467Y-67802777D01*
X60742620Y-67808038D01*
X60745242Y-67813582D01*
X60747309Y-67819357D01*
X60748799Y-67825307D01*
X60749699Y-67831374D01*
X60750000Y-67837500D01*
X60750000Y-67962500D01*
X60749699Y-67968626D01*
X60748799Y-67974693D01*
X60747309Y-67980643D01*
X60745242Y-67986418D01*
X60742620Y-67991962D01*
X60739467Y-67997223D01*
X60735813Y-68002150D01*
X60731694Y-68006694D01*
X60727150Y-68010813D01*
X60722223Y-68014467D01*
X60716962Y-68017620D01*
X60711418Y-68020242D01*
X60705643Y-68022309D01*
X60699693Y-68023799D01*
X60693626Y-68024699D01*
X60687500Y-68025000D01*
X59987500Y-68025000D01*
X59981374Y-68024699D01*
X59975307Y-68023799D01*
X59969357Y-68022309D01*
X59963582Y-68020242D01*
X59958038Y-68017620D01*
X59952777Y-68014467D01*
X59947850Y-68010813D01*
X59943306Y-68006694D01*
X59939187Y-68002150D01*
X59935533Y-67997223D01*
X59932380Y-67991962D01*
X59929758Y-67986418D01*
X59927691Y-67980643D01*
X59926201Y-67974693D01*
X59925301Y-67968626D01*
X59925000Y-67962500D01*
X59925000Y-67837500D01*
X59925301Y-67831374D01*
X59926201Y-67825307D01*
X59927691Y-67819357D01*
X59929758Y-67813582D01*
X59932380Y-67808038D01*
X59935533Y-67802777D01*
X59939187Y-67797850D01*
X59943306Y-67793306D01*
X59947850Y-67789187D01*
X59952777Y-67785533D01*
X59958038Y-67782380D01*
X59963582Y-67779758D01*
X59969357Y-67777691D01*
X59975307Y-67776201D01*
X59981374Y-67775301D01*
X59987500Y-67775000D01*
X60687500Y-67775000D01*
X60693626Y-67775301D01*
G37*
G36*
X60693626Y-67275301D02*
G01*
X60699693Y-67276201D01*
X60705643Y-67277691D01*
X60711418Y-67279758D01*
X60716962Y-67282380D01*
X60722223Y-67285533D01*
X60727150Y-67289187D01*
X60731694Y-67293306D01*
X60735813Y-67297850D01*
X60739467Y-67302777D01*
X60742620Y-67308038D01*
X60745242Y-67313582D01*
X60747309Y-67319357D01*
X60748799Y-67325307D01*
X60749699Y-67331374D01*
X60750000Y-67337500D01*
X60750000Y-67462500D01*
X60749699Y-67468626D01*
X60748799Y-67474693D01*
X60747309Y-67480643D01*
X60745242Y-67486418D01*
X60742620Y-67491962D01*
X60739467Y-67497223D01*
X60735813Y-67502150D01*
X60731694Y-67506694D01*
X60727150Y-67510813D01*
X60722223Y-67514467D01*
X60716962Y-67517620D01*
X60711418Y-67520242D01*
X60705643Y-67522309D01*
X60699693Y-67523799D01*
X60693626Y-67524699D01*
X60687500Y-67525000D01*
X59987500Y-67525000D01*
X59981374Y-67524699D01*
X59975307Y-67523799D01*
X59969357Y-67522309D01*
X59963582Y-67520242D01*
X59958038Y-67517620D01*
X59952777Y-67514467D01*
X59947850Y-67510813D01*
X59943306Y-67506694D01*
X59939187Y-67502150D01*
X59935533Y-67497223D01*
X59932380Y-67491962D01*
X59929758Y-67486418D01*
X59927691Y-67480643D01*
X59926201Y-67474693D01*
X59925301Y-67468626D01*
X59925000Y-67462500D01*
X59925000Y-67337500D01*
X59925301Y-67331374D01*
X59926201Y-67325307D01*
X59927691Y-67319357D01*
X59929758Y-67313582D01*
X59932380Y-67308038D01*
X59935533Y-67302777D01*
X59939187Y-67297850D01*
X59943306Y-67293306D01*
X59947850Y-67289187D01*
X59952777Y-67285533D01*
X59958038Y-67282380D01*
X59963582Y-67279758D01*
X59969357Y-67277691D01*
X59975307Y-67276201D01*
X59981374Y-67275301D01*
X59987500Y-67275000D01*
X60687500Y-67275000D01*
X60693626Y-67275301D01*
G37*
G36*
X63424503Y-67301204D02*
G01*
X63448772Y-67304804D01*
X63472570Y-67310765D01*
X63495670Y-67319030D01*
X63517849Y-67329520D01*
X63538892Y-67342133D01*
X63558598Y-67356748D01*
X63576776Y-67373224D01*
X63593252Y-67391402D01*
X63607867Y-67411108D01*
X63620480Y-67432151D01*
X63630970Y-67454330D01*
X63639235Y-67477430D01*
X63645196Y-67501228D01*
X63648796Y-67525497D01*
X63650000Y-67550001D01*
X63650000Y-69749999D01*
X63648796Y-69774503D01*
X63645196Y-69798772D01*
X63639235Y-69822570D01*
X63630970Y-69845670D01*
X63620480Y-69867849D01*
X63607867Y-69888892D01*
X63593252Y-69908598D01*
X63576776Y-69926776D01*
X63558598Y-69943252D01*
X63538892Y-69957867D01*
X63517849Y-69970480D01*
X63495670Y-69980970D01*
X63472570Y-69989235D01*
X63448772Y-69995196D01*
X63424503Y-69998796D01*
X63399999Y-70000000D01*
X61200001Y-70000000D01*
X61175497Y-69998796D01*
X61151228Y-69995196D01*
X61127430Y-69989235D01*
X61104330Y-69980970D01*
X61082151Y-69970480D01*
X61061108Y-69957867D01*
X61041402Y-69943252D01*
X61023224Y-69926776D01*
X61006748Y-69908598D01*
X60992133Y-69888892D01*
X60979520Y-69867849D01*
X60969030Y-69845670D01*
X60960765Y-69822570D01*
X60954804Y-69798772D01*
X60951204Y-69774503D01*
X60950000Y-69749999D01*
X60950000Y-67550001D01*
X60951204Y-67525497D01*
X60954804Y-67501228D01*
X60960765Y-67477430D01*
X60969030Y-67454330D01*
X60979520Y-67432151D01*
X60992133Y-67411108D01*
X61006748Y-67391402D01*
X61023224Y-67373224D01*
X61041402Y-67356748D01*
X61061108Y-67342133D01*
X61082151Y-67329520D01*
X61104330Y-67319030D01*
X61127430Y-67310765D01*
X61151228Y-67304804D01*
X61175497Y-67301204D01*
X61200001Y-67300000D01*
X63399999Y-67300000D01*
X63424503Y-67301204D01*
G37*
D28*
X81075000Y-51250000D03*
X81075000Y-53050000D03*
D15*
X97500000Y-64330000D03*
X97500000Y-65270000D03*
X96650000Y-64330000D03*
X96650000Y-65270000D03*
X92000000Y-71370000D03*
X92000000Y-70430000D03*
X92000000Y-69670000D03*
X92000000Y-68730000D03*
D16*
X77470000Y-67250000D03*
X76530000Y-67250000D03*
D13*
X79000000Y-66800000D03*
X79000000Y-68700000D03*
D16*
X72930000Y-70250000D03*
X73870000Y-70250000D03*
X77470000Y-68250000D03*
X76530000Y-68250000D03*
X73870000Y-71100000D03*
X72930000Y-71100000D03*
X81395000Y-67725000D03*
X80455000Y-67725000D03*
D15*
X68250000Y-82530000D03*
X68250000Y-83470000D03*
D16*
X62730000Y-83350000D03*
X63670000Y-83350000D03*
X64480000Y-83350000D03*
X65420000Y-83350000D03*
X63580000Y-65250000D03*
X64520000Y-65250000D03*
X64680000Y-66100000D03*
X65620000Y-66100000D03*
X63670000Y-81650000D03*
X62730000Y-81650000D03*
X76130000Y-60900000D03*
X77070000Y-60900000D03*
D15*
X74550000Y-64330000D03*
X74550000Y-65270000D03*
X71650000Y-66930000D03*
X71650000Y-67870000D03*
X70800000Y-66930000D03*
X70800000Y-67870000D03*
D16*
X68730000Y-55200000D03*
X69670000Y-55200000D03*
D15*
X59650000Y-70580000D03*
X59650000Y-71520000D03*
X65350000Y-66930000D03*
X65350000Y-67870000D03*
D16*
X59270000Y-57750000D03*
X58330000Y-57750000D03*
D15*
X58350000Y-53520000D03*
X58350000Y-52580000D03*
D19*
X75000000Y-71500000D03*
X77000000Y-70550000D03*
X77000000Y-72450000D03*
X80500000Y-70000000D03*
X82500000Y-69050000D03*
X82500000Y-70950000D03*
D29*
X75784000Y-51560000D03*
X77816000Y-51560000D03*
D30*
X76800000Y-56640000D03*
D31*
X57000000Y-66450000D03*
X57000000Y-71250000D03*
X57000000Y-72050000D03*
X57000000Y-65650000D03*
D32*
X56085000Y-64530000D03*
X56085000Y-73170000D03*
D33*
X51905000Y-64530000D03*
X51905000Y-73170000D03*
D34*
X55555000Y-71740000D03*
X55555000Y-65960000D03*
D31*
X57000000Y-72050000D03*
X57000000Y-71250000D03*
D35*
X57000000Y-70600000D03*
X57000000Y-70100000D03*
X57000000Y-69600000D03*
X57000000Y-69100000D03*
X57000000Y-68600000D03*
X57000000Y-68100000D03*
X57000000Y-67600000D03*
X57000000Y-67100000D03*
D31*
X57000000Y-66450000D03*
X57000000Y-65650000D03*
X57000000Y-53600000D03*
X57000000Y-58400000D03*
X57000000Y-59200000D03*
X57000000Y-52800000D03*
D32*
X56085000Y-51680000D03*
X56085000Y-60320000D03*
D33*
X51905000Y-51680000D03*
X51905000Y-60320000D03*
D34*
X55555000Y-58890000D03*
X55555000Y-53110000D03*
D31*
X57000000Y-59200000D03*
X57000000Y-58400000D03*
D35*
X57000000Y-57750000D03*
X57000000Y-57250000D03*
X57000000Y-56750000D03*
X57000000Y-56250000D03*
X57000000Y-55750000D03*
X57000000Y-55250000D03*
X57000000Y-54750000D03*
X57000000Y-54250000D03*
D31*
X57000000Y-53600000D03*
X57000000Y-52800000D03*
D36*
X97000000Y-67500000D03*
D37*
X97490000Y-68900000D03*
X97490000Y-66100000D03*
D38*
X95250000Y-70900000D03*
X95250000Y-67600000D03*
X59000000Y-58850000D03*
X59000000Y-62150000D03*
D15*
X73650000Y-64980000D03*
X73650000Y-65920000D03*
D16*
X67970000Y-55200000D03*
X67030000Y-55200000D03*
X65920000Y-57050000D03*
X64980000Y-57050000D03*
D15*
X66450000Y-65770000D03*
X66450000Y-64830000D03*
X75600000Y-58720000D03*
X75600000Y-57780000D03*
D13*
X93250000Y-70950000D03*
X93250000Y-69050000D03*
D15*
X64500000Y-64420000D03*
X64500000Y-63480000D03*
X69100000Y-82530000D03*
X69100000Y-83470000D03*
D13*
X70225000Y-80750000D03*
X70225000Y-78850000D03*
D39*
X66500000Y-77800000D03*
X68000000Y-77800000D03*
X65500000Y-77800000D03*
X64000000Y-77800000D03*
D16*
X69270000Y-81700000D03*
X68330000Y-81700000D03*
X62730000Y-82500000D03*
X63670000Y-82500000D03*
D13*
X61575000Y-80750000D03*
X61575000Y-78850000D03*
D15*
X65500000Y-65220000D03*
X65500000Y-64280000D03*
D16*
X62730000Y-63750000D03*
X63670000Y-63750000D03*
X61970000Y-63750000D03*
X61030000Y-63750000D03*
D15*
X61950000Y-64780000D03*
X61950000Y-65720000D03*
X60250000Y-64780000D03*
X60250000Y-65720000D03*
X61100000Y-64780000D03*
X61100000Y-65720000D03*
X62800000Y-64780000D03*
X62800000Y-65720000D03*
M02*
