G04 #@! TF.GenerationSoftware,KiCad,Pcbnew,5.1.5+dfsg1-2build2*
G04 #@! TF.CreationDate,2021-12-30T02:49:34+01:00*
G04 #@! TF.ProjectId,OPS,4f50532e-6b69-4636-9164-5f7063625858,rev?*
G04 #@! TF.SameCoordinates,Original*
G04 #@! TF.FileFunction,Copper,L2,Bot*
G04 #@! TF.FilePolarity,Positive*
%FSLAX46Y46*%
G04 Gerber Fmt 4.6, Leading zero omitted, Abs format (unit mm)*
G04 Created by KiCad (PCBNEW 5.1.5+dfsg1-2build2) date 2021-12-30 02:49:34*
%MOMM*%
%LPD*%
G04 APERTURE LIST*
%ADD10C,3.500000*%
%ADD11O,1.350000X1.350000*%
%ADD12R,1.350000X1.350000*%
%ADD13C,6.400000*%
%ADD14R,1.400000X1.050000*%
%ADD15C,0.784860*%
%ADD16O,2.100000X1.000000*%
%ADD17O,1.600000X1.000000*%
%ADD18C,0.600000*%
%ADD19C,0.300000*%
%ADD20C,0.150000*%
%ADD21C,0.200000*%
%ADD22C,0.127000*%
G04 APERTURE END LIST*
D10*
X96750000Y-77000000D03*
X81250000Y-77000000D03*
X96750000Y-58000000D03*
X81250000Y-58000000D03*
D11*
X74000000Y-52400000D03*
X72000000Y-52400000D03*
X70000000Y-52400000D03*
X68000000Y-52400000D03*
X66000000Y-52400000D03*
X64000000Y-52400000D03*
X62000000Y-52400000D03*
D12*
X60000000Y-52400000D03*
D13*
X86500000Y-67500000D03*
D11*
X52600000Y-82150000D03*
X52600000Y-80150000D03*
X52600000Y-78150000D03*
D12*
X52600000Y-76150000D03*
D14*
X79275000Y-51430000D03*
X82875000Y-51430000D03*
X79275000Y-52870000D03*
X82875000Y-52870000D03*
D15*
X77435000Y-52830000D03*
X76165000Y-52830000D03*
X77435000Y-54100000D03*
X76165000Y-54100000D03*
X77435000Y-55370000D03*
X76165000Y-55370000D03*
D16*
X56085000Y-64530000D03*
X56085000Y-73170000D03*
D17*
X51905000Y-64530000D03*
X51905000Y-73170000D03*
D16*
X56085000Y-51680000D03*
X56085000Y-60320000D03*
D17*
X51905000Y-51680000D03*
X51905000Y-60320000D03*
D18*
X62650000Y-79750000D03*
X63750000Y-80500000D03*
X63200000Y-67750000D03*
X61450000Y-69550000D03*
X61400000Y-67750000D03*
X75900000Y-58500000D03*
X62500000Y-62500000D03*
X62500000Y-61500000D03*
X63000000Y-59000000D03*
X62000000Y-59000000D03*
X62000000Y-60000000D03*
X63000000Y-60000000D03*
X60250000Y-55250000D03*
X93600000Y-66800000D03*
X93600000Y-64802002D03*
X63900000Y-64700000D03*
X65197000Y-65409613D03*
X73500000Y-64400000D03*
X81725000Y-53675000D03*
X90775000Y-53725000D03*
X77800000Y-56875000D03*
X66475000Y-65507002D03*
X67620000Y-61300000D03*
X67190000Y-60300000D03*
X72260000Y-63740000D03*
X70280000Y-66130000D03*
X67000000Y-68610000D03*
X71720000Y-69120000D03*
X70300000Y-69110000D03*
X65250000Y-68790000D03*
X65300000Y-70700000D03*
X68800000Y-70700000D03*
X71800000Y-70700000D03*
X60400000Y-71100000D03*
X58950000Y-71500000D03*
X59200000Y-66650000D03*
X58200000Y-63200000D03*
X53400000Y-56800000D03*
X54700000Y-58400000D03*
X53000000Y-59300000D03*
X54600000Y-59300000D03*
X54600000Y-61500000D03*
X53000000Y-61500000D03*
X53000000Y-63900000D03*
X54600000Y-63900000D03*
X56050000Y-79750000D03*
X58550000Y-79750000D03*
X58650000Y-82250000D03*
X55950000Y-82250000D03*
X60500000Y-81600000D03*
X61400000Y-81600000D03*
X61800000Y-82500000D03*
X59700000Y-81600000D03*
X70000000Y-81600000D03*
X70800000Y-81600000D03*
X71600000Y-81600000D03*
X72400000Y-81600000D03*
X69900000Y-82500000D03*
X69900000Y-83300000D03*
X62700000Y-73600000D03*
X69200000Y-74200000D03*
X69200000Y-72200000D03*
X71200000Y-72200000D03*
X76500000Y-73500000D03*
X77500000Y-74200000D03*
X77000000Y-71600000D03*
X75900000Y-70100000D03*
X77000000Y-69000000D03*
X74300000Y-68400000D03*
X74300000Y-69500000D03*
X77600000Y-65100000D03*
X77650000Y-62550000D03*
X77600000Y-60100000D03*
X77600000Y-59000000D03*
X76000000Y-59200000D03*
X74800000Y-57300000D03*
X75300000Y-55800000D03*
X76800000Y-52000000D03*
X73000000Y-51600000D03*
X71000000Y-51600000D03*
X67000000Y-51500000D03*
X65000000Y-51500000D03*
X63000000Y-51500000D03*
X72600000Y-57900000D03*
X64600000Y-60800000D03*
X64600000Y-57800000D03*
X66100000Y-56200000D03*
X65000000Y-55300000D03*
X62900000Y-54400000D03*
X62900000Y-56700000D03*
X60500000Y-56800000D03*
X60500000Y-53700000D03*
X55200000Y-55100000D03*
X59050000Y-68450000D03*
X73150000Y-80600000D03*
X75750000Y-80650000D03*
X75750000Y-78450000D03*
X73150000Y-78450000D03*
X60700000Y-64550000D03*
X68250000Y-62400000D03*
X69950000Y-62500000D03*
X54600000Y-65550000D03*
X53000000Y-65550000D03*
X62200000Y-81700000D03*
X60400000Y-78200000D03*
X64575000Y-66827002D03*
X60519811Y-66292218D03*
X61900000Y-65457002D03*
X63401883Y-64115919D03*
X93100000Y-63200000D03*
X96750000Y-68875000D03*
X77400000Y-58225000D03*
X75850000Y-56600000D03*
X86557609Y-54252010D03*
X66688265Y-83641179D03*
X67500000Y-82800000D03*
X65934390Y-68438517D03*
X67125925Y-62425925D03*
X67640000Y-62940000D03*
X91160000Y-68930000D03*
X58250000Y-56750000D03*
X58212500Y-55462500D03*
X72500000Y-59325000D03*
X59400000Y-54300000D03*
X55150000Y-56925000D03*
X55200000Y-68325000D03*
X55750000Y-69800000D03*
X72500000Y-60175000D03*
X59400000Y-56200000D03*
X55150000Y-56075000D03*
X55200000Y-69175000D03*
X73225000Y-56150000D03*
X73450000Y-57125000D03*
X69450000Y-54940000D03*
X65024786Y-82605297D03*
X61000000Y-71800000D03*
X70976894Y-66402191D03*
X71150025Y-58389975D03*
X66100000Y-83100000D03*
X61800000Y-71800000D03*
X71700223Y-66329112D03*
X71885350Y-58429127D03*
X63900000Y-66000000D03*
X71540000Y-62090000D03*
X67200000Y-82100000D03*
X72767475Y-62807525D03*
X80475000Y-66950000D03*
X77670000Y-66510000D03*
X76990000Y-62990000D03*
X72920708Y-61440757D03*
X72949060Y-55394830D03*
X74050000Y-54600000D03*
X72211023Y-55005393D03*
X74400000Y-53875000D03*
X67400000Y-66475000D03*
X67802361Y-68534562D03*
X75125000Y-53375000D03*
X71350651Y-54939399D03*
X71560000Y-61290000D03*
X70170846Y-61302657D03*
X70412010Y-58369172D03*
X71730000Y-60570000D03*
X69800000Y-60620000D03*
X69800000Y-58960000D03*
X69400000Y-58200000D03*
X68600000Y-58200000D03*
X67800000Y-58200000D03*
X67471134Y-63647128D03*
X82048860Y-65841090D03*
D19*
X93600000Y-66800000D02*
X93600000Y-64800000D01*
X93600000Y-64800000D02*
X93600000Y-64802002D01*
X81250000Y-53675000D02*
X81725000Y-53675000D01*
X77275000Y-57650000D02*
X81250000Y-53675000D01*
X76350000Y-57650000D02*
X77275000Y-57650000D01*
X91074999Y-54024999D02*
X90775000Y-53725000D01*
X93899999Y-56849999D02*
X91074999Y-54024999D01*
X93600000Y-64802002D02*
X93899999Y-64502003D01*
X93899999Y-64502003D02*
X93899999Y-56849999D01*
X90725000Y-53675000D02*
X90775000Y-53725000D01*
X81725000Y-53675000D02*
X90725000Y-53675000D01*
D20*
X61054595Y-66827002D02*
X60519811Y-66292218D01*
X64575000Y-66827002D02*
X61054595Y-66827002D01*
X60400000Y-79425256D02*
X60400000Y-78624264D01*
X62200000Y-81225256D02*
X60400000Y-79425256D01*
X60400000Y-78624264D02*
X60400000Y-78200000D01*
X62200000Y-81700000D02*
X62200000Y-81225256D01*
X63241083Y-64115919D02*
X63401883Y-64115919D01*
X61900000Y-65457002D02*
X63241083Y-64115919D01*
X78300000Y-53820000D02*
X79260000Y-52860000D01*
X78300000Y-55625000D02*
X78300000Y-53820000D01*
X77925000Y-56000000D02*
X78300000Y-55625000D01*
X77150000Y-56000000D02*
X77925000Y-56000000D01*
X76975000Y-55825000D02*
X77150000Y-56000000D01*
X76620000Y-55825000D02*
X76975000Y-55825000D01*
X76165000Y-55370000D02*
X76620000Y-55825000D01*
X82025000Y-52870000D02*
X82875000Y-52870000D01*
X80580000Y-52440000D02*
X81595000Y-52440000D01*
X80150000Y-52870000D02*
X80580000Y-52440000D01*
X81595000Y-52440000D02*
X82025000Y-52870000D01*
X79275000Y-52870000D02*
X80150000Y-52870000D01*
X96325736Y-68875000D02*
X96750000Y-68875000D01*
X93080000Y-67240000D02*
X94715000Y-68875000D01*
X93080000Y-63220000D02*
X93080000Y-67240000D01*
X94715000Y-68875000D02*
X96325736Y-68875000D01*
X93100000Y-63200000D02*
X93080000Y-63220000D01*
X76100000Y-56350000D02*
X75850000Y-56600000D01*
X76100000Y-55535000D02*
X76100000Y-56350000D01*
X76265000Y-55370000D02*
X76100000Y-55535000D01*
D21*
X77400000Y-58225000D02*
X81372990Y-54252010D01*
X81372990Y-54252010D02*
X86133345Y-54252010D01*
X86133345Y-54252010D02*
X86557609Y-54252010D01*
X90502010Y-54252010D02*
X86981873Y-54252010D01*
X93100000Y-56850000D02*
X90502010Y-54252010D01*
X93100000Y-63200000D02*
X93100000Y-56850000D01*
X86981873Y-54252010D02*
X86557609Y-54252010D01*
D20*
X67500000Y-82829444D02*
X67500000Y-82800000D01*
X66688265Y-83641179D02*
X67500000Y-82829444D01*
X65934390Y-63617460D02*
X67125925Y-62425925D01*
X65934390Y-68438517D02*
X65934390Y-63617460D01*
X91160000Y-65710000D02*
X91160000Y-68505736D01*
X88690000Y-63240000D02*
X91160000Y-65710000D01*
X81520000Y-65660000D02*
X83940000Y-63240000D01*
X73481752Y-61970000D02*
X77171752Y-65660000D01*
X91160000Y-68505736D02*
X91160000Y-68930000D01*
X72452964Y-61970000D02*
X73481752Y-61970000D01*
X83940000Y-63240000D02*
X88690000Y-63240000D01*
X77171752Y-65660000D02*
X81520000Y-65660000D01*
X71262964Y-63160000D02*
X72452964Y-61970000D01*
X67860000Y-63160000D02*
X71262964Y-63160000D01*
X67640000Y-62940000D02*
X67860000Y-63160000D01*
D21*
X58250000Y-55500000D02*
X58212500Y-55462500D01*
X58250000Y-56750000D02*
X58250000Y-55500000D01*
X60195001Y-54300000D02*
X59400000Y-54300000D01*
X60920001Y-55025000D02*
X60195001Y-54300000D01*
X72300000Y-59525000D02*
X68075000Y-59525000D01*
X72500000Y-59325000D02*
X72300000Y-59525000D01*
X63575000Y-55025000D02*
X60920001Y-55025000D01*
X68075000Y-59525000D02*
X63575000Y-55025000D01*
X54936397Y-56925000D02*
X54025000Y-57836397D01*
X55150000Y-56925000D02*
X54936397Y-56925000D01*
X54025000Y-68006800D02*
X54543200Y-68525000D01*
X55000000Y-68525000D02*
X55200000Y-68325000D01*
X54543200Y-68525000D02*
X55000000Y-68525000D01*
X55750000Y-69800000D02*
X55800000Y-69750000D01*
X55800000Y-69750000D02*
X55800000Y-68700000D01*
X55800000Y-68700000D02*
X55425000Y-68325000D01*
X55425000Y-68325000D02*
X55200000Y-68325000D01*
X54025000Y-57836397D02*
X54025000Y-68006800D01*
X60855000Y-55475000D02*
X60130000Y-56200000D01*
X60130000Y-56200000D02*
X59400000Y-56200000D01*
X63325000Y-55475000D02*
X60855000Y-55475000D01*
X67850000Y-60000000D02*
X63325000Y-55475000D01*
X72325000Y-60000000D02*
X67850000Y-60000000D01*
X72500000Y-60175000D02*
X72325000Y-60000000D01*
X55150000Y-56075000D02*
X53575000Y-57650000D01*
X53575000Y-68193200D02*
X54356800Y-68975000D01*
X54356800Y-68975000D02*
X55000000Y-68975000D01*
X55000000Y-68975000D02*
X55200000Y-69175000D01*
X53575000Y-57650000D02*
X53575000Y-68193200D01*
D20*
X73267964Y-56150000D02*
X73225000Y-56150000D01*
X75967964Y-53450000D02*
X73267964Y-56150000D01*
X76850000Y-53450000D02*
X75967964Y-53450000D01*
X77550000Y-54150000D02*
X76850000Y-53450000D01*
X73749999Y-56825001D02*
X73450000Y-57125000D01*
X73749999Y-56250001D02*
X73749999Y-56825001D01*
X76850000Y-54750000D02*
X75250000Y-54750000D01*
X75250000Y-54750000D02*
X73749999Y-56250001D01*
X77500000Y-55400000D02*
X76850000Y-54750000D01*
X80520000Y-51825000D02*
X80125000Y-51430000D01*
X80125000Y-51430000D02*
X79275000Y-51430000D01*
X81630000Y-51825000D02*
X80520000Y-51825000D01*
X82025000Y-51430000D02*
X81630000Y-51825000D01*
X82875000Y-51430000D02*
X82025000Y-51430000D01*
X68990000Y-51920000D02*
X68990000Y-54480000D01*
X70080000Y-50830000D02*
X68990000Y-51920000D01*
X78500000Y-50830000D02*
X70080000Y-50830000D01*
X79100000Y-51430000D02*
X78500000Y-50830000D01*
X68990000Y-54480000D02*
X69450000Y-54940000D01*
X79275000Y-51430000D02*
X79100000Y-51430000D01*
X70676895Y-66702190D02*
X70976894Y-66402191D01*
X70676895Y-67139603D02*
X70676895Y-66702190D01*
X63425000Y-69350000D02*
X68466498Y-69350000D01*
X61000000Y-71800000D02*
X61000000Y-71775000D01*
X68466498Y-69350000D02*
X70676895Y-67139603D01*
X61000000Y-71775000D02*
X63425000Y-69350000D01*
X71150025Y-58290025D02*
X71150025Y-58389975D01*
X70360000Y-57500000D02*
X71150025Y-58290025D01*
X70360000Y-54480000D02*
X70360000Y-57500000D01*
X72000000Y-52840000D02*
X70360000Y-54480000D01*
X72000000Y-52400000D02*
X72000000Y-52840000D01*
X61000000Y-72224264D02*
X61000000Y-71800000D01*
X60995978Y-79629482D02*
X60995978Y-72228286D01*
X63766496Y-82400000D02*
X60995978Y-79629482D01*
X60995978Y-72228286D02*
X61000000Y-72224264D01*
X64819489Y-82400000D02*
X63766496Y-82400000D01*
X65024786Y-82605297D02*
X64819489Y-82400000D01*
X61800000Y-71366752D02*
X63539741Y-69627011D01*
X63539741Y-69627011D02*
X68581240Y-69627010D01*
X61800000Y-71800000D02*
X61800000Y-71366752D01*
X68581240Y-69627010D02*
X71700223Y-66508027D01*
X71700223Y-66508027D02*
X71700223Y-66329112D01*
X71885350Y-58415350D02*
X71885350Y-58429127D01*
X70750000Y-57280000D02*
X71885350Y-58415350D01*
X70750000Y-54750000D02*
X70750000Y-57280000D01*
X71150000Y-54350000D02*
X70750000Y-54750000D01*
X71540000Y-54350000D02*
X71150000Y-54350000D01*
X73490000Y-52400000D02*
X71540000Y-54350000D01*
X74000000Y-52400000D02*
X73490000Y-52400000D01*
X65308250Y-82050000D02*
X65354125Y-82095875D01*
X65800001Y-82800001D02*
X66100000Y-83100000D01*
X65800001Y-82541751D02*
X65800001Y-82800001D01*
X65308250Y-82050000D02*
X65800001Y-82541751D01*
X61272989Y-72327011D02*
X61272989Y-79514741D01*
X61272989Y-79514741D02*
X63808249Y-82050001D01*
X61800000Y-71800000D02*
X61272989Y-72327011D01*
X63808249Y-82050001D02*
X65308250Y-82050000D01*
X66635000Y-61890000D02*
X71340000Y-61890000D01*
X64625000Y-65275000D02*
X64625000Y-63900000D01*
X71340000Y-61890000D02*
X71540000Y-62090000D01*
X64625000Y-63900000D02*
X66635000Y-61890000D01*
X63900000Y-66000000D02*
X64625000Y-65275000D01*
X72767475Y-63231789D02*
X72767475Y-62807525D01*
X72767475Y-66182525D02*
X72767475Y-63231789D01*
X72025000Y-66950000D02*
X72767475Y-66182525D01*
X62350000Y-71225000D02*
X63650000Y-69925000D01*
X61550000Y-72900000D02*
X62350000Y-72100000D01*
X63650000Y-69925000D02*
X68675000Y-69925000D01*
X67200000Y-82100000D02*
X65750000Y-82100000D01*
X71650000Y-66950000D02*
X72025000Y-66950000D01*
X62350000Y-72100000D02*
X62350000Y-71225000D01*
X61550000Y-79400000D02*
X61550000Y-72900000D01*
X65422991Y-81772990D02*
X63922990Y-81772990D01*
X68675000Y-69925000D02*
X71650000Y-66950000D01*
X65750000Y-82100000D02*
X65422991Y-81772990D01*
X63922990Y-81772990D02*
X61550000Y-79400000D01*
X80475000Y-66950000D02*
X78487036Y-66950000D01*
X78110000Y-66950000D02*
X77670000Y-66510000D01*
X78487036Y-66950000D02*
X78110000Y-66950000D01*
X76990000Y-62990000D02*
X75440757Y-61440757D01*
X75440757Y-61440757D02*
X72920708Y-61440757D01*
X73743890Y-54600000D02*
X74050000Y-54600000D01*
X72949060Y-55394830D02*
X73743890Y-54600000D01*
X73341416Y-53875000D02*
X74400000Y-53875000D01*
X72211023Y-55005393D02*
X73341416Y-53875000D01*
X67575000Y-68307201D02*
X67802361Y-68534562D01*
X67575000Y-66650000D02*
X67575000Y-68307201D01*
X67400000Y-66475000D02*
X67575000Y-66650000D01*
X71520601Y-54939399D02*
X71350651Y-54939399D01*
X73087001Y-53372999D02*
X71520601Y-54939399D01*
X74698735Y-53372999D02*
X73087001Y-53372999D01*
X74700736Y-53375000D02*
X74698735Y-53372999D01*
X75125000Y-53375000D02*
X74700736Y-53375000D01*
X70183503Y-61290000D02*
X70170846Y-61302657D01*
X71560000Y-61290000D02*
X70183503Y-61290000D01*
X70000000Y-53354594D02*
X70000000Y-52400000D01*
X70000000Y-57640000D02*
X70000000Y-53354594D01*
X70412010Y-58052010D02*
X70000000Y-57640000D01*
X70412010Y-58369172D02*
X70412010Y-58052010D01*
X71730000Y-60570000D02*
X69850000Y-60570000D01*
X69850000Y-60570000D02*
X69800000Y-60620000D01*
X69800000Y-58960000D02*
X69880000Y-58880000D01*
X69880000Y-58880000D02*
X69900000Y-58860000D01*
X68000000Y-56040000D02*
X68000000Y-52400000D01*
X69910000Y-57950000D02*
X68000000Y-56040000D01*
X69910000Y-58850000D02*
X69910000Y-57950000D01*
X69800000Y-58960000D02*
X69910000Y-58850000D01*
X64674999Y-53191495D02*
X64674999Y-53074999D01*
X69100001Y-57616497D02*
X64674999Y-53191495D01*
X69100001Y-57900001D02*
X69100001Y-57616497D01*
X69400000Y-58200000D02*
X69100001Y-57900001D01*
X64674999Y-53074999D02*
X64000000Y-52400000D01*
X68600000Y-58200000D02*
X68600000Y-57508248D01*
X62674999Y-53074999D02*
X62000000Y-52400000D01*
X64639741Y-53547989D02*
X63147989Y-53547989D01*
X63147989Y-53547989D02*
X62674999Y-53074999D01*
X68600000Y-57508248D02*
X64639741Y-53547989D01*
X67800000Y-57100000D02*
X64525000Y-53825000D01*
X67800000Y-58200000D02*
X67800000Y-57100000D01*
X61425000Y-53825000D02*
X60000000Y-52400000D01*
X64525000Y-53825000D02*
X61425000Y-53825000D01*
X81952939Y-65937011D02*
X82048860Y-65841090D01*
X77037011Y-65937011D02*
X81952939Y-65937011D01*
X73347011Y-62247011D02*
X77037011Y-65937011D01*
X71372038Y-63460000D02*
X72585027Y-62247011D01*
X67658262Y-63460000D02*
X71372038Y-63460000D01*
X72585027Y-62247011D02*
X73347011Y-62247011D01*
X67471134Y-63647128D02*
X67658262Y-63460000D01*
D22*
G36*
X68762399Y-51668891D02*
G01*
X68749487Y-51679488D01*
X68707186Y-51731031D01*
X68690148Y-51762908D01*
X68598259Y-51671019D01*
X68444546Y-51568312D01*
X68273750Y-51497566D01*
X68092434Y-51461500D01*
X67907566Y-51461500D01*
X67726250Y-51497566D01*
X67555454Y-51568312D01*
X67401741Y-51671019D01*
X67271019Y-51801741D01*
X67168312Y-51955454D01*
X67097566Y-52126250D01*
X67061500Y-52307566D01*
X67061500Y-52492434D01*
X67097566Y-52673750D01*
X67168312Y-52844546D01*
X67271019Y-52998259D01*
X67401741Y-53128981D01*
X67555454Y-53231688D01*
X67661501Y-53275614D01*
X67661500Y-55699285D01*
X65012724Y-53050510D01*
X65008600Y-53008643D01*
X65008600Y-53008641D01*
X64989245Y-52944834D01*
X64969921Y-52908682D01*
X64957813Y-52886029D01*
X64915512Y-52834486D01*
X64902601Y-52823890D01*
X64858508Y-52779797D01*
X64902434Y-52673750D01*
X64938500Y-52492434D01*
X64938500Y-52307566D01*
X65061500Y-52307566D01*
X65061500Y-52492434D01*
X65097566Y-52673750D01*
X65168312Y-52844546D01*
X65271019Y-52998259D01*
X65401741Y-53128981D01*
X65555454Y-53231688D01*
X65726250Y-53302434D01*
X65907566Y-53338500D01*
X66092434Y-53338500D01*
X66273750Y-53302434D01*
X66444546Y-53231688D01*
X66598259Y-53128981D01*
X66728981Y-52998259D01*
X66831688Y-52844546D01*
X66902434Y-52673750D01*
X66938500Y-52492434D01*
X66938500Y-52307566D01*
X66902434Y-52126250D01*
X66831688Y-51955454D01*
X66728981Y-51801741D01*
X66598259Y-51671019D01*
X66444546Y-51568312D01*
X66273750Y-51497566D01*
X66092434Y-51461500D01*
X65907566Y-51461500D01*
X65726250Y-51497566D01*
X65555454Y-51568312D01*
X65401741Y-51671019D01*
X65271019Y-51801741D01*
X65168312Y-51955454D01*
X65097566Y-52126250D01*
X65061500Y-52307566D01*
X64938500Y-52307566D01*
X64902434Y-52126250D01*
X64831688Y-51955454D01*
X64728981Y-51801741D01*
X64598259Y-51671019D01*
X64444546Y-51568312D01*
X64273750Y-51497566D01*
X64092434Y-51461500D01*
X63907566Y-51461500D01*
X63726250Y-51497566D01*
X63555454Y-51568312D01*
X63401741Y-51671019D01*
X63271019Y-51801741D01*
X63168312Y-51955454D01*
X63097566Y-52126250D01*
X63061500Y-52307566D01*
X63061500Y-52492434D01*
X63097566Y-52673750D01*
X63168312Y-52844546D01*
X63271019Y-52998259D01*
X63401741Y-53128981D01*
X63522231Y-53209489D01*
X63288200Y-53209489D01*
X62926110Y-52847400D01*
X62926106Y-52847395D01*
X62858508Y-52779797D01*
X62902434Y-52673750D01*
X62938500Y-52492434D01*
X62938500Y-52307566D01*
X62902434Y-52126250D01*
X62831688Y-51955454D01*
X62728981Y-51801741D01*
X62598259Y-51671019D01*
X62444546Y-51568312D01*
X62273750Y-51497566D01*
X62092434Y-51461500D01*
X61907566Y-51461500D01*
X61726250Y-51497566D01*
X61555454Y-51568312D01*
X61401741Y-51671019D01*
X61271019Y-51801741D01*
X61168312Y-51955454D01*
X61097566Y-52126250D01*
X61061500Y-52307566D01*
X61061500Y-52492434D01*
X61097566Y-52673750D01*
X61168312Y-52844546D01*
X61271019Y-52998259D01*
X61401741Y-53128981D01*
X61555454Y-53231688D01*
X61726250Y-53302434D01*
X61907566Y-53338500D01*
X62092434Y-53338500D01*
X62273750Y-53302434D01*
X62379797Y-53258508D01*
X62447395Y-53326106D01*
X62447400Y-53326110D01*
X62607790Y-53486500D01*
X61565211Y-53486500D01*
X60939774Y-52861064D01*
X60939774Y-51725000D01*
X60934686Y-51673345D01*
X60919619Y-51623675D01*
X60895152Y-51577899D01*
X60862223Y-51537777D01*
X60822101Y-51504848D01*
X60776325Y-51480381D01*
X60726655Y-51465314D01*
X60675000Y-51460226D01*
X59325000Y-51460226D01*
X59273345Y-51465314D01*
X59223675Y-51480381D01*
X59177899Y-51504848D01*
X59137777Y-51537777D01*
X59104848Y-51577899D01*
X59080381Y-51623675D01*
X59065314Y-51673345D01*
X59060226Y-51725000D01*
X59060226Y-53075000D01*
X59065314Y-53126655D01*
X59080381Y-53176325D01*
X59104848Y-53222101D01*
X59137777Y-53262223D01*
X59177899Y-53295152D01*
X59223675Y-53319619D01*
X59273345Y-53334686D01*
X59325000Y-53339774D01*
X60461064Y-53339774D01*
X61173891Y-54052602D01*
X61184487Y-54065513D01*
X61236030Y-54107814D01*
X61294835Y-54139246D01*
X61330285Y-54149999D01*
X61358642Y-54158601D01*
X61364936Y-54159221D01*
X61408380Y-54163500D01*
X61408387Y-54163500D01*
X61424999Y-54165136D01*
X61441611Y-54163500D01*
X64384790Y-54163500D01*
X67461501Y-57240212D01*
X67461500Y-57748462D01*
X67440789Y-57762301D01*
X67362301Y-57840789D01*
X67300632Y-57933082D01*
X67258155Y-58035633D01*
X67236500Y-58144500D01*
X67236500Y-58172433D01*
X63844654Y-54780588D01*
X63833276Y-54766724D01*
X63777926Y-54721299D01*
X63714778Y-54687546D01*
X63646258Y-54666760D01*
X63592850Y-54661500D01*
X63592840Y-54661500D01*
X63575000Y-54659743D01*
X63557160Y-54661500D01*
X61070568Y-54661500D01*
X60464655Y-54055588D01*
X60453277Y-54041724D01*
X60397927Y-53996299D01*
X60334779Y-53962546D01*
X60266259Y-53941760D01*
X60212851Y-53936500D01*
X60212841Y-53936500D01*
X60195001Y-53934743D01*
X60177161Y-53936500D01*
X59833410Y-53936500D01*
X59759211Y-53862301D01*
X59666918Y-53800632D01*
X59564367Y-53758155D01*
X59455500Y-53736500D01*
X59344500Y-53736500D01*
X59235633Y-53758155D01*
X59133082Y-53800632D01*
X59040789Y-53862301D01*
X58962301Y-53940789D01*
X58900632Y-54033082D01*
X58858155Y-54135633D01*
X58836500Y-54244500D01*
X58836500Y-54355500D01*
X58858155Y-54464367D01*
X58900632Y-54566918D01*
X58962301Y-54659211D01*
X59040789Y-54737699D01*
X59133082Y-54799368D01*
X59235633Y-54841845D01*
X59344500Y-54863500D01*
X59455500Y-54863500D01*
X59564367Y-54841845D01*
X59666918Y-54799368D01*
X59759211Y-54737699D01*
X59833410Y-54663500D01*
X60044435Y-54663500D01*
X60597237Y-55216303D01*
X60596724Y-55216724D01*
X60585350Y-55230583D01*
X59979434Y-55836500D01*
X59833410Y-55836500D01*
X59759211Y-55762301D01*
X59666918Y-55700632D01*
X59564367Y-55658155D01*
X59455500Y-55636500D01*
X59344500Y-55636500D01*
X59235633Y-55658155D01*
X59133082Y-55700632D01*
X59040789Y-55762301D01*
X58962301Y-55840789D01*
X58900632Y-55933082D01*
X58858155Y-56035633D01*
X58836500Y-56144500D01*
X58836500Y-56255500D01*
X58858155Y-56364367D01*
X58900632Y-56466918D01*
X58962301Y-56559211D01*
X59040789Y-56637699D01*
X59133082Y-56699368D01*
X59235633Y-56741845D01*
X59344500Y-56763500D01*
X59455500Y-56763500D01*
X59564367Y-56741845D01*
X59666918Y-56699368D01*
X59759211Y-56637699D01*
X59833410Y-56563500D01*
X60112160Y-56563500D01*
X60130000Y-56565257D01*
X60147840Y-56563500D01*
X60147850Y-56563500D01*
X60201258Y-56558240D01*
X60269778Y-56537454D01*
X60332926Y-56503701D01*
X60388276Y-56458276D01*
X60399654Y-56444412D01*
X61005567Y-55838500D01*
X63174434Y-55838500D01*
X67580345Y-60244411D01*
X67591724Y-60258276D01*
X67605588Y-60269654D01*
X67647072Y-60303700D01*
X67647074Y-60303701D01*
X67710222Y-60337454D01*
X67778742Y-60358240D01*
X67832150Y-60363500D01*
X67832159Y-60363500D01*
X67849999Y-60365257D01*
X67867839Y-60363500D01*
X69296317Y-60363500D01*
X69258155Y-60455633D01*
X69236500Y-60564500D01*
X69236500Y-60675500D01*
X69258155Y-60784367D01*
X69300632Y-60886918D01*
X69362301Y-60979211D01*
X69440789Y-61057699D01*
X69533082Y-61119368D01*
X69625177Y-61157514D01*
X69607346Y-61247157D01*
X69607346Y-61358157D01*
X69629001Y-61467024D01*
X69663991Y-61551500D01*
X66651611Y-61551500D01*
X66634999Y-61549864D01*
X66618387Y-61551500D01*
X66618380Y-61551500D01*
X66574936Y-61555779D01*
X66568642Y-61556399D01*
X66549287Y-61562270D01*
X66504835Y-61575754D01*
X66446030Y-61607186D01*
X66394487Y-61649487D01*
X66383891Y-61662398D01*
X64397399Y-63648891D01*
X64384488Y-63659487D01*
X64373893Y-63672397D01*
X64342187Y-63711030D01*
X64310754Y-63769836D01*
X64291399Y-63833643D01*
X64284864Y-63900000D01*
X64286501Y-63916622D01*
X64286500Y-65134789D01*
X63979930Y-65441359D01*
X63955500Y-65436500D01*
X63844500Y-65436500D01*
X63735633Y-65458155D01*
X63633082Y-65500632D01*
X63540789Y-65562301D01*
X63462301Y-65640789D01*
X63400632Y-65733082D01*
X63358155Y-65835633D01*
X63336500Y-65944500D01*
X63336500Y-66055500D01*
X63358155Y-66164367D01*
X63400632Y-66266918D01*
X63462301Y-66359211D01*
X63540789Y-66437699D01*
X63616820Y-66488502D01*
X61194806Y-66488502D01*
X61078452Y-66372148D01*
X61083311Y-66347718D01*
X61083311Y-66236718D01*
X61061656Y-66127851D01*
X61019179Y-66025300D01*
X60957510Y-65933007D01*
X60879022Y-65854519D01*
X60786729Y-65792850D01*
X60684178Y-65750373D01*
X60575311Y-65728718D01*
X60464311Y-65728718D01*
X60355444Y-65750373D01*
X60252893Y-65792850D01*
X60160600Y-65854519D01*
X60082112Y-65933007D01*
X60020443Y-66025300D01*
X59977966Y-66127851D01*
X59956311Y-66236718D01*
X59956311Y-66347718D01*
X59977966Y-66456585D01*
X60020443Y-66559136D01*
X60082112Y-66651429D01*
X60160600Y-66729917D01*
X60252893Y-66791586D01*
X60355444Y-66834063D01*
X60464311Y-66855718D01*
X60575311Y-66855718D01*
X60599741Y-66850859D01*
X60803486Y-67054604D01*
X60814082Y-67067515D01*
X60865625Y-67109816D01*
X60920168Y-67138970D01*
X60924430Y-67141248D01*
X60988237Y-67160603D01*
X60993986Y-67161169D01*
X61037975Y-67165502D01*
X61037983Y-67165502D01*
X61054595Y-67167138D01*
X61071207Y-67165502D01*
X64123462Y-67165502D01*
X64137301Y-67186213D01*
X64215789Y-67264701D01*
X64308082Y-67326370D01*
X64410633Y-67368847D01*
X64519500Y-67390502D01*
X64630500Y-67390502D01*
X64739367Y-67368847D01*
X64841918Y-67326370D01*
X64934211Y-67264701D01*
X65012699Y-67186213D01*
X65074368Y-67093920D01*
X65116845Y-66991369D01*
X65138500Y-66882502D01*
X65138500Y-66771502D01*
X65116845Y-66662635D01*
X65074368Y-66560084D01*
X65012699Y-66467791D01*
X64934211Y-66389303D01*
X64841918Y-66327634D01*
X64739367Y-66285157D01*
X64630500Y-66263502D01*
X64519500Y-66263502D01*
X64410633Y-66285157D01*
X64378206Y-66298588D01*
X64399368Y-66266918D01*
X64441845Y-66164367D01*
X64463500Y-66055500D01*
X64463500Y-65944500D01*
X64458641Y-65920070D01*
X64852607Y-65526104D01*
X64865512Y-65515513D01*
X64907814Y-65463970D01*
X64939246Y-65405165D01*
X64949954Y-65369863D01*
X64958601Y-65341358D01*
X64960557Y-65321500D01*
X64963500Y-65291620D01*
X64963500Y-65291612D01*
X64965136Y-65275000D01*
X64963500Y-65258388D01*
X64963500Y-64040210D01*
X66562425Y-62441286D01*
X66562425Y-62481425D01*
X66567284Y-62505855D01*
X65706789Y-63366351D01*
X65693878Y-63376947D01*
X65683283Y-63389857D01*
X65651577Y-63428490D01*
X65620144Y-63487296D01*
X65600789Y-63551103D01*
X65594254Y-63617460D01*
X65595891Y-63634082D01*
X65595890Y-67986979D01*
X65575179Y-68000818D01*
X65496691Y-68079306D01*
X65435022Y-68171599D01*
X65392545Y-68274150D01*
X65370890Y-68383017D01*
X65370890Y-68494017D01*
X65392545Y-68602884D01*
X65435022Y-68705435D01*
X65496691Y-68797728D01*
X65575179Y-68876216D01*
X65667472Y-68937885D01*
X65770023Y-68980362D01*
X65878890Y-69002017D01*
X65989890Y-69002017D01*
X66098757Y-68980362D01*
X66201308Y-68937885D01*
X66293601Y-68876216D01*
X66372089Y-68797728D01*
X66433758Y-68705435D01*
X66476235Y-68602884D01*
X66497890Y-68494017D01*
X66497890Y-68383017D01*
X66476235Y-68274150D01*
X66433758Y-68171599D01*
X66372089Y-68079306D01*
X66293601Y-68000818D01*
X66272890Y-67986979D01*
X66272890Y-63757670D01*
X67045995Y-62984566D01*
X67070425Y-62989425D01*
X67076500Y-62989425D01*
X67076500Y-62995500D01*
X67098155Y-63104367D01*
X67135223Y-63193860D01*
X67111923Y-63209429D01*
X67033435Y-63287917D01*
X66971766Y-63380210D01*
X66929289Y-63482761D01*
X66907634Y-63591628D01*
X66907634Y-63702628D01*
X66929289Y-63811495D01*
X66971766Y-63914046D01*
X67033435Y-64006339D01*
X67111923Y-64084827D01*
X67204216Y-64146496D01*
X67306767Y-64188973D01*
X67415634Y-64210628D01*
X67526634Y-64210628D01*
X67635501Y-64188973D01*
X67738052Y-64146496D01*
X67830345Y-64084827D01*
X67908833Y-64006339D01*
X67970502Y-63914046D01*
X68012979Y-63811495D01*
X68015564Y-63798500D01*
X71355426Y-63798500D01*
X71372038Y-63800136D01*
X71388650Y-63798500D01*
X71388658Y-63798500D01*
X71438395Y-63793601D01*
X71502203Y-63774246D01*
X71561008Y-63742814D01*
X71612551Y-63700513D01*
X71623151Y-63687597D01*
X72258793Y-63051956D01*
X72268107Y-63074443D01*
X72329776Y-63166736D01*
X72408264Y-63245224D01*
X72428976Y-63259063D01*
X72428975Y-66045585D01*
X72254284Y-66226159D01*
X72242068Y-66164745D01*
X72199591Y-66062194D01*
X72137922Y-65969901D01*
X72059434Y-65891413D01*
X71967141Y-65829744D01*
X71864590Y-65787267D01*
X71755723Y-65765612D01*
X71644723Y-65765612D01*
X71535856Y-65787267D01*
X71433305Y-65829744D01*
X71341012Y-65891413D01*
X71295239Y-65937186D01*
X71243812Y-65902823D01*
X71141261Y-65860346D01*
X71032394Y-65838691D01*
X70921394Y-65838691D01*
X70812527Y-65860346D01*
X70709976Y-65902823D01*
X70617683Y-65964492D01*
X70539195Y-66042980D01*
X70477526Y-66135273D01*
X70435049Y-66237824D01*
X70413394Y-66346691D01*
X70413394Y-66457691D01*
X70418517Y-66483446D01*
X70394082Y-66513220D01*
X70362649Y-66572026D01*
X70343294Y-66635833D01*
X70340540Y-66663801D01*
X70338395Y-66685570D01*
X70338395Y-66685578D01*
X70336759Y-66702190D01*
X70338395Y-66718802D01*
X70338395Y-66999392D01*
X68326288Y-69011500D01*
X68102847Y-69011500D01*
X68161572Y-68972261D01*
X68240060Y-68893773D01*
X68301729Y-68801480D01*
X68344206Y-68698929D01*
X68365861Y-68590062D01*
X68365861Y-68479062D01*
X68344206Y-68370195D01*
X68301729Y-68267644D01*
X68240060Y-68175351D01*
X68161572Y-68096863D01*
X68069279Y-68035194D01*
X67966728Y-67992717D01*
X67913500Y-67982129D01*
X67913500Y-66707800D01*
X67941845Y-66639367D01*
X67963500Y-66530500D01*
X67963500Y-66419500D01*
X67941845Y-66310633D01*
X67899368Y-66208082D01*
X67837699Y-66115789D01*
X67759211Y-66037301D01*
X67666918Y-65975632D01*
X67564367Y-65933155D01*
X67455500Y-65911500D01*
X67344500Y-65911500D01*
X67235633Y-65933155D01*
X67133082Y-65975632D01*
X67040789Y-66037301D01*
X66962301Y-66115789D01*
X66900632Y-66208082D01*
X66858155Y-66310633D01*
X66836500Y-66419500D01*
X66836500Y-66530500D01*
X66858155Y-66639367D01*
X66900632Y-66741918D01*
X66962301Y-66834211D01*
X67040789Y-66912699D01*
X67133082Y-66974368D01*
X67235633Y-67016845D01*
X67236500Y-67017018D01*
X67236501Y-68290579D01*
X67234864Y-68307201D01*
X67241399Y-68373558D01*
X67252541Y-68410289D01*
X67238861Y-68479062D01*
X67238861Y-68590062D01*
X67260516Y-68698929D01*
X67302993Y-68801480D01*
X67364662Y-68893773D01*
X67443150Y-68972261D01*
X67501875Y-69011500D01*
X63441612Y-69011500D01*
X63425000Y-69009864D01*
X63408388Y-69011500D01*
X63408380Y-69011500D01*
X63364391Y-69015833D01*
X63358642Y-69016399D01*
X63300848Y-69033930D01*
X63294835Y-69035754D01*
X63236030Y-69067186D01*
X63184487Y-69109487D01*
X63173892Y-69122397D01*
X61059078Y-71237212D01*
X61055500Y-71236500D01*
X60944500Y-71236500D01*
X60835633Y-71258155D01*
X60733082Y-71300632D01*
X60640789Y-71362301D01*
X60562301Y-71440789D01*
X60500632Y-71533082D01*
X60458155Y-71635633D01*
X60436500Y-71744500D01*
X60436500Y-71855500D01*
X60458155Y-71964367D01*
X60500632Y-72066918D01*
X60562301Y-72159211D01*
X60640789Y-72237699D01*
X60657479Y-72248851D01*
X60657478Y-77696722D01*
X60564367Y-77658155D01*
X60455500Y-77636500D01*
X60344500Y-77636500D01*
X60235633Y-77658155D01*
X60133082Y-77700632D01*
X60040789Y-77762301D01*
X59962301Y-77840789D01*
X59900632Y-77933082D01*
X59858155Y-78035633D01*
X59836500Y-78144500D01*
X59836500Y-78255500D01*
X59858155Y-78364367D01*
X59900632Y-78466918D01*
X59962301Y-78559211D01*
X60040789Y-78637699D01*
X60061501Y-78651538D01*
X60061500Y-79408643D01*
X60059864Y-79425256D01*
X60061500Y-79441868D01*
X60061500Y-79441875D01*
X60065779Y-79485319D01*
X60066399Y-79491613D01*
X60068736Y-79499318D01*
X60085754Y-79555420D01*
X60117186Y-79614225D01*
X60159487Y-79665768D01*
X60172399Y-79676365D01*
X61799562Y-81303528D01*
X61762301Y-81340789D01*
X61700632Y-81433082D01*
X61658155Y-81535633D01*
X61636500Y-81644500D01*
X61636500Y-81755500D01*
X61658155Y-81864367D01*
X61700632Y-81966918D01*
X61762301Y-82059211D01*
X61840789Y-82137699D01*
X61933082Y-82199368D01*
X62035633Y-82241845D01*
X62144500Y-82263500D01*
X62255500Y-82263500D01*
X62364367Y-82241845D01*
X62466918Y-82199368D01*
X62559211Y-82137699D01*
X62637699Y-82059211D01*
X62699368Y-81966918D01*
X62741845Y-81864367D01*
X62743555Y-81855770D01*
X63515387Y-82627602D01*
X63525983Y-82640513D01*
X63577526Y-82682814D01*
X63636331Y-82714246D01*
X63669816Y-82724403D01*
X63700138Y-82733601D01*
X63706432Y-82734221D01*
X63749876Y-82738500D01*
X63749883Y-82738500D01*
X63766495Y-82740136D01*
X63783107Y-82738500D01*
X64476742Y-82738500D01*
X64482941Y-82769664D01*
X64525418Y-82872215D01*
X64587087Y-82964508D01*
X64665575Y-83042996D01*
X64757868Y-83104665D01*
X64860419Y-83147142D01*
X64969286Y-83168797D01*
X65080286Y-83168797D01*
X65189153Y-83147142D01*
X65291704Y-83104665D01*
X65383997Y-83042996D01*
X65462485Y-82964508D01*
X65485654Y-82929833D01*
X65485755Y-82930166D01*
X65517187Y-82988971D01*
X65541623Y-83018745D01*
X65536500Y-83044500D01*
X65536500Y-83155500D01*
X65558155Y-83264367D01*
X65600632Y-83366918D01*
X65662301Y-83459211D01*
X65740789Y-83537699D01*
X65833082Y-83599368D01*
X65935633Y-83641845D01*
X66044500Y-83663500D01*
X66124765Y-83663500D01*
X66124765Y-83696679D01*
X66146420Y-83805546D01*
X66188897Y-83908097D01*
X66250566Y-84000390D01*
X66329054Y-84078878D01*
X66421347Y-84140547D01*
X66523898Y-84183024D01*
X66632765Y-84204679D01*
X66743765Y-84204679D01*
X66852632Y-84183024D01*
X66955183Y-84140547D01*
X67047476Y-84078878D01*
X67125964Y-84000390D01*
X67187633Y-83908097D01*
X67230110Y-83805546D01*
X67251765Y-83696679D01*
X67251765Y-83585679D01*
X67246906Y-83561249D01*
X67444655Y-83363500D01*
X67555500Y-83363500D01*
X67664367Y-83341845D01*
X67766918Y-83299368D01*
X67859211Y-83237699D01*
X67937699Y-83159211D01*
X67999368Y-83066918D01*
X68041845Y-82964367D01*
X68063500Y-82855500D01*
X68063500Y-82744500D01*
X68041845Y-82635633D01*
X67999368Y-82533082D01*
X67937699Y-82440789D01*
X67859211Y-82362301D01*
X67766918Y-82300632D01*
X67732695Y-82286457D01*
X67741845Y-82264367D01*
X67763500Y-82155500D01*
X67763500Y-82044500D01*
X67741845Y-81935633D01*
X67699368Y-81833082D01*
X67637699Y-81740789D01*
X67559211Y-81662301D01*
X67466918Y-81600632D01*
X67364367Y-81558155D01*
X67255500Y-81536500D01*
X67144500Y-81536500D01*
X67035633Y-81558155D01*
X66933082Y-81600632D01*
X66840789Y-81662301D01*
X66762301Y-81740789D01*
X66748462Y-81761500D01*
X65890211Y-81761500D01*
X65674104Y-81545393D01*
X65663504Y-81532477D01*
X65611961Y-81490176D01*
X65553156Y-81458744D01*
X65504199Y-81443894D01*
X65489349Y-81439389D01*
X65483600Y-81438823D01*
X65439611Y-81434490D01*
X65439603Y-81434490D01*
X65422991Y-81432854D01*
X65406379Y-81434490D01*
X64063202Y-81434490D01*
X61888500Y-79259790D01*
X61888500Y-78541158D01*
X80043303Y-78541158D01*
X80260253Y-78764627D01*
X80623532Y-78923811D01*
X81010886Y-79009063D01*
X81407430Y-79017108D01*
X81797923Y-78947637D01*
X82167359Y-78803319D01*
X82239747Y-78764627D01*
X82456697Y-78541158D01*
X95543303Y-78541158D01*
X95760253Y-78764627D01*
X96123532Y-78923811D01*
X96510886Y-79009063D01*
X96907430Y-79017108D01*
X97297923Y-78947637D01*
X97667359Y-78803319D01*
X97739747Y-78764627D01*
X97956697Y-78541158D01*
X96750000Y-77334462D01*
X95543303Y-78541158D01*
X82456697Y-78541158D01*
X81250000Y-77334462D01*
X80043303Y-78541158D01*
X61888500Y-78541158D01*
X61888500Y-77157430D01*
X79232892Y-77157430D01*
X79302363Y-77547923D01*
X79446681Y-77917359D01*
X79485373Y-77989747D01*
X79708842Y-78206697D01*
X80915538Y-77000000D01*
X81584462Y-77000000D01*
X82791158Y-78206697D01*
X83014627Y-77989747D01*
X83173811Y-77626468D01*
X83259063Y-77239114D01*
X83260720Y-77157430D01*
X94732892Y-77157430D01*
X94802363Y-77547923D01*
X94946681Y-77917359D01*
X94985373Y-77989747D01*
X95208842Y-78206697D01*
X96415538Y-77000000D01*
X97084462Y-77000000D01*
X98291158Y-78206697D01*
X98514627Y-77989747D01*
X98673811Y-77626468D01*
X98759063Y-77239114D01*
X98767108Y-76842570D01*
X98697637Y-76452077D01*
X98553319Y-76082641D01*
X98514627Y-76010253D01*
X98291158Y-75793303D01*
X97084462Y-77000000D01*
X96415538Y-77000000D01*
X95208842Y-75793303D01*
X94985373Y-76010253D01*
X94826189Y-76373532D01*
X94740937Y-76760886D01*
X94732892Y-77157430D01*
X83260720Y-77157430D01*
X83267108Y-76842570D01*
X83197637Y-76452077D01*
X83053319Y-76082641D01*
X83014627Y-76010253D01*
X82791158Y-75793303D01*
X81584462Y-77000000D01*
X80915538Y-77000000D01*
X79708842Y-75793303D01*
X79485373Y-76010253D01*
X79326189Y-76373532D01*
X79240937Y-76760886D01*
X79232892Y-77157430D01*
X61888500Y-77157430D01*
X61888500Y-75458842D01*
X80043303Y-75458842D01*
X81250000Y-76665538D01*
X82456697Y-75458842D01*
X95543303Y-75458842D01*
X96750000Y-76665538D01*
X97956697Y-75458842D01*
X97739747Y-75235373D01*
X97376468Y-75076189D01*
X96989114Y-74990937D01*
X96592570Y-74982892D01*
X96202077Y-75052363D01*
X95832641Y-75196681D01*
X95760253Y-75235373D01*
X95543303Y-75458842D01*
X82456697Y-75458842D01*
X82239747Y-75235373D01*
X81876468Y-75076189D01*
X81489114Y-74990937D01*
X81092570Y-74982892D01*
X80702077Y-75052363D01*
X80332641Y-75196681D01*
X80260253Y-75235373D01*
X80043303Y-75458842D01*
X61888500Y-75458842D01*
X61888500Y-73040210D01*
X62577607Y-72351104D01*
X62590512Y-72340513D01*
X62601594Y-72327011D01*
X62610460Y-72316207D01*
X62632814Y-72288970D01*
X62664246Y-72230165D01*
X62674271Y-72197117D01*
X62683601Y-72166358D01*
X62684433Y-72157907D01*
X62688500Y-72116620D01*
X62688500Y-72116612D01*
X62690136Y-72100000D01*
X62688500Y-72083388D01*
X62688500Y-71365210D01*
X63790212Y-70263500D01*
X68658388Y-70263500D01*
X68675000Y-70265136D01*
X68691612Y-70263500D01*
X68691620Y-70263500D01*
X68741357Y-70258601D01*
X68805165Y-70239246D01*
X68863970Y-70207814D01*
X68915513Y-70165513D01*
X68926113Y-70152597D01*
X71790211Y-67288500D01*
X72011192Y-67288500D01*
X72030630Y-67290090D01*
X72060960Y-67286595D01*
X72091357Y-67283601D01*
X72094061Y-67282781D01*
X72096871Y-67282457D01*
X72125944Y-67273110D01*
X72155165Y-67264246D01*
X72157659Y-67262913D01*
X72160349Y-67262048D01*
X72186979Y-67247241D01*
X72213970Y-67232814D01*
X72216164Y-67231013D01*
X72218625Y-67229645D01*
X72241857Y-67209928D01*
X72265513Y-67190513D01*
X72277892Y-67175430D01*
X72997256Y-66431845D01*
X73007987Y-66423038D01*
X73020356Y-66407967D01*
X73022316Y-66405941D01*
X73030926Y-66395087D01*
X73050289Y-66371495D01*
X73051624Y-66368998D01*
X73053377Y-66366788D01*
X73067307Y-66339657D01*
X73081721Y-66312690D01*
X73082542Y-66309984D01*
X73083832Y-66307471D01*
X73092214Y-66278097D01*
X73101076Y-66248882D01*
X73101353Y-66246072D01*
X73102129Y-66243352D01*
X73104616Y-66212943D01*
X73105975Y-66199145D01*
X73105975Y-66196325D01*
X73107564Y-66176895D01*
X73105975Y-66163103D01*
X73105975Y-63259063D01*
X73126686Y-63245224D01*
X73205174Y-63166736D01*
X73266843Y-63074443D01*
X73309320Y-62971892D01*
X73330975Y-62863025D01*
X73330975Y-62752025D01*
X73320462Y-62699172D01*
X76785902Y-66164613D01*
X76796498Y-66177524D01*
X76848041Y-66219825D01*
X76906846Y-66251257D01*
X76955803Y-66266107D01*
X76970653Y-66270612D01*
X76976947Y-66271232D01*
X77020391Y-66275511D01*
X77020398Y-66275511D01*
X77037010Y-66277147D01*
X77053622Y-66275511D01*
X77157200Y-66275511D01*
X77128155Y-66345633D01*
X77106500Y-66454500D01*
X77106500Y-66565500D01*
X77128155Y-66674367D01*
X77170632Y-66776918D01*
X77232301Y-66869211D01*
X77310789Y-66947699D01*
X77403082Y-67009368D01*
X77505633Y-67051845D01*
X77614500Y-67073500D01*
X77725500Y-67073500D01*
X77749930Y-67068641D01*
X77858891Y-67177602D01*
X77869487Y-67190513D01*
X77921030Y-67232814D01*
X77936500Y-67241083D01*
X77936500Y-74500000D01*
X77937720Y-74512388D01*
X77941334Y-74524300D01*
X77947202Y-74535279D01*
X77955099Y-74544901D01*
X77964721Y-74552798D01*
X77975700Y-74558666D01*
X77987612Y-74562280D01*
X78000000Y-74563500D01*
X99211501Y-74563500D01*
X99211501Y-82985882D01*
X99187071Y-83235044D01*
X99118807Y-83461142D01*
X99007932Y-83669667D01*
X98858664Y-83852689D01*
X98676686Y-84003233D01*
X98468941Y-84115561D01*
X98243329Y-84185400D01*
X97994997Y-84211500D01*
X52014108Y-84211500D01*
X51764956Y-84187071D01*
X51538858Y-84118807D01*
X51330333Y-84007932D01*
X51147311Y-83858664D01*
X50996767Y-83676686D01*
X50884439Y-83468941D01*
X50814600Y-83243329D01*
X50788500Y-82994997D01*
X50788500Y-82525664D01*
X51739965Y-82525664D01*
X51809827Y-82656395D01*
X51923803Y-82800820D01*
X52063765Y-82920234D01*
X52224334Y-83010048D01*
X52363500Y-82992352D01*
X52363500Y-82386500D01*
X52836500Y-82386500D01*
X52836500Y-82992352D01*
X52975666Y-83010048D01*
X53136235Y-82920234D01*
X53276197Y-82800820D01*
X53390173Y-82656395D01*
X53460035Y-82525664D01*
X53439966Y-82386500D01*
X52836500Y-82386500D01*
X52363500Y-82386500D01*
X51760034Y-82386500D01*
X51739965Y-82525664D01*
X50788500Y-82525664D01*
X50788500Y-81774336D01*
X51739965Y-81774336D01*
X51760034Y-81913500D01*
X52363500Y-81913500D01*
X52363500Y-81307648D01*
X52836500Y-81307648D01*
X52836500Y-81913500D01*
X53439966Y-81913500D01*
X53460035Y-81774336D01*
X53390173Y-81643605D01*
X53276197Y-81499180D01*
X53136235Y-81379766D01*
X52975666Y-81289952D01*
X52836500Y-81307648D01*
X52363500Y-81307648D01*
X52224334Y-81289952D01*
X52063765Y-81379766D01*
X51923803Y-81499180D01*
X51809827Y-81643605D01*
X51739965Y-81774336D01*
X50788500Y-81774336D01*
X50788500Y-80525664D01*
X51739965Y-80525664D01*
X51809827Y-80656395D01*
X51923803Y-80800820D01*
X52063765Y-80920234D01*
X52224334Y-81010048D01*
X52363500Y-80992352D01*
X52363500Y-80386500D01*
X52836500Y-80386500D01*
X52836500Y-80992352D01*
X52975666Y-81010048D01*
X53136235Y-80920234D01*
X53276197Y-80800820D01*
X53390173Y-80656395D01*
X53460035Y-80525664D01*
X53439966Y-80386500D01*
X52836500Y-80386500D01*
X52363500Y-80386500D01*
X51760034Y-80386500D01*
X51739965Y-80525664D01*
X50788500Y-80525664D01*
X50788500Y-79774336D01*
X51739965Y-79774336D01*
X51760034Y-79913500D01*
X52363500Y-79913500D01*
X52363500Y-79307648D01*
X52836500Y-79307648D01*
X52836500Y-79913500D01*
X53439966Y-79913500D01*
X53460035Y-79774336D01*
X53390173Y-79643605D01*
X53276197Y-79499180D01*
X53136235Y-79379766D01*
X52975666Y-79289952D01*
X52836500Y-79307648D01*
X52363500Y-79307648D01*
X52224334Y-79289952D01*
X52063765Y-79379766D01*
X51923803Y-79499180D01*
X51809827Y-79643605D01*
X51739965Y-79774336D01*
X50788500Y-79774336D01*
X50788500Y-78057566D01*
X51661500Y-78057566D01*
X51661500Y-78242434D01*
X51697566Y-78423750D01*
X51768312Y-78594546D01*
X51871019Y-78748259D01*
X52001741Y-78878981D01*
X52155454Y-78981688D01*
X52326250Y-79052434D01*
X52507566Y-79088500D01*
X52692434Y-79088500D01*
X52873750Y-79052434D01*
X53044546Y-78981688D01*
X53198259Y-78878981D01*
X53328981Y-78748259D01*
X53431688Y-78594546D01*
X53502434Y-78423750D01*
X53538500Y-78242434D01*
X53538500Y-78057566D01*
X53502434Y-77876250D01*
X53431688Y-77705454D01*
X53328981Y-77551741D01*
X53198259Y-77421019D01*
X53044546Y-77318312D01*
X52873750Y-77247566D01*
X52692434Y-77211500D01*
X52507566Y-77211500D01*
X52326250Y-77247566D01*
X52155454Y-77318312D01*
X52001741Y-77421019D01*
X51871019Y-77551741D01*
X51768312Y-77705454D01*
X51697566Y-77876250D01*
X51661500Y-78057566D01*
X50788500Y-78057566D01*
X50788500Y-75475000D01*
X51660226Y-75475000D01*
X51660226Y-76825000D01*
X51665314Y-76876655D01*
X51680381Y-76926325D01*
X51704848Y-76972101D01*
X51737777Y-77012223D01*
X51777899Y-77045152D01*
X51823675Y-77069619D01*
X51873345Y-77084686D01*
X51925000Y-77089774D01*
X53275000Y-77089774D01*
X53326655Y-77084686D01*
X53376325Y-77069619D01*
X53422101Y-77045152D01*
X53462223Y-77012223D01*
X53495152Y-76972101D01*
X53519619Y-76926325D01*
X53534686Y-76876655D01*
X53539774Y-76825000D01*
X53539774Y-75475000D01*
X53534686Y-75423345D01*
X53519619Y-75373675D01*
X53495152Y-75327899D01*
X53462223Y-75287777D01*
X53422101Y-75254848D01*
X53376325Y-75230381D01*
X53326655Y-75215314D01*
X53275000Y-75210226D01*
X51925000Y-75210226D01*
X51873345Y-75215314D01*
X51823675Y-75230381D01*
X51777899Y-75254848D01*
X51737777Y-75287777D01*
X51704848Y-75327899D01*
X51680381Y-75373675D01*
X51665314Y-75423345D01*
X51660226Y-75475000D01*
X50788500Y-75475000D01*
X50788500Y-73517152D01*
X50924986Y-73517152D01*
X50929348Y-73551402D01*
X51016738Y-73675887D01*
X51126735Y-73780931D01*
X51255111Y-73862497D01*
X51396934Y-73917451D01*
X51546752Y-73943681D01*
X51668500Y-73877393D01*
X51668500Y-73406500D01*
X52141500Y-73406500D01*
X52141500Y-73877393D01*
X52263248Y-73943681D01*
X52413066Y-73917451D01*
X52554889Y-73862497D01*
X52683265Y-73780931D01*
X52793262Y-73675887D01*
X52880652Y-73551402D01*
X52885014Y-73517152D01*
X54854986Y-73517152D01*
X54914180Y-73673435D01*
X55024324Y-73784878D01*
X55154093Y-73872691D01*
X55298500Y-73933500D01*
X55848500Y-73933500D01*
X55848500Y-73406500D01*
X56321500Y-73406500D01*
X56321500Y-73933500D01*
X56871500Y-73933500D01*
X57015907Y-73872691D01*
X57145676Y-73784878D01*
X57255820Y-73673435D01*
X57315014Y-73517152D01*
X57291314Y-73406500D01*
X56321500Y-73406500D01*
X55848500Y-73406500D01*
X54878686Y-73406500D01*
X54854986Y-73517152D01*
X52885014Y-73517152D01*
X52861314Y-73406500D01*
X52141500Y-73406500D01*
X51668500Y-73406500D01*
X50948686Y-73406500D01*
X50924986Y-73517152D01*
X50788500Y-73517152D01*
X50788500Y-72822848D01*
X50924986Y-72822848D01*
X50948686Y-72933500D01*
X51668500Y-72933500D01*
X51668500Y-72462607D01*
X52141500Y-72462607D01*
X52141500Y-72933500D01*
X52861314Y-72933500D01*
X52885014Y-72822848D01*
X54854986Y-72822848D01*
X54878686Y-72933500D01*
X55848500Y-72933500D01*
X55848500Y-72406500D01*
X56321500Y-72406500D01*
X56321500Y-72933500D01*
X57291314Y-72933500D01*
X57315014Y-72822848D01*
X57255820Y-72666565D01*
X57145676Y-72555122D01*
X57015907Y-72467309D01*
X56871500Y-72406500D01*
X56321500Y-72406500D01*
X55848500Y-72406500D01*
X55298500Y-72406500D01*
X55154093Y-72467309D01*
X55024324Y-72555122D01*
X54914180Y-72666565D01*
X54854986Y-72822848D01*
X52885014Y-72822848D01*
X52880652Y-72788598D01*
X52793262Y-72664113D01*
X52683265Y-72559069D01*
X52554889Y-72477503D01*
X52413066Y-72422549D01*
X52263248Y-72396319D01*
X52141500Y-72462607D01*
X51668500Y-72462607D01*
X51546752Y-72396319D01*
X51396934Y-72422549D01*
X51255111Y-72477503D01*
X51126735Y-72559069D01*
X51016738Y-72664113D01*
X50929348Y-72788598D01*
X50924986Y-72822848D01*
X50788500Y-72822848D01*
X50788500Y-71682038D01*
X54966500Y-71682038D01*
X54966500Y-71797962D01*
X54989116Y-71911659D01*
X55033479Y-72018759D01*
X55097883Y-72115147D01*
X55179853Y-72197117D01*
X55276241Y-72261521D01*
X55383341Y-72305884D01*
X55497038Y-72328500D01*
X55612962Y-72328500D01*
X55726659Y-72305884D01*
X55833759Y-72261521D01*
X55930147Y-72197117D01*
X56012117Y-72115147D01*
X56076521Y-72018759D01*
X56120884Y-71911659D01*
X56143500Y-71797962D01*
X56143500Y-71682038D01*
X56120884Y-71568341D01*
X56076521Y-71461241D01*
X56012117Y-71364853D01*
X55930147Y-71282883D01*
X55833759Y-71218479D01*
X55726659Y-71174116D01*
X55612962Y-71151500D01*
X55497038Y-71151500D01*
X55383341Y-71174116D01*
X55276241Y-71218479D01*
X55179853Y-71282883D01*
X55097883Y-71364853D01*
X55033479Y-71461241D01*
X54989116Y-71568341D01*
X54966500Y-71682038D01*
X50788500Y-71682038D01*
X50788500Y-64877152D01*
X50924986Y-64877152D01*
X50929348Y-64911402D01*
X51016738Y-65035887D01*
X51126735Y-65140931D01*
X51255111Y-65222497D01*
X51396934Y-65277451D01*
X51546752Y-65303681D01*
X51668500Y-65237393D01*
X51668500Y-64766500D01*
X52141500Y-64766500D01*
X52141500Y-65237393D01*
X52263248Y-65303681D01*
X52413066Y-65277451D01*
X52554889Y-65222497D01*
X52683265Y-65140931D01*
X52793262Y-65035887D01*
X52880652Y-64911402D01*
X52885014Y-64877152D01*
X52861314Y-64766500D01*
X52141500Y-64766500D01*
X51668500Y-64766500D01*
X50948686Y-64766500D01*
X50924986Y-64877152D01*
X50788500Y-64877152D01*
X50788500Y-64182848D01*
X50924986Y-64182848D01*
X50948686Y-64293500D01*
X51668500Y-64293500D01*
X51668500Y-63822607D01*
X52141500Y-63822607D01*
X52141500Y-64293500D01*
X52861314Y-64293500D01*
X52885014Y-64182848D01*
X52880652Y-64148598D01*
X52793262Y-64024113D01*
X52683265Y-63919069D01*
X52554889Y-63837503D01*
X52413066Y-63782549D01*
X52263248Y-63756319D01*
X52141500Y-63822607D01*
X51668500Y-63822607D01*
X51546752Y-63756319D01*
X51396934Y-63782549D01*
X51255111Y-63837503D01*
X51126735Y-63919069D01*
X51016738Y-64024113D01*
X50929348Y-64148598D01*
X50924986Y-64182848D01*
X50788500Y-64182848D01*
X50788500Y-60667152D01*
X50924986Y-60667152D01*
X50929348Y-60701402D01*
X51016738Y-60825887D01*
X51126735Y-60930931D01*
X51255111Y-61012497D01*
X51396934Y-61067451D01*
X51546752Y-61093681D01*
X51668500Y-61027393D01*
X51668500Y-60556500D01*
X52141500Y-60556500D01*
X52141500Y-61027393D01*
X52263248Y-61093681D01*
X52413066Y-61067451D01*
X52554889Y-61012497D01*
X52683265Y-60930931D01*
X52793262Y-60825887D01*
X52880652Y-60701402D01*
X52885014Y-60667152D01*
X52861314Y-60556500D01*
X52141500Y-60556500D01*
X51668500Y-60556500D01*
X50948686Y-60556500D01*
X50924986Y-60667152D01*
X50788500Y-60667152D01*
X50788500Y-59972848D01*
X50924986Y-59972848D01*
X50948686Y-60083500D01*
X51668500Y-60083500D01*
X51668500Y-59612607D01*
X52141500Y-59612607D01*
X52141500Y-60083500D01*
X52861314Y-60083500D01*
X52885014Y-59972848D01*
X52880652Y-59938598D01*
X52793262Y-59814113D01*
X52683265Y-59709069D01*
X52554889Y-59627503D01*
X52413066Y-59572549D01*
X52263248Y-59546319D01*
X52141500Y-59612607D01*
X51668500Y-59612607D01*
X51546752Y-59546319D01*
X51396934Y-59572549D01*
X51255111Y-59627503D01*
X51126735Y-59709069D01*
X51016738Y-59814113D01*
X50929348Y-59938598D01*
X50924986Y-59972848D01*
X50788500Y-59972848D01*
X50788500Y-57650000D01*
X53209743Y-57650000D01*
X53211500Y-57667840D01*
X53211501Y-68175350D01*
X53209743Y-68193200D01*
X53216761Y-68264458D01*
X53237547Y-68332978D01*
X53271300Y-68396126D01*
X53305345Y-68437611D01*
X53305352Y-68437618D01*
X53316725Y-68451476D01*
X53330583Y-68462849D01*
X54087150Y-69219417D01*
X54098524Y-69233276D01*
X54112382Y-69244649D01*
X54112388Y-69244655D01*
X54153872Y-69278700D01*
X54153874Y-69278701D01*
X54217022Y-69312454D01*
X54285542Y-69333240D01*
X54338950Y-69338500D01*
X54338959Y-69338500D01*
X54356799Y-69340257D01*
X54374639Y-69338500D01*
X54657983Y-69338500D01*
X54658155Y-69339367D01*
X54700632Y-69441918D01*
X54762301Y-69534211D01*
X54840789Y-69612699D01*
X54933082Y-69674368D01*
X55035633Y-69716845D01*
X55144500Y-69738500D01*
X55187693Y-69738500D01*
X55186500Y-69744500D01*
X55186500Y-69855500D01*
X55208155Y-69964367D01*
X55250632Y-70066918D01*
X55312301Y-70159211D01*
X55390789Y-70237699D01*
X55483082Y-70299368D01*
X55585633Y-70341845D01*
X55694500Y-70363500D01*
X55805500Y-70363500D01*
X55914367Y-70341845D01*
X56016918Y-70299368D01*
X56109211Y-70237699D01*
X56187699Y-70159211D01*
X56249368Y-70066918D01*
X56291845Y-69964367D01*
X56313500Y-69855500D01*
X56313500Y-69744500D01*
X56291845Y-69635633D01*
X56249368Y-69533082D01*
X56187699Y-69440789D01*
X56163500Y-69416590D01*
X56163500Y-68717839D01*
X56165257Y-68699999D01*
X56163500Y-68682159D01*
X56163500Y-68682150D01*
X56158240Y-68628742D01*
X56137454Y-68560222D01*
X56103701Y-68497074D01*
X56080008Y-68468204D01*
X56069655Y-68455588D01*
X56069649Y-68455582D01*
X56058276Y-68441724D01*
X56044417Y-68430350D01*
X55718615Y-68104548D01*
X55699368Y-68058082D01*
X55637699Y-67965789D01*
X55559211Y-67887301D01*
X55466918Y-67825632D01*
X55364367Y-67783155D01*
X55255500Y-67761500D01*
X55144500Y-67761500D01*
X55035633Y-67783155D01*
X54933082Y-67825632D01*
X54840789Y-67887301D01*
X54762301Y-67965789D01*
X54700632Y-68058082D01*
X54668331Y-68136065D01*
X54388500Y-67856234D01*
X54388500Y-65902038D01*
X54966500Y-65902038D01*
X54966500Y-66017962D01*
X54989116Y-66131659D01*
X55033479Y-66238759D01*
X55097883Y-66335147D01*
X55179853Y-66417117D01*
X55276241Y-66481521D01*
X55383341Y-66525884D01*
X55497038Y-66548500D01*
X55612962Y-66548500D01*
X55726659Y-66525884D01*
X55833759Y-66481521D01*
X55930147Y-66417117D01*
X56012117Y-66335147D01*
X56076521Y-66238759D01*
X56120884Y-66131659D01*
X56143500Y-66017962D01*
X56143500Y-65902038D01*
X56120884Y-65788341D01*
X56076521Y-65681241D01*
X56012117Y-65584853D01*
X55930147Y-65502883D01*
X55833759Y-65438479D01*
X55744491Y-65401502D01*
X61336500Y-65401502D01*
X61336500Y-65512502D01*
X61358155Y-65621369D01*
X61400632Y-65723920D01*
X61462301Y-65816213D01*
X61540789Y-65894701D01*
X61633082Y-65956370D01*
X61735633Y-65998847D01*
X61844500Y-66020502D01*
X61955500Y-66020502D01*
X62064367Y-65998847D01*
X62166918Y-65956370D01*
X62259211Y-65894701D01*
X62337699Y-65816213D01*
X62399368Y-65723920D01*
X62441845Y-65621369D01*
X62463500Y-65512502D01*
X62463500Y-65401502D01*
X62458641Y-65377072D01*
X63195395Y-64640317D01*
X63237516Y-64657764D01*
X63346383Y-64679419D01*
X63457383Y-64679419D01*
X63566250Y-64657764D01*
X63668801Y-64615287D01*
X63761094Y-64553618D01*
X63839582Y-64475130D01*
X63901251Y-64382837D01*
X63943728Y-64280286D01*
X63965383Y-64171419D01*
X63965383Y-64060419D01*
X63943728Y-63951552D01*
X63901251Y-63849001D01*
X63839582Y-63756708D01*
X63761094Y-63678220D01*
X63668801Y-63616551D01*
X63566250Y-63574074D01*
X63457383Y-63552419D01*
X63346383Y-63552419D01*
X63237516Y-63574074D01*
X63134965Y-63616551D01*
X63042672Y-63678220D01*
X62964184Y-63756708D01*
X62902515Y-63849001D01*
X62860038Y-63951552D01*
X62843476Y-64034815D01*
X61979930Y-64898361D01*
X61955500Y-64893502D01*
X61844500Y-64893502D01*
X61735633Y-64915157D01*
X61633082Y-64957634D01*
X61540789Y-65019303D01*
X61462301Y-65097791D01*
X61400632Y-65190084D01*
X61358155Y-65292635D01*
X61336500Y-65401502D01*
X55744491Y-65401502D01*
X55726659Y-65394116D01*
X55612962Y-65371500D01*
X55497038Y-65371500D01*
X55383341Y-65394116D01*
X55276241Y-65438479D01*
X55179853Y-65502883D01*
X55097883Y-65584853D01*
X55033479Y-65681241D01*
X54989116Y-65788341D01*
X54966500Y-65902038D01*
X54388500Y-65902038D01*
X54388500Y-64877152D01*
X54854986Y-64877152D01*
X54914180Y-65033435D01*
X55024324Y-65144878D01*
X55154093Y-65232691D01*
X55298500Y-65293500D01*
X55848500Y-65293500D01*
X55848500Y-64766500D01*
X56321500Y-64766500D01*
X56321500Y-65293500D01*
X56871500Y-65293500D01*
X57015907Y-65232691D01*
X57145676Y-65144878D01*
X57255820Y-65033435D01*
X57315014Y-64877152D01*
X57291314Y-64766500D01*
X56321500Y-64766500D01*
X55848500Y-64766500D01*
X54878686Y-64766500D01*
X54854986Y-64877152D01*
X54388500Y-64877152D01*
X54388500Y-64182848D01*
X54854986Y-64182848D01*
X54878686Y-64293500D01*
X55848500Y-64293500D01*
X55848500Y-63766500D01*
X56321500Y-63766500D01*
X56321500Y-64293500D01*
X57291314Y-64293500D01*
X57315014Y-64182848D01*
X57255820Y-64026565D01*
X57145676Y-63915122D01*
X57015907Y-63827309D01*
X56871500Y-63766500D01*
X56321500Y-63766500D01*
X55848500Y-63766500D01*
X55298500Y-63766500D01*
X55154093Y-63827309D01*
X55024324Y-63915122D01*
X54914180Y-64026565D01*
X54854986Y-64182848D01*
X54388500Y-64182848D01*
X54388500Y-60667152D01*
X54854986Y-60667152D01*
X54914180Y-60823435D01*
X55024324Y-60934878D01*
X55154093Y-61022691D01*
X55298500Y-61083500D01*
X55848500Y-61083500D01*
X55848500Y-60556500D01*
X56321500Y-60556500D01*
X56321500Y-61083500D01*
X56871500Y-61083500D01*
X57015907Y-61022691D01*
X57145676Y-60934878D01*
X57255820Y-60823435D01*
X57315014Y-60667152D01*
X57291314Y-60556500D01*
X56321500Y-60556500D01*
X55848500Y-60556500D01*
X54878686Y-60556500D01*
X54854986Y-60667152D01*
X54388500Y-60667152D01*
X54388500Y-59972848D01*
X54854986Y-59972848D01*
X54878686Y-60083500D01*
X55848500Y-60083500D01*
X55848500Y-59556500D01*
X56321500Y-59556500D01*
X56321500Y-60083500D01*
X57291314Y-60083500D01*
X57315014Y-59972848D01*
X57255820Y-59816565D01*
X57145676Y-59705122D01*
X57015907Y-59617309D01*
X56871500Y-59556500D01*
X56321500Y-59556500D01*
X55848500Y-59556500D01*
X55298500Y-59556500D01*
X55154093Y-59617309D01*
X55024324Y-59705122D01*
X54914180Y-59816565D01*
X54854986Y-59972848D01*
X54388500Y-59972848D01*
X54388500Y-58832038D01*
X54966500Y-58832038D01*
X54966500Y-58947962D01*
X54989116Y-59061659D01*
X55033479Y-59168759D01*
X55097883Y-59265147D01*
X55179853Y-59347117D01*
X55276241Y-59411521D01*
X55383341Y-59455884D01*
X55497038Y-59478500D01*
X55612962Y-59478500D01*
X55726659Y-59455884D01*
X55833759Y-59411521D01*
X55930147Y-59347117D01*
X56012117Y-59265147D01*
X56076521Y-59168759D01*
X56120884Y-59061659D01*
X56143500Y-58947962D01*
X56143500Y-58832038D01*
X56120884Y-58718341D01*
X56076521Y-58611241D01*
X56012117Y-58514853D01*
X55930147Y-58432883D01*
X55833759Y-58368479D01*
X55726659Y-58324116D01*
X55612962Y-58301500D01*
X55497038Y-58301500D01*
X55383341Y-58324116D01*
X55276241Y-58368479D01*
X55179853Y-58432883D01*
X55097883Y-58514853D01*
X55033479Y-58611241D01*
X54989116Y-58718341D01*
X54966500Y-58832038D01*
X54388500Y-58832038D01*
X54388500Y-57986963D01*
X54931175Y-57444288D01*
X54985633Y-57466845D01*
X55094500Y-57488500D01*
X55205500Y-57488500D01*
X55314367Y-57466845D01*
X55416918Y-57424368D01*
X55509211Y-57362699D01*
X55587699Y-57284211D01*
X55649368Y-57191918D01*
X55691845Y-57089367D01*
X55713500Y-56980500D01*
X55713500Y-56869500D01*
X55691845Y-56760633D01*
X55649368Y-56658082D01*
X55587699Y-56565789D01*
X55521910Y-56500000D01*
X55587699Y-56434211D01*
X55649368Y-56341918D01*
X55691845Y-56239367D01*
X55713500Y-56130500D01*
X55713500Y-56019500D01*
X55691845Y-55910633D01*
X55649368Y-55808082D01*
X55587699Y-55715789D01*
X55509211Y-55637301D01*
X55416918Y-55575632D01*
X55314367Y-55533155D01*
X55205500Y-55511500D01*
X55094500Y-55511500D01*
X54985633Y-55533155D01*
X54883082Y-55575632D01*
X54790789Y-55637301D01*
X54712301Y-55715789D01*
X54650632Y-55808082D01*
X54608155Y-55910633D01*
X54586500Y-56019500D01*
X54586500Y-56124434D01*
X53330584Y-57380350D01*
X53316724Y-57391725D01*
X53305351Y-57405583D01*
X53305345Y-57405589D01*
X53282357Y-57433601D01*
X53271299Y-57447075D01*
X53237546Y-57510223D01*
X53216760Y-57578743D01*
X53211500Y-57632151D01*
X53211500Y-57632160D01*
X53209743Y-57650000D01*
X50788500Y-57650000D01*
X50788500Y-55407000D01*
X57649000Y-55407000D01*
X57649000Y-55518000D01*
X57670655Y-55626867D01*
X57713132Y-55729418D01*
X57774801Y-55821711D01*
X57853289Y-55900199D01*
X57886501Y-55922391D01*
X57886500Y-56316590D01*
X57812301Y-56390789D01*
X57750632Y-56483082D01*
X57708155Y-56585633D01*
X57686500Y-56694500D01*
X57686500Y-56805500D01*
X57708155Y-56914367D01*
X57750632Y-57016918D01*
X57812301Y-57109211D01*
X57890789Y-57187699D01*
X57983082Y-57249368D01*
X58085633Y-57291845D01*
X58194500Y-57313500D01*
X58305500Y-57313500D01*
X58414367Y-57291845D01*
X58516918Y-57249368D01*
X58609211Y-57187699D01*
X58687699Y-57109211D01*
X58749368Y-57016918D01*
X58791845Y-56914367D01*
X58813500Y-56805500D01*
X58813500Y-56694500D01*
X58791845Y-56585633D01*
X58749368Y-56483082D01*
X58687699Y-56390789D01*
X58613500Y-56316590D01*
X58613500Y-55858410D01*
X58650199Y-55821711D01*
X58711868Y-55729418D01*
X58754345Y-55626867D01*
X58776000Y-55518000D01*
X58776000Y-55407000D01*
X58754345Y-55298133D01*
X58711868Y-55195582D01*
X58650199Y-55103289D01*
X58571711Y-55024801D01*
X58479418Y-54963132D01*
X58376867Y-54920655D01*
X58268000Y-54899000D01*
X58157000Y-54899000D01*
X58048133Y-54920655D01*
X57945582Y-54963132D01*
X57853289Y-55024801D01*
X57774801Y-55103289D01*
X57713132Y-55195582D01*
X57670655Y-55298133D01*
X57649000Y-55407000D01*
X50788500Y-55407000D01*
X50788500Y-53052038D01*
X54966500Y-53052038D01*
X54966500Y-53167962D01*
X54989116Y-53281659D01*
X55033479Y-53388759D01*
X55097883Y-53485147D01*
X55179853Y-53567117D01*
X55276241Y-53631521D01*
X55383341Y-53675884D01*
X55497038Y-53698500D01*
X55612962Y-53698500D01*
X55726659Y-53675884D01*
X55833759Y-53631521D01*
X55930147Y-53567117D01*
X56012117Y-53485147D01*
X56076521Y-53388759D01*
X56120884Y-53281659D01*
X56143500Y-53167962D01*
X56143500Y-53052038D01*
X56120884Y-52938341D01*
X56076521Y-52831241D01*
X56012117Y-52734853D01*
X55930147Y-52652883D01*
X55833759Y-52588479D01*
X55726659Y-52544116D01*
X55612962Y-52521500D01*
X55497038Y-52521500D01*
X55383341Y-52544116D01*
X55276241Y-52588479D01*
X55179853Y-52652883D01*
X55097883Y-52734853D01*
X55033479Y-52831241D01*
X54989116Y-52938341D01*
X54966500Y-53052038D01*
X50788500Y-53052038D01*
X50788500Y-52027152D01*
X50924986Y-52027152D01*
X50929348Y-52061402D01*
X51016738Y-52185887D01*
X51126735Y-52290931D01*
X51255111Y-52372497D01*
X51396934Y-52427451D01*
X51546752Y-52453681D01*
X51668500Y-52387393D01*
X51668500Y-51916500D01*
X52141500Y-51916500D01*
X52141500Y-52387393D01*
X52263248Y-52453681D01*
X52413066Y-52427451D01*
X52554889Y-52372497D01*
X52683265Y-52290931D01*
X52793262Y-52185887D01*
X52880652Y-52061402D01*
X52885014Y-52027152D01*
X54854986Y-52027152D01*
X54914180Y-52183435D01*
X55024324Y-52294878D01*
X55154093Y-52382691D01*
X55298500Y-52443500D01*
X55848500Y-52443500D01*
X55848500Y-51916500D01*
X56321500Y-51916500D01*
X56321500Y-52443500D01*
X56871500Y-52443500D01*
X57015907Y-52382691D01*
X57145676Y-52294878D01*
X57255820Y-52183435D01*
X57315014Y-52027152D01*
X57291314Y-51916500D01*
X56321500Y-51916500D01*
X55848500Y-51916500D01*
X54878686Y-51916500D01*
X54854986Y-52027152D01*
X52885014Y-52027152D01*
X52861314Y-51916500D01*
X52141500Y-51916500D01*
X51668500Y-51916500D01*
X50948686Y-51916500D01*
X50924986Y-52027152D01*
X50788500Y-52027152D01*
X50788500Y-52014108D01*
X50812929Y-51764956D01*
X50881193Y-51538858D01*
X50943865Y-51420989D01*
X50948686Y-51443500D01*
X51668500Y-51443500D01*
X51668500Y-50972607D01*
X52141500Y-50972607D01*
X52141500Y-51443500D01*
X52861314Y-51443500D01*
X52885014Y-51332848D01*
X54854986Y-51332848D01*
X54878686Y-51443500D01*
X55848500Y-51443500D01*
X55848500Y-50916500D01*
X56321500Y-50916500D01*
X56321500Y-51443500D01*
X57291314Y-51443500D01*
X57315014Y-51332848D01*
X57255820Y-51176565D01*
X57145676Y-51065122D01*
X57015907Y-50977309D01*
X56871500Y-50916500D01*
X56321500Y-50916500D01*
X55848500Y-50916500D01*
X55298500Y-50916500D01*
X55154093Y-50977309D01*
X55024324Y-51065122D01*
X54914180Y-51176565D01*
X54854986Y-51332848D01*
X52885014Y-51332848D01*
X52880652Y-51298598D01*
X52793262Y-51174113D01*
X52683265Y-51069069D01*
X52554889Y-50987503D01*
X52413066Y-50932549D01*
X52263248Y-50906319D01*
X52141500Y-50972607D01*
X51668500Y-50972607D01*
X51546752Y-50906319D01*
X51463701Y-50920860D01*
X51531059Y-50884439D01*
X51756671Y-50814600D01*
X52005003Y-50788500D01*
X69642789Y-50788500D01*
X68762399Y-51668891D01*
G37*
X68762399Y-51668891D02*
X68749487Y-51679488D01*
X68707186Y-51731031D01*
X68690148Y-51762908D01*
X68598259Y-51671019D01*
X68444546Y-51568312D01*
X68273750Y-51497566D01*
X68092434Y-51461500D01*
X67907566Y-51461500D01*
X67726250Y-51497566D01*
X67555454Y-51568312D01*
X67401741Y-51671019D01*
X67271019Y-51801741D01*
X67168312Y-51955454D01*
X67097566Y-52126250D01*
X67061500Y-52307566D01*
X67061500Y-52492434D01*
X67097566Y-52673750D01*
X67168312Y-52844546D01*
X67271019Y-52998259D01*
X67401741Y-53128981D01*
X67555454Y-53231688D01*
X67661501Y-53275614D01*
X67661500Y-55699285D01*
X65012724Y-53050510D01*
X65008600Y-53008643D01*
X65008600Y-53008641D01*
X64989245Y-52944834D01*
X64969921Y-52908682D01*
X64957813Y-52886029D01*
X64915512Y-52834486D01*
X64902601Y-52823890D01*
X64858508Y-52779797D01*
X64902434Y-52673750D01*
X64938500Y-52492434D01*
X64938500Y-52307566D01*
X65061500Y-52307566D01*
X65061500Y-52492434D01*
X65097566Y-52673750D01*
X65168312Y-52844546D01*
X65271019Y-52998259D01*
X65401741Y-53128981D01*
X65555454Y-53231688D01*
X65726250Y-53302434D01*
X65907566Y-53338500D01*
X66092434Y-53338500D01*
X66273750Y-53302434D01*
X66444546Y-53231688D01*
X66598259Y-53128981D01*
X66728981Y-52998259D01*
X66831688Y-52844546D01*
X66902434Y-52673750D01*
X66938500Y-52492434D01*
X66938500Y-52307566D01*
X66902434Y-52126250D01*
X66831688Y-51955454D01*
X66728981Y-51801741D01*
X66598259Y-51671019D01*
X66444546Y-51568312D01*
X66273750Y-51497566D01*
X66092434Y-51461500D01*
X65907566Y-51461500D01*
X65726250Y-51497566D01*
X65555454Y-51568312D01*
X65401741Y-51671019D01*
X65271019Y-51801741D01*
X65168312Y-51955454D01*
X65097566Y-52126250D01*
X65061500Y-52307566D01*
X64938500Y-52307566D01*
X64902434Y-52126250D01*
X64831688Y-51955454D01*
X64728981Y-51801741D01*
X64598259Y-51671019D01*
X64444546Y-51568312D01*
X64273750Y-51497566D01*
X64092434Y-51461500D01*
X63907566Y-51461500D01*
X63726250Y-51497566D01*
X63555454Y-51568312D01*
X63401741Y-51671019D01*
X63271019Y-51801741D01*
X63168312Y-51955454D01*
X63097566Y-52126250D01*
X63061500Y-52307566D01*
X63061500Y-52492434D01*
X63097566Y-52673750D01*
X63168312Y-52844546D01*
X63271019Y-52998259D01*
X63401741Y-53128981D01*
X63522231Y-53209489D01*
X63288200Y-53209489D01*
X62926110Y-52847400D01*
X62926106Y-52847395D01*
X62858508Y-52779797D01*
X62902434Y-52673750D01*
X62938500Y-52492434D01*
X62938500Y-52307566D01*
X62902434Y-52126250D01*
X62831688Y-51955454D01*
X62728981Y-51801741D01*
X62598259Y-51671019D01*
X62444546Y-51568312D01*
X62273750Y-51497566D01*
X62092434Y-51461500D01*
X61907566Y-51461500D01*
X61726250Y-51497566D01*
X61555454Y-51568312D01*
X61401741Y-51671019D01*
X61271019Y-51801741D01*
X61168312Y-51955454D01*
X61097566Y-52126250D01*
X61061500Y-52307566D01*
X61061500Y-52492434D01*
X61097566Y-52673750D01*
X61168312Y-52844546D01*
X61271019Y-52998259D01*
X61401741Y-53128981D01*
X61555454Y-53231688D01*
X61726250Y-53302434D01*
X61907566Y-53338500D01*
X62092434Y-53338500D01*
X62273750Y-53302434D01*
X62379797Y-53258508D01*
X62447395Y-53326106D01*
X62447400Y-53326110D01*
X62607790Y-53486500D01*
X61565211Y-53486500D01*
X60939774Y-52861064D01*
X60939774Y-51725000D01*
X60934686Y-51673345D01*
X60919619Y-51623675D01*
X60895152Y-51577899D01*
X60862223Y-51537777D01*
X60822101Y-51504848D01*
X60776325Y-51480381D01*
X60726655Y-51465314D01*
X60675000Y-51460226D01*
X59325000Y-51460226D01*
X59273345Y-51465314D01*
X59223675Y-51480381D01*
X59177899Y-51504848D01*
X59137777Y-51537777D01*
X59104848Y-51577899D01*
X59080381Y-51623675D01*
X59065314Y-51673345D01*
X59060226Y-51725000D01*
X59060226Y-53075000D01*
X59065314Y-53126655D01*
X59080381Y-53176325D01*
X59104848Y-53222101D01*
X59137777Y-53262223D01*
X59177899Y-53295152D01*
X59223675Y-53319619D01*
X59273345Y-53334686D01*
X59325000Y-53339774D01*
X60461064Y-53339774D01*
X61173891Y-54052602D01*
X61184487Y-54065513D01*
X61236030Y-54107814D01*
X61294835Y-54139246D01*
X61330285Y-54149999D01*
X61358642Y-54158601D01*
X61364936Y-54159221D01*
X61408380Y-54163500D01*
X61408387Y-54163500D01*
X61424999Y-54165136D01*
X61441611Y-54163500D01*
X64384790Y-54163500D01*
X67461501Y-57240212D01*
X67461500Y-57748462D01*
X67440789Y-57762301D01*
X67362301Y-57840789D01*
X67300632Y-57933082D01*
X67258155Y-58035633D01*
X67236500Y-58144500D01*
X67236500Y-58172433D01*
X63844654Y-54780588D01*
X63833276Y-54766724D01*
X63777926Y-54721299D01*
X63714778Y-54687546D01*
X63646258Y-54666760D01*
X63592850Y-54661500D01*
X63592840Y-54661500D01*
X63575000Y-54659743D01*
X63557160Y-54661500D01*
X61070568Y-54661500D01*
X60464655Y-54055588D01*
X60453277Y-54041724D01*
X60397927Y-53996299D01*
X60334779Y-53962546D01*
X60266259Y-53941760D01*
X60212851Y-53936500D01*
X60212841Y-53936500D01*
X60195001Y-53934743D01*
X60177161Y-53936500D01*
X59833410Y-53936500D01*
X59759211Y-53862301D01*
X59666918Y-53800632D01*
X59564367Y-53758155D01*
X59455500Y-53736500D01*
X59344500Y-53736500D01*
X59235633Y-53758155D01*
X59133082Y-53800632D01*
X59040789Y-53862301D01*
X58962301Y-53940789D01*
X58900632Y-54033082D01*
X58858155Y-54135633D01*
X58836500Y-54244500D01*
X58836500Y-54355500D01*
X58858155Y-54464367D01*
X58900632Y-54566918D01*
X58962301Y-54659211D01*
X59040789Y-54737699D01*
X59133082Y-54799368D01*
X59235633Y-54841845D01*
X59344500Y-54863500D01*
X59455500Y-54863500D01*
X59564367Y-54841845D01*
X59666918Y-54799368D01*
X59759211Y-54737699D01*
X59833410Y-54663500D01*
X60044435Y-54663500D01*
X60597237Y-55216303D01*
X60596724Y-55216724D01*
X60585350Y-55230583D01*
X59979434Y-55836500D01*
X59833410Y-55836500D01*
X59759211Y-55762301D01*
X59666918Y-55700632D01*
X59564367Y-55658155D01*
X59455500Y-55636500D01*
X59344500Y-55636500D01*
X59235633Y-55658155D01*
X59133082Y-55700632D01*
X59040789Y-55762301D01*
X58962301Y-55840789D01*
X58900632Y-55933082D01*
X58858155Y-56035633D01*
X58836500Y-56144500D01*
X58836500Y-56255500D01*
X58858155Y-56364367D01*
X58900632Y-56466918D01*
X58962301Y-56559211D01*
X59040789Y-56637699D01*
X59133082Y-56699368D01*
X59235633Y-56741845D01*
X59344500Y-56763500D01*
X59455500Y-56763500D01*
X59564367Y-56741845D01*
X59666918Y-56699368D01*
X59759211Y-56637699D01*
X59833410Y-56563500D01*
X60112160Y-56563500D01*
X60130000Y-56565257D01*
X60147840Y-56563500D01*
X60147850Y-56563500D01*
X60201258Y-56558240D01*
X60269778Y-56537454D01*
X60332926Y-56503701D01*
X60388276Y-56458276D01*
X60399654Y-56444412D01*
X61005567Y-55838500D01*
X63174434Y-55838500D01*
X67580345Y-60244411D01*
X67591724Y-60258276D01*
X67605588Y-60269654D01*
X67647072Y-60303700D01*
X67647074Y-60303701D01*
X67710222Y-60337454D01*
X67778742Y-60358240D01*
X67832150Y-60363500D01*
X67832159Y-60363500D01*
X67849999Y-60365257D01*
X67867839Y-60363500D01*
X69296317Y-60363500D01*
X69258155Y-60455633D01*
X69236500Y-60564500D01*
X69236500Y-60675500D01*
X69258155Y-60784367D01*
X69300632Y-60886918D01*
X69362301Y-60979211D01*
X69440789Y-61057699D01*
X69533082Y-61119368D01*
X69625177Y-61157514D01*
X69607346Y-61247157D01*
X69607346Y-61358157D01*
X69629001Y-61467024D01*
X69663991Y-61551500D01*
X66651611Y-61551500D01*
X66634999Y-61549864D01*
X66618387Y-61551500D01*
X66618380Y-61551500D01*
X66574936Y-61555779D01*
X66568642Y-61556399D01*
X66549287Y-61562270D01*
X66504835Y-61575754D01*
X66446030Y-61607186D01*
X66394487Y-61649487D01*
X66383891Y-61662398D01*
X64397399Y-63648891D01*
X64384488Y-63659487D01*
X64373893Y-63672397D01*
X64342187Y-63711030D01*
X64310754Y-63769836D01*
X64291399Y-63833643D01*
X64284864Y-63900000D01*
X64286501Y-63916622D01*
X64286500Y-65134789D01*
X63979930Y-65441359D01*
X63955500Y-65436500D01*
X63844500Y-65436500D01*
X63735633Y-65458155D01*
X63633082Y-65500632D01*
X63540789Y-65562301D01*
X63462301Y-65640789D01*
X63400632Y-65733082D01*
X63358155Y-65835633D01*
X63336500Y-65944500D01*
X63336500Y-66055500D01*
X63358155Y-66164367D01*
X63400632Y-66266918D01*
X63462301Y-66359211D01*
X63540789Y-66437699D01*
X63616820Y-66488502D01*
X61194806Y-66488502D01*
X61078452Y-66372148D01*
X61083311Y-66347718D01*
X61083311Y-66236718D01*
X61061656Y-66127851D01*
X61019179Y-66025300D01*
X60957510Y-65933007D01*
X60879022Y-65854519D01*
X60786729Y-65792850D01*
X60684178Y-65750373D01*
X60575311Y-65728718D01*
X60464311Y-65728718D01*
X60355444Y-65750373D01*
X60252893Y-65792850D01*
X60160600Y-65854519D01*
X60082112Y-65933007D01*
X60020443Y-66025300D01*
X59977966Y-66127851D01*
X59956311Y-66236718D01*
X59956311Y-66347718D01*
X59977966Y-66456585D01*
X60020443Y-66559136D01*
X60082112Y-66651429D01*
X60160600Y-66729917D01*
X60252893Y-66791586D01*
X60355444Y-66834063D01*
X60464311Y-66855718D01*
X60575311Y-66855718D01*
X60599741Y-66850859D01*
X60803486Y-67054604D01*
X60814082Y-67067515D01*
X60865625Y-67109816D01*
X60920168Y-67138970D01*
X60924430Y-67141248D01*
X60988237Y-67160603D01*
X60993986Y-67161169D01*
X61037975Y-67165502D01*
X61037983Y-67165502D01*
X61054595Y-67167138D01*
X61071207Y-67165502D01*
X64123462Y-67165502D01*
X64137301Y-67186213D01*
X64215789Y-67264701D01*
X64308082Y-67326370D01*
X64410633Y-67368847D01*
X64519500Y-67390502D01*
X64630500Y-67390502D01*
X64739367Y-67368847D01*
X64841918Y-67326370D01*
X64934211Y-67264701D01*
X65012699Y-67186213D01*
X65074368Y-67093920D01*
X65116845Y-66991369D01*
X65138500Y-66882502D01*
X65138500Y-66771502D01*
X65116845Y-66662635D01*
X65074368Y-66560084D01*
X65012699Y-66467791D01*
X64934211Y-66389303D01*
X64841918Y-66327634D01*
X64739367Y-66285157D01*
X64630500Y-66263502D01*
X64519500Y-66263502D01*
X64410633Y-66285157D01*
X64378206Y-66298588D01*
X64399368Y-66266918D01*
X64441845Y-66164367D01*
X64463500Y-66055500D01*
X64463500Y-65944500D01*
X64458641Y-65920070D01*
X64852607Y-65526104D01*
X64865512Y-65515513D01*
X64907814Y-65463970D01*
X64939246Y-65405165D01*
X64949954Y-65369863D01*
X64958601Y-65341358D01*
X64960557Y-65321500D01*
X64963500Y-65291620D01*
X64963500Y-65291612D01*
X64965136Y-65275000D01*
X64963500Y-65258388D01*
X64963500Y-64040210D01*
X66562425Y-62441286D01*
X66562425Y-62481425D01*
X66567284Y-62505855D01*
X65706789Y-63366351D01*
X65693878Y-63376947D01*
X65683283Y-63389857D01*
X65651577Y-63428490D01*
X65620144Y-63487296D01*
X65600789Y-63551103D01*
X65594254Y-63617460D01*
X65595891Y-63634082D01*
X65595890Y-67986979D01*
X65575179Y-68000818D01*
X65496691Y-68079306D01*
X65435022Y-68171599D01*
X65392545Y-68274150D01*
X65370890Y-68383017D01*
X65370890Y-68494017D01*
X65392545Y-68602884D01*
X65435022Y-68705435D01*
X65496691Y-68797728D01*
X65575179Y-68876216D01*
X65667472Y-68937885D01*
X65770023Y-68980362D01*
X65878890Y-69002017D01*
X65989890Y-69002017D01*
X66098757Y-68980362D01*
X66201308Y-68937885D01*
X66293601Y-68876216D01*
X66372089Y-68797728D01*
X66433758Y-68705435D01*
X66476235Y-68602884D01*
X66497890Y-68494017D01*
X66497890Y-68383017D01*
X66476235Y-68274150D01*
X66433758Y-68171599D01*
X66372089Y-68079306D01*
X66293601Y-68000818D01*
X66272890Y-67986979D01*
X66272890Y-63757670D01*
X67045995Y-62984566D01*
X67070425Y-62989425D01*
X67076500Y-62989425D01*
X67076500Y-62995500D01*
X67098155Y-63104367D01*
X67135223Y-63193860D01*
X67111923Y-63209429D01*
X67033435Y-63287917D01*
X66971766Y-63380210D01*
X66929289Y-63482761D01*
X66907634Y-63591628D01*
X66907634Y-63702628D01*
X66929289Y-63811495D01*
X66971766Y-63914046D01*
X67033435Y-64006339D01*
X67111923Y-64084827D01*
X67204216Y-64146496D01*
X67306767Y-64188973D01*
X67415634Y-64210628D01*
X67526634Y-64210628D01*
X67635501Y-64188973D01*
X67738052Y-64146496D01*
X67830345Y-64084827D01*
X67908833Y-64006339D01*
X67970502Y-63914046D01*
X68012979Y-63811495D01*
X68015564Y-63798500D01*
X71355426Y-63798500D01*
X71372038Y-63800136D01*
X71388650Y-63798500D01*
X71388658Y-63798500D01*
X71438395Y-63793601D01*
X71502203Y-63774246D01*
X71561008Y-63742814D01*
X71612551Y-63700513D01*
X71623151Y-63687597D01*
X72258793Y-63051956D01*
X72268107Y-63074443D01*
X72329776Y-63166736D01*
X72408264Y-63245224D01*
X72428976Y-63259063D01*
X72428975Y-66045585D01*
X72254284Y-66226159D01*
X72242068Y-66164745D01*
X72199591Y-66062194D01*
X72137922Y-65969901D01*
X72059434Y-65891413D01*
X71967141Y-65829744D01*
X71864590Y-65787267D01*
X71755723Y-65765612D01*
X71644723Y-65765612D01*
X71535856Y-65787267D01*
X71433305Y-65829744D01*
X71341012Y-65891413D01*
X71295239Y-65937186D01*
X71243812Y-65902823D01*
X71141261Y-65860346D01*
X71032394Y-65838691D01*
X70921394Y-65838691D01*
X70812527Y-65860346D01*
X70709976Y-65902823D01*
X70617683Y-65964492D01*
X70539195Y-66042980D01*
X70477526Y-66135273D01*
X70435049Y-66237824D01*
X70413394Y-66346691D01*
X70413394Y-66457691D01*
X70418517Y-66483446D01*
X70394082Y-66513220D01*
X70362649Y-66572026D01*
X70343294Y-66635833D01*
X70340540Y-66663801D01*
X70338395Y-66685570D01*
X70338395Y-66685578D01*
X70336759Y-66702190D01*
X70338395Y-66718802D01*
X70338395Y-66999392D01*
X68326288Y-69011500D01*
X68102847Y-69011500D01*
X68161572Y-68972261D01*
X68240060Y-68893773D01*
X68301729Y-68801480D01*
X68344206Y-68698929D01*
X68365861Y-68590062D01*
X68365861Y-68479062D01*
X68344206Y-68370195D01*
X68301729Y-68267644D01*
X68240060Y-68175351D01*
X68161572Y-68096863D01*
X68069279Y-68035194D01*
X67966728Y-67992717D01*
X67913500Y-67982129D01*
X67913500Y-66707800D01*
X67941845Y-66639367D01*
X67963500Y-66530500D01*
X67963500Y-66419500D01*
X67941845Y-66310633D01*
X67899368Y-66208082D01*
X67837699Y-66115789D01*
X67759211Y-66037301D01*
X67666918Y-65975632D01*
X67564367Y-65933155D01*
X67455500Y-65911500D01*
X67344500Y-65911500D01*
X67235633Y-65933155D01*
X67133082Y-65975632D01*
X67040789Y-66037301D01*
X66962301Y-66115789D01*
X66900632Y-66208082D01*
X66858155Y-66310633D01*
X66836500Y-66419500D01*
X66836500Y-66530500D01*
X66858155Y-66639367D01*
X66900632Y-66741918D01*
X66962301Y-66834211D01*
X67040789Y-66912699D01*
X67133082Y-66974368D01*
X67235633Y-67016845D01*
X67236500Y-67017018D01*
X67236501Y-68290579D01*
X67234864Y-68307201D01*
X67241399Y-68373558D01*
X67252541Y-68410289D01*
X67238861Y-68479062D01*
X67238861Y-68590062D01*
X67260516Y-68698929D01*
X67302993Y-68801480D01*
X67364662Y-68893773D01*
X67443150Y-68972261D01*
X67501875Y-69011500D01*
X63441612Y-69011500D01*
X63425000Y-69009864D01*
X63408388Y-69011500D01*
X63408380Y-69011500D01*
X63364391Y-69015833D01*
X63358642Y-69016399D01*
X63300848Y-69033930D01*
X63294835Y-69035754D01*
X63236030Y-69067186D01*
X63184487Y-69109487D01*
X63173892Y-69122397D01*
X61059078Y-71237212D01*
X61055500Y-71236500D01*
X60944500Y-71236500D01*
X60835633Y-71258155D01*
X60733082Y-71300632D01*
X60640789Y-71362301D01*
X60562301Y-71440789D01*
X60500632Y-71533082D01*
X60458155Y-71635633D01*
X60436500Y-71744500D01*
X60436500Y-71855500D01*
X60458155Y-71964367D01*
X60500632Y-72066918D01*
X60562301Y-72159211D01*
X60640789Y-72237699D01*
X60657479Y-72248851D01*
X60657478Y-77696722D01*
X60564367Y-77658155D01*
X60455500Y-77636500D01*
X60344500Y-77636500D01*
X60235633Y-77658155D01*
X60133082Y-77700632D01*
X60040789Y-77762301D01*
X59962301Y-77840789D01*
X59900632Y-77933082D01*
X59858155Y-78035633D01*
X59836500Y-78144500D01*
X59836500Y-78255500D01*
X59858155Y-78364367D01*
X59900632Y-78466918D01*
X59962301Y-78559211D01*
X60040789Y-78637699D01*
X60061501Y-78651538D01*
X60061500Y-79408643D01*
X60059864Y-79425256D01*
X60061500Y-79441868D01*
X60061500Y-79441875D01*
X60065779Y-79485319D01*
X60066399Y-79491613D01*
X60068736Y-79499318D01*
X60085754Y-79555420D01*
X60117186Y-79614225D01*
X60159487Y-79665768D01*
X60172399Y-79676365D01*
X61799562Y-81303528D01*
X61762301Y-81340789D01*
X61700632Y-81433082D01*
X61658155Y-81535633D01*
X61636500Y-81644500D01*
X61636500Y-81755500D01*
X61658155Y-81864367D01*
X61700632Y-81966918D01*
X61762301Y-82059211D01*
X61840789Y-82137699D01*
X61933082Y-82199368D01*
X62035633Y-82241845D01*
X62144500Y-82263500D01*
X62255500Y-82263500D01*
X62364367Y-82241845D01*
X62466918Y-82199368D01*
X62559211Y-82137699D01*
X62637699Y-82059211D01*
X62699368Y-81966918D01*
X62741845Y-81864367D01*
X62743555Y-81855770D01*
X63515387Y-82627602D01*
X63525983Y-82640513D01*
X63577526Y-82682814D01*
X63636331Y-82714246D01*
X63669816Y-82724403D01*
X63700138Y-82733601D01*
X63706432Y-82734221D01*
X63749876Y-82738500D01*
X63749883Y-82738500D01*
X63766495Y-82740136D01*
X63783107Y-82738500D01*
X64476742Y-82738500D01*
X64482941Y-82769664D01*
X64525418Y-82872215D01*
X64587087Y-82964508D01*
X64665575Y-83042996D01*
X64757868Y-83104665D01*
X64860419Y-83147142D01*
X64969286Y-83168797D01*
X65080286Y-83168797D01*
X65189153Y-83147142D01*
X65291704Y-83104665D01*
X65383997Y-83042996D01*
X65462485Y-82964508D01*
X65485654Y-82929833D01*
X65485755Y-82930166D01*
X65517187Y-82988971D01*
X65541623Y-83018745D01*
X65536500Y-83044500D01*
X65536500Y-83155500D01*
X65558155Y-83264367D01*
X65600632Y-83366918D01*
X65662301Y-83459211D01*
X65740789Y-83537699D01*
X65833082Y-83599368D01*
X65935633Y-83641845D01*
X66044500Y-83663500D01*
X66124765Y-83663500D01*
X66124765Y-83696679D01*
X66146420Y-83805546D01*
X66188897Y-83908097D01*
X66250566Y-84000390D01*
X66329054Y-84078878D01*
X66421347Y-84140547D01*
X66523898Y-84183024D01*
X66632765Y-84204679D01*
X66743765Y-84204679D01*
X66852632Y-84183024D01*
X66955183Y-84140547D01*
X67047476Y-84078878D01*
X67125964Y-84000390D01*
X67187633Y-83908097D01*
X67230110Y-83805546D01*
X67251765Y-83696679D01*
X67251765Y-83585679D01*
X67246906Y-83561249D01*
X67444655Y-83363500D01*
X67555500Y-83363500D01*
X67664367Y-83341845D01*
X67766918Y-83299368D01*
X67859211Y-83237699D01*
X67937699Y-83159211D01*
X67999368Y-83066918D01*
X68041845Y-82964367D01*
X68063500Y-82855500D01*
X68063500Y-82744500D01*
X68041845Y-82635633D01*
X67999368Y-82533082D01*
X67937699Y-82440789D01*
X67859211Y-82362301D01*
X67766918Y-82300632D01*
X67732695Y-82286457D01*
X67741845Y-82264367D01*
X67763500Y-82155500D01*
X67763500Y-82044500D01*
X67741845Y-81935633D01*
X67699368Y-81833082D01*
X67637699Y-81740789D01*
X67559211Y-81662301D01*
X67466918Y-81600632D01*
X67364367Y-81558155D01*
X67255500Y-81536500D01*
X67144500Y-81536500D01*
X67035633Y-81558155D01*
X66933082Y-81600632D01*
X66840789Y-81662301D01*
X66762301Y-81740789D01*
X66748462Y-81761500D01*
X65890211Y-81761500D01*
X65674104Y-81545393D01*
X65663504Y-81532477D01*
X65611961Y-81490176D01*
X65553156Y-81458744D01*
X65504199Y-81443894D01*
X65489349Y-81439389D01*
X65483600Y-81438823D01*
X65439611Y-81434490D01*
X65439603Y-81434490D01*
X65422991Y-81432854D01*
X65406379Y-81434490D01*
X64063202Y-81434490D01*
X61888500Y-79259790D01*
X61888500Y-78541158D01*
X80043303Y-78541158D01*
X80260253Y-78764627D01*
X80623532Y-78923811D01*
X81010886Y-79009063D01*
X81407430Y-79017108D01*
X81797923Y-78947637D01*
X82167359Y-78803319D01*
X82239747Y-78764627D01*
X82456697Y-78541158D01*
X95543303Y-78541158D01*
X95760253Y-78764627D01*
X96123532Y-78923811D01*
X96510886Y-79009063D01*
X96907430Y-79017108D01*
X97297923Y-78947637D01*
X97667359Y-78803319D01*
X97739747Y-78764627D01*
X97956697Y-78541158D01*
X96750000Y-77334462D01*
X95543303Y-78541158D01*
X82456697Y-78541158D01*
X81250000Y-77334462D01*
X80043303Y-78541158D01*
X61888500Y-78541158D01*
X61888500Y-77157430D01*
X79232892Y-77157430D01*
X79302363Y-77547923D01*
X79446681Y-77917359D01*
X79485373Y-77989747D01*
X79708842Y-78206697D01*
X80915538Y-77000000D01*
X81584462Y-77000000D01*
X82791158Y-78206697D01*
X83014627Y-77989747D01*
X83173811Y-77626468D01*
X83259063Y-77239114D01*
X83260720Y-77157430D01*
X94732892Y-77157430D01*
X94802363Y-77547923D01*
X94946681Y-77917359D01*
X94985373Y-77989747D01*
X95208842Y-78206697D01*
X96415538Y-77000000D01*
X97084462Y-77000000D01*
X98291158Y-78206697D01*
X98514627Y-77989747D01*
X98673811Y-77626468D01*
X98759063Y-77239114D01*
X98767108Y-76842570D01*
X98697637Y-76452077D01*
X98553319Y-76082641D01*
X98514627Y-76010253D01*
X98291158Y-75793303D01*
X97084462Y-77000000D01*
X96415538Y-77000000D01*
X95208842Y-75793303D01*
X94985373Y-76010253D01*
X94826189Y-76373532D01*
X94740937Y-76760886D01*
X94732892Y-77157430D01*
X83260720Y-77157430D01*
X83267108Y-76842570D01*
X83197637Y-76452077D01*
X83053319Y-76082641D01*
X83014627Y-76010253D01*
X82791158Y-75793303D01*
X81584462Y-77000000D01*
X80915538Y-77000000D01*
X79708842Y-75793303D01*
X79485373Y-76010253D01*
X79326189Y-76373532D01*
X79240937Y-76760886D01*
X79232892Y-77157430D01*
X61888500Y-77157430D01*
X61888500Y-75458842D01*
X80043303Y-75458842D01*
X81250000Y-76665538D01*
X82456697Y-75458842D01*
X95543303Y-75458842D01*
X96750000Y-76665538D01*
X97956697Y-75458842D01*
X97739747Y-75235373D01*
X97376468Y-75076189D01*
X96989114Y-74990937D01*
X96592570Y-74982892D01*
X96202077Y-75052363D01*
X95832641Y-75196681D01*
X95760253Y-75235373D01*
X95543303Y-75458842D01*
X82456697Y-75458842D01*
X82239747Y-75235373D01*
X81876468Y-75076189D01*
X81489114Y-74990937D01*
X81092570Y-74982892D01*
X80702077Y-75052363D01*
X80332641Y-75196681D01*
X80260253Y-75235373D01*
X80043303Y-75458842D01*
X61888500Y-75458842D01*
X61888500Y-73040210D01*
X62577607Y-72351104D01*
X62590512Y-72340513D01*
X62601594Y-72327011D01*
X62610460Y-72316207D01*
X62632814Y-72288970D01*
X62664246Y-72230165D01*
X62674271Y-72197117D01*
X62683601Y-72166358D01*
X62684433Y-72157907D01*
X62688500Y-72116620D01*
X62688500Y-72116612D01*
X62690136Y-72100000D01*
X62688500Y-72083388D01*
X62688500Y-71365210D01*
X63790212Y-70263500D01*
X68658388Y-70263500D01*
X68675000Y-70265136D01*
X68691612Y-70263500D01*
X68691620Y-70263500D01*
X68741357Y-70258601D01*
X68805165Y-70239246D01*
X68863970Y-70207814D01*
X68915513Y-70165513D01*
X68926113Y-70152597D01*
X71790211Y-67288500D01*
X72011192Y-67288500D01*
X72030630Y-67290090D01*
X72060960Y-67286595D01*
X72091357Y-67283601D01*
X72094061Y-67282781D01*
X72096871Y-67282457D01*
X72125944Y-67273110D01*
X72155165Y-67264246D01*
X72157659Y-67262913D01*
X72160349Y-67262048D01*
X72186979Y-67247241D01*
X72213970Y-67232814D01*
X72216164Y-67231013D01*
X72218625Y-67229645D01*
X72241857Y-67209928D01*
X72265513Y-67190513D01*
X72277892Y-67175430D01*
X72997256Y-66431845D01*
X73007987Y-66423038D01*
X73020356Y-66407967D01*
X73022316Y-66405941D01*
X73030926Y-66395087D01*
X73050289Y-66371495D01*
X73051624Y-66368998D01*
X73053377Y-66366788D01*
X73067307Y-66339657D01*
X73081721Y-66312690D01*
X73082542Y-66309984D01*
X73083832Y-66307471D01*
X73092214Y-66278097D01*
X73101076Y-66248882D01*
X73101353Y-66246072D01*
X73102129Y-66243352D01*
X73104616Y-66212943D01*
X73105975Y-66199145D01*
X73105975Y-66196325D01*
X73107564Y-66176895D01*
X73105975Y-66163103D01*
X73105975Y-63259063D01*
X73126686Y-63245224D01*
X73205174Y-63166736D01*
X73266843Y-63074443D01*
X73309320Y-62971892D01*
X73330975Y-62863025D01*
X73330975Y-62752025D01*
X73320462Y-62699172D01*
X76785902Y-66164613D01*
X76796498Y-66177524D01*
X76848041Y-66219825D01*
X76906846Y-66251257D01*
X76955803Y-66266107D01*
X76970653Y-66270612D01*
X76976947Y-66271232D01*
X77020391Y-66275511D01*
X77020398Y-66275511D01*
X77037010Y-66277147D01*
X77053622Y-66275511D01*
X77157200Y-66275511D01*
X77128155Y-66345633D01*
X77106500Y-66454500D01*
X77106500Y-66565500D01*
X77128155Y-66674367D01*
X77170632Y-66776918D01*
X77232301Y-66869211D01*
X77310789Y-66947699D01*
X77403082Y-67009368D01*
X77505633Y-67051845D01*
X77614500Y-67073500D01*
X77725500Y-67073500D01*
X77749930Y-67068641D01*
X77858891Y-67177602D01*
X77869487Y-67190513D01*
X77921030Y-67232814D01*
X77936500Y-67241083D01*
X77936500Y-74500000D01*
X77937720Y-74512388D01*
X77941334Y-74524300D01*
X77947202Y-74535279D01*
X77955099Y-74544901D01*
X77964721Y-74552798D01*
X77975700Y-74558666D01*
X77987612Y-74562280D01*
X78000000Y-74563500D01*
X99211501Y-74563500D01*
X99211501Y-82985882D01*
X99187071Y-83235044D01*
X99118807Y-83461142D01*
X99007932Y-83669667D01*
X98858664Y-83852689D01*
X98676686Y-84003233D01*
X98468941Y-84115561D01*
X98243329Y-84185400D01*
X97994997Y-84211500D01*
X52014108Y-84211500D01*
X51764956Y-84187071D01*
X51538858Y-84118807D01*
X51330333Y-84007932D01*
X51147311Y-83858664D01*
X50996767Y-83676686D01*
X50884439Y-83468941D01*
X50814600Y-83243329D01*
X50788500Y-82994997D01*
X50788500Y-82525664D01*
X51739965Y-82525664D01*
X51809827Y-82656395D01*
X51923803Y-82800820D01*
X52063765Y-82920234D01*
X52224334Y-83010048D01*
X52363500Y-82992352D01*
X52363500Y-82386500D01*
X52836500Y-82386500D01*
X52836500Y-82992352D01*
X52975666Y-83010048D01*
X53136235Y-82920234D01*
X53276197Y-82800820D01*
X53390173Y-82656395D01*
X53460035Y-82525664D01*
X53439966Y-82386500D01*
X52836500Y-82386500D01*
X52363500Y-82386500D01*
X51760034Y-82386500D01*
X51739965Y-82525664D01*
X50788500Y-82525664D01*
X50788500Y-81774336D01*
X51739965Y-81774336D01*
X51760034Y-81913500D01*
X52363500Y-81913500D01*
X52363500Y-81307648D01*
X52836500Y-81307648D01*
X52836500Y-81913500D01*
X53439966Y-81913500D01*
X53460035Y-81774336D01*
X53390173Y-81643605D01*
X53276197Y-81499180D01*
X53136235Y-81379766D01*
X52975666Y-81289952D01*
X52836500Y-81307648D01*
X52363500Y-81307648D01*
X52224334Y-81289952D01*
X52063765Y-81379766D01*
X51923803Y-81499180D01*
X51809827Y-81643605D01*
X51739965Y-81774336D01*
X50788500Y-81774336D01*
X50788500Y-80525664D01*
X51739965Y-80525664D01*
X51809827Y-80656395D01*
X51923803Y-80800820D01*
X52063765Y-80920234D01*
X52224334Y-81010048D01*
X52363500Y-80992352D01*
X52363500Y-80386500D01*
X52836500Y-80386500D01*
X52836500Y-80992352D01*
X52975666Y-81010048D01*
X53136235Y-80920234D01*
X53276197Y-80800820D01*
X53390173Y-80656395D01*
X53460035Y-80525664D01*
X53439966Y-80386500D01*
X52836500Y-80386500D01*
X52363500Y-80386500D01*
X51760034Y-80386500D01*
X51739965Y-80525664D01*
X50788500Y-80525664D01*
X50788500Y-79774336D01*
X51739965Y-79774336D01*
X51760034Y-79913500D01*
X52363500Y-79913500D01*
X52363500Y-79307648D01*
X52836500Y-79307648D01*
X52836500Y-79913500D01*
X53439966Y-79913500D01*
X53460035Y-79774336D01*
X53390173Y-79643605D01*
X53276197Y-79499180D01*
X53136235Y-79379766D01*
X52975666Y-79289952D01*
X52836500Y-79307648D01*
X52363500Y-79307648D01*
X52224334Y-79289952D01*
X52063765Y-79379766D01*
X51923803Y-79499180D01*
X51809827Y-79643605D01*
X51739965Y-79774336D01*
X50788500Y-79774336D01*
X50788500Y-78057566D01*
X51661500Y-78057566D01*
X51661500Y-78242434D01*
X51697566Y-78423750D01*
X51768312Y-78594546D01*
X51871019Y-78748259D01*
X52001741Y-78878981D01*
X52155454Y-78981688D01*
X52326250Y-79052434D01*
X52507566Y-79088500D01*
X52692434Y-79088500D01*
X52873750Y-79052434D01*
X53044546Y-78981688D01*
X53198259Y-78878981D01*
X53328981Y-78748259D01*
X53431688Y-78594546D01*
X53502434Y-78423750D01*
X53538500Y-78242434D01*
X53538500Y-78057566D01*
X53502434Y-77876250D01*
X53431688Y-77705454D01*
X53328981Y-77551741D01*
X53198259Y-77421019D01*
X53044546Y-77318312D01*
X52873750Y-77247566D01*
X52692434Y-77211500D01*
X52507566Y-77211500D01*
X52326250Y-77247566D01*
X52155454Y-77318312D01*
X52001741Y-77421019D01*
X51871019Y-77551741D01*
X51768312Y-77705454D01*
X51697566Y-77876250D01*
X51661500Y-78057566D01*
X50788500Y-78057566D01*
X50788500Y-75475000D01*
X51660226Y-75475000D01*
X51660226Y-76825000D01*
X51665314Y-76876655D01*
X51680381Y-76926325D01*
X51704848Y-76972101D01*
X51737777Y-77012223D01*
X51777899Y-77045152D01*
X51823675Y-77069619D01*
X51873345Y-77084686D01*
X51925000Y-77089774D01*
X53275000Y-77089774D01*
X53326655Y-77084686D01*
X53376325Y-77069619D01*
X53422101Y-77045152D01*
X53462223Y-77012223D01*
X53495152Y-76972101D01*
X53519619Y-76926325D01*
X53534686Y-76876655D01*
X53539774Y-76825000D01*
X53539774Y-75475000D01*
X53534686Y-75423345D01*
X53519619Y-75373675D01*
X53495152Y-75327899D01*
X53462223Y-75287777D01*
X53422101Y-75254848D01*
X53376325Y-75230381D01*
X53326655Y-75215314D01*
X53275000Y-75210226D01*
X51925000Y-75210226D01*
X51873345Y-75215314D01*
X51823675Y-75230381D01*
X51777899Y-75254848D01*
X51737777Y-75287777D01*
X51704848Y-75327899D01*
X51680381Y-75373675D01*
X51665314Y-75423345D01*
X51660226Y-75475000D01*
X50788500Y-75475000D01*
X50788500Y-73517152D01*
X50924986Y-73517152D01*
X50929348Y-73551402D01*
X51016738Y-73675887D01*
X51126735Y-73780931D01*
X51255111Y-73862497D01*
X51396934Y-73917451D01*
X51546752Y-73943681D01*
X51668500Y-73877393D01*
X51668500Y-73406500D01*
X52141500Y-73406500D01*
X52141500Y-73877393D01*
X52263248Y-73943681D01*
X52413066Y-73917451D01*
X52554889Y-73862497D01*
X52683265Y-73780931D01*
X52793262Y-73675887D01*
X52880652Y-73551402D01*
X52885014Y-73517152D01*
X54854986Y-73517152D01*
X54914180Y-73673435D01*
X55024324Y-73784878D01*
X55154093Y-73872691D01*
X55298500Y-73933500D01*
X55848500Y-73933500D01*
X55848500Y-73406500D01*
X56321500Y-73406500D01*
X56321500Y-73933500D01*
X56871500Y-73933500D01*
X57015907Y-73872691D01*
X57145676Y-73784878D01*
X57255820Y-73673435D01*
X57315014Y-73517152D01*
X57291314Y-73406500D01*
X56321500Y-73406500D01*
X55848500Y-73406500D01*
X54878686Y-73406500D01*
X54854986Y-73517152D01*
X52885014Y-73517152D01*
X52861314Y-73406500D01*
X52141500Y-73406500D01*
X51668500Y-73406500D01*
X50948686Y-73406500D01*
X50924986Y-73517152D01*
X50788500Y-73517152D01*
X50788500Y-72822848D01*
X50924986Y-72822848D01*
X50948686Y-72933500D01*
X51668500Y-72933500D01*
X51668500Y-72462607D01*
X52141500Y-72462607D01*
X52141500Y-72933500D01*
X52861314Y-72933500D01*
X52885014Y-72822848D01*
X54854986Y-72822848D01*
X54878686Y-72933500D01*
X55848500Y-72933500D01*
X55848500Y-72406500D01*
X56321500Y-72406500D01*
X56321500Y-72933500D01*
X57291314Y-72933500D01*
X57315014Y-72822848D01*
X57255820Y-72666565D01*
X57145676Y-72555122D01*
X57015907Y-72467309D01*
X56871500Y-72406500D01*
X56321500Y-72406500D01*
X55848500Y-72406500D01*
X55298500Y-72406500D01*
X55154093Y-72467309D01*
X55024324Y-72555122D01*
X54914180Y-72666565D01*
X54854986Y-72822848D01*
X52885014Y-72822848D01*
X52880652Y-72788598D01*
X52793262Y-72664113D01*
X52683265Y-72559069D01*
X52554889Y-72477503D01*
X52413066Y-72422549D01*
X52263248Y-72396319D01*
X52141500Y-72462607D01*
X51668500Y-72462607D01*
X51546752Y-72396319D01*
X51396934Y-72422549D01*
X51255111Y-72477503D01*
X51126735Y-72559069D01*
X51016738Y-72664113D01*
X50929348Y-72788598D01*
X50924986Y-72822848D01*
X50788500Y-72822848D01*
X50788500Y-71682038D01*
X54966500Y-71682038D01*
X54966500Y-71797962D01*
X54989116Y-71911659D01*
X55033479Y-72018759D01*
X55097883Y-72115147D01*
X55179853Y-72197117D01*
X55276241Y-72261521D01*
X55383341Y-72305884D01*
X55497038Y-72328500D01*
X55612962Y-72328500D01*
X55726659Y-72305884D01*
X55833759Y-72261521D01*
X55930147Y-72197117D01*
X56012117Y-72115147D01*
X56076521Y-72018759D01*
X56120884Y-71911659D01*
X56143500Y-71797962D01*
X56143500Y-71682038D01*
X56120884Y-71568341D01*
X56076521Y-71461241D01*
X56012117Y-71364853D01*
X55930147Y-71282883D01*
X55833759Y-71218479D01*
X55726659Y-71174116D01*
X55612962Y-71151500D01*
X55497038Y-71151500D01*
X55383341Y-71174116D01*
X55276241Y-71218479D01*
X55179853Y-71282883D01*
X55097883Y-71364853D01*
X55033479Y-71461241D01*
X54989116Y-71568341D01*
X54966500Y-71682038D01*
X50788500Y-71682038D01*
X50788500Y-64877152D01*
X50924986Y-64877152D01*
X50929348Y-64911402D01*
X51016738Y-65035887D01*
X51126735Y-65140931D01*
X51255111Y-65222497D01*
X51396934Y-65277451D01*
X51546752Y-65303681D01*
X51668500Y-65237393D01*
X51668500Y-64766500D01*
X52141500Y-64766500D01*
X52141500Y-65237393D01*
X52263248Y-65303681D01*
X52413066Y-65277451D01*
X52554889Y-65222497D01*
X52683265Y-65140931D01*
X52793262Y-65035887D01*
X52880652Y-64911402D01*
X52885014Y-64877152D01*
X52861314Y-64766500D01*
X52141500Y-64766500D01*
X51668500Y-64766500D01*
X50948686Y-64766500D01*
X50924986Y-64877152D01*
X50788500Y-64877152D01*
X50788500Y-64182848D01*
X50924986Y-64182848D01*
X50948686Y-64293500D01*
X51668500Y-64293500D01*
X51668500Y-63822607D01*
X52141500Y-63822607D01*
X52141500Y-64293500D01*
X52861314Y-64293500D01*
X52885014Y-64182848D01*
X52880652Y-64148598D01*
X52793262Y-64024113D01*
X52683265Y-63919069D01*
X52554889Y-63837503D01*
X52413066Y-63782549D01*
X52263248Y-63756319D01*
X52141500Y-63822607D01*
X51668500Y-63822607D01*
X51546752Y-63756319D01*
X51396934Y-63782549D01*
X51255111Y-63837503D01*
X51126735Y-63919069D01*
X51016738Y-64024113D01*
X50929348Y-64148598D01*
X50924986Y-64182848D01*
X50788500Y-64182848D01*
X50788500Y-60667152D01*
X50924986Y-60667152D01*
X50929348Y-60701402D01*
X51016738Y-60825887D01*
X51126735Y-60930931D01*
X51255111Y-61012497D01*
X51396934Y-61067451D01*
X51546752Y-61093681D01*
X51668500Y-61027393D01*
X51668500Y-60556500D01*
X52141500Y-60556500D01*
X52141500Y-61027393D01*
X52263248Y-61093681D01*
X52413066Y-61067451D01*
X52554889Y-61012497D01*
X52683265Y-60930931D01*
X52793262Y-60825887D01*
X52880652Y-60701402D01*
X52885014Y-60667152D01*
X52861314Y-60556500D01*
X52141500Y-60556500D01*
X51668500Y-60556500D01*
X50948686Y-60556500D01*
X50924986Y-60667152D01*
X50788500Y-60667152D01*
X50788500Y-59972848D01*
X50924986Y-59972848D01*
X50948686Y-60083500D01*
X51668500Y-60083500D01*
X51668500Y-59612607D01*
X52141500Y-59612607D01*
X52141500Y-60083500D01*
X52861314Y-60083500D01*
X52885014Y-59972848D01*
X52880652Y-59938598D01*
X52793262Y-59814113D01*
X52683265Y-59709069D01*
X52554889Y-59627503D01*
X52413066Y-59572549D01*
X52263248Y-59546319D01*
X52141500Y-59612607D01*
X51668500Y-59612607D01*
X51546752Y-59546319D01*
X51396934Y-59572549D01*
X51255111Y-59627503D01*
X51126735Y-59709069D01*
X51016738Y-59814113D01*
X50929348Y-59938598D01*
X50924986Y-59972848D01*
X50788500Y-59972848D01*
X50788500Y-57650000D01*
X53209743Y-57650000D01*
X53211500Y-57667840D01*
X53211501Y-68175350D01*
X53209743Y-68193200D01*
X53216761Y-68264458D01*
X53237547Y-68332978D01*
X53271300Y-68396126D01*
X53305345Y-68437611D01*
X53305352Y-68437618D01*
X53316725Y-68451476D01*
X53330583Y-68462849D01*
X54087150Y-69219417D01*
X54098524Y-69233276D01*
X54112382Y-69244649D01*
X54112388Y-69244655D01*
X54153872Y-69278700D01*
X54153874Y-69278701D01*
X54217022Y-69312454D01*
X54285542Y-69333240D01*
X54338950Y-69338500D01*
X54338959Y-69338500D01*
X54356799Y-69340257D01*
X54374639Y-69338500D01*
X54657983Y-69338500D01*
X54658155Y-69339367D01*
X54700632Y-69441918D01*
X54762301Y-69534211D01*
X54840789Y-69612699D01*
X54933082Y-69674368D01*
X55035633Y-69716845D01*
X55144500Y-69738500D01*
X55187693Y-69738500D01*
X55186500Y-69744500D01*
X55186500Y-69855500D01*
X55208155Y-69964367D01*
X55250632Y-70066918D01*
X55312301Y-70159211D01*
X55390789Y-70237699D01*
X55483082Y-70299368D01*
X55585633Y-70341845D01*
X55694500Y-70363500D01*
X55805500Y-70363500D01*
X55914367Y-70341845D01*
X56016918Y-70299368D01*
X56109211Y-70237699D01*
X56187699Y-70159211D01*
X56249368Y-70066918D01*
X56291845Y-69964367D01*
X56313500Y-69855500D01*
X56313500Y-69744500D01*
X56291845Y-69635633D01*
X56249368Y-69533082D01*
X56187699Y-69440789D01*
X56163500Y-69416590D01*
X56163500Y-68717839D01*
X56165257Y-68699999D01*
X56163500Y-68682159D01*
X56163500Y-68682150D01*
X56158240Y-68628742D01*
X56137454Y-68560222D01*
X56103701Y-68497074D01*
X56080008Y-68468204D01*
X56069655Y-68455588D01*
X56069649Y-68455582D01*
X56058276Y-68441724D01*
X56044417Y-68430350D01*
X55718615Y-68104548D01*
X55699368Y-68058082D01*
X55637699Y-67965789D01*
X55559211Y-67887301D01*
X55466918Y-67825632D01*
X55364367Y-67783155D01*
X55255500Y-67761500D01*
X55144500Y-67761500D01*
X55035633Y-67783155D01*
X54933082Y-67825632D01*
X54840789Y-67887301D01*
X54762301Y-67965789D01*
X54700632Y-68058082D01*
X54668331Y-68136065D01*
X54388500Y-67856234D01*
X54388500Y-65902038D01*
X54966500Y-65902038D01*
X54966500Y-66017962D01*
X54989116Y-66131659D01*
X55033479Y-66238759D01*
X55097883Y-66335147D01*
X55179853Y-66417117D01*
X55276241Y-66481521D01*
X55383341Y-66525884D01*
X55497038Y-66548500D01*
X55612962Y-66548500D01*
X55726659Y-66525884D01*
X55833759Y-66481521D01*
X55930147Y-66417117D01*
X56012117Y-66335147D01*
X56076521Y-66238759D01*
X56120884Y-66131659D01*
X56143500Y-66017962D01*
X56143500Y-65902038D01*
X56120884Y-65788341D01*
X56076521Y-65681241D01*
X56012117Y-65584853D01*
X55930147Y-65502883D01*
X55833759Y-65438479D01*
X55744491Y-65401502D01*
X61336500Y-65401502D01*
X61336500Y-65512502D01*
X61358155Y-65621369D01*
X61400632Y-65723920D01*
X61462301Y-65816213D01*
X61540789Y-65894701D01*
X61633082Y-65956370D01*
X61735633Y-65998847D01*
X61844500Y-66020502D01*
X61955500Y-66020502D01*
X62064367Y-65998847D01*
X62166918Y-65956370D01*
X62259211Y-65894701D01*
X62337699Y-65816213D01*
X62399368Y-65723920D01*
X62441845Y-65621369D01*
X62463500Y-65512502D01*
X62463500Y-65401502D01*
X62458641Y-65377072D01*
X63195395Y-64640317D01*
X63237516Y-64657764D01*
X63346383Y-64679419D01*
X63457383Y-64679419D01*
X63566250Y-64657764D01*
X63668801Y-64615287D01*
X63761094Y-64553618D01*
X63839582Y-64475130D01*
X63901251Y-64382837D01*
X63943728Y-64280286D01*
X63965383Y-64171419D01*
X63965383Y-64060419D01*
X63943728Y-63951552D01*
X63901251Y-63849001D01*
X63839582Y-63756708D01*
X63761094Y-63678220D01*
X63668801Y-63616551D01*
X63566250Y-63574074D01*
X63457383Y-63552419D01*
X63346383Y-63552419D01*
X63237516Y-63574074D01*
X63134965Y-63616551D01*
X63042672Y-63678220D01*
X62964184Y-63756708D01*
X62902515Y-63849001D01*
X62860038Y-63951552D01*
X62843476Y-64034815D01*
X61979930Y-64898361D01*
X61955500Y-64893502D01*
X61844500Y-64893502D01*
X61735633Y-64915157D01*
X61633082Y-64957634D01*
X61540789Y-65019303D01*
X61462301Y-65097791D01*
X61400632Y-65190084D01*
X61358155Y-65292635D01*
X61336500Y-65401502D01*
X55744491Y-65401502D01*
X55726659Y-65394116D01*
X55612962Y-65371500D01*
X55497038Y-65371500D01*
X55383341Y-65394116D01*
X55276241Y-65438479D01*
X55179853Y-65502883D01*
X55097883Y-65584853D01*
X55033479Y-65681241D01*
X54989116Y-65788341D01*
X54966500Y-65902038D01*
X54388500Y-65902038D01*
X54388500Y-64877152D01*
X54854986Y-64877152D01*
X54914180Y-65033435D01*
X55024324Y-65144878D01*
X55154093Y-65232691D01*
X55298500Y-65293500D01*
X55848500Y-65293500D01*
X55848500Y-64766500D01*
X56321500Y-64766500D01*
X56321500Y-65293500D01*
X56871500Y-65293500D01*
X57015907Y-65232691D01*
X57145676Y-65144878D01*
X57255820Y-65033435D01*
X57315014Y-64877152D01*
X57291314Y-64766500D01*
X56321500Y-64766500D01*
X55848500Y-64766500D01*
X54878686Y-64766500D01*
X54854986Y-64877152D01*
X54388500Y-64877152D01*
X54388500Y-64182848D01*
X54854986Y-64182848D01*
X54878686Y-64293500D01*
X55848500Y-64293500D01*
X55848500Y-63766500D01*
X56321500Y-63766500D01*
X56321500Y-64293500D01*
X57291314Y-64293500D01*
X57315014Y-64182848D01*
X57255820Y-64026565D01*
X57145676Y-63915122D01*
X57015907Y-63827309D01*
X56871500Y-63766500D01*
X56321500Y-63766500D01*
X55848500Y-63766500D01*
X55298500Y-63766500D01*
X55154093Y-63827309D01*
X55024324Y-63915122D01*
X54914180Y-64026565D01*
X54854986Y-64182848D01*
X54388500Y-64182848D01*
X54388500Y-60667152D01*
X54854986Y-60667152D01*
X54914180Y-60823435D01*
X55024324Y-60934878D01*
X55154093Y-61022691D01*
X55298500Y-61083500D01*
X55848500Y-61083500D01*
X55848500Y-60556500D01*
X56321500Y-60556500D01*
X56321500Y-61083500D01*
X56871500Y-61083500D01*
X57015907Y-61022691D01*
X57145676Y-60934878D01*
X57255820Y-60823435D01*
X57315014Y-60667152D01*
X57291314Y-60556500D01*
X56321500Y-60556500D01*
X55848500Y-60556500D01*
X54878686Y-60556500D01*
X54854986Y-60667152D01*
X54388500Y-60667152D01*
X54388500Y-59972848D01*
X54854986Y-59972848D01*
X54878686Y-60083500D01*
X55848500Y-60083500D01*
X55848500Y-59556500D01*
X56321500Y-59556500D01*
X56321500Y-60083500D01*
X57291314Y-60083500D01*
X57315014Y-59972848D01*
X57255820Y-59816565D01*
X57145676Y-59705122D01*
X57015907Y-59617309D01*
X56871500Y-59556500D01*
X56321500Y-59556500D01*
X55848500Y-59556500D01*
X55298500Y-59556500D01*
X55154093Y-59617309D01*
X55024324Y-59705122D01*
X54914180Y-59816565D01*
X54854986Y-59972848D01*
X54388500Y-59972848D01*
X54388500Y-58832038D01*
X54966500Y-58832038D01*
X54966500Y-58947962D01*
X54989116Y-59061659D01*
X55033479Y-59168759D01*
X55097883Y-59265147D01*
X55179853Y-59347117D01*
X55276241Y-59411521D01*
X55383341Y-59455884D01*
X55497038Y-59478500D01*
X55612962Y-59478500D01*
X55726659Y-59455884D01*
X55833759Y-59411521D01*
X55930147Y-59347117D01*
X56012117Y-59265147D01*
X56076521Y-59168759D01*
X56120884Y-59061659D01*
X56143500Y-58947962D01*
X56143500Y-58832038D01*
X56120884Y-58718341D01*
X56076521Y-58611241D01*
X56012117Y-58514853D01*
X55930147Y-58432883D01*
X55833759Y-58368479D01*
X55726659Y-58324116D01*
X55612962Y-58301500D01*
X55497038Y-58301500D01*
X55383341Y-58324116D01*
X55276241Y-58368479D01*
X55179853Y-58432883D01*
X55097883Y-58514853D01*
X55033479Y-58611241D01*
X54989116Y-58718341D01*
X54966500Y-58832038D01*
X54388500Y-58832038D01*
X54388500Y-57986963D01*
X54931175Y-57444288D01*
X54985633Y-57466845D01*
X55094500Y-57488500D01*
X55205500Y-57488500D01*
X55314367Y-57466845D01*
X55416918Y-57424368D01*
X55509211Y-57362699D01*
X55587699Y-57284211D01*
X55649368Y-57191918D01*
X55691845Y-57089367D01*
X55713500Y-56980500D01*
X55713500Y-56869500D01*
X55691845Y-56760633D01*
X55649368Y-56658082D01*
X55587699Y-56565789D01*
X55521910Y-56500000D01*
X55587699Y-56434211D01*
X55649368Y-56341918D01*
X55691845Y-56239367D01*
X55713500Y-56130500D01*
X55713500Y-56019500D01*
X55691845Y-55910633D01*
X55649368Y-55808082D01*
X55587699Y-55715789D01*
X55509211Y-55637301D01*
X55416918Y-55575632D01*
X55314367Y-55533155D01*
X55205500Y-55511500D01*
X55094500Y-55511500D01*
X54985633Y-55533155D01*
X54883082Y-55575632D01*
X54790789Y-55637301D01*
X54712301Y-55715789D01*
X54650632Y-55808082D01*
X54608155Y-55910633D01*
X54586500Y-56019500D01*
X54586500Y-56124434D01*
X53330584Y-57380350D01*
X53316724Y-57391725D01*
X53305351Y-57405583D01*
X53305345Y-57405589D01*
X53282357Y-57433601D01*
X53271299Y-57447075D01*
X53237546Y-57510223D01*
X53216760Y-57578743D01*
X53211500Y-57632151D01*
X53211500Y-57632160D01*
X53209743Y-57650000D01*
X50788500Y-57650000D01*
X50788500Y-55407000D01*
X57649000Y-55407000D01*
X57649000Y-55518000D01*
X57670655Y-55626867D01*
X57713132Y-55729418D01*
X57774801Y-55821711D01*
X57853289Y-55900199D01*
X57886501Y-55922391D01*
X57886500Y-56316590D01*
X57812301Y-56390789D01*
X57750632Y-56483082D01*
X57708155Y-56585633D01*
X57686500Y-56694500D01*
X57686500Y-56805500D01*
X57708155Y-56914367D01*
X57750632Y-57016918D01*
X57812301Y-57109211D01*
X57890789Y-57187699D01*
X57983082Y-57249368D01*
X58085633Y-57291845D01*
X58194500Y-57313500D01*
X58305500Y-57313500D01*
X58414367Y-57291845D01*
X58516918Y-57249368D01*
X58609211Y-57187699D01*
X58687699Y-57109211D01*
X58749368Y-57016918D01*
X58791845Y-56914367D01*
X58813500Y-56805500D01*
X58813500Y-56694500D01*
X58791845Y-56585633D01*
X58749368Y-56483082D01*
X58687699Y-56390789D01*
X58613500Y-56316590D01*
X58613500Y-55858410D01*
X58650199Y-55821711D01*
X58711868Y-55729418D01*
X58754345Y-55626867D01*
X58776000Y-55518000D01*
X58776000Y-55407000D01*
X58754345Y-55298133D01*
X58711868Y-55195582D01*
X58650199Y-55103289D01*
X58571711Y-55024801D01*
X58479418Y-54963132D01*
X58376867Y-54920655D01*
X58268000Y-54899000D01*
X58157000Y-54899000D01*
X58048133Y-54920655D01*
X57945582Y-54963132D01*
X57853289Y-55024801D01*
X57774801Y-55103289D01*
X57713132Y-55195582D01*
X57670655Y-55298133D01*
X57649000Y-55407000D01*
X50788500Y-55407000D01*
X50788500Y-53052038D01*
X54966500Y-53052038D01*
X54966500Y-53167962D01*
X54989116Y-53281659D01*
X55033479Y-53388759D01*
X55097883Y-53485147D01*
X55179853Y-53567117D01*
X55276241Y-53631521D01*
X55383341Y-53675884D01*
X55497038Y-53698500D01*
X55612962Y-53698500D01*
X55726659Y-53675884D01*
X55833759Y-53631521D01*
X55930147Y-53567117D01*
X56012117Y-53485147D01*
X56076521Y-53388759D01*
X56120884Y-53281659D01*
X56143500Y-53167962D01*
X56143500Y-53052038D01*
X56120884Y-52938341D01*
X56076521Y-52831241D01*
X56012117Y-52734853D01*
X55930147Y-52652883D01*
X55833759Y-52588479D01*
X55726659Y-52544116D01*
X55612962Y-52521500D01*
X55497038Y-52521500D01*
X55383341Y-52544116D01*
X55276241Y-52588479D01*
X55179853Y-52652883D01*
X55097883Y-52734853D01*
X55033479Y-52831241D01*
X54989116Y-52938341D01*
X54966500Y-53052038D01*
X50788500Y-53052038D01*
X50788500Y-52027152D01*
X50924986Y-52027152D01*
X50929348Y-52061402D01*
X51016738Y-52185887D01*
X51126735Y-52290931D01*
X51255111Y-52372497D01*
X51396934Y-52427451D01*
X51546752Y-52453681D01*
X51668500Y-52387393D01*
X51668500Y-51916500D01*
X52141500Y-51916500D01*
X52141500Y-52387393D01*
X52263248Y-52453681D01*
X52413066Y-52427451D01*
X52554889Y-52372497D01*
X52683265Y-52290931D01*
X52793262Y-52185887D01*
X52880652Y-52061402D01*
X52885014Y-52027152D01*
X54854986Y-52027152D01*
X54914180Y-52183435D01*
X55024324Y-52294878D01*
X55154093Y-52382691D01*
X55298500Y-52443500D01*
X55848500Y-52443500D01*
X55848500Y-51916500D01*
X56321500Y-51916500D01*
X56321500Y-52443500D01*
X56871500Y-52443500D01*
X57015907Y-52382691D01*
X57145676Y-52294878D01*
X57255820Y-52183435D01*
X57315014Y-52027152D01*
X57291314Y-51916500D01*
X56321500Y-51916500D01*
X55848500Y-51916500D01*
X54878686Y-51916500D01*
X54854986Y-52027152D01*
X52885014Y-52027152D01*
X52861314Y-51916500D01*
X52141500Y-51916500D01*
X51668500Y-51916500D01*
X50948686Y-51916500D01*
X50924986Y-52027152D01*
X50788500Y-52027152D01*
X50788500Y-52014108D01*
X50812929Y-51764956D01*
X50881193Y-51538858D01*
X50943865Y-51420989D01*
X50948686Y-51443500D01*
X51668500Y-51443500D01*
X51668500Y-50972607D01*
X52141500Y-50972607D01*
X52141500Y-51443500D01*
X52861314Y-51443500D01*
X52885014Y-51332848D01*
X54854986Y-51332848D01*
X54878686Y-51443500D01*
X55848500Y-51443500D01*
X55848500Y-50916500D01*
X56321500Y-50916500D01*
X56321500Y-51443500D01*
X57291314Y-51443500D01*
X57315014Y-51332848D01*
X57255820Y-51176565D01*
X57145676Y-51065122D01*
X57015907Y-50977309D01*
X56871500Y-50916500D01*
X56321500Y-50916500D01*
X55848500Y-50916500D01*
X55298500Y-50916500D01*
X55154093Y-50977309D01*
X55024324Y-51065122D01*
X54914180Y-51176565D01*
X54854986Y-51332848D01*
X52885014Y-51332848D01*
X52880652Y-51298598D01*
X52793262Y-51174113D01*
X52683265Y-51069069D01*
X52554889Y-50987503D01*
X52413066Y-50932549D01*
X52263248Y-50906319D01*
X52141500Y-50972607D01*
X51668500Y-50972607D01*
X51546752Y-50906319D01*
X51463701Y-50920860D01*
X51531059Y-50884439D01*
X51756671Y-50814600D01*
X52005003Y-50788500D01*
X69642789Y-50788500D01*
X68762399Y-51668891D01*
G36*
X75534277Y-55178672D02*
G01*
X75509070Y-55305397D01*
X75509070Y-55434603D01*
X75534277Y-55561328D01*
X75583722Y-55680699D01*
X75655506Y-55788131D01*
X75746869Y-55879494D01*
X75761500Y-55889270D01*
X75761501Y-56043064D01*
X75685633Y-56058155D01*
X75583082Y-56100632D01*
X75490789Y-56162301D01*
X75412301Y-56240789D01*
X75350632Y-56333082D01*
X75308155Y-56435633D01*
X75286500Y-56544500D01*
X75286500Y-56655500D01*
X75308155Y-56764367D01*
X75350632Y-56866918D01*
X75412301Y-56959211D01*
X75490789Y-57037699D01*
X75583082Y-57099368D01*
X75685633Y-57141845D01*
X75794500Y-57163500D01*
X75905500Y-57163500D01*
X76014367Y-57141845D01*
X76116918Y-57099368D01*
X76171498Y-57062898D01*
X76211588Y-57122897D01*
X76317103Y-57228412D01*
X76441175Y-57311314D01*
X76579037Y-57368418D01*
X76725390Y-57397530D01*
X76874610Y-57397530D01*
X77020963Y-57368418D01*
X77158825Y-57311314D01*
X77282897Y-57228412D01*
X77388412Y-57122897D01*
X77471314Y-56998825D01*
X77528418Y-56860963D01*
X77557530Y-56714610D01*
X77557530Y-56565390D01*
X77528418Y-56419037D01*
X77495059Y-56338500D01*
X77908388Y-56338500D01*
X77925000Y-56340136D01*
X77936500Y-56339003D01*
X77936500Y-57174434D01*
X77449434Y-57661500D01*
X77344500Y-57661500D01*
X77235633Y-57683155D01*
X77133082Y-57725632D01*
X77040789Y-57787301D01*
X76962301Y-57865789D01*
X76900632Y-57958082D01*
X76858155Y-58060633D01*
X76836500Y-58169500D01*
X76836500Y-58280500D01*
X76858155Y-58389367D01*
X76900632Y-58491918D01*
X76962301Y-58584211D01*
X77040789Y-58662699D01*
X77133082Y-58724368D01*
X77235633Y-58766845D01*
X77344500Y-58788500D01*
X77455500Y-58788500D01*
X77564367Y-58766845D01*
X77666918Y-58724368D01*
X77759211Y-58662699D01*
X77837699Y-58584211D01*
X77899368Y-58491918D01*
X77936500Y-58402271D01*
X77936500Y-65321500D01*
X77311963Y-65321500D01*
X73769719Y-61779257D01*
X75300547Y-61779257D01*
X76431359Y-62910070D01*
X76426500Y-62934500D01*
X76426500Y-63045500D01*
X76448155Y-63154367D01*
X76490632Y-63256918D01*
X76552301Y-63349211D01*
X76630789Y-63427699D01*
X76723082Y-63489368D01*
X76825633Y-63531845D01*
X76934500Y-63553500D01*
X77045500Y-63553500D01*
X77154367Y-63531845D01*
X77256918Y-63489368D01*
X77349211Y-63427699D01*
X77427699Y-63349211D01*
X77489368Y-63256918D01*
X77531845Y-63154367D01*
X77553500Y-63045500D01*
X77553500Y-62934500D01*
X77531845Y-62825633D01*
X77489368Y-62723082D01*
X77427699Y-62630789D01*
X77349211Y-62552301D01*
X77256918Y-62490632D01*
X77154367Y-62448155D01*
X77045500Y-62426500D01*
X76934500Y-62426500D01*
X76910070Y-62431359D01*
X75691870Y-61213160D01*
X75681270Y-61200244D01*
X75629727Y-61157943D01*
X75570922Y-61126511D01*
X75507114Y-61107156D01*
X75457377Y-61102257D01*
X75457369Y-61102257D01*
X75440757Y-61100621D01*
X75424145Y-61102257D01*
X73372246Y-61102257D01*
X73358407Y-61081546D01*
X73279919Y-61003058D01*
X73187626Y-60941389D01*
X73085075Y-60898912D01*
X72976208Y-60877257D01*
X72865208Y-60877257D01*
X72756341Y-60898912D01*
X72653790Y-60941389D01*
X72561497Y-61003058D01*
X72483009Y-61081546D01*
X72421340Y-61173839D01*
X72378863Y-61276390D01*
X72357208Y-61385257D01*
X72357208Y-61496257D01*
X72378863Y-61605124D01*
X72391613Y-61635906D01*
X72386606Y-61636399D01*
X72367251Y-61642270D01*
X72322799Y-61655754D01*
X72263994Y-61687186D01*
X72212451Y-61729487D01*
X72201855Y-61742398D01*
X72063327Y-61880926D01*
X72039368Y-61823082D01*
X71977699Y-61730789D01*
X71946910Y-61700000D01*
X71997699Y-61649211D01*
X72059368Y-61556918D01*
X72101845Y-61454367D01*
X72123500Y-61345500D01*
X72123500Y-61234500D01*
X72101845Y-61125633D01*
X72060847Y-61026652D01*
X72089211Y-61007699D01*
X72167699Y-60929211D01*
X72229368Y-60836918D01*
X72271845Y-60734367D01*
X72279921Y-60693769D01*
X72335633Y-60716845D01*
X72444500Y-60738500D01*
X72555500Y-60738500D01*
X72664367Y-60716845D01*
X72766918Y-60674368D01*
X72859211Y-60612699D01*
X72937699Y-60534211D01*
X72999368Y-60441918D01*
X73041845Y-60339367D01*
X73063500Y-60230500D01*
X73063500Y-60119500D01*
X73041845Y-60010633D01*
X72999368Y-59908082D01*
X72937699Y-59815789D01*
X72871910Y-59750000D01*
X72937699Y-59684211D01*
X72999368Y-59591918D01*
X73041845Y-59489367D01*
X73063500Y-59380500D01*
X73063500Y-59269500D01*
X73041845Y-59160633D01*
X72999368Y-59058082D01*
X72937699Y-58965789D01*
X72859211Y-58887301D01*
X72766918Y-58825632D01*
X72664367Y-58783155D01*
X72555500Y-58761500D01*
X72444500Y-58761500D01*
X72335633Y-58783155D01*
X72322999Y-58788388D01*
X72323049Y-58788338D01*
X72384718Y-58696045D01*
X72427195Y-58593494D01*
X72448850Y-58484627D01*
X72448850Y-58373627D01*
X72427195Y-58264760D01*
X72384718Y-58162209D01*
X72323049Y-58069916D01*
X72244561Y-57991428D01*
X72152268Y-57929759D01*
X72049717Y-57887282D01*
X71940850Y-57865627D01*
X71829850Y-57865627D01*
X71816911Y-57868201D01*
X71088500Y-57139790D01*
X71088500Y-55440742D01*
X71186284Y-55481244D01*
X71295151Y-55502899D01*
X71406151Y-55502899D01*
X71515018Y-55481244D01*
X71617569Y-55438767D01*
X71709862Y-55377098D01*
X71752909Y-55334051D01*
X71773324Y-55364604D01*
X71851812Y-55443092D01*
X71944105Y-55504761D01*
X72046656Y-55547238D01*
X72155523Y-55568893D01*
X72266523Y-55568893D01*
X72375390Y-55547238D01*
X72402595Y-55535970D01*
X72407215Y-55559197D01*
X72449692Y-55661748D01*
X72511361Y-55754041D01*
X72589849Y-55832529D01*
X72682142Y-55894198D01*
X72715333Y-55907946D01*
X72683155Y-55985633D01*
X72661500Y-56094500D01*
X72661500Y-56205500D01*
X72683155Y-56314367D01*
X72725632Y-56416918D01*
X72787301Y-56509211D01*
X72865789Y-56587699D01*
X72958082Y-56649368D01*
X73060633Y-56691845D01*
X73081996Y-56696094D01*
X73012301Y-56765789D01*
X72950632Y-56858082D01*
X72908155Y-56960633D01*
X72886500Y-57069500D01*
X72886500Y-57180500D01*
X72908155Y-57289367D01*
X72950632Y-57391918D01*
X73012301Y-57484211D01*
X73090789Y-57562699D01*
X73183082Y-57624368D01*
X73285633Y-57666845D01*
X73394500Y-57688500D01*
X73505500Y-57688500D01*
X73614367Y-57666845D01*
X73716918Y-57624368D01*
X73809211Y-57562699D01*
X73887699Y-57484211D01*
X73949368Y-57391918D01*
X73991845Y-57289367D01*
X74013500Y-57180500D01*
X74013500Y-57069500D01*
X74008377Y-57043746D01*
X74016670Y-57033641D01*
X74032813Y-57013971D01*
X74064245Y-56955166D01*
X74073395Y-56925000D01*
X74083600Y-56891359D01*
X74084442Y-56882813D01*
X74088499Y-56841621D01*
X74088499Y-56841613D01*
X74090135Y-56825001D01*
X74088499Y-56808389D01*
X74088499Y-56390211D01*
X75390211Y-55088500D01*
X75571627Y-55088500D01*
X75534277Y-55178672D01*
G37*
X75534277Y-55178672D02*
X75509070Y-55305397D01*
X75509070Y-55434603D01*
X75534277Y-55561328D01*
X75583722Y-55680699D01*
X75655506Y-55788131D01*
X75746869Y-55879494D01*
X75761500Y-55889270D01*
X75761501Y-56043064D01*
X75685633Y-56058155D01*
X75583082Y-56100632D01*
X75490789Y-56162301D01*
X75412301Y-56240789D01*
X75350632Y-56333082D01*
X75308155Y-56435633D01*
X75286500Y-56544500D01*
X75286500Y-56655500D01*
X75308155Y-56764367D01*
X75350632Y-56866918D01*
X75412301Y-56959211D01*
X75490789Y-57037699D01*
X75583082Y-57099368D01*
X75685633Y-57141845D01*
X75794500Y-57163500D01*
X75905500Y-57163500D01*
X76014367Y-57141845D01*
X76116918Y-57099368D01*
X76171498Y-57062898D01*
X76211588Y-57122897D01*
X76317103Y-57228412D01*
X76441175Y-57311314D01*
X76579037Y-57368418D01*
X76725390Y-57397530D01*
X76874610Y-57397530D01*
X77020963Y-57368418D01*
X77158825Y-57311314D01*
X77282897Y-57228412D01*
X77388412Y-57122897D01*
X77471314Y-56998825D01*
X77528418Y-56860963D01*
X77557530Y-56714610D01*
X77557530Y-56565390D01*
X77528418Y-56419037D01*
X77495059Y-56338500D01*
X77908388Y-56338500D01*
X77925000Y-56340136D01*
X77936500Y-56339003D01*
X77936500Y-57174434D01*
X77449434Y-57661500D01*
X77344500Y-57661500D01*
X77235633Y-57683155D01*
X77133082Y-57725632D01*
X77040789Y-57787301D01*
X76962301Y-57865789D01*
X76900632Y-57958082D01*
X76858155Y-58060633D01*
X76836500Y-58169500D01*
X76836500Y-58280500D01*
X76858155Y-58389367D01*
X76900632Y-58491918D01*
X76962301Y-58584211D01*
X77040789Y-58662699D01*
X77133082Y-58724368D01*
X77235633Y-58766845D01*
X77344500Y-58788500D01*
X77455500Y-58788500D01*
X77564367Y-58766845D01*
X77666918Y-58724368D01*
X77759211Y-58662699D01*
X77837699Y-58584211D01*
X77899368Y-58491918D01*
X77936500Y-58402271D01*
X77936500Y-65321500D01*
X77311963Y-65321500D01*
X73769719Y-61779257D01*
X75300547Y-61779257D01*
X76431359Y-62910070D01*
X76426500Y-62934500D01*
X76426500Y-63045500D01*
X76448155Y-63154367D01*
X76490632Y-63256918D01*
X76552301Y-63349211D01*
X76630789Y-63427699D01*
X76723082Y-63489368D01*
X76825633Y-63531845D01*
X76934500Y-63553500D01*
X77045500Y-63553500D01*
X77154367Y-63531845D01*
X77256918Y-63489368D01*
X77349211Y-63427699D01*
X77427699Y-63349211D01*
X77489368Y-63256918D01*
X77531845Y-63154367D01*
X77553500Y-63045500D01*
X77553500Y-62934500D01*
X77531845Y-62825633D01*
X77489368Y-62723082D01*
X77427699Y-62630789D01*
X77349211Y-62552301D01*
X77256918Y-62490632D01*
X77154367Y-62448155D01*
X77045500Y-62426500D01*
X76934500Y-62426500D01*
X76910070Y-62431359D01*
X75691870Y-61213160D01*
X75681270Y-61200244D01*
X75629727Y-61157943D01*
X75570922Y-61126511D01*
X75507114Y-61107156D01*
X75457377Y-61102257D01*
X75457369Y-61102257D01*
X75440757Y-61100621D01*
X75424145Y-61102257D01*
X73372246Y-61102257D01*
X73358407Y-61081546D01*
X73279919Y-61003058D01*
X73187626Y-60941389D01*
X73085075Y-60898912D01*
X72976208Y-60877257D01*
X72865208Y-60877257D01*
X72756341Y-60898912D01*
X72653790Y-60941389D01*
X72561497Y-61003058D01*
X72483009Y-61081546D01*
X72421340Y-61173839D01*
X72378863Y-61276390D01*
X72357208Y-61385257D01*
X72357208Y-61496257D01*
X72378863Y-61605124D01*
X72391613Y-61635906D01*
X72386606Y-61636399D01*
X72367251Y-61642270D01*
X72322799Y-61655754D01*
X72263994Y-61687186D01*
X72212451Y-61729487D01*
X72201855Y-61742398D01*
X72063327Y-61880926D01*
X72039368Y-61823082D01*
X71977699Y-61730789D01*
X71946910Y-61700000D01*
X71997699Y-61649211D01*
X72059368Y-61556918D01*
X72101845Y-61454367D01*
X72123500Y-61345500D01*
X72123500Y-61234500D01*
X72101845Y-61125633D01*
X72060847Y-61026652D01*
X72089211Y-61007699D01*
X72167699Y-60929211D01*
X72229368Y-60836918D01*
X72271845Y-60734367D01*
X72279921Y-60693769D01*
X72335633Y-60716845D01*
X72444500Y-60738500D01*
X72555500Y-60738500D01*
X72664367Y-60716845D01*
X72766918Y-60674368D01*
X72859211Y-60612699D01*
X72937699Y-60534211D01*
X72999368Y-60441918D01*
X73041845Y-60339367D01*
X73063500Y-60230500D01*
X73063500Y-60119500D01*
X73041845Y-60010633D01*
X72999368Y-59908082D01*
X72937699Y-59815789D01*
X72871910Y-59750000D01*
X72937699Y-59684211D01*
X72999368Y-59591918D01*
X73041845Y-59489367D01*
X73063500Y-59380500D01*
X73063500Y-59269500D01*
X73041845Y-59160633D01*
X72999368Y-59058082D01*
X72937699Y-58965789D01*
X72859211Y-58887301D01*
X72766918Y-58825632D01*
X72664367Y-58783155D01*
X72555500Y-58761500D01*
X72444500Y-58761500D01*
X72335633Y-58783155D01*
X72322999Y-58788388D01*
X72323049Y-58788338D01*
X72384718Y-58696045D01*
X72427195Y-58593494D01*
X72448850Y-58484627D01*
X72448850Y-58373627D01*
X72427195Y-58264760D01*
X72384718Y-58162209D01*
X72323049Y-58069916D01*
X72244561Y-57991428D01*
X72152268Y-57929759D01*
X72049717Y-57887282D01*
X71940850Y-57865627D01*
X71829850Y-57865627D01*
X71816911Y-57868201D01*
X71088500Y-57139790D01*
X71088500Y-55440742D01*
X71186284Y-55481244D01*
X71295151Y-55502899D01*
X71406151Y-55502899D01*
X71515018Y-55481244D01*
X71617569Y-55438767D01*
X71709862Y-55377098D01*
X71752909Y-55334051D01*
X71773324Y-55364604D01*
X71851812Y-55443092D01*
X71944105Y-55504761D01*
X72046656Y-55547238D01*
X72155523Y-55568893D01*
X72266523Y-55568893D01*
X72375390Y-55547238D01*
X72402595Y-55535970D01*
X72407215Y-55559197D01*
X72449692Y-55661748D01*
X72511361Y-55754041D01*
X72589849Y-55832529D01*
X72682142Y-55894198D01*
X72715333Y-55907946D01*
X72683155Y-55985633D01*
X72661500Y-56094500D01*
X72661500Y-56205500D01*
X72683155Y-56314367D01*
X72725632Y-56416918D01*
X72787301Y-56509211D01*
X72865789Y-56587699D01*
X72958082Y-56649368D01*
X73060633Y-56691845D01*
X73081996Y-56696094D01*
X73012301Y-56765789D01*
X72950632Y-56858082D01*
X72908155Y-56960633D01*
X72886500Y-57069500D01*
X72886500Y-57180500D01*
X72908155Y-57289367D01*
X72950632Y-57391918D01*
X73012301Y-57484211D01*
X73090789Y-57562699D01*
X73183082Y-57624368D01*
X73285633Y-57666845D01*
X73394500Y-57688500D01*
X73505500Y-57688500D01*
X73614367Y-57666845D01*
X73716918Y-57624368D01*
X73809211Y-57562699D01*
X73887699Y-57484211D01*
X73949368Y-57391918D01*
X73991845Y-57289367D01*
X74013500Y-57180500D01*
X74013500Y-57069500D01*
X74008377Y-57043746D01*
X74016670Y-57033641D01*
X74032813Y-57013971D01*
X74064245Y-56955166D01*
X74073395Y-56925000D01*
X74083600Y-56891359D01*
X74084442Y-56882813D01*
X74088499Y-56841621D01*
X74088499Y-56841613D01*
X74090135Y-56825001D01*
X74088499Y-56808389D01*
X74088499Y-56390211D01*
X75390211Y-55088500D01*
X75571627Y-55088500D01*
X75534277Y-55178672D01*
G36*
X70998155Y-62254367D02*
G01*
X71040632Y-62356918D01*
X71102301Y-62449211D01*
X71180789Y-62527699D01*
X71273082Y-62589368D01*
X71330926Y-62613327D01*
X71122754Y-62821500D01*
X68190969Y-62821500D01*
X68181845Y-62775633D01*
X68139368Y-62673082D01*
X68077699Y-62580789D01*
X67999211Y-62502301D01*
X67906918Y-62440632D01*
X67804367Y-62398155D01*
X67695500Y-62376500D01*
X67689425Y-62376500D01*
X67689425Y-62370425D01*
X67667770Y-62261558D01*
X67654077Y-62228500D01*
X70993010Y-62228500D01*
X70998155Y-62254367D01*
G37*
X70998155Y-62254367D02*
X71040632Y-62356918D01*
X71102301Y-62449211D01*
X71180789Y-62527699D01*
X71273082Y-62589368D01*
X71330926Y-62613327D01*
X71122754Y-62821500D01*
X68190969Y-62821500D01*
X68181845Y-62775633D01*
X68139368Y-62673082D01*
X68077699Y-62580789D01*
X67999211Y-62502301D01*
X67906918Y-62440632D01*
X67804367Y-62398155D01*
X67695500Y-62376500D01*
X67689425Y-62376500D01*
X67689425Y-62370425D01*
X67667770Y-62261558D01*
X67654077Y-62228500D01*
X70993010Y-62228500D01*
X70998155Y-62254367D01*
G36*
X75113811Y-51201777D02*
G01*
X75056803Y-51339407D01*
X75027740Y-51485515D01*
X75027740Y-51634485D01*
X75056803Y-51780593D01*
X75113811Y-51918223D01*
X75196575Y-52042088D01*
X75301912Y-52147425D01*
X75425777Y-52230189D01*
X75563407Y-52287197D01*
X75709515Y-52316260D01*
X75858485Y-52316260D01*
X75964612Y-52295150D01*
X76165000Y-52495538D01*
X76382469Y-52278069D01*
X76335280Y-52193272D01*
X76224712Y-52175072D01*
X76266088Y-52147425D01*
X76371425Y-52042088D01*
X76454189Y-51918223D01*
X76511197Y-51780593D01*
X76540260Y-51634485D01*
X76540260Y-51485515D01*
X76511197Y-51339407D01*
X76454189Y-51201777D01*
X76431954Y-51168500D01*
X77168046Y-51168500D01*
X77145811Y-51201777D01*
X77088803Y-51339407D01*
X77059740Y-51485515D01*
X77059740Y-51634485D01*
X77088803Y-51780593D01*
X77145811Y-51918223D01*
X77228575Y-52042088D01*
X77333912Y-52147425D01*
X77373789Y-52174070D01*
X77370397Y-52174070D01*
X77243672Y-52199277D01*
X77124301Y-52248722D01*
X77016869Y-52320506D01*
X76925506Y-52411869D01*
X76853722Y-52519301D01*
X76804277Y-52638672D01*
X76800254Y-52658899D01*
X76716931Y-52612531D01*
X76499462Y-52830000D01*
X76513604Y-52844142D01*
X76246246Y-53111500D01*
X76083754Y-53111500D01*
X75816396Y-52844142D01*
X75830538Y-52830000D01*
X75613069Y-52612531D01*
X75528272Y-52659720D01*
X75507286Y-52787212D01*
X75511576Y-52916347D01*
X75523574Y-52976664D01*
X75484211Y-52937301D01*
X75391918Y-52875632D01*
X75289367Y-52833155D01*
X75180500Y-52811500D01*
X75069500Y-52811500D01*
X74960633Y-52833155D01*
X74858082Y-52875632D01*
X74772875Y-52932566D01*
X74831688Y-52844546D01*
X74902434Y-52673750D01*
X74938500Y-52492434D01*
X74938500Y-52307566D01*
X74902434Y-52126250D01*
X74831688Y-51955454D01*
X74728981Y-51801741D01*
X74598259Y-51671019D01*
X74444546Y-51568312D01*
X74273750Y-51497566D01*
X74092434Y-51461500D01*
X73907566Y-51461500D01*
X73726250Y-51497566D01*
X73555454Y-51568312D01*
X73401741Y-51671019D01*
X73271019Y-51801741D01*
X73168312Y-51955454D01*
X73097566Y-52126250D01*
X73061500Y-52307566D01*
X73061500Y-52349789D01*
X72938500Y-52472789D01*
X72938500Y-52307566D01*
X72902434Y-52126250D01*
X72831688Y-51955454D01*
X72728981Y-51801741D01*
X72598259Y-51671019D01*
X72444546Y-51568312D01*
X72273750Y-51497566D01*
X72092434Y-51461500D01*
X71907566Y-51461500D01*
X71726250Y-51497566D01*
X71555454Y-51568312D01*
X71401741Y-51671019D01*
X71271019Y-51801741D01*
X71168312Y-51955454D01*
X71097566Y-52126250D01*
X71061500Y-52307566D01*
X71061500Y-52492434D01*
X71097566Y-52673750D01*
X71168312Y-52844546D01*
X71271019Y-52998259D01*
X71317025Y-53044265D01*
X70338500Y-54022790D01*
X70338500Y-53275614D01*
X70444546Y-53231688D01*
X70598259Y-53128981D01*
X70728981Y-52998259D01*
X70831688Y-52844546D01*
X70902434Y-52673750D01*
X70938500Y-52492434D01*
X70938500Y-52307566D01*
X70902434Y-52126250D01*
X70831688Y-51955454D01*
X70728981Y-51801741D01*
X70598259Y-51671019D01*
X70444546Y-51568312D01*
X70273750Y-51497566D01*
X70092434Y-51461500D01*
X69927211Y-51461500D01*
X70220211Y-51168500D01*
X75136046Y-51168500D01*
X75113811Y-51201777D01*
G37*
X75113811Y-51201777D02*
X75056803Y-51339407D01*
X75027740Y-51485515D01*
X75027740Y-51634485D01*
X75056803Y-51780593D01*
X75113811Y-51918223D01*
X75196575Y-52042088D01*
X75301912Y-52147425D01*
X75425777Y-52230189D01*
X75563407Y-52287197D01*
X75709515Y-52316260D01*
X75858485Y-52316260D01*
X75964612Y-52295150D01*
X76165000Y-52495538D01*
X76382469Y-52278069D01*
X76335280Y-52193272D01*
X76224712Y-52175072D01*
X76266088Y-52147425D01*
X76371425Y-52042088D01*
X76454189Y-51918223D01*
X76511197Y-51780593D01*
X76540260Y-51634485D01*
X76540260Y-51485515D01*
X76511197Y-51339407D01*
X76454189Y-51201777D01*
X76431954Y-51168500D01*
X77168046Y-51168500D01*
X77145811Y-51201777D01*
X77088803Y-51339407D01*
X77059740Y-51485515D01*
X77059740Y-51634485D01*
X77088803Y-51780593D01*
X77145811Y-51918223D01*
X77228575Y-52042088D01*
X77333912Y-52147425D01*
X77373789Y-52174070D01*
X77370397Y-52174070D01*
X77243672Y-52199277D01*
X77124301Y-52248722D01*
X77016869Y-52320506D01*
X76925506Y-52411869D01*
X76853722Y-52519301D01*
X76804277Y-52638672D01*
X76800254Y-52658899D01*
X76716931Y-52612531D01*
X76499462Y-52830000D01*
X76513604Y-52844142D01*
X76246246Y-53111500D01*
X76083754Y-53111500D01*
X75816396Y-52844142D01*
X75830538Y-52830000D01*
X75613069Y-52612531D01*
X75528272Y-52659720D01*
X75507286Y-52787212D01*
X75511576Y-52916347D01*
X75523574Y-52976664D01*
X75484211Y-52937301D01*
X75391918Y-52875632D01*
X75289367Y-52833155D01*
X75180500Y-52811500D01*
X75069500Y-52811500D01*
X74960633Y-52833155D01*
X74858082Y-52875632D01*
X74772875Y-52932566D01*
X74831688Y-52844546D01*
X74902434Y-52673750D01*
X74938500Y-52492434D01*
X74938500Y-52307566D01*
X74902434Y-52126250D01*
X74831688Y-51955454D01*
X74728981Y-51801741D01*
X74598259Y-51671019D01*
X74444546Y-51568312D01*
X74273750Y-51497566D01*
X74092434Y-51461500D01*
X73907566Y-51461500D01*
X73726250Y-51497566D01*
X73555454Y-51568312D01*
X73401741Y-51671019D01*
X73271019Y-51801741D01*
X73168312Y-51955454D01*
X73097566Y-52126250D01*
X73061500Y-52307566D01*
X73061500Y-52349789D01*
X72938500Y-52472789D01*
X72938500Y-52307566D01*
X72902434Y-52126250D01*
X72831688Y-51955454D01*
X72728981Y-51801741D01*
X72598259Y-51671019D01*
X72444546Y-51568312D01*
X72273750Y-51497566D01*
X72092434Y-51461500D01*
X71907566Y-51461500D01*
X71726250Y-51497566D01*
X71555454Y-51568312D01*
X71401741Y-51671019D01*
X71271019Y-51801741D01*
X71168312Y-51955454D01*
X71097566Y-52126250D01*
X71061500Y-52307566D01*
X71061500Y-52492434D01*
X71097566Y-52673750D01*
X71168312Y-52844546D01*
X71271019Y-52998259D01*
X71317025Y-53044265D01*
X70338500Y-54022790D01*
X70338500Y-53275614D01*
X70444546Y-53231688D01*
X70598259Y-53128981D01*
X70728981Y-52998259D01*
X70831688Y-52844546D01*
X70902434Y-52673750D01*
X70938500Y-52492434D01*
X70938500Y-52307566D01*
X70902434Y-52126250D01*
X70831688Y-51955454D01*
X70728981Y-51801741D01*
X70598259Y-51671019D01*
X70444546Y-51568312D01*
X70273750Y-51497566D01*
X70092434Y-51461500D01*
X69927211Y-51461500D01*
X70220211Y-51168500D01*
X75136046Y-51168500D01*
X75113811Y-51201777D01*
M02*
