G04 #@! TF.GenerationSoftware,KiCad,Pcbnew,6.0.2+dfsg-1*
G04 #@! TF.CreationDate,2022-08-31T22:25:43-07:00*
G04 #@! TF.ProjectId,OPS,4f50532e-6b69-4636-9164-5f7063625858,rev?*
G04 #@! TF.SameCoordinates,Original*
G04 #@! TF.FileFunction,Soldermask,Bot*
G04 #@! TF.FilePolarity,Negative*
%FSLAX46Y46*%
G04 Gerber Fmt 4.6, Leading zero omitted, Abs format (unit mm)*
G04 Created by KiCad (PCBNEW 6.0.2+dfsg-1) date 2022-08-31 22:25:43*
%MOMM*%
%LPD*%
G01*
G04 APERTURE LIST*
%ADD10C,3.500000*%
%ADD11C,0.650000*%
%ADD12O,2.100000X1.000000*%
%ADD13O,1.600000X1.000000*%
%ADD14R,1.350000X1.350000*%
%ADD15O,1.350000X1.350000*%
%ADD16C,6.400000*%
%ADD17C,0.988060*%
%ADD18C,0.985520*%
%ADD19C,0.784860*%
%ADD20C,0.700000*%
%ADD21R,1.400000X1.050000*%
G04 APERTURE END LIST*
D10*
X96750000Y-58000000D03*
X81250000Y-58000000D03*
X96750000Y-77000000D03*
X81250000Y-77000000D03*
D11*
X55555000Y-53110000D03*
X55555000Y-58890000D03*
D12*
X56085000Y-51680000D03*
D13*
X51905000Y-60320000D03*
X51905000Y-51680000D03*
D12*
X56085000Y-60320000D03*
D11*
X55555000Y-65960000D03*
X55555000Y-71740000D03*
D12*
X56085000Y-64530000D03*
D13*
X51905000Y-73170000D03*
X51905000Y-64530000D03*
D12*
X56085000Y-73170000D03*
D14*
X52600000Y-76150000D03*
D15*
X52600000Y-78150000D03*
X52600000Y-80150000D03*
X52600000Y-82150000D03*
D14*
X60000000Y-52400000D03*
D15*
X62000000Y-52400000D03*
X64000000Y-52400000D03*
X66000000Y-52400000D03*
X68000000Y-52400000D03*
X70000000Y-52400000D03*
X72000000Y-52400000D03*
X74000000Y-52400000D03*
D16*
X86500000Y-67500000D03*
D17*
X76800000Y-56640000D03*
D18*
X77816000Y-51560000D03*
X75784000Y-51560000D03*
D19*
X76165000Y-55370000D03*
X77435000Y-55370000D03*
X76165000Y-54100000D03*
X77435000Y-54100000D03*
X76165000Y-52830000D03*
X77435000Y-52830000D03*
D20*
X81075000Y-51250000D03*
X81075000Y-53050000D03*
D21*
X79275000Y-52870000D03*
X82875000Y-52870000D03*
X79275000Y-51430000D03*
X82875000Y-51430000D03*
M02*
