G04 #@! TF.GenerationSoftware,KiCad,Pcbnew,6.0.2+dfsg-1*
G04 #@! TF.CreationDate,2022-08-31T22:25:43-07:00*
G04 #@! TF.ProjectId,OPS,4f50532e-6b69-4636-9164-5f7063625858,rev?*
G04 #@! TF.SameCoordinates,Original*
G04 #@! TF.FileFunction,Soldermask,Top*
G04 #@! TF.FilePolarity,Negative*
%FSLAX46Y46*%
G04 Gerber Fmt 4.6, Leading zero omitted, Abs format (unit mm)*
G04 Created by KiCad (PCBNEW 6.0.2+dfsg-1) date 2022-08-31 22:25:43*
%MOMM*%
%LPD*%
G01*
G04 APERTURE LIST*
G04 Aperture macros list*
%AMRoundRect*
0 Rectangle with rounded corners*
0 $1 Rounding radius*
0 $2 $3 $4 $5 $6 $7 $8 $9 X,Y pos of 4 corners*
0 Add a 4 corners polygon primitive as box body*
4,1,4,$2,$3,$4,$5,$6,$7,$8,$9,$2,$3,0*
0 Add four circle primitives for the rounded corners*
1,1,$1+$1,$2,$3*
1,1,$1+$1,$4,$5*
1,1,$1+$1,$6,$7*
1,1,$1+$1,$8,$9*
0 Add four rect primitives between the rounded corners*
20,1,$1+$1,$2,$3,$4,$5,0*
20,1,$1+$1,$4,$5,$6,$7,0*
20,1,$1+$1,$6,$7,$8,$9,0*
20,1,$1+$1,$8,$9,$2,$3,0*%
%AMOutline4P*
0 Free polygon, 4 corners , with rotation*
0 The origin of the aperture is its center*
0 number of corners: always 4*
0 $1 to $8 corner X, Y*
0 $9 Rotation angle, in degrees counterclockwise*
0 create outline with 4 corners*
4,1,4,$1,$2,$3,$4,$5,$6,$7,$8,$1,$2,$9*%
G04 Aperture macros list end*
%ADD10R,2.285000X3.430000*%
%ADD11R,2.285000X2.285000*%
%ADD12C,3.500000*%
%ADD13C,0.650000*%
%ADD14R,1.450000X0.600000*%
%ADD15R,1.450000X0.300000*%
%ADD16O,2.100000X1.000000*%
%ADD17O,1.600000X1.000000*%
%ADD18R,2.600000X1.000000*%
%ADD19R,1.300000X0.700000*%
%ADD20R,1.000000X2.600000*%
%ADD21R,0.450000X0.600000*%
%ADD22R,0.600000X0.500000*%
%ADD23R,0.500000X0.600000*%
%ADD24R,0.600000X0.900000*%
%ADD25R,0.900000X0.600000*%
%ADD26R,1.200000X0.900000*%
%ADD27R,0.800000X0.900000*%
%ADD28R,0.900000X0.800000*%
%ADD29RoundRect,0.062500X-0.350000X-0.062500X0.350000X-0.062500X0.350000X0.062500X-0.350000X0.062500X0*%
%ADD30RoundRect,0.062500X-0.062500X-0.350000X0.062500X-0.350000X0.062500X0.350000X-0.062500X0.350000X0*%
%ADD31RoundRect,0.250001X-1.099999X-1.099999X1.099999X-1.099999X1.099999X1.099999X-1.099999X1.099999X0*%
%ADD32R,1.500000X1.000000*%
%ADD33R,1.800000X1.000000*%
%ADD34R,1.840000X2.200000*%
%ADD35Outline4P,-1.100000X-0.425000X1.100000X-0.425000X0.500000X0.425000X-0.500000X0.425000X90.000000*%
%ADD36Outline4P,-1.100000X-0.500000X1.100000X-0.500000X0.400000X0.500000X-0.400000X0.500000X270.000000*%
%ADD37RoundRect,0.075000X-0.662500X-0.075000X0.662500X-0.075000X0.662500X0.075000X-0.662500X0.075000X0*%
%ADD38RoundRect,0.075000X-0.075000X-0.662500X0.075000X-0.662500X0.075000X0.662500X-0.075000X0.662500X0*%
%ADD39R,0.800000X0.250000*%
%ADD40R,0.700000X0.250000*%
%ADD41R,0.250000X0.700000*%
%ADD42R,0.250000X1.200000*%
%ADD43R,1.060000X0.650000*%
%ADD44RoundRect,0.218750X-0.218750X-0.256250X0.218750X-0.256250X0.218750X0.256250X-0.218750X0.256250X0*%
%ADD45RoundRect,0.218750X0.218750X0.256250X-0.218750X0.256250X-0.218750X-0.256250X0.218750X-0.256250X0*%
%ADD46R,1.350000X1.350000*%
%ADD47O,1.350000X1.350000*%
%ADD48R,1.410000X0.600000*%
%ADD49R,0.430000X1.080000*%
%ADD50C,6.400000*%
%ADD51R,0.600000X0.450000*%
%ADD52C,0.988060*%
%ADD53C,0.985520*%
%ADD54C,0.700000*%
G04 APERTURE END LIST*
D10*
X62947500Y-72900000D03*
X69052500Y-72900000D03*
D11*
X66000000Y-75952500D03*
X66000000Y-69847500D03*
D12*
X96750000Y-58000000D03*
X81250000Y-58000000D03*
X96750000Y-77000000D03*
X81250000Y-77000000D03*
D13*
X55555000Y-53110000D03*
X55555000Y-58890000D03*
D14*
X57000000Y-52800000D03*
X57000000Y-53600000D03*
D15*
X57000000Y-54750000D03*
X57000000Y-55750000D03*
X57000000Y-56250000D03*
X57000000Y-57250000D03*
D14*
X57000000Y-53600000D03*
X57000000Y-52800000D03*
X57000000Y-59200000D03*
X57000000Y-58400000D03*
D15*
X57000000Y-57750000D03*
X57000000Y-56750000D03*
X57000000Y-55250000D03*
X57000000Y-54250000D03*
D14*
X57000000Y-58400000D03*
X57000000Y-59200000D03*
D16*
X56085000Y-51680000D03*
D17*
X51905000Y-60320000D03*
X51905000Y-51680000D03*
D16*
X56085000Y-60320000D03*
D13*
X55555000Y-65960000D03*
X55555000Y-71740000D03*
D14*
X57000000Y-65650000D03*
X57000000Y-66450000D03*
D15*
X57000000Y-67600000D03*
X57000000Y-68600000D03*
X57000000Y-69100000D03*
X57000000Y-70100000D03*
D14*
X57000000Y-66450000D03*
X57000000Y-65650000D03*
X57000000Y-72050000D03*
X57000000Y-71250000D03*
D15*
X57000000Y-70600000D03*
X57000000Y-69600000D03*
X57000000Y-68100000D03*
X57000000Y-67100000D03*
D14*
X57000000Y-71250000D03*
X57000000Y-72050000D03*
D16*
X56085000Y-64530000D03*
D17*
X51905000Y-73170000D03*
X51905000Y-64530000D03*
D16*
X56085000Y-73170000D03*
D18*
X55150000Y-77500000D03*
X55150000Y-80400000D03*
X58050000Y-77500000D03*
X58050000Y-80400000D03*
X60950000Y-77500000D03*
X60950000Y-80400000D03*
X74200000Y-78550000D03*
X74200000Y-81450000D03*
D19*
X93250000Y-69050000D03*
X93250000Y-70950000D03*
D18*
X71200000Y-78550000D03*
X71200000Y-81450000D03*
D20*
X74050000Y-76400000D03*
X76950000Y-76400000D03*
X74050000Y-73400000D03*
X76950000Y-73400000D03*
D21*
X58500000Y-60850000D03*
X58500000Y-62950000D03*
D22*
X62700000Y-63088750D03*
X62700000Y-62148750D03*
X61000000Y-63088750D03*
X61000000Y-62148750D03*
X59850000Y-63520000D03*
X59850000Y-62580000D03*
X61850000Y-63088750D03*
X61850000Y-62148750D03*
X59850000Y-61795000D03*
X59850000Y-60855000D03*
D23*
X63745000Y-56200000D03*
X62805000Y-56200000D03*
D22*
X65550000Y-64280000D03*
X65550000Y-65220000D03*
D23*
X63670000Y-82500000D03*
X62730000Y-82500000D03*
X68330000Y-81700000D03*
X69270000Y-81700000D03*
D24*
X63950000Y-77900000D03*
X65450000Y-77900000D03*
D25*
X68700000Y-79250000D03*
X68700000Y-80750000D03*
D22*
X69100000Y-83470000D03*
X69100000Y-82530000D03*
X75600000Y-57780000D03*
X75600000Y-58720000D03*
X66450000Y-64830000D03*
X66450000Y-65770000D03*
D23*
X64980000Y-57050000D03*
X65920000Y-57050000D03*
X67030000Y-55200000D03*
X67970000Y-55200000D03*
D22*
X73650000Y-65920000D03*
X73650000Y-64980000D03*
D26*
X95250000Y-67600000D03*
X95250000Y-70900000D03*
D27*
X82288827Y-68200000D03*
X80388827Y-68200000D03*
X81338827Y-70200000D03*
D28*
X79000000Y-70950000D03*
X79000000Y-69050000D03*
X77000000Y-70000000D03*
D22*
X58350000Y-52305000D03*
X58350000Y-53245000D03*
D23*
X58880000Y-57350000D03*
X59820000Y-57350000D03*
X64730000Y-68050000D03*
X65670000Y-68050000D03*
D22*
X59450000Y-69520000D03*
X59450000Y-68580000D03*
D23*
X69670000Y-55200000D03*
X68730000Y-55200000D03*
D22*
X70800000Y-67870000D03*
X70800000Y-66930000D03*
X71650000Y-67870000D03*
X71650000Y-66930000D03*
X74550000Y-65270000D03*
X74550000Y-64330000D03*
D23*
X77070000Y-60900000D03*
X76130000Y-60900000D03*
X62730000Y-81650000D03*
X63670000Y-81650000D03*
D22*
X65550000Y-66970000D03*
X65550000Y-66030000D03*
D23*
X63530000Y-63050000D03*
X64470000Y-63050000D03*
X65420000Y-83350000D03*
X64480000Y-83350000D03*
X63670000Y-83350000D03*
X62730000Y-83350000D03*
D22*
X68250000Y-83470000D03*
X68250000Y-82530000D03*
D23*
X81380000Y-67050000D03*
X82320000Y-67050000D03*
X72280000Y-70950000D03*
X73220000Y-70950000D03*
X76530000Y-67750000D03*
X77470000Y-67750000D03*
X71130000Y-69100000D03*
X72070000Y-69100000D03*
D19*
X79000000Y-67850000D03*
X79000000Y-65950000D03*
D23*
X76530000Y-66750000D03*
X77470000Y-66750000D03*
D22*
X92000000Y-68730000D03*
X92000000Y-69670000D03*
X92000000Y-70430000D03*
X92000000Y-71370000D03*
X96650000Y-65270000D03*
X96650000Y-64330000D03*
X97500000Y-65270000D03*
X97500000Y-64330000D03*
D29*
X60187500Y-64768750D03*
X60187500Y-65268750D03*
X60187500Y-65768750D03*
X60187500Y-66268750D03*
X60187500Y-66768750D03*
X60187500Y-67268750D03*
D30*
X60900000Y-67981250D03*
X61400000Y-67981250D03*
X61900000Y-67981250D03*
X62400000Y-67981250D03*
X62900000Y-67981250D03*
X63400000Y-67981250D03*
D29*
X64112500Y-67268750D03*
X64112500Y-66768750D03*
X64112500Y-66268750D03*
X64112500Y-65768750D03*
X64112500Y-65268750D03*
X64112500Y-64768750D03*
D30*
X63400000Y-64056250D03*
X62900000Y-64056250D03*
X62400000Y-64056250D03*
X61900000Y-64056250D03*
X61400000Y-64056250D03*
X60900000Y-64056250D03*
D31*
X62150000Y-66018750D03*
D32*
X63603800Y-60668750D03*
D33*
X63457300Y-59168750D03*
D34*
X60790300Y-59168750D03*
D35*
X59456800Y-59168750D03*
D36*
X62200000Y-59168750D03*
D32*
X63603800Y-57668750D03*
D37*
X65837500Y-58000000D03*
X65837500Y-58500000D03*
X65837500Y-59000000D03*
X65837500Y-59500000D03*
X65837500Y-60000000D03*
X65837500Y-60500000D03*
X65837500Y-61000000D03*
X65837500Y-61500000D03*
X65837500Y-62000000D03*
X65837500Y-62500000D03*
X65837500Y-63000000D03*
X65837500Y-63500000D03*
D38*
X67250000Y-64912500D03*
X67750000Y-64912500D03*
X68250000Y-64912500D03*
X68750000Y-64912500D03*
X69250000Y-64912500D03*
X69750000Y-64912500D03*
X70250000Y-64912500D03*
X70750000Y-64912500D03*
X71250000Y-64912500D03*
X71750000Y-64912500D03*
X72250000Y-64912500D03*
X72750000Y-64912500D03*
D37*
X74162500Y-63500000D03*
X74162500Y-63000000D03*
X74162500Y-62500000D03*
X74162500Y-62000000D03*
X74162500Y-61500000D03*
X74162500Y-61000000D03*
X74162500Y-60500000D03*
X74162500Y-60000000D03*
X74162500Y-59500000D03*
X74162500Y-59000000D03*
X74162500Y-58500000D03*
X74162500Y-58000000D03*
D38*
X72750000Y-56587500D03*
X72250000Y-56587500D03*
X71750000Y-56587500D03*
X71250000Y-56587500D03*
X70750000Y-56587500D03*
X70250000Y-56587500D03*
X69750000Y-56587500D03*
X69250000Y-56587500D03*
X68750000Y-56587500D03*
X68250000Y-56587500D03*
X67750000Y-56587500D03*
X67250000Y-56587500D03*
D39*
X64600000Y-79800000D03*
D40*
X64550000Y-80300000D03*
X64550000Y-80800000D03*
X64550000Y-81300000D03*
D41*
X65250000Y-82000000D03*
D42*
X65750000Y-81750000D03*
X66250000Y-81750000D03*
D41*
X66700000Y-82000000D03*
D40*
X67450000Y-81300000D03*
X67450000Y-80800000D03*
X67450000Y-80300000D03*
X67450000Y-79800000D03*
D41*
X66750000Y-79100000D03*
D42*
X66250000Y-79350000D03*
X65750000Y-79350000D03*
D41*
X65250000Y-79100000D03*
D43*
X59325000Y-54125000D03*
X59325000Y-55075000D03*
X59325000Y-56025000D03*
X61525000Y-56025000D03*
X61525000Y-55075000D03*
X61525000Y-54125000D03*
X73175000Y-67200000D03*
X73175000Y-68150000D03*
X73175000Y-69100000D03*
X75375000Y-69100000D03*
X75375000Y-67200000D03*
D22*
X67400000Y-66930000D03*
X67400000Y-67870000D03*
X93100000Y-68170000D03*
X93100000Y-67230000D03*
X91350000Y-67970000D03*
X91350000Y-67030000D03*
D44*
X86962500Y-51750000D03*
X88537500Y-51750000D03*
D45*
X91537500Y-51750000D03*
X89962500Y-51750000D03*
D46*
X52600000Y-76150000D03*
D47*
X52600000Y-78150000D03*
X52600000Y-80150000D03*
X52600000Y-82150000D03*
D46*
X60000000Y-52400000D03*
D47*
X62000000Y-52400000D03*
X64000000Y-52400000D03*
X66000000Y-52400000D03*
X68000000Y-52400000D03*
X70000000Y-52400000D03*
X72000000Y-52400000D03*
X74000000Y-52400000D03*
D22*
X82000000Y-51280000D03*
X82000000Y-52220000D03*
X96500000Y-51280000D03*
X96500000Y-52220000D03*
D23*
X76720000Y-60050000D03*
X75780000Y-60050000D03*
X76220000Y-66000000D03*
X75280000Y-66000000D03*
X95190000Y-65750000D03*
X94250000Y-65750000D03*
D22*
X92250000Y-67970000D03*
X92250000Y-67030000D03*
X90500000Y-67970000D03*
X90500000Y-67030000D03*
D23*
X89620000Y-63650000D03*
X88680000Y-63650000D03*
D28*
X76000000Y-63050000D03*
X76000000Y-64950000D03*
X78000000Y-64000000D03*
D43*
X90900000Y-64050000D03*
X90900000Y-65000000D03*
X90900000Y-65950000D03*
X93100000Y-65950000D03*
X93100000Y-64050000D03*
D48*
X97490000Y-68900000D03*
D49*
X97000000Y-67500000D03*
D48*
X97490000Y-66100000D03*
D50*
X86500000Y-67500000D03*
D23*
X76530000Y-61750000D03*
X77470000Y-61750000D03*
D22*
X94250000Y-63780000D03*
X94250000Y-64720000D03*
X69950000Y-66930000D03*
X69950000Y-67870000D03*
X69100000Y-66930000D03*
X69100000Y-67870000D03*
X68250000Y-66930000D03*
X68250000Y-67870000D03*
X66550000Y-66930000D03*
X66550000Y-67870000D03*
D25*
X63000000Y-79050000D03*
X63000000Y-80550000D03*
D24*
X68050000Y-77900000D03*
X66550000Y-77900000D03*
D23*
X64470000Y-62150000D03*
X63530000Y-62150000D03*
X80030000Y-71300000D03*
X80970000Y-71300000D03*
X70530000Y-70350000D03*
X71470000Y-70350000D03*
D21*
X71450000Y-74100000D03*
X71450000Y-72000000D03*
D51*
X60950000Y-70950000D03*
X58850000Y-70950000D03*
D52*
X76800000Y-56640000D03*
D53*
X77816000Y-51560000D03*
X75784000Y-51560000D03*
D54*
X81075000Y-51250000D03*
X81075000Y-53050000D03*
M02*
