G04 #@! TF.GenerationSoftware,KiCad,Pcbnew,6.0.2+dfsg-1*
G04 #@! TF.CreationDate,2022-08-31T22:25:42-07:00*
G04 #@! TF.ProjectId,OPS,4f50532e-6b69-4636-9164-5f7063625858,rev?*
G04 #@! TF.SameCoordinates,Original*
G04 #@! TF.FileFunction,Copper,L2,Bot*
G04 #@! TF.FilePolarity,Positive*
%FSLAX46Y46*%
G04 Gerber Fmt 4.6, Leading zero omitted, Abs format (unit mm)*
G04 Created by KiCad (PCBNEW 6.0.2+dfsg-1) date 2022-08-31 22:25:42*
%MOMM*%
%LPD*%
G01*
G04 APERTURE LIST*
G04 #@! TA.AperFunction,ComponentPad*
%ADD10C,3.500000*%
G04 #@! TD*
G04 #@! TA.AperFunction,ComponentPad*
%ADD11O,2.100000X1.000000*%
G04 #@! TD*
G04 #@! TA.AperFunction,ComponentPad*
%ADD12O,1.600000X1.000000*%
G04 #@! TD*
G04 #@! TA.AperFunction,ComponentPad*
%ADD13R,1.350000X1.350000*%
G04 #@! TD*
G04 #@! TA.AperFunction,ComponentPad*
%ADD14O,1.350000X1.350000*%
G04 #@! TD*
G04 #@! TA.AperFunction,ComponentPad*
%ADD15C,6.400000*%
G04 #@! TD*
G04 #@! TA.AperFunction,ConnectorPad*
%ADD16C,0.784860*%
G04 #@! TD*
G04 #@! TA.AperFunction,SMDPad,CuDef*
%ADD17R,1.400000X1.050000*%
G04 #@! TD*
G04 #@! TA.AperFunction,ViaPad*
%ADD18C,0.600000*%
G04 #@! TD*
G04 #@! TA.AperFunction,Conductor*
%ADD19C,0.150000*%
G04 #@! TD*
G04 #@! TA.AperFunction,Conductor*
%ADD20C,0.200000*%
G04 #@! TD*
G04 #@! TA.AperFunction,Conductor*
%ADD21C,0.300000*%
G04 #@! TD*
G04 APERTURE END LIST*
D10*
X96750000Y-58000000D03*
X81250000Y-58000000D03*
X96750000Y-77000000D03*
X81250000Y-77000000D03*
D11*
X56085000Y-51680000D03*
D12*
X51905000Y-60320000D03*
X51905000Y-51680000D03*
D11*
X56085000Y-60320000D03*
X56085000Y-64530000D03*
D12*
X51905000Y-73170000D03*
X51905000Y-64530000D03*
D11*
X56085000Y-73170000D03*
D13*
X52600000Y-76150000D03*
D14*
X52600000Y-78150000D03*
X52600000Y-80150000D03*
X52600000Y-82150000D03*
D13*
X60000000Y-52400000D03*
D14*
X62000000Y-52400000D03*
X64000000Y-52400000D03*
X66000000Y-52400000D03*
X68000000Y-52400000D03*
X70000000Y-52400000D03*
X72000000Y-52400000D03*
X74000000Y-52400000D03*
D15*
X86500000Y-67500000D03*
D16*
X76165000Y-55370000D03*
X77435000Y-55370000D03*
X76165000Y-54100000D03*
X77435000Y-54100000D03*
X76165000Y-52830000D03*
X77435000Y-52830000D03*
D17*
X79275000Y-52870000D03*
X82875000Y-52870000D03*
X79275000Y-51430000D03*
X82875000Y-51430000D03*
D18*
X61925000Y-60750000D03*
X59950000Y-69500000D03*
X64000000Y-68700000D03*
X63115625Y-66934375D03*
X59000000Y-63600000D03*
X65670000Y-67480000D03*
X66550000Y-68700000D03*
X66750000Y-70500000D03*
X65250000Y-70500000D03*
X66750000Y-76750000D03*
X65250000Y-76750000D03*
X66750000Y-75250000D03*
X65250000Y-75250000D03*
X80100000Y-69100000D03*
X67600000Y-68700000D03*
X54600000Y-63900000D03*
X72600000Y-57900000D03*
X69900000Y-83300000D03*
X67620000Y-61300000D03*
X77650000Y-62550000D03*
X54600000Y-65550000D03*
X77600000Y-60100000D03*
X74800000Y-57300000D03*
X63000000Y-51500000D03*
X75300000Y-55800000D03*
X63400000Y-80300000D03*
X93600000Y-66800000D03*
X60500000Y-53700000D03*
X53400000Y-56800000D03*
X69900000Y-82500000D03*
X53000000Y-63900000D03*
X93600000Y-64802002D03*
X76800000Y-52000000D03*
X53000000Y-59300000D03*
X81725000Y-53675000D03*
X65000000Y-55300000D03*
X67000000Y-51500000D03*
X63100000Y-65118750D03*
X90775000Y-53725000D03*
X72260000Y-63740000D03*
X53000000Y-65550000D03*
X60200000Y-55200000D03*
X54600000Y-59300000D03*
X76000000Y-59200000D03*
X73000000Y-51600000D03*
X63300000Y-62400000D03*
X74300000Y-68400000D03*
X71000000Y-51600000D03*
X73500000Y-64400000D03*
X75900000Y-58500000D03*
X53000000Y-61500000D03*
X54600000Y-61500000D03*
X65000000Y-51500000D03*
X69950000Y-62500000D03*
X77600000Y-65100000D03*
X70280000Y-66130000D03*
X61350000Y-66918750D03*
X77600000Y-59300000D03*
X55200000Y-55100000D03*
X62750000Y-79800000D03*
X67190000Y-60300000D03*
X68250000Y-62400000D03*
X54700000Y-58400000D03*
X66100000Y-56200000D03*
X74300000Y-69050000D03*
X65688349Y-65138154D03*
X61300000Y-65118750D03*
X62900000Y-54400000D03*
X62200000Y-81700000D03*
X60400000Y-78200000D03*
X75500000Y-56600000D03*
X93100000Y-63200000D03*
X96750000Y-68875000D03*
X61850000Y-63050000D03*
X77450000Y-58450000D03*
X86557609Y-54252010D03*
X67500000Y-82800000D03*
X66688265Y-83641179D03*
X67125925Y-62425925D03*
X67640000Y-62940000D03*
X91160000Y-68930000D03*
X55200000Y-68325000D03*
X72500000Y-59325000D03*
X55750000Y-69800000D03*
X58212500Y-55462500D03*
X55150000Y-56925000D03*
X59300000Y-54100000D03*
X58250000Y-56750000D03*
X59350000Y-56050000D03*
X55150000Y-56075000D03*
X72500000Y-60175000D03*
X55200000Y-69175000D03*
X73225000Y-56150000D03*
X73450000Y-57125000D03*
X69450000Y-54940000D03*
X60900000Y-69168750D03*
X65024786Y-82605297D03*
X70976894Y-66402191D03*
X71150025Y-58389975D03*
X61700000Y-69168750D03*
X71885350Y-58429127D03*
X66100000Y-83100000D03*
X71781486Y-66137782D03*
X63995997Y-64123797D03*
X71540000Y-62090000D03*
X67200000Y-82100000D03*
X72767475Y-62807525D03*
X76990000Y-62990000D03*
X72920708Y-61440757D03*
X72949060Y-55394830D03*
X74050000Y-54600000D03*
X72211023Y-55005393D03*
X74400000Y-53875000D03*
X67400000Y-66475000D03*
X68400000Y-68600000D03*
X75125000Y-53375000D03*
X71350651Y-54939399D03*
X71560000Y-61290000D03*
X70170846Y-61302657D03*
X70412010Y-58369172D03*
X69800000Y-58960000D03*
X71730000Y-60570000D03*
X69800000Y-60620000D03*
X69400000Y-58200000D03*
X68600000Y-58200000D03*
X67800000Y-58200000D03*
X67471134Y-63647128D03*
X82048860Y-65841090D03*
D19*
X79275000Y-51430000D02*
X79100000Y-51430000D01*
X79100000Y-51430000D02*
X78462719Y-50792719D01*
X78462719Y-50792719D02*
X70117281Y-50792719D01*
X70117281Y-50792719D02*
X68990000Y-51920000D01*
X68990000Y-51920000D02*
X68990000Y-54480000D01*
X68990000Y-54480000D02*
X69450000Y-54940000D01*
D20*
X59300000Y-54100000D02*
X59995001Y-54100000D01*
X59995001Y-54100000D02*
X60920001Y-55025000D01*
X68075000Y-59525000D02*
X72300000Y-59525000D01*
X72300000Y-59525000D02*
X72500000Y-59325000D01*
X60920001Y-55025000D02*
X63575000Y-55025000D01*
X63575000Y-55025000D02*
X68075000Y-59525000D01*
X59350000Y-56050000D02*
X60280000Y-56050000D01*
X60280000Y-56050000D02*
X60855000Y-55475000D01*
X60855000Y-55475000D02*
X63325000Y-55475000D01*
X63325000Y-55475000D02*
X67850000Y-60000000D01*
X67850000Y-60000000D02*
X72325000Y-60000000D01*
X72325000Y-60000000D02*
X72500000Y-60175000D01*
D21*
X77100000Y-57800000D02*
X77567520Y-57800000D01*
X77567520Y-57800000D02*
X81692520Y-53675000D01*
X81692520Y-53675000D02*
X81725000Y-53675000D01*
D20*
X77450000Y-58450000D02*
X81647990Y-54252010D01*
X81647990Y-54252010D02*
X86557609Y-54252010D01*
D19*
X75500000Y-56600000D02*
X76165000Y-55935000D01*
X76165000Y-55935000D02*
X76165000Y-55370000D01*
X76165000Y-55370000D02*
X76265000Y-55370000D01*
X75500000Y-56600000D02*
X76308551Y-57408551D01*
X76308551Y-57408551D02*
X77141449Y-57408551D01*
X77141449Y-57408551D02*
X78300000Y-56250000D01*
X78300000Y-56250000D02*
X78300000Y-55625000D01*
X78300000Y-55625000D02*
X78300000Y-53820000D01*
X78300000Y-53820000D02*
X79260000Y-52860000D01*
X79275000Y-52870000D02*
X80150000Y-52870000D01*
X81555000Y-52400000D02*
X82025000Y-52870000D01*
X80150000Y-52870000D02*
X80620000Y-52400000D01*
X80620000Y-52400000D02*
X81555000Y-52400000D01*
X82025000Y-52870000D02*
X82875000Y-52870000D01*
X82875000Y-51430000D02*
X82025000Y-51430000D01*
X82025000Y-51430000D02*
X81555000Y-51900000D01*
X81555000Y-51900000D02*
X80595000Y-51900000D01*
X80595000Y-51900000D02*
X80125000Y-51430000D01*
X80125000Y-51430000D02*
X79275000Y-51430000D01*
X61996098Y-69168750D02*
X61700000Y-69168750D01*
X71781486Y-66137782D02*
X71781486Y-66426764D01*
X71781486Y-66426764D02*
X68581240Y-69627010D01*
X68581240Y-69627010D02*
X62454358Y-69627010D01*
X62454358Y-69627010D02*
X61996098Y-69168750D01*
X72878638Y-66071362D02*
X72878638Y-62918688D01*
X61550000Y-79466104D02*
X61553040Y-79463064D01*
X72025000Y-66950000D02*
X72767475Y-66182525D01*
X68675000Y-69925000D02*
X71650000Y-66950000D01*
X72878638Y-62918688D02*
X72767475Y-62807525D01*
X61553040Y-79463064D02*
X61553040Y-70650000D01*
X67200000Y-82100000D02*
X65900000Y-82100000D01*
X72767475Y-66182525D02*
X72878638Y-66071362D01*
X63841948Y-81758052D02*
X61550000Y-79466104D01*
X61553040Y-70650000D02*
X62278040Y-69925000D01*
X65558052Y-81758052D02*
X63841948Y-81758052D01*
X65900000Y-82100000D02*
X65558052Y-81758052D01*
X71650000Y-66950000D02*
X72025000Y-66950000D01*
X62278040Y-69925000D02*
X68675000Y-69925000D01*
X70976894Y-66402191D02*
X70676895Y-66702190D01*
X70676895Y-66702190D02*
X70676895Y-67139603D01*
X70676895Y-67139603D02*
X68466498Y-69350000D01*
X68466498Y-69350000D02*
X62676494Y-69350000D01*
X61926494Y-68600000D02*
X61468750Y-68600000D01*
X62676494Y-69350000D02*
X61926494Y-68600000D01*
X61468750Y-68600000D02*
X60900000Y-69168750D01*
X61550000Y-66150000D02*
X64340000Y-66150000D01*
X59000000Y-63600000D02*
X61550000Y-66150000D01*
X64340000Y-66150000D02*
X65670000Y-67480000D01*
X61925000Y-60750000D02*
X61850000Y-60825000D01*
X61850000Y-60825000D02*
X61850000Y-63050000D01*
X67600000Y-68700000D02*
X66800000Y-67900000D01*
X66800000Y-67900000D02*
X66800000Y-62751850D01*
X66800000Y-62751850D02*
X67125925Y-62425925D01*
X63995997Y-64123797D02*
X64401203Y-64123797D01*
X64401203Y-64123797D02*
X64625000Y-63900000D01*
X62200000Y-81700000D02*
X62200000Y-81352351D01*
X62200000Y-81352351D02*
X60670590Y-79822941D01*
X60670590Y-79822941D02*
X60670590Y-78470590D01*
X60670590Y-78470590D02*
X60400000Y-78200000D01*
X61272989Y-72327011D02*
X61272989Y-79580151D01*
X61272989Y-79580151D02*
X63742838Y-82050000D01*
X63742838Y-82050000D02*
X65308250Y-82050000D01*
X65024786Y-82605297D02*
X64819489Y-82400000D01*
X63691016Y-82400000D02*
X60995978Y-79704962D01*
X64819489Y-82400000D02*
X63691016Y-82400000D01*
X60995978Y-79704962D02*
X60995978Y-69264728D01*
X60995978Y-69264728D02*
X60900000Y-69168750D01*
X61700000Y-69168750D02*
X61276520Y-69592230D01*
X61276520Y-69592230D02*
X61276520Y-72327011D01*
D21*
X77550000Y-69100000D02*
X77500000Y-69050000D01*
X80100000Y-69100000D02*
X77550000Y-69100000D01*
D19*
X68400000Y-68600000D02*
X67575000Y-67775000D01*
X67575000Y-67775000D02*
X67575000Y-66650000D01*
X67575000Y-66650000D02*
X67400000Y-66475000D01*
D21*
X93899999Y-64502003D02*
X93899999Y-56849999D01*
X93899999Y-56849999D02*
X91074999Y-54024999D01*
X90725000Y-53675000D02*
X90775000Y-53725000D01*
X93600000Y-66800000D02*
X93600000Y-64800000D01*
X91074999Y-54024999D02*
X90775000Y-53725000D01*
X93600000Y-64800000D02*
X93600000Y-64802002D01*
X81725000Y-53675000D02*
X90725000Y-53675000D01*
X93600000Y-64802002D02*
X93899999Y-64502003D01*
D19*
X93100000Y-63200000D02*
X93080000Y-63220000D01*
D20*
X93100000Y-63200000D02*
X93100000Y-56850000D01*
D19*
X94715000Y-68875000D02*
X96325736Y-68875000D01*
X93080000Y-63220000D02*
X93080000Y-67240000D01*
D20*
X93100000Y-56850000D02*
X90502010Y-54252010D01*
X86981873Y-54252010D02*
X86557609Y-54252010D01*
X90502010Y-54252010D02*
X86981873Y-54252010D01*
D19*
X96325736Y-68875000D02*
X96750000Y-68875000D01*
X93080000Y-67240000D02*
X94715000Y-68875000D01*
X67500000Y-82829444D02*
X67500000Y-82800000D01*
X66688265Y-83641179D02*
X67500000Y-82829444D01*
X67640000Y-62940000D02*
X67860000Y-63160000D01*
X71262964Y-63160000D02*
X72452964Y-61970000D01*
X81520000Y-65660000D02*
X83940000Y-63240000D01*
X72452964Y-61970000D02*
X73481752Y-61970000D01*
X67860000Y-63160000D02*
X71262964Y-63160000D01*
X88690000Y-63240000D02*
X91160000Y-65710000D01*
X73481752Y-61970000D02*
X77171752Y-65660000D01*
X91160000Y-68505736D02*
X91160000Y-68930000D01*
X83940000Y-63240000D02*
X88690000Y-63240000D01*
X77171752Y-65660000D02*
X81520000Y-65660000D01*
X91160000Y-65710000D02*
X91160000Y-68505736D01*
D20*
X55000000Y-68525000D02*
X55200000Y-68325000D01*
X55800000Y-69750000D02*
X55800000Y-68700000D01*
X55800000Y-68700000D02*
X55425000Y-68325000D01*
X54936397Y-56925000D02*
X54025000Y-57836397D01*
X54025000Y-68006800D02*
X54543200Y-68525000D01*
X58250000Y-55500000D02*
X58212500Y-55462500D01*
X58250000Y-56750000D02*
X58250000Y-55500000D01*
X55425000Y-68325000D02*
X55200000Y-68325000D01*
X55150000Y-56925000D02*
X54936397Y-56925000D01*
X54025000Y-57836397D02*
X54025000Y-68006800D01*
X55750000Y-69800000D02*
X55800000Y-69750000D01*
X54543200Y-68525000D02*
X55000000Y-68525000D01*
X55000000Y-68975000D02*
X55200000Y-69175000D01*
X53575000Y-68193200D02*
X54356800Y-68975000D01*
X54356800Y-68975000D02*
X55000000Y-68975000D01*
X55150000Y-56075000D02*
X53575000Y-57650000D01*
X53575000Y-57650000D02*
X53575000Y-68193200D01*
D19*
X76850000Y-53450000D02*
X75967964Y-53450000D01*
X75967964Y-53450000D02*
X73267964Y-56150000D01*
X73267964Y-56150000D02*
X73225000Y-56150000D01*
X77550000Y-54150000D02*
X76850000Y-53450000D01*
X73749999Y-56250001D02*
X73749999Y-56825001D01*
X75250000Y-54750000D02*
X73749999Y-56250001D01*
X76850000Y-54750000D02*
X75250000Y-54750000D01*
X77500000Y-55400000D02*
X76850000Y-54750000D01*
X73749999Y-56825001D02*
X73450000Y-57125000D01*
X70360000Y-57500000D02*
X71150025Y-58290025D01*
X71150025Y-58290025D02*
X71150025Y-58389975D01*
X72000000Y-52840000D02*
X70360000Y-54480000D01*
X70360000Y-54480000D02*
X70360000Y-57500000D01*
X72000000Y-52400000D02*
X72000000Y-52840000D01*
X65800001Y-82541751D02*
X65800001Y-82800001D01*
X71885350Y-58415350D02*
X71885350Y-58429127D01*
X71540000Y-54350000D02*
X71150000Y-54350000D01*
X65800001Y-82800001D02*
X66100000Y-83100000D01*
X65308250Y-82050000D02*
X65354125Y-82095875D01*
X71150000Y-54350000D02*
X70750000Y-54750000D01*
X70750000Y-54750000D02*
X70750000Y-57280000D01*
X65308250Y-82050000D02*
X65800001Y-82541751D01*
X70750000Y-57280000D02*
X71885350Y-58415350D01*
X73490000Y-52400000D02*
X71540000Y-54350000D01*
X74000000Y-52400000D02*
X73490000Y-52400000D01*
X64625000Y-63900000D02*
X66635000Y-61890000D01*
X71340000Y-61890000D02*
X71540000Y-62090000D01*
X66635000Y-61890000D02*
X71340000Y-61890000D01*
X75440757Y-61440757D02*
X72920708Y-61440757D01*
X76990000Y-62990000D02*
X75440757Y-61440757D01*
X72949060Y-55394830D02*
X73743890Y-54600000D01*
X73743890Y-54600000D02*
X74050000Y-54600000D01*
X73341416Y-53875000D02*
X74400000Y-53875000D01*
X72211023Y-55005393D02*
X73341416Y-53875000D01*
X74700736Y-53375000D02*
X74698735Y-53372999D01*
X71520601Y-54939399D02*
X71350651Y-54939399D01*
X74698735Y-53372999D02*
X73087001Y-53372999D01*
X73087001Y-53372999D02*
X71520601Y-54939399D01*
X75125000Y-53375000D02*
X74700736Y-53375000D01*
X70412010Y-58369172D02*
X70412010Y-58052010D01*
X71560000Y-61290000D02*
X70183503Y-61290000D01*
X70412010Y-58052010D02*
X70000000Y-57640000D01*
X70000000Y-57640000D02*
X70000000Y-53354594D01*
X70000000Y-53354594D02*
X70000000Y-52400000D01*
X70183503Y-61290000D02*
X70170846Y-61302657D01*
X71730000Y-60570000D02*
X69850000Y-60570000D01*
X68000000Y-56040000D02*
X68000000Y-52400000D01*
X69880000Y-58880000D02*
X69900000Y-58860000D01*
X69850000Y-60570000D02*
X69800000Y-60620000D01*
X69910000Y-58850000D02*
X69910000Y-57950000D01*
X69800000Y-58960000D02*
X69880000Y-58880000D01*
X69800000Y-58960000D02*
X69910000Y-58850000D01*
X69910000Y-57950000D02*
X68000000Y-56040000D01*
X69100001Y-57900001D02*
X69100001Y-57616497D01*
X69100001Y-57616497D02*
X64674999Y-53191495D01*
X69400000Y-58200000D02*
X69100001Y-57900001D01*
X64674999Y-53074999D02*
X64000000Y-52400000D01*
X64674999Y-53191495D02*
X64674999Y-53074999D01*
X68600000Y-58200000D02*
X68600000Y-57508248D01*
X64639741Y-53547989D02*
X63147989Y-53547989D01*
X62674999Y-53074999D02*
X62000000Y-52400000D01*
X68600000Y-57508248D02*
X64639741Y-53547989D01*
X63147989Y-53547989D02*
X62674999Y-53074999D01*
X67800000Y-57100000D02*
X64525000Y-53825000D01*
X64525000Y-53825000D02*
X61425000Y-53825000D01*
X61425000Y-53825000D02*
X60000000Y-52400000D01*
X67800000Y-58200000D02*
X67800000Y-57100000D01*
X71372038Y-63460000D02*
X72585027Y-62247011D01*
X81952939Y-65937011D02*
X82048860Y-65841090D01*
X67471134Y-63647128D02*
X67658262Y-63460000D01*
X77037011Y-65937011D02*
X81952939Y-65937011D01*
X73347011Y-62247011D02*
X77037011Y-65937011D01*
X67658262Y-63460000D02*
X71372038Y-63460000D01*
X72585027Y-62247011D02*
X73347011Y-62247011D01*
G04 #@! TA.AperFunction,Conductor*
G36*
X69713690Y-50718306D02*
G01*
X69731996Y-50762500D01*
X69713690Y-50806694D01*
X68818731Y-51701653D01*
X68809261Y-51709425D01*
X68796494Y-51717956D01*
X68791376Y-51721376D01*
X68787957Y-51726493D01*
X68787955Y-51726495D01*
X68776009Y-51744374D01*
X68776004Y-51744381D01*
X68767275Y-51757445D01*
X68767274Y-51757447D01*
X68740469Y-51797563D01*
X68700695Y-51824139D01*
X68653779Y-51814807D01*
X68642055Y-51804661D01*
X68591237Y-51748222D01*
X68589050Y-51745793D01*
X68440161Y-51637619D01*
X68272034Y-51562764D01*
X68268827Y-51562082D01*
X68268826Y-51562082D01*
X68095228Y-51525182D01*
X68095227Y-51525182D01*
X68092019Y-51524500D01*
X67907981Y-51524500D01*
X67904773Y-51525182D01*
X67904772Y-51525182D01*
X67731174Y-51562082D01*
X67731173Y-51562082D01*
X67727966Y-51562764D01*
X67559839Y-51637619D01*
X67410950Y-51745793D01*
X67287805Y-51882560D01*
X67245849Y-51955230D01*
X67206882Y-52022723D01*
X67195786Y-52041941D01*
X67170714Y-52119104D01*
X67144045Y-52201184D01*
X67138915Y-52216971D01*
X67119678Y-52400000D01*
X67138915Y-52583029D01*
X67195786Y-52758059D01*
X67197421Y-52760891D01*
X67197422Y-52760893D01*
X67220135Y-52800233D01*
X67287805Y-52917440D01*
X67410950Y-53054207D01*
X67559839Y-53162381D01*
X67687422Y-53219185D01*
X67720349Y-53253883D01*
X67724500Y-53276281D01*
X67724500Y-55700492D01*
X67706194Y-55744686D01*
X67662000Y-55762992D01*
X67617806Y-55744686D01*
X64971233Y-53098113D01*
X64954128Y-53066111D01*
X64952143Y-53056128D01*
X64948661Y-53038624D01*
X64944106Y-53015724D01*
X64935715Y-52973541D01*
X64935715Y-52973540D01*
X64934514Y-52967504D01*
X64930616Y-52961669D01*
X64898381Y-52913428D01*
X64898381Y-52913427D01*
X64888994Y-52899378D01*
X64888990Y-52899373D01*
X64877044Y-52881494D01*
X64877042Y-52881492D01*
X64873623Y-52876375D01*
X64861477Y-52868259D01*
X64855738Y-52864424D01*
X64846268Y-52856652D01*
X64816911Y-52827295D01*
X64798605Y-52783101D01*
X64803760Y-52758846D01*
X64804214Y-52758059D01*
X64827735Y-52685671D01*
X64860073Y-52586144D01*
X64860073Y-52586143D01*
X64861085Y-52583029D01*
X64880322Y-52400000D01*
X65119678Y-52400000D01*
X65138915Y-52583029D01*
X65195786Y-52758059D01*
X65197421Y-52760891D01*
X65197422Y-52760893D01*
X65220135Y-52800233D01*
X65287805Y-52917440D01*
X65410950Y-53054207D01*
X65559839Y-53162381D01*
X65727966Y-53237236D01*
X65731173Y-53237918D01*
X65731174Y-53237918D01*
X65904772Y-53274818D01*
X65907981Y-53275500D01*
X66092019Y-53275500D01*
X66095228Y-53274818D01*
X66268826Y-53237918D01*
X66268827Y-53237918D01*
X66272034Y-53237236D01*
X66440161Y-53162381D01*
X66589050Y-53054207D01*
X66712195Y-52917440D01*
X66779865Y-52800233D01*
X66802578Y-52760893D01*
X66802579Y-52760891D01*
X66804214Y-52758059D01*
X66861085Y-52583029D01*
X66880322Y-52400000D01*
X66861085Y-52216971D01*
X66855956Y-52201184D01*
X66829286Y-52119104D01*
X66804214Y-52041941D01*
X66793119Y-52022723D01*
X66754151Y-51955230D01*
X66712195Y-51882560D01*
X66589050Y-51745793D01*
X66440161Y-51637619D01*
X66272034Y-51562764D01*
X66268827Y-51562082D01*
X66268826Y-51562082D01*
X66095228Y-51525182D01*
X66095227Y-51525182D01*
X66092019Y-51524500D01*
X65907981Y-51524500D01*
X65904773Y-51525182D01*
X65904772Y-51525182D01*
X65731174Y-51562082D01*
X65731173Y-51562082D01*
X65727966Y-51562764D01*
X65559839Y-51637619D01*
X65410950Y-51745793D01*
X65287805Y-51882560D01*
X65245849Y-51955230D01*
X65206882Y-52022723D01*
X65195786Y-52041941D01*
X65170714Y-52119104D01*
X65144045Y-52201184D01*
X65138915Y-52216971D01*
X65119678Y-52400000D01*
X64880322Y-52400000D01*
X64861085Y-52216971D01*
X64855956Y-52201184D01*
X64829286Y-52119104D01*
X64804214Y-52041941D01*
X64793119Y-52022723D01*
X64754151Y-51955230D01*
X64712195Y-51882560D01*
X64589050Y-51745793D01*
X64440161Y-51637619D01*
X64272034Y-51562764D01*
X64268827Y-51562082D01*
X64268826Y-51562082D01*
X64095228Y-51525182D01*
X64095227Y-51525182D01*
X64092019Y-51524500D01*
X63907981Y-51524500D01*
X63904773Y-51525182D01*
X63904772Y-51525182D01*
X63731174Y-51562082D01*
X63731173Y-51562082D01*
X63727966Y-51562764D01*
X63559839Y-51637619D01*
X63410950Y-51745793D01*
X63287805Y-51882560D01*
X63245849Y-51955230D01*
X63206882Y-52022723D01*
X63195786Y-52041941D01*
X63170714Y-52119104D01*
X63144045Y-52201184D01*
X63138915Y-52216971D01*
X63119678Y-52400000D01*
X63138915Y-52583029D01*
X63195786Y-52758059D01*
X63197421Y-52760891D01*
X63197422Y-52760893D01*
X63220135Y-52800233D01*
X63287805Y-52917440D01*
X63410950Y-53054207D01*
X63413594Y-53056128D01*
X63555770Y-53159425D01*
X63580764Y-53200212D01*
X63569597Y-53246726D01*
X63528810Y-53271720D01*
X63519033Y-53272489D01*
X63287993Y-53272489D01*
X63243799Y-53254183D01*
X62816911Y-52827295D01*
X62798605Y-52783101D01*
X62803760Y-52758846D01*
X62804214Y-52758059D01*
X62827735Y-52685671D01*
X62860073Y-52586144D01*
X62860073Y-52586143D01*
X62861085Y-52583029D01*
X62880322Y-52400000D01*
X62861085Y-52216971D01*
X62855956Y-52201184D01*
X62829286Y-52119104D01*
X62804214Y-52041941D01*
X62793119Y-52022723D01*
X62754151Y-51955230D01*
X62712195Y-51882560D01*
X62589050Y-51745793D01*
X62440161Y-51637619D01*
X62272034Y-51562764D01*
X62268827Y-51562082D01*
X62268826Y-51562082D01*
X62095228Y-51525182D01*
X62095227Y-51525182D01*
X62092019Y-51524500D01*
X61907981Y-51524500D01*
X61904773Y-51525182D01*
X61904772Y-51525182D01*
X61731174Y-51562082D01*
X61731173Y-51562082D01*
X61727966Y-51562764D01*
X61559839Y-51637619D01*
X61410950Y-51745793D01*
X61287805Y-51882560D01*
X61245849Y-51955230D01*
X61206882Y-52022723D01*
X61195786Y-52041941D01*
X61170714Y-52119104D01*
X61144045Y-52201184D01*
X61138915Y-52216971D01*
X61119678Y-52400000D01*
X61138915Y-52583029D01*
X61195786Y-52758059D01*
X61197421Y-52760891D01*
X61197422Y-52760893D01*
X61220135Y-52800233D01*
X61287805Y-52917440D01*
X61410950Y-53054207D01*
X61559839Y-53162381D01*
X61727966Y-53237236D01*
X61731173Y-53237918D01*
X61731174Y-53237918D01*
X61904772Y-53274818D01*
X61907981Y-53275500D01*
X62092019Y-53275500D01*
X62095228Y-53274818D01*
X62268826Y-53237918D01*
X62268827Y-53237918D01*
X62272034Y-53237236D01*
X62354287Y-53200615D01*
X62402106Y-53199363D01*
X62423902Y-53213518D01*
X62653190Y-53442806D01*
X62671496Y-53487000D01*
X62653190Y-53531194D01*
X62608996Y-53549500D01*
X61565004Y-53549500D01*
X61520810Y-53531194D01*
X60893806Y-52904190D01*
X60875500Y-52859996D01*
X60875500Y-51705252D01*
X60863867Y-51646769D01*
X60859523Y-51640267D01*
X60822969Y-51585562D01*
X60819552Y-51580448D01*
X60802680Y-51569174D01*
X60758347Y-51539551D01*
X60758345Y-51539550D01*
X60753231Y-51536133D01*
X60747197Y-51534933D01*
X60747195Y-51534932D01*
X60697761Y-51525099D01*
X60697758Y-51525099D01*
X60694748Y-51524500D01*
X59305252Y-51524500D01*
X59302242Y-51525099D01*
X59302239Y-51525099D01*
X59252805Y-51534932D01*
X59252803Y-51534933D01*
X59246769Y-51536133D01*
X59241655Y-51539550D01*
X59241653Y-51539551D01*
X59197320Y-51569174D01*
X59180448Y-51580448D01*
X59177031Y-51585562D01*
X59140478Y-51640267D01*
X59136133Y-51646769D01*
X59124500Y-51705252D01*
X59124500Y-53094748D01*
X59125099Y-53097758D01*
X59125099Y-53097761D01*
X59134660Y-53145825D01*
X59136133Y-53153231D01*
X59139550Y-53158345D01*
X59139551Y-53158347D01*
X59165759Y-53197569D01*
X59180448Y-53219552D01*
X59185562Y-53222969D01*
X59241653Y-53260449D01*
X59241655Y-53260450D01*
X59246769Y-53263867D01*
X59252803Y-53265067D01*
X59252805Y-53265068D01*
X59302239Y-53274901D01*
X59302242Y-53274901D01*
X59305252Y-53275500D01*
X60459996Y-53275500D01*
X60504190Y-53293806D01*
X61206654Y-53996270D01*
X61214425Y-54005739D01*
X61226376Y-54023624D01*
X61231493Y-54027043D01*
X61249377Y-54038993D01*
X61249378Y-54038994D01*
X61310022Y-54079515D01*
X61312386Y-54081095D01*
X61312388Y-54081096D01*
X61317505Y-54084515D01*
X61395354Y-54100000D01*
X61425000Y-54105897D01*
X61446096Y-54101701D01*
X61458287Y-54100500D01*
X64384996Y-54100500D01*
X64429190Y-54118806D01*
X67506194Y-57195810D01*
X67524500Y-57240004D01*
X67524500Y-57747515D01*
X67506194Y-57791709D01*
X67495351Y-57800373D01*
X67495055Y-57800560D01*
X67472280Y-57814930D01*
X67469337Y-57818262D01*
X67469335Y-57818264D01*
X67447146Y-57843389D01*
X67377377Y-57922388D01*
X67316447Y-58052163D01*
X67297729Y-58172388D01*
X67296403Y-58180903D01*
X67271516Y-58221755D01*
X67225032Y-58233044D01*
X67190453Y-58215482D01*
X63826416Y-54851445D01*
X63822424Y-54846820D01*
X63820425Y-54842731D01*
X63791993Y-54816356D01*
X63783653Y-54808620D01*
X63781964Y-54806993D01*
X63767723Y-54792752D01*
X63765352Y-54791125D01*
X63763133Y-54789281D01*
X63763192Y-54789211D01*
X63759842Y-54786532D01*
X63742583Y-54770522D01*
X63738354Y-54766599D01*
X63723889Y-54760828D01*
X63711697Y-54754318D01*
X63703613Y-54748772D01*
X63703610Y-54748771D01*
X63698854Y-54745508D01*
X63670331Y-54738739D01*
X63661613Y-54735983D01*
X63634378Y-54725117D01*
X63629987Y-54724686D01*
X63629985Y-54724686D01*
X63629845Y-54724673D01*
X63628085Y-54724500D01*
X63617643Y-54724500D01*
X63603212Y-54722811D01*
X63595547Y-54720992D01*
X63589934Y-54719660D01*
X63580147Y-54720992D01*
X63558566Y-54723929D01*
X63550138Y-54724500D01*
X61070361Y-54724500D01*
X61026167Y-54706194D01*
X60246417Y-53926445D01*
X60242425Y-53921820D01*
X60240426Y-53917731D01*
X60203654Y-53883620D01*
X60201965Y-53881993D01*
X60187724Y-53867752D01*
X60185353Y-53866125D01*
X60183134Y-53864281D01*
X60183193Y-53864211D01*
X60179843Y-53861532D01*
X60178866Y-53860625D01*
X60158355Y-53841599D01*
X60143890Y-53835828D01*
X60131698Y-53829318D01*
X60123614Y-53823772D01*
X60123611Y-53823771D01*
X60118855Y-53820508D01*
X60090332Y-53813739D01*
X60081614Y-53810983D01*
X60054379Y-53800117D01*
X60049988Y-53799686D01*
X60049986Y-53799686D01*
X60049846Y-53799673D01*
X60048086Y-53799500D01*
X60037644Y-53799500D01*
X60023213Y-53797811D01*
X60015548Y-53795992D01*
X60009935Y-53794660D01*
X59978567Y-53798929D01*
X59970139Y-53799500D01*
X59730443Y-53799500D01*
X59683095Y-53777798D01*
X59669468Y-53761983D01*
X59632400Y-53718963D01*
X59512095Y-53640985D01*
X59499456Y-53637205D01*
X59395136Y-53606007D01*
X59374739Y-53599907D01*
X59303058Y-53599469D01*
X59235829Y-53599058D01*
X59235828Y-53599058D01*
X59231376Y-53599031D01*
X59093529Y-53638428D01*
X58972280Y-53714930D01*
X58969337Y-53718262D01*
X58969335Y-53718264D01*
X58897046Y-53800117D01*
X58877377Y-53822388D01*
X58816447Y-53952163D01*
X58815762Y-53956561D01*
X58815762Y-53956562D01*
X58814810Y-53962677D01*
X58794391Y-54093823D01*
X58794968Y-54098236D01*
X58794968Y-54098238D01*
X58795264Y-54100500D01*
X58812980Y-54235979D01*
X58814773Y-54240054D01*
X58866858Y-54358425D01*
X58870720Y-54367203D01*
X58873584Y-54370610D01*
X58960107Y-54473543D01*
X58960110Y-54473546D01*
X58962970Y-54476948D01*
X59082313Y-54556390D01*
X59086564Y-54557718D01*
X59214905Y-54597814D01*
X59214908Y-54597814D01*
X59219157Y-54599142D01*
X59223609Y-54599224D01*
X59223611Y-54599224D01*
X59294642Y-54600526D01*
X59362499Y-54601770D01*
X59500817Y-54564060D01*
X59622991Y-54489045D01*
X59630287Y-54480985D01*
X59684529Y-54421058D01*
X59730866Y-54400500D01*
X59844642Y-54400500D01*
X59888836Y-54418806D01*
X60640831Y-55170801D01*
X60659137Y-55214995D01*
X60646387Y-55252826D01*
X60630488Y-55273734D01*
X60624932Y-55280097D01*
X60173835Y-55731194D01*
X60129641Y-55749500D01*
X59780443Y-55749500D01*
X59733095Y-55727798D01*
X59731226Y-55725629D01*
X59682400Y-55668963D01*
X59562095Y-55590985D01*
X59549456Y-55587205D01*
X59505404Y-55574031D01*
X59424739Y-55549907D01*
X59353058Y-55549469D01*
X59285829Y-55549058D01*
X59285828Y-55549058D01*
X59281376Y-55549031D01*
X59143529Y-55588428D01*
X59022280Y-55664930D01*
X59019337Y-55668262D01*
X59019335Y-55668264D01*
X58953057Y-55743311D01*
X58927377Y-55772388D01*
X58866447Y-55902163D01*
X58865762Y-55906561D01*
X58865762Y-55906562D01*
X58861870Y-55931562D01*
X58844391Y-56043823D01*
X58844968Y-56048236D01*
X58844968Y-56048238D01*
X58849492Y-56082833D01*
X58862980Y-56185979D01*
X58864773Y-56190054D01*
X58915692Y-56305775D01*
X58920720Y-56317203D01*
X58928466Y-56326418D01*
X59010107Y-56423543D01*
X59010110Y-56423546D01*
X59012970Y-56426948D01*
X59132313Y-56506390D01*
X59136564Y-56507718D01*
X59264905Y-56547814D01*
X59264908Y-56547814D01*
X59269157Y-56549142D01*
X59273609Y-56549224D01*
X59273611Y-56549224D01*
X59344642Y-56550526D01*
X59412499Y-56551770D01*
X59550817Y-56514060D01*
X59672991Y-56439045D01*
X59734529Y-56371058D01*
X59780866Y-56350500D01*
X60224948Y-56350500D01*
X60231036Y-56350947D01*
X60235342Y-56352425D01*
X60285454Y-56350544D01*
X60287798Y-56350500D01*
X60307948Y-56350500D01*
X60310775Y-56349974D01*
X60313642Y-56349709D01*
X60313650Y-56349800D01*
X60317912Y-56349326D01*
X60319725Y-56349258D01*
X60347208Y-56348226D01*
X60361518Y-56342078D01*
X60374746Y-56338060D01*
X60384378Y-56336266D01*
X60390053Y-56335209D01*
X60415016Y-56319822D01*
X60423117Y-56315613D01*
X60450063Y-56304036D01*
X60454949Y-56300022D01*
X60462331Y-56292640D01*
X60473730Y-56283630D01*
X60480433Y-56279498D01*
X60480434Y-56279497D01*
X60485348Y-56276468D01*
X60504512Y-56251266D01*
X60510068Y-56244903D01*
X60961165Y-55793806D01*
X61005359Y-55775500D01*
X63174641Y-55775500D01*
X63218835Y-55793806D01*
X67598587Y-60173559D01*
X67602577Y-60178181D01*
X67604575Y-60182269D01*
X67608805Y-60186193D01*
X67641333Y-60216367D01*
X67643022Y-60217994D01*
X67657276Y-60232248D01*
X67659653Y-60233878D01*
X67661869Y-60235720D01*
X67661809Y-60235792D01*
X67665160Y-60238470D01*
X67682412Y-60254474D01*
X67682414Y-60254475D01*
X67686646Y-60258401D01*
X67692004Y-60260539D01*
X67692008Y-60260541D01*
X67701109Y-60264171D01*
X67713301Y-60270680D01*
X67726146Y-60279492D01*
X67746844Y-60284404D01*
X67754670Y-60286261D01*
X67763387Y-60289017D01*
X67790622Y-60299883D01*
X67795013Y-60300314D01*
X67795015Y-60300314D01*
X67795155Y-60300327D01*
X67796915Y-60300500D01*
X67807357Y-60300500D01*
X67821788Y-60302189D01*
X67835066Y-60305340D01*
X67866435Y-60301071D01*
X67874862Y-60300500D01*
X69298654Y-60300500D01*
X69342848Y-60318806D01*
X69361154Y-60363000D01*
X69355229Y-60389560D01*
X69316447Y-60472163D01*
X69294391Y-60613823D01*
X69294968Y-60618236D01*
X69294968Y-60618238D01*
X69297387Y-60636733D01*
X69312980Y-60755979D01*
X69314773Y-60760054D01*
X69355777Y-60853242D01*
X69370720Y-60887203D01*
X69373584Y-60890610D01*
X69460107Y-60993543D01*
X69460110Y-60993546D01*
X69462970Y-60996948D01*
X69582313Y-61076390D01*
X69642665Y-61095245D01*
X69679389Y-61125896D01*
X69685783Y-61164516D01*
X69674231Y-61238714D01*
X69665237Y-61296480D01*
X69665814Y-61300893D01*
X69665814Y-61300895D01*
X69673077Y-61356437D01*
X69683826Y-61438636D01*
X69685619Y-61442712D01*
X69685620Y-61442714D01*
X69722631Y-61526829D01*
X69723674Y-61574653D01*
X69690595Y-61609207D01*
X69665424Y-61614500D01*
X66668287Y-61614500D01*
X66656096Y-61613299D01*
X66635000Y-61609103D01*
X66527505Y-61630485D01*
X66522388Y-61633904D01*
X66522386Y-61633905D01*
X66485269Y-61658706D01*
X66459378Y-61676006D01*
X66459377Y-61676007D01*
X66436376Y-61691376D01*
X66432957Y-61696493D01*
X66432956Y-61696494D01*
X66424425Y-61709261D01*
X66416653Y-61718731D01*
X64403122Y-63732262D01*
X64358928Y-63750568D01*
X64324934Y-63740515D01*
X64211827Y-63667203D01*
X64208092Y-63664782D01*
X64198934Y-63662043D01*
X64161660Y-63650896D01*
X64070736Y-63623704D01*
X63999055Y-63623266D01*
X63931826Y-63622855D01*
X63931825Y-63622855D01*
X63927373Y-63622828D01*
X63789526Y-63662225D01*
X63668277Y-63738727D01*
X63665334Y-63742059D01*
X63665332Y-63742061D01*
X63587432Y-63830267D01*
X63573374Y-63846185D01*
X63512444Y-63975960D01*
X63490388Y-64117620D01*
X63508977Y-64259776D01*
X63510770Y-64263851D01*
X63563863Y-64384513D01*
X63566717Y-64391000D01*
X63569581Y-64394407D01*
X63656104Y-64497340D01*
X63656107Y-64497343D01*
X63658967Y-64500745D01*
X63778310Y-64580187D01*
X63782561Y-64581515D01*
X63910902Y-64621611D01*
X63910905Y-64621611D01*
X63915154Y-64622939D01*
X63919606Y-64623021D01*
X63919608Y-64623021D01*
X63990639Y-64624323D01*
X64058496Y-64625567D01*
X64196814Y-64587857D01*
X64318988Y-64512842D01*
X64336833Y-64493127D01*
X64406449Y-64416216D01*
X64440593Y-64396859D01*
X64502661Y-64384513D01*
X64502662Y-64384513D01*
X64508698Y-64383312D01*
X64513812Y-64379895D01*
X64513814Y-64379894D01*
X64535011Y-64365730D01*
X64550668Y-64355268D01*
X64576825Y-64337791D01*
X64576826Y-64337790D01*
X64576829Y-64337788D01*
X64576833Y-64337786D01*
X64594710Y-64325840D01*
X64599827Y-64322421D01*
X64611778Y-64304536D01*
X64619550Y-64295066D01*
X66516094Y-62398522D01*
X66560288Y-62380216D01*
X66604482Y-62398522D01*
X66622260Y-62434612D01*
X66622930Y-62439740D01*
X66629811Y-62492363D01*
X66617390Y-62538557D01*
X66610449Y-62545055D01*
X66610847Y-62545453D01*
X66606493Y-62549807D01*
X66601376Y-62553226D01*
X66586007Y-62576227D01*
X66586006Y-62576228D01*
X66577377Y-62589142D01*
X66540485Y-62644355D01*
X66539284Y-62650391D01*
X66539284Y-62650392D01*
X66527917Y-62707536D01*
X66525921Y-62717572D01*
X66519103Y-62751850D01*
X66523189Y-62772388D01*
X66523299Y-62772943D01*
X66524500Y-62785137D01*
X66524500Y-67866713D01*
X66523299Y-67878904D01*
X66519103Y-67900000D01*
X66524500Y-67927132D01*
X66524500Y-67927133D01*
X66540485Y-68007495D01*
X66543904Y-68012612D01*
X66543905Y-68012614D01*
X66570605Y-68052572D01*
X66601376Y-68098624D01*
X66606493Y-68102043D01*
X66606494Y-68102044D01*
X66619261Y-68110575D01*
X66628731Y-68118347D01*
X67086740Y-68576356D01*
X67105046Y-68620550D01*
X67104302Y-68630165D01*
X67097781Y-68672052D01*
X67094391Y-68693823D01*
X67112980Y-68835979D01*
X67114773Y-68840054D01*
X67163146Y-68949989D01*
X67170720Y-68967203D01*
X67173582Y-68970608D01*
X67173584Y-68970611D01*
X67174569Y-68971782D01*
X67174833Y-68972617D01*
X67175938Y-68974392D01*
X67175484Y-68974675D01*
X67188995Y-69017391D01*
X67166946Y-69059841D01*
X67126728Y-69074500D01*
X62816498Y-69074500D01*
X62772304Y-69056194D01*
X62144841Y-68428731D01*
X62137069Y-68419261D01*
X62128538Y-68406494D01*
X62128537Y-68406493D01*
X62125118Y-68401376D01*
X62102117Y-68386007D01*
X62102116Y-68386006D01*
X62068079Y-68363263D01*
X62039108Y-68343905D01*
X62039106Y-68343904D01*
X62033989Y-68340485D01*
X62027955Y-68339285D01*
X62027953Y-68339284D01*
X61989442Y-68331624D01*
X61953627Y-68324500D01*
X61953626Y-68324500D01*
X61926494Y-68319103D01*
X61905398Y-68323299D01*
X61893207Y-68324500D01*
X61502037Y-68324500D01*
X61489846Y-68323299D01*
X61468750Y-68319103D01*
X61441618Y-68324500D01*
X61441617Y-68324500D01*
X61405802Y-68331624D01*
X61367291Y-68339284D01*
X61367289Y-68339285D01*
X61361255Y-68340485D01*
X61356141Y-68343902D01*
X61356139Y-68343903D01*
X61327166Y-68363263D01*
X61293128Y-68386006D01*
X61293127Y-68386007D01*
X61270126Y-68401376D01*
X61266707Y-68406493D01*
X61266706Y-68406494D01*
X61258175Y-68419261D01*
X61250403Y-68428731D01*
X61027551Y-68651583D01*
X60983357Y-68669889D01*
X60977370Y-68669444D01*
X60974739Y-68668657D01*
X60907225Y-68668244D01*
X60835829Y-68667808D01*
X60835828Y-68667808D01*
X60831376Y-68667781D01*
X60693529Y-68707178D01*
X60572280Y-68783680D01*
X60569337Y-68787012D01*
X60569335Y-68787014D01*
X60491629Y-68875000D01*
X60477377Y-68891138D01*
X60416447Y-69020913D01*
X60394391Y-69162573D01*
X60412980Y-69304729D01*
X60414773Y-69308804D01*
X60452287Y-69394060D01*
X60470720Y-69435953D01*
X60473584Y-69439360D01*
X60560107Y-69542293D01*
X60560110Y-69542296D01*
X60562970Y-69545698D01*
X60596839Y-69568243D01*
X60678609Y-69622675D01*
X60678612Y-69622677D01*
X60682313Y-69625140D01*
X60685230Y-69626051D01*
X60716893Y-69661217D01*
X60720478Y-69682079D01*
X60720478Y-77696245D01*
X60702172Y-77740439D01*
X60657978Y-77758745D01*
X60623986Y-77748693D01*
X60612095Y-77740985D01*
X60474739Y-77699907D01*
X60403057Y-77699469D01*
X60335829Y-77699058D01*
X60335828Y-77699058D01*
X60331376Y-77699031D01*
X60193529Y-77738428D01*
X60072280Y-77814930D01*
X60069337Y-77818262D01*
X60069335Y-77818264D01*
X59985872Y-77912769D01*
X59977377Y-77922388D01*
X59916447Y-78052163D01*
X59894391Y-78193823D01*
X59912980Y-78335979D01*
X59970720Y-78467203D01*
X59973584Y-78470610D01*
X60060107Y-78573543D01*
X60060110Y-78573546D01*
X60062970Y-78576948D01*
X60182313Y-78656390D01*
X60319157Y-78699142D01*
X60323607Y-78699224D01*
X60323610Y-78699224D01*
X60329893Y-78699339D01*
X60333735Y-78699409D01*
X60377586Y-78718521D01*
X60395090Y-78761899D01*
X60395090Y-79789654D01*
X60393889Y-79801845D01*
X60389693Y-79822941D01*
X60395090Y-79850073D01*
X60395090Y-79850074D01*
X60411075Y-79930436D01*
X60471966Y-80021565D01*
X60477083Y-80024984D01*
X60477084Y-80024985D01*
X60489851Y-80033516D01*
X60499321Y-80041288D01*
X61784165Y-81326132D01*
X61802471Y-81370326D01*
X61786819Y-81411696D01*
X61780327Y-81419047D01*
X61780325Y-81419050D01*
X61777377Y-81422388D01*
X61716447Y-81552163D01*
X61694391Y-81693823D01*
X61694968Y-81698236D01*
X61694968Y-81698238D01*
X61697151Y-81714930D01*
X61712980Y-81835979D01*
X61714773Y-81840054D01*
X61768647Y-81962491D01*
X61770720Y-81967203D01*
X61773584Y-81970610D01*
X61860107Y-82073543D01*
X61860110Y-82073546D01*
X61862970Y-82076948D01*
X61982313Y-82156390D01*
X61986564Y-82157718D01*
X62114905Y-82197814D01*
X62114908Y-82197814D01*
X62119157Y-82199142D01*
X62123609Y-82199224D01*
X62123611Y-82199224D01*
X62194642Y-82200526D01*
X62262499Y-82201770D01*
X62400817Y-82164060D01*
X62522991Y-82089045D01*
X62619200Y-81982754D01*
X62667363Y-81883346D01*
X62703106Y-81851556D01*
X62750860Y-81854351D01*
X62767803Y-81866403D01*
X63472670Y-82571270D01*
X63480441Y-82580739D01*
X63492392Y-82598624D01*
X63497509Y-82602043D01*
X63515393Y-82613993D01*
X63515394Y-82613994D01*
X63578402Y-82656095D01*
X63578404Y-82656096D01*
X63583521Y-82659515D01*
X63691016Y-82680897D01*
X63712112Y-82676701D01*
X63724303Y-82675500D01*
X64474306Y-82675500D01*
X64518500Y-82693806D01*
X64536278Y-82729897D01*
X64537766Y-82741276D01*
X64539559Y-82745351D01*
X64563606Y-82800001D01*
X64595506Y-82872500D01*
X64598370Y-82875907D01*
X64684893Y-82978840D01*
X64684896Y-82978843D01*
X64687756Y-82982245D01*
X64807099Y-83061687D01*
X64811350Y-83063015D01*
X64939691Y-83103111D01*
X64939694Y-83103111D01*
X64943943Y-83104439D01*
X64948395Y-83104521D01*
X64948397Y-83104521D01*
X65019428Y-83105823D01*
X65087285Y-83107067D01*
X65225603Y-83069357D01*
X65339728Y-82999284D01*
X65343984Y-82996671D01*
X65347777Y-82994342D01*
X65388208Y-82949674D01*
X65439274Y-82893257D01*
X65482503Y-82872776D01*
X65527553Y-82888862D01*
X65540408Y-82907102D01*
X65540486Y-82907496D01*
X65568530Y-82949466D01*
X65581207Y-82968438D01*
X65594195Y-82987877D01*
X65603984Y-83032214D01*
X65594391Y-83093823D01*
X65594968Y-83098236D01*
X65594968Y-83098238D01*
X65600457Y-83140210D01*
X65612980Y-83235979D01*
X65614773Y-83240054D01*
X65641893Y-83301688D01*
X65670720Y-83367203D01*
X65673584Y-83370610D01*
X65760107Y-83473543D01*
X65760110Y-83473546D01*
X65762970Y-83476948D01*
X65882313Y-83556390D01*
X65886564Y-83557718D01*
X66014905Y-83597814D01*
X66014908Y-83597814D01*
X66019157Y-83599142D01*
X66124507Y-83601073D01*
X66168356Y-83620185D01*
X66185331Y-83655458D01*
X66201245Y-83777158D01*
X66203038Y-83781233D01*
X66210821Y-83798920D01*
X66258985Y-83908382D01*
X66268111Y-83919239D01*
X66348372Y-84014722D01*
X66348375Y-84014725D01*
X66351235Y-84018127D01*
X66470578Y-84097569D01*
X66474829Y-84098897D01*
X66603170Y-84138993D01*
X66603173Y-84138993D01*
X66607422Y-84140321D01*
X66611874Y-84140403D01*
X66611876Y-84140403D01*
X66682907Y-84141705D01*
X66750764Y-84142949D01*
X66889082Y-84105239D01*
X67011256Y-84030224D01*
X67107465Y-83923933D01*
X67169975Y-83794912D01*
X67172277Y-83781233D01*
X67193361Y-83655908D01*
X67193761Y-83653533D01*
X67193912Y-83641179D01*
X67183809Y-83570630D01*
X67195665Y-83524287D01*
X67201484Y-83517576D01*
X67401121Y-83317939D01*
X67446460Y-83299643D01*
X67484983Y-83300349D01*
X67562499Y-83301770D01*
X67700817Y-83264060D01*
X67822991Y-83189045D01*
X67919200Y-83082754D01*
X67981710Y-82953733D01*
X68005496Y-82812354D01*
X68005647Y-82800000D01*
X67985323Y-82658082D01*
X67925984Y-82527572D01*
X67832400Y-82418963D01*
X67712095Y-82340985D01*
X67709738Y-82340280D01*
X67677798Y-82305669D01*
X67679930Y-82262465D01*
X67678415Y-82261981D01*
X67679769Y-82257740D01*
X67681710Y-82253733D01*
X67705496Y-82112354D01*
X67705647Y-82100000D01*
X67685323Y-81958082D01*
X67625984Y-81827572D01*
X67532400Y-81718963D01*
X67412095Y-81640985D01*
X67399456Y-81637205D01*
X67365663Y-81627099D01*
X67274739Y-81599907D01*
X67203057Y-81599469D01*
X67135829Y-81599058D01*
X67135828Y-81599058D01*
X67131376Y-81599031D01*
X66993529Y-81638428D01*
X66872280Y-81714930D01*
X66869337Y-81718262D01*
X66869335Y-81718264D01*
X66794170Y-81803373D01*
X66747324Y-81824500D01*
X66040003Y-81824500D01*
X65995809Y-81806194D01*
X65887854Y-81698238D01*
X65776399Y-81586783D01*
X65768627Y-81577313D01*
X65760096Y-81564546D01*
X65760095Y-81564545D01*
X65756676Y-81559428D01*
X65748874Y-81554214D01*
X65733682Y-81544063D01*
X65733678Y-81544061D01*
X65733675Y-81544059D01*
X65733674Y-81544058D01*
X65707517Y-81526581D01*
X65670663Y-81501955D01*
X65670661Y-81501954D01*
X65665547Y-81498537D01*
X65659513Y-81497337D01*
X65659511Y-81497336D01*
X65624219Y-81490316D01*
X65585185Y-81482552D01*
X65585184Y-81482552D01*
X65558052Y-81477155D01*
X65536956Y-81481351D01*
X65524765Y-81482552D01*
X63981952Y-81482552D01*
X63937758Y-81464246D01*
X61846846Y-79373334D01*
X61828540Y-79329140D01*
X61828540Y-78576545D01*
X80102869Y-78576545D01*
X80105489Y-78582870D01*
X80124169Y-78598077D01*
X80127761Y-78600602D01*
X80360568Y-78740764D01*
X80364490Y-78742762D01*
X80614719Y-78848720D01*
X80618881Y-78850145D01*
X80881533Y-78919786D01*
X80885866Y-78920613D01*
X81155711Y-78952551D01*
X81160119Y-78952759D01*
X81431769Y-78946357D01*
X81436162Y-78945942D01*
X81704203Y-78901327D01*
X81708487Y-78900299D01*
X81967576Y-78818360D01*
X81971663Y-78816741D01*
X82216616Y-78699116D01*
X82220454Y-78696927D01*
X82391278Y-78582787D01*
X82395449Y-78576545D01*
X95602869Y-78576545D01*
X95605489Y-78582870D01*
X95624169Y-78598077D01*
X95627761Y-78600602D01*
X95860568Y-78740764D01*
X95864490Y-78742762D01*
X96114719Y-78848720D01*
X96118881Y-78850145D01*
X96381533Y-78919786D01*
X96385866Y-78920613D01*
X96655711Y-78952551D01*
X96660119Y-78952759D01*
X96931769Y-78946357D01*
X96936162Y-78945942D01*
X97204203Y-78901327D01*
X97208487Y-78900299D01*
X97467576Y-78818360D01*
X97471663Y-78816741D01*
X97716616Y-78699116D01*
X97720454Y-78696927D01*
X97891278Y-78582787D01*
X97896565Y-78574875D01*
X97895560Y-78569825D01*
X96758790Y-77433054D01*
X96750000Y-77429413D01*
X96741210Y-77433054D01*
X95606510Y-78567755D01*
X95602869Y-78576545D01*
X82395449Y-78576545D01*
X82396565Y-78574875D01*
X82395560Y-78569825D01*
X81258790Y-77433054D01*
X81250000Y-77429413D01*
X81241210Y-77433054D01*
X80106510Y-78567755D01*
X80102869Y-78576545D01*
X61828540Y-78576545D01*
X61828540Y-76940794D01*
X79296070Y-76940794D01*
X79306739Y-77212327D01*
X79307221Y-77216696D01*
X79356040Y-77484005D01*
X79357140Y-77488289D01*
X79443133Y-77746041D01*
X79444821Y-77750116D01*
X79566280Y-77993192D01*
X79568520Y-77996981D01*
X79667804Y-78140634D01*
X79675799Y-78145796D01*
X79681075Y-78144660D01*
X80816946Y-77008790D01*
X80820587Y-77000000D01*
X81679413Y-77000000D01*
X81683054Y-77008790D01*
X82819060Y-78144795D01*
X82827850Y-78148436D01*
X82833490Y-78146100D01*
X82976575Y-77916670D01*
X82978640Y-77912769D01*
X83088508Y-77664252D01*
X83090006Y-77660092D01*
X83163763Y-77398570D01*
X83164655Y-77394262D01*
X83200911Y-77124333D01*
X83201173Y-77121157D01*
X83204931Y-77001597D01*
X83204868Y-76998409D01*
X83200789Y-76940794D01*
X94796070Y-76940794D01*
X94806739Y-77212327D01*
X94807221Y-77216696D01*
X94856040Y-77484005D01*
X94857140Y-77488289D01*
X94943133Y-77746041D01*
X94944821Y-77750116D01*
X95066280Y-77993192D01*
X95068520Y-77996981D01*
X95167804Y-78140634D01*
X95175799Y-78145796D01*
X95181075Y-78144660D01*
X96316946Y-77008790D01*
X96320587Y-77000000D01*
X97179413Y-77000000D01*
X97183054Y-77008790D01*
X98319060Y-78144795D01*
X98327850Y-78148436D01*
X98333490Y-78146100D01*
X98476575Y-77916670D01*
X98478640Y-77912769D01*
X98588508Y-77664252D01*
X98590006Y-77660092D01*
X98663763Y-77398570D01*
X98664655Y-77394262D01*
X98700911Y-77124333D01*
X98701173Y-77121157D01*
X98704931Y-77001597D01*
X98704868Y-76998409D01*
X98685633Y-76726740D01*
X98685013Y-76722385D01*
X98627822Y-76456745D01*
X98626589Y-76452499D01*
X98532543Y-76197577D01*
X98530724Y-76193548D01*
X98401693Y-75954411D01*
X98399333Y-75950693D01*
X98332051Y-75859600D01*
X98323899Y-75854692D01*
X98318143Y-75856122D01*
X97183054Y-76991210D01*
X97179413Y-77000000D01*
X96320587Y-77000000D01*
X96316946Y-76991210D01*
X95183212Y-75857477D01*
X95174422Y-75853836D01*
X95168394Y-75856333D01*
X95134439Y-75899406D01*
X95131969Y-75903039D01*
X94995481Y-76138020D01*
X94993544Y-76141974D01*
X94891530Y-76393836D01*
X94890172Y-76398016D01*
X94824661Y-76661746D01*
X94823906Y-76666071D01*
X94796208Y-76936404D01*
X94796070Y-76940794D01*
X83200789Y-76940794D01*
X83185633Y-76726740D01*
X83185013Y-76722385D01*
X83127822Y-76456745D01*
X83126589Y-76452499D01*
X83032543Y-76197577D01*
X83030724Y-76193548D01*
X82901693Y-75954411D01*
X82899333Y-75950693D01*
X82832051Y-75859600D01*
X82823899Y-75854692D01*
X82818143Y-75856122D01*
X81683054Y-76991210D01*
X81679413Y-77000000D01*
X80820587Y-77000000D01*
X80816946Y-76991210D01*
X79683212Y-75857477D01*
X79674422Y-75853836D01*
X79668394Y-75856333D01*
X79634439Y-75899406D01*
X79631969Y-75903039D01*
X79495481Y-76138020D01*
X79493544Y-76141974D01*
X79391530Y-76393836D01*
X79390172Y-76398016D01*
X79324661Y-76661746D01*
X79323906Y-76666071D01*
X79296208Y-76936404D01*
X79296070Y-76940794D01*
X61828540Y-76940794D01*
X61828540Y-75426123D01*
X80104622Y-75426123D01*
X80105899Y-75431634D01*
X81241210Y-76566946D01*
X81250000Y-76570587D01*
X81258790Y-76566946D01*
X82391896Y-75433839D01*
X82395092Y-75426123D01*
X95604622Y-75426123D01*
X95605899Y-75431634D01*
X96741210Y-76566946D01*
X96750000Y-76570587D01*
X96758790Y-76566946D01*
X97891896Y-75433839D01*
X97895537Y-75425049D01*
X97893156Y-75419303D01*
X97825079Y-75367347D01*
X97821408Y-75364936D01*
X97584313Y-75232157D01*
X97580335Y-75230285D01*
X97326903Y-75132240D01*
X97322693Y-75130945D01*
X97057980Y-75069587D01*
X97053622Y-75068897D01*
X96782903Y-75045450D01*
X96778510Y-75045381D01*
X96507183Y-75060314D01*
X96502804Y-75060867D01*
X96236305Y-75113877D01*
X96232046Y-75115042D01*
X95975664Y-75205076D01*
X95971623Y-75206825D01*
X95730488Y-75332085D01*
X95726728Y-75334389D01*
X95609657Y-75418049D01*
X95604622Y-75426123D01*
X82395092Y-75426123D01*
X82395537Y-75425049D01*
X82393156Y-75419303D01*
X82325079Y-75367347D01*
X82321408Y-75364936D01*
X82084313Y-75232157D01*
X82080335Y-75230285D01*
X81826903Y-75132240D01*
X81822693Y-75130945D01*
X81557980Y-75069587D01*
X81553622Y-75068897D01*
X81282903Y-75045450D01*
X81278510Y-75045381D01*
X81007183Y-75060314D01*
X81002804Y-75060867D01*
X80736305Y-75113877D01*
X80732046Y-75115042D01*
X80475664Y-75205076D01*
X80471623Y-75206825D01*
X80230488Y-75332085D01*
X80226728Y-75334389D01*
X80109657Y-75418049D01*
X80104622Y-75426123D01*
X61828540Y-75426123D01*
X61828540Y-70790004D01*
X61846846Y-70745810D01*
X62373850Y-70218806D01*
X62418044Y-70200500D01*
X68641713Y-70200500D01*
X68653904Y-70201701D01*
X68675000Y-70205897D01*
X68702132Y-70200500D01*
X68702133Y-70200500D01*
X68741167Y-70192736D01*
X68776459Y-70185716D01*
X68776461Y-70185715D01*
X68782495Y-70184515D01*
X68787609Y-70181098D01*
X68787611Y-70181097D01*
X68808808Y-70166933D01*
X68824465Y-70156471D01*
X68850622Y-70138994D01*
X68850623Y-70138993D01*
X68850626Y-70138991D01*
X68850630Y-70138989D01*
X68868507Y-70127043D01*
X68873624Y-70123624D01*
X68885575Y-70105739D01*
X68893346Y-70096270D01*
X71745810Y-67243806D01*
X71790004Y-67225500D01*
X71994535Y-67225500D01*
X72005710Y-67226507D01*
X72029650Y-67230858D01*
X72080513Y-67219863D01*
X72081442Y-67219670D01*
X72132495Y-67209515D01*
X72134463Y-67208200D01*
X72136776Y-67207700D01*
X72179606Y-67178045D01*
X72180265Y-67177596D01*
X72223624Y-67148624D01*
X72237142Y-67128394D01*
X72244187Y-67119662D01*
X72335295Y-67025487D01*
X72963587Y-66376040D01*
X72964312Y-66375304D01*
X73049907Y-66289709D01*
X73059377Y-66281937D01*
X73072144Y-66273406D01*
X73072145Y-66273405D01*
X73077262Y-66269986D01*
X73093293Y-66245995D01*
X73115667Y-66212510D01*
X73134733Y-66183976D01*
X73134734Y-66183974D01*
X73138153Y-66178857D01*
X73159535Y-66071362D01*
X73155339Y-66050266D01*
X73154138Y-66038075D01*
X73154138Y-63150311D01*
X73170301Y-63108369D01*
X73183688Y-63093580D01*
X73183691Y-63093576D01*
X73186675Y-63090279D01*
X73249185Y-62961258D01*
X73254853Y-62927572D01*
X73262099Y-62884500D01*
X73272971Y-62819879D01*
X73273122Y-62807525D01*
X73258803Y-62707536D01*
X73270659Y-62661193D01*
X73311812Y-62636807D01*
X73358155Y-62648663D01*
X73364866Y-62654482D01*
X76818664Y-66108280D01*
X76826436Y-66117750D01*
X76833692Y-66128609D01*
X76838387Y-66135635D01*
X76843504Y-66139054D01*
X76861388Y-66151004D01*
X76861397Y-66151011D01*
X76865902Y-66154021D01*
X76865906Y-66154023D01*
X76924397Y-66193106D01*
X76924399Y-66193107D01*
X76929516Y-66196526D01*
X77009878Y-66212511D01*
X77009879Y-66212511D01*
X77037011Y-66217908D01*
X77058107Y-66213712D01*
X77070298Y-66212511D01*
X77937500Y-66212511D01*
X77981694Y-66230817D01*
X78000000Y-66275011D01*
X78000000Y-74500000D01*
X99237500Y-74500000D01*
X99281694Y-74518306D01*
X99300000Y-74562500D01*
X99300000Y-82970184D01*
X99298410Y-82984190D01*
X99297563Y-82987875D01*
X99294857Y-82999642D01*
X99296410Y-83006505D01*
X99296602Y-83007352D01*
X99297950Y-83026051D01*
X99284381Y-83198459D01*
X99282847Y-83208145D01*
X99269982Y-83261733D01*
X99243843Y-83370610D01*
X99237521Y-83396941D01*
X99234492Y-83406264D01*
X99166409Y-83570630D01*
X99160191Y-83585642D01*
X99155741Y-83594376D01*
X99088157Y-83704664D01*
X99054290Y-83759930D01*
X99048531Y-83767858D01*
X98922423Y-83915511D01*
X98915511Y-83922423D01*
X98767858Y-84048531D01*
X98759930Y-84054290D01*
X98594376Y-84155741D01*
X98585646Y-84160189D01*
X98406264Y-84234492D01*
X98396943Y-84237520D01*
X98342070Y-84250694D01*
X98208145Y-84282847D01*
X98198459Y-84284381D01*
X98026493Y-84297915D01*
X98007582Y-84296518D01*
X98007219Y-84296435D01*
X98000358Y-84294857D01*
X97993495Y-84296410D01*
X97993493Y-84296410D01*
X97984439Y-84298459D01*
X97970646Y-84300000D01*
X52029816Y-84300000D01*
X52015810Y-84298410D01*
X52007220Y-84296435D01*
X52000358Y-84294857D01*
X51992646Y-84296602D01*
X51973949Y-84297950D01*
X51801541Y-84284381D01*
X51791855Y-84282847D01*
X51657930Y-84250694D01*
X51603057Y-84237520D01*
X51593736Y-84234492D01*
X51414354Y-84160189D01*
X51405624Y-84155741D01*
X51240070Y-84054290D01*
X51232142Y-84048531D01*
X51084489Y-83922423D01*
X51077577Y-83915511D01*
X50951469Y-83767858D01*
X50945710Y-83759930D01*
X50911843Y-83704664D01*
X50844259Y-83594376D01*
X50839809Y-83585642D01*
X50833591Y-83570630D01*
X50765508Y-83406264D01*
X50762479Y-83396941D01*
X50756158Y-83370610D01*
X50730018Y-83261733D01*
X50717153Y-83208145D01*
X50715619Y-83198459D01*
X50702085Y-83026493D01*
X50703482Y-83007582D01*
X50703565Y-83007219D01*
X50705143Y-83000358D01*
X50703429Y-82992780D01*
X50701541Y-82984439D01*
X50700000Y-82970646D01*
X50700000Y-82456967D01*
X51779710Y-82456967D01*
X51795231Y-82504738D01*
X51797883Y-82510694D01*
X51886573Y-82664308D01*
X51890400Y-82669576D01*
X52009097Y-82801402D01*
X52013935Y-82805759D01*
X52157442Y-82910022D01*
X52163083Y-82913279D01*
X52288641Y-82969182D01*
X52298155Y-82969431D01*
X52299997Y-82967683D01*
X52300000Y-82967669D01*
X52300000Y-82961808D01*
X52900000Y-82961808D01*
X52903641Y-82970598D01*
X52905987Y-82971570D01*
X52906003Y-82971566D01*
X53036917Y-82913279D01*
X53042558Y-82910022D01*
X53186065Y-82805759D01*
X53190903Y-82801402D01*
X53309600Y-82669576D01*
X53313427Y-82664308D01*
X53402117Y-82510694D01*
X53404769Y-82504738D01*
X53418713Y-82461823D01*
X53417966Y-82452338D01*
X53415228Y-82450000D01*
X52912431Y-82450000D01*
X52903641Y-82453641D01*
X52900000Y-82462431D01*
X52900000Y-82961808D01*
X52300000Y-82961808D01*
X52300000Y-82462431D01*
X52296359Y-82453641D01*
X52287569Y-82450000D01*
X51789877Y-82450000D01*
X51781087Y-82453641D01*
X51779710Y-82456967D01*
X50700000Y-82456967D01*
X50700000Y-81838177D01*
X51781287Y-81838177D01*
X51782034Y-81847662D01*
X51784772Y-81850000D01*
X52287569Y-81850000D01*
X52296359Y-81846359D01*
X52300000Y-81837569D01*
X52900000Y-81837569D01*
X52903641Y-81846359D01*
X52912431Y-81850000D01*
X53410123Y-81850000D01*
X53418913Y-81846359D01*
X53420290Y-81843033D01*
X53404769Y-81795262D01*
X53402117Y-81789306D01*
X53313427Y-81635692D01*
X53309600Y-81630424D01*
X53190903Y-81498598D01*
X53186065Y-81494241D01*
X53042558Y-81389978D01*
X53036917Y-81386721D01*
X52911359Y-81330818D01*
X52901845Y-81330569D01*
X52900003Y-81332317D01*
X52900000Y-81332331D01*
X52900000Y-81837569D01*
X52300000Y-81837569D01*
X52300000Y-81338192D01*
X52296359Y-81329402D01*
X52294013Y-81328430D01*
X52293997Y-81328434D01*
X52163083Y-81386721D01*
X52157442Y-81389978D01*
X52013935Y-81494241D01*
X52009097Y-81498598D01*
X51890400Y-81630424D01*
X51886573Y-81635692D01*
X51797883Y-81789306D01*
X51795231Y-81795262D01*
X51781287Y-81838177D01*
X50700000Y-81838177D01*
X50700000Y-80456967D01*
X51779710Y-80456967D01*
X51795231Y-80504738D01*
X51797883Y-80510694D01*
X51886573Y-80664308D01*
X51890400Y-80669576D01*
X52009097Y-80801402D01*
X52013935Y-80805759D01*
X52157442Y-80910022D01*
X52163083Y-80913279D01*
X52288641Y-80969182D01*
X52298155Y-80969431D01*
X52299997Y-80967683D01*
X52300000Y-80967669D01*
X52300000Y-80961808D01*
X52900000Y-80961808D01*
X52903641Y-80970598D01*
X52905987Y-80971570D01*
X52906003Y-80971566D01*
X53036917Y-80913279D01*
X53042558Y-80910022D01*
X53186065Y-80805759D01*
X53190903Y-80801402D01*
X53309600Y-80669576D01*
X53313427Y-80664308D01*
X53402117Y-80510694D01*
X53404769Y-80504738D01*
X53418713Y-80461823D01*
X53417966Y-80452338D01*
X53415228Y-80450000D01*
X52912431Y-80450000D01*
X52903641Y-80453641D01*
X52900000Y-80462431D01*
X52900000Y-80961808D01*
X52300000Y-80961808D01*
X52300000Y-80462431D01*
X52296359Y-80453641D01*
X52287569Y-80450000D01*
X51789877Y-80450000D01*
X51781087Y-80453641D01*
X51779710Y-80456967D01*
X50700000Y-80456967D01*
X50700000Y-79838177D01*
X51781287Y-79838177D01*
X51782034Y-79847662D01*
X51784772Y-79850000D01*
X52287569Y-79850000D01*
X52296359Y-79846359D01*
X52300000Y-79837569D01*
X52900000Y-79837569D01*
X52903641Y-79846359D01*
X52912431Y-79850000D01*
X53410123Y-79850000D01*
X53418913Y-79846359D01*
X53420290Y-79843033D01*
X53404769Y-79795262D01*
X53402117Y-79789306D01*
X53313427Y-79635692D01*
X53309600Y-79630424D01*
X53190903Y-79498598D01*
X53186065Y-79494241D01*
X53042558Y-79389978D01*
X53036917Y-79386721D01*
X52911359Y-79330818D01*
X52901845Y-79330569D01*
X52900003Y-79332317D01*
X52900000Y-79332331D01*
X52900000Y-79837569D01*
X52300000Y-79837569D01*
X52300000Y-79338192D01*
X52296359Y-79329402D01*
X52294013Y-79328430D01*
X52293997Y-79328434D01*
X52163083Y-79386721D01*
X52157442Y-79389978D01*
X52013935Y-79494241D01*
X52009097Y-79498598D01*
X51890400Y-79630424D01*
X51886573Y-79635692D01*
X51797883Y-79789306D01*
X51795231Y-79795262D01*
X51781287Y-79838177D01*
X50700000Y-79838177D01*
X50700000Y-78150000D01*
X51719678Y-78150000D01*
X51738915Y-78333029D01*
X51739927Y-78336143D01*
X51739927Y-78336144D01*
X51751628Y-78372155D01*
X51795786Y-78508059D01*
X51887805Y-78667440D01*
X52010950Y-78804207D01*
X52159839Y-78912381D01*
X52327966Y-78987236D01*
X52331173Y-78987918D01*
X52331174Y-78987918D01*
X52504772Y-79024818D01*
X52507981Y-79025500D01*
X52692019Y-79025500D01*
X52695228Y-79024818D01*
X52868826Y-78987918D01*
X52868827Y-78987918D01*
X52872034Y-78987236D01*
X53040161Y-78912381D01*
X53189050Y-78804207D01*
X53312195Y-78667440D01*
X53404214Y-78508059D01*
X53448372Y-78372155D01*
X53460073Y-78336144D01*
X53460073Y-78336143D01*
X53461085Y-78333029D01*
X53480322Y-78150000D01*
X53461085Y-77966971D01*
X53404214Y-77791941D01*
X53374795Y-77740985D01*
X53313831Y-77635394D01*
X53312195Y-77632560D01*
X53189050Y-77495793D01*
X53040161Y-77387619D01*
X52872034Y-77312764D01*
X52868827Y-77312082D01*
X52868826Y-77312082D01*
X52695228Y-77275182D01*
X52695227Y-77275182D01*
X52692019Y-77274500D01*
X52507981Y-77274500D01*
X52504773Y-77275182D01*
X52504772Y-77275182D01*
X52331174Y-77312082D01*
X52331173Y-77312082D01*
X52327966Y-77312764D01*
X52159839Y-77387619D01*
X52010950Y-77495793D01*
X51887805Y-77632560D01*
X51886169Y-77635394D01*
X51825206Y-77740985D01*
X51795786Y-77791941D01*
X51738915Y-77966971D01*
X51719678Y-78150000D01*
X50700000Y-78150000D01*
X50700000Y-76844748D01*
X51724500Y-76844748D01*
X51736133Y-76903231D01*
X51780448Y-76969552D01*
X51785562Y-76972969D01*
X51841653Y-77010449D01*
X51841655Y-77010450D01*
X51846769Y-77013867D01*
X51852803Y-77015067D01*
X51852805Y-77015068D01*
X51902239Y-77024901D01*
X51902242Y-77024901D01*
X51905252Y-77025500D01*
X53294748Y-77025500D01*
X53297758Y-77024901D01*
X53297761Y-77024901D01*
X53347195Y-77015068D01*
X53347197Y-77015067D01*
X53353231Y-77013867D01*
X53358345Y-77010450D01*
X53358347Y-77010449D01*
X53414438Y-76972969D01*
X53419552Y-76969552D01*
X53463867Y-76903231D01*
X53475500Y-76844748D01*
X53475500Y-75455252D01*
X53469706Y-75426123D01*
X53465068Y-75402805D01*
X53465067Y-75402803D01*
X53463867Y-75396769D01*
X53419552Y-75330448D01*
X53402680Y-75319174D01*
X53358347Y-75289551D01*
X53358345Y-75289550D01*
X53353231Y-75286133D01*
X53347197Y-75284933D01*
X53347195Y-75284932D01*
X53297761Y-75275099D01*
X53297758Y-75275099D01*
X53294748Y-75274500D01*
X51905252Y-75274500D01*
X51902242Y-75275099D01*
X51902239Y-75275099D01*
X51852805Y-75284932D01*
X51852803Y-75284933D01*
X51846769Y-75286133D01*
X51841655Y-75289550D01*
X51841653Y-75289551D01*
X51797320Y-75319174D01*
X51780448Y-75330448D01*
X51736133Y-75396769D01*
X51734933Y-75402803D01*
X51734932Y-75402805D01*
X51730294Y-75426123D01*
X51724500Y-75455252D01*
X51724500Y-76844748D01*
X50700000Y-76844748D01*
X50700000Y-73475073D01*
X50975111Y-73475073D01*
X50975493Y-73476646D01*
X51020066Y-73563003D01*
X51024267Y-73569185D01*
X51130693Y-73691184D01*
X51136252Y-73696189D01*
X51268699Y-73789274D01*
X51275298Y-73792813D01*
X51426129Y-73851620D01*
X51433376Y-73853480D01*
X51556829Y-73869733D01*
X51560908Y-73870000D01*
X51592569Y-73870000D01*
X51601359Y-73866359D01*
X51605000Y-73857569D01*
X52205000Y-73857569D01*
X52208641Y-73866359D01*
X52217431Y-73870000D01*
X52245593Y-73870000D01*
X52249365Y-73869772D01*
X52369456Y-73855240D01*
X52376727Y-73853454D01*
X52528164Y-73796230D01*
X52534794Y-73792764D01*
X52668211Y-73701069D01*
X52673825Y-73696120D01*
X52781521Y-73575245D01*
X52785788Y-73569105D01*
X52832444Y-73480989D01*
X52833003Y-73475073D01*
X54905111Y-73475073D01*
X54905493Y-73476646D01*
X54950066Y-73563003D01*
X54954267Y-73569185D01*
X55060693Y-73691184D01*
X55066252Y-73696189D01*
X55198699Y-73789274D01*
X55205298Y-73792813D01*
X55356129Y-73851620D01*
X55363376Y-73853480D01*
X55486829Y-73869733D01*
X55490908Y-73870000D01*
X55772569Y-73870000D01*
X55781359Y-73866359D01*
X55785000Y-73857569D01*
X56385000Y-73857569D01*
X56388641Y-73866359D01*
X56397431Y-73870000D01*
X56675593Y-73870000D01*
X56679365Y-73869772D01*
X56799456Y-73855240D01*
X56806727Y-73853454D01*
X56958164Y-73796230D01*
X56964794Y-73792764D01*
X57098211Y-73701069D01*
X57103825Y-73696120D01*
X57211521Y-73575245D01*
X57215788Y-73569105D01*
X57262444Y-73480989D01*
X57263340Y-73471513D01*
X57262469Y-73470461D01*
X57260613Y-73470000D01*
X56397431Y-73470000D01*
X56388641Y-73473641D01*
X56385000Y-73482431D01*
X56385000Y-73857569D01*
X55785000Y-73857569D01*
X55785000Y-73482431D01*
X55781359Y-73473641D01*
X55772569Y-73470000D01*
X54914494Y-73470000D01*
X54905704Y-73473641D01*
X54905111Y-73475073D01*
X52833003Y-73475073D01*
X52833340Y-73471513D01*
X52832469Y-73470461D01*
X52830613Y-73470000D01*
X52217431Y-73470000D01*
X52208641Y-73473641D01*
X52205000Y-73482431D01*
X52205000Y-73857569D01*
X51605000Y-73857569D01*
X51605000Y-73482431D01*
X51601359Y-73473641D01*
X51592569Y-73470000D01*
X50984494Y-73470000D01*
X50975704Y-73473641D01*
X50975111Y-73475073D01*
X50700000Y-73475073D01*
X50700000Y-72868487D01*
X50976660Y-72868487D01*
X50977531Y-72869539D01*
X50979387Y-72870000D01*
X51592569Y-72870000D01*
X51601359Y-72866359D01*
X51605000Y-72857569D01*
X52205000Y-72857569D01*
X52208641Y-72866359D01*
X52217431Y-72870000D01*
X52825506Y-72870000D01*
X52829159Y-72868487D01*
X54906660Y-72868487D01*
X54907531Y-72869539D01*
X54909387Y-72870000D01*
X55772569Y-72870000D01*
X55781359Y-72866359D01*
X55785000Y-72857569D01*
X56385000Y-72857569D01*
X56388641Y-72866359D01*
X56397431Y-72870000D01*
X57255506Y-72870000D01*
X57264296Y-72866359D01*
X57264889Y-72864927D01*
X57264507Y-72863354D01*
X57219934Y-72776997D01*
X57215733Y-72770815D01*
X57109307Y-72648816D01*
X57103748Y-72643811D01*
X56971301Y-72550726D01*
X56964702Y-72547187D01*
X56813871Y-72488380D01*
X56806624Y-72486520D01*
X56683171Y-72470267D01*
X56679092Y-72470000D01*
X56397431Y-72470000D01*
X56388641Y-72473641D01*
X56385000Y-72482431D01*
X56385000Y-72857569D01*
X55785000Y-72857569D01*
X55785000Y-72482431D01*
X55781359Y-72473641D01*
X55772569Y-72470000D01*
X55494407Y-72470000D01*
X55490635Y-72470228D01*
X55370544Y-72484760D01*
X55363273Y-72486546D01*
X55211836Y-72543770D01*
X55205206Y-72547236D01*
X55071789Y-72638931D01*
X55066175Y-72643880D01*
X54958479Y-72764755D01*
X54954212Y-72770895D01*
X54907556Y-72859011D01*
X54906660Y-72868487D01*
X52829159Y-72868487D01*
X52834296Y-72866359D01*
X52834889Y-72864927D01*
X52834507Y-72863354D01*
X52789934Y-72776997D01*
X52785733Y-72770815D01*
X52679307Y-72648816D01*
X52673748Y-72643811D01*
X52541301Y-72550726D01*
X52534702Y-72547187D01*
X52383871Y-72488380D01*
X52376624Y-72486520D01*
X52253171Y-72470267D01*
X52249092Y-72470000D01*
X52217431Y-72470000D01*
X52208641Y-72473641D01*
X52205000Y-72482431D01*
X52205000Y-72857569D01*
X51605000Y-72857569D01*
X51605000Y-72482431D01*
X51601359Y-72473641D01*
X51592569Y-72470000D01*
X51564407Y-72470000D01*
X51560635Y-72470228D01*
X51440544Y-72484760D01*
X51433273Y-72486546D01*
X51281836Y-72543770D01*
X51275206Y-72547236D01*
X51141789Y-72638931D01*
X51136175Y-72643880D01*
X51028479Y-72764755D01*
X51024212Y-72770895D01*
X50977556Y-72859011D01*
X50976660Y-72868487D01*
X50700000Y-72868487D01*
X50700000Y-71773307D01*
X55025606Y-71773307D01*
X55054064Y-71914444D01*
X55119429Y-72042730D01*
X55216884Y-72148712D01*
X55220505Y-72150957D01*
X55220506Y-72150958D01*
X55335625Y-72222335D01*
X55335628Y-72222337D01*
X55339250Y-72224582D01*
X55343346Y-72225772D01*
X55474365Y-72263837D01*
X55474368Y-72263837D01*
X55477512Y-72264751D01*
X55480778Y-72264991D01*
X55480779Y-72264991D01*
X55486564Y-72265416D01*
X55486572Y-72265416D01*
X55487712Y-72265500D01*
X55591070Y-72265500D01*
X55697646Y-72250901D01*
X55763658Y-72222335D01*
X55825872Y-72195413D01*
X55825875Y-72195411D01*
X55829783Y-72193720D01*
X55941675Y-72103112D01*
X55982359Y-72045865D01*
X56022611Y-71989224D01*
X56022611Y-71989223D01*
X56025079Y-71985751D01*
X56073850Y-71850285D01*
X56084394Y-71706693D01*
X56055936Y-71565556D01*
X55990571Y-71437270D01*
X55893116Y-71331288D01*
X55824853Y-71288963D01*
X55774375Y-71257665D01*
X55774372Y-71257663D01*
X55770750Y-71255418D01*
X55680160Y-71229099D01*
X55635635Y-71216163D01*
X55635632Y-71216163D01*
X55632488Y-71215249D01*
X55629222Y-71215009D01*
X55629221Y-71215009D01*
X55623436Y-71214584D01*
X55623428Y-71214584D01*
X55622288Y-71214500D01*
X55518930Y-71214500D01*
X55412354Y-71229099D01*
X55354896Y-71253963D01*
X55284128Y-71284587D01*
X55284125Y-71284589D01*
X55280217Y-71286280D01*
X55168325Y-71376888D01*
X55165862Y-71380354D01*
X55165860Y-71380356D01*
X55125414Y-71437270D01*
X55084921Y-71494249D01*
X55036150Y-71629715D01*
X55025606Y-71773307D01*
X50700000Y-71773307D01*
X50700000Y-64835073D01*
X50975111Y-64835073D01*
X50975493Y-64836646D01*
X51020066Y-64923003D01*
X51024267Y-64929185D01*
X51130693Y-65051184D01*
X51136252Y-65056189D01*
X51268699Y-65149274D01*
X51275298Y-65152813D01*
X51426129Y-65211620D01*
X51433376Y-65213480D01*
X51556829Y-65229733D01*
X51560908Y-65230000D01*
X51592569Y-65230000D01*
X51601359Y-65226359D01*
X51605000Y-65217569D01*
X52205000Y-65217569D01*
X52208641Y-65226359D01*
X52217431Y-65230000D01*
X52245593Y-65230000D01*
X52249365Y-65229772D01*
X52369456Y-65215240D01*
X52376727Y-65213454D01*
X52528164Y-65156230D01*
X52534794Y-65152764D01*
X52668211Y-65061069D01*
X52673825Y-65056120D01*
X52781521Y-64935245D01*
X52785788Y-64929105D01*
X52832444Y-64840989D01*
X52833340Y-64831513D01*
X52832469Y-64830461D01*
X52830613Y-64830000D01*
X52217431Y-64830000D01*
X52208641Y-64833641D01*
X52205000Y-64842431D01*
X52205000Y-65217569D01*
X51605000Y-65217569D01*
X51605000Y-64842431D01*
X51601359Y-64833641D01*
X51592569Y-64830000D01*
X50984494Y-64830000D01*
X50975704Y-64833641D01*
X50975111Y-64835073D01*
X50700000Y-64835073D01*
X50700000Y-64228487D01*
X50976660Y-64228487D01*
X50977531Y-64229539D01*
X50979387Y-64230000D01*
X51592569Y-64230000D01*
X51601359Y-64226359D01*
X51605000Y-64217569D01*
X52205000Y-64217569D01*
X52208641Y-64226359D01*
X52217431Y-64230000D01*
X52825506Y-64230000D01*
X52834296Y-64226359D01*
X52834889Y-64224927D01*
X52834507Y-64223354D01*
X52789934Y-64136997D01*
X52785733Y-64130815D01*
X52679307Y-64008816D01*
X52673748Y-64003811D01*
X52541301Y-63910726D01*
X52534702Y-63907187D01*
X52383871Y-63848380D01*
X52376624Y-63846520D01*
X52253171Y-63830267D01*
X52249092Y-63830000D01*
X52217431Y-63830000D01*
X52208641Y-63833641D01*
X52205000Y-63842431D01*
X52205000Y-64217569D01*
X51605000Y-64217569D01*
X51605000Y-63842431D01*
X51601359Y-63833641D01*
X51592569Y-63830000D01*
X51564407Y-63830000D01*
X51560635Y-63830228D01*
X51440544Y-63844760D01*
X51433273Y-63846546D01*
X51281836Y-63903770D01*
X51275206Y-63907236D01*
X51141789Y-63998931D01*
X51136175Y-64003880D01*
X51028479Y-64124755D01*
X51024212Y-64130895D01*
X50977556Y-64219011D01*
X50976660Y-64228487D01*
X50700000Y-64228487D01*
X50700000Y-60625073D01*
X50975111Y-60625073D01*
X50975493Y-60626646D01*
X51020066Y-60713003D01*
X51024267Y-60719185D01*
X51130693Y-60841184D01*
X51136252Y-60846189D01*
X51268699Y-60939274D01*
X51275298Y-60942813D01*
X51426129Y-61001620D01*
X51433376Y-61003480D01*
X51556829Y-61019733D01*
X51560908Y-61020000D01*
X51592569Y-61020000D01*
X51601359Y-61016359D01*
X51605000Y-61007569D01*
X52205000Y-61007569D01*
X52208641Y-61016359D01*
X52217431Y-61020000D01*
X52245593Y-61020000D01*
X52249365Y-61019772D01*
X52369456Y-61005240D01*
X52376727Y-61003454D01*
X52528164Y-60946230D01*
X52534794Y-60942764D01*
X52668211Y-60851069D01*
X52673825Y-60846120D01*
X52781521Y-60725245D01*
X52785788Y-60719105D01*
X52832444Y-60630989D01*
X52833340Y-60621513D01*
X52832469Y-60620461D01*
X52830613Y-60620000D01*
X52217431Y-60620000D01*
X52208641Y-60623641D01*
X52205000Y-60632431D01*
X52205000Y-61007569D01*
X51605000Y-61007569D01*
X51605000Y-60632431D01*
X51601359Y-60623641D01*
X51592569Y-60620000D01*
X50984494Y-60620000D01*
X50975704Y-60623641D01*
X50975111Y-60625073D01*
X50700000Y-60625073D01*
X50700000Y-60018487D01*
X50976660Y-60018487D01*
X50977531Y-60019539D01*
X50979387Y-60020000D01*
X51592569Y-60020000D01*
X51601359Y-60016359D01*
X51605000Y-60007569D01*
X52205000Y-60007569D01*
X52208641Y-60016359D01*
X52217431Y-60020000D01*
X52825506Y-60020000D01*
X52834296Y-60016359D01*
X52834889Y-60014927D01*
X52834507Y-60013354D01*
X52789934Y-59926997D01*
X52785733Y-59920815D01*
X52679307Y-59798816D01*
X52673748Y-59793811D01*
X52541301Y-59700726D01*
X52534702Y-59697187D01*
X52383871Y-59638380D01*
X52376624Y-59636520D01*
X52253171Y-59620267D01*
X52249092Y-59620000D01*
X52217431Y-59620000D01*
X52208641Y-59623641D01*
X52205000Y-59632431D01*
X52205000Y-60007569D01*
X51605000Y-60007569D01*
X51605000Y-59632431D01*
X51601359Y-59623641D01*
X51592569Y-59620000D01*
X51564407Y-59620000D01*
X51560635Y-59620228D01*
X51440544Y-59634760D01*
X51433273Y-59636546D01*
X51281836Y-59693770D01*
X51275206Y-59697236D01*
X51141789Y-59788931D01*
X51136175Y-59793880D01*
X51028479Y-59914755D01*
X51024212Y-59920895D01*
X50977556Y-60009011D01*
X50976660Y-60018487D01*
X50700000Y-60018487D01*
X50700000Y-57635066D01*
X53269660Y-57635066D01*
X53270438Y-57640782D01*
X53273929Y-57666434D01*
X53274500Y-57674862D01*
X53274500Y-68138148D01*
X53274053Y-68144236D01*
X53272575Y-68148542D01*
X53273742Y-68179628D01*
X53274456Y-68198654D01*
X53274500Y-68200998D01*
X53274500Y-68221148D01*
X53275026Y-68223975D01*
X53275291Y-68226842D01*
X53275200Y-68226850D01*
X53275674Y-68231112D01*
X53276774Y-68260408D01*
X53279051Y-68265707D01*
X53282922Y-68274718D01*
X53286940Y-68287946D01*
X53289791Y-68303253D01*
X53305178Y-68328216D01*
X53309387Y-68336317D01*
X53320964Y-68363263D01*
X53324978Y-68368149D01*
X53332360Y-68375531D01*
X53341370Y-68386930D01*
X53348532Y-68398548D01*
X53353126Y-68402041D01*
X53373734Y-68417712D01*
X53380097Y-68423268D01*
X54105384Y-69148555D01*
X54109376Y-69153180D01*
X54111375Y-69157269D01*
X54115605Y-69161193D01*
X54148147Y-69191380D01*
X54149836Y-69193007D01*
X54164077Y-69207248D01*
X54166448Y-69208875D01*
X54168667Y-69210719D01*
X54168608Y-69210789D01*
X54171956Y-69213466D01*
X54193446Y-69233401D01*
X54207911Y-69239172D01*
X54220103Y-69245682D01*
X54228187Y-69251228D01*
X54228190Y-69251229D01*
X54232946Y-69254492D01*
X54257627Y-69260349D01*
X54261470Y-69261261D01*
X54270187Y-69264017D01*
X54297422Y-69274883D01*
X54301813Y-69275314D01*
X54301815Y-69275314D01*
X54301955Y-69275327D01*
X54303715Y-69275500D01*
X54314157Y-69275500D01*
X54328588Y-69277189D01*
X54341866Y-69280340D01*
X54373235Y-69276071D01*
X54381662Y-69275500D01*
X54656587Y-69275500D01*
X54700781Y-69293806D01*
X54713793Y-69312826D01*
X54721961Y-69331390D01*
X54749537Y-69394060D01*
X54770720Y-69442203D01*
X54773584Y-69445610D01*
X54860107Y-69548543D01*
X54860110Y-69548546D01*
X54862970Y-69551948D01*
X54982313Y-69631390D01*
X54986564Y-69632718D01*
X55114905Y-69672814D01*
X55114908Y-69672814D01*
X55119157Y-69674142D01*
X55123609Y-69674224D01*
X55123611Y-69674224D01*
X55190984Y-69675459D01*
X55234835Y-69694571D01*
X55252327Y-69739094D01*
X55251595Y-69747555D01*
X55244391Y-69793823D01*
X55244968Y-69798236D01*
X55244968Y-69798238D01*
X55246499Y-69809942D01*
X55262980Y-69935979D01*
X55264773Y-69940054D01*
X55272556Y-69957741D01*
X55320720Y-70067203D01*
X55323584Y-70070610D01*
X55410107Y-70173543D01*
X55410110Y-70173546D01*
X55412970Y-70176948D01*
X55532313Y-70256390D01*
X55536564Y-70257718D01*
X55664905Y-70297814D01*
X55664908Y-70297814D01*
X55669157Y-70299142D01*
X55673609Y-70299224D01*
X55673611Y-70299224D01*
X55744642Y-70300526D01*
X55812499Y-70301770D01*
X55950817Y-70264060D01*
X56072991Y-70189045D01*
X56169200Y-70082754D01*
X56231710Y-69953733D01*
X56234012Y-69940054D01*
X56240769Y-69899889D01*
X56255496Y-69812354D01*
X56255647Y-69800000D01*
X56235323Y-69658082D01*
X56175984Y-69527572D01*
X56115652Y-69457553D01*
X56100500Y-69416756D01*
X56100500Y-68755052D01*
X56100947Y-68748964D01*
X56102425Y-68744658D01*
X56100544Y-68694546D01*
X56100500Y-68692202D01*
X56100500Y-68672052D01*
X56099974Y-68669225D01*
X56099709Y-68666358D01*
X56099800Y-68666350D01*
X56099326Y-68662088D01*
X56098962Y-68652388D01*
X56098226Y-68632792D01*
X56092078Y-68618482D01*
X56088060Y-68605254D01*
X56086266Y-68595622D01*
X56085209Y-68589947D01*
X56069822Y-68564984D01*
X56065613Y-68556883D01*
X56054036Y-68529937D01*
X56050022Y-68525051D01*
X56042640Y-68517669D01*
X56033630Y-68506270D01*
X56029498Y-68499567D01*
X56029497Y-68499566D01*
X56026468Y-68494652D01*
X56001266Y-68475488D01*
X55994903Y-68469932D01*
X55676415Y-68151444D01*
X55672425Y-68146822D01*
X55670425Y-68142731D01*
X55666822Y-68139389D01*
X55660856Y-68129270D01*
X55627827Y-68056625D01*
X55627826Y-68056624D01*
X55625984Y-68052572D01*
X55623082Y-68049204D01*
X55623080Y-68049201D01*
X55535303Y-67947332D01*
X55532400Y-67943963D01*
X55412095Y-67865985D01*
X55399456Y-67862205D01*
X55365663Y-67852099D01*
X55274739Y-67824907D01*
X55203057Y-67824469D01*
X55135829Y-67824058D01*
X55135828Y-67824058D01*
X55131376Y-67824031D01*
X54993529Y-67863428D01*
X54872280Y-67939930D01*
X54869337Y-67943262D01*
X54869335Y-67943264D01*
X54835328Y-67981770D01*
X54777377Y-68047388D01*
X54753130Y-68099031D01*
X54723568Y-68161996D01*
X54688215Y-68194221D01*
X54640431Y-68192009D01*
X54622799Y-68179628D01*
X54343806Y-67900635D01*
X54325500Y-67856441D01*
X54325500Y-65993307D01*
X55025606Y-65993307D01*
X55054064Y-66134444D01*
X55119429Y-66262730D01*
X55122312Y-66265865D01*
X55212546Y-66363994D01*
X55216884Y-66368712D01*
X55220505Y-66370957D01*
X55220506Y-66370958D01*
X55335625Y-66442335D01*
X55335628Y-66442337D01*
X55339250Y-66444582D01*
X55343346Y-66445772D01*
X55474365Y-66483837D01*
X55474368Y-66483837D01*
X55477512Y-66484751D01*
X55480778Y-66484991D01*
X55480779Y-66484991D01*
X55486564Y-66485416D01*
X55486572Y-66485416D01*
X55487712Y-66485500D01*
X55591070Y-66485500D01*
X55697646Y-66470901D01*
X55763658Y-66442335D01*
X55825872Y-66415413D01*
X55825875Y-66415411D01*
X55829783Y-66413720D01*
X55917288Y-66342860D01*
X55938367Y-66325791D01*
X55938368Y-66325790D01*
X55941675Y-66323112D01*
X55965414Y-66289709D01*
X56022611Y-66209224D01*
X56022611Y-66209223D01*
X56025079Y-66205751D01*
X56034762Y-66178857D01*
X56046796Y-66145430D01*
X56073850Y-66070285D01*
X56077509Y-66020455D01*
X56084082Y-65930945D01*
X56084082Y-65930943D01*
X56084394Y-65926693D01*
X56055936Y-65785556D01*
X55990571Y-65657270D01*
X55893116Y-65551288D01*
X55889494Y-65549042D01*
X55774375Y-65477665D01*
X55774372Y-65477663D01*
X55770750Y-65475418D01*
X55680160Y-65449099D01*
X55635635Y-65436163D01*
X55635632Y-65436163D01*
X55632488Y-65435249D01*
X55629222Y-65435009D01*
X55629221Y-65435009D01*
X55623436Y-65434584D01*
X55623428Y-65434584D01*
X55622288Y-65434500D01*
X55518930Y-65434500D01*
X55412354Y-65449099D01*
X55387041Y-65460053D01*
X55284128Y-65504587D01*
X55284125Y-65504589D01*
X55280217Y-65506280D01*
X55168325Y-65596888D01*
X55165862Y-65600354D01*
X55165860Y-65600356D01*
X55087389Y-65710776D01*
X55084921Y-65714249D01*
X55083478Y-65718257D01*
X55083477Y-65718259D01*
X55063204Y-65774570D01*
X55036150Y-65849715D01*
X55035838Y-65853963D01*
X55026932Y-65975255D01*
X55025606Y-65993307D01*
X54325500Y-65993307D01*
X54325500Y-64835073D01*
X54905111Y-64835073D01*
X54905493Y-64836646D01*
X54950066Y-64923003D01*
X54954267Y-64929185D01*
X55060693Y-65051184D01*
X55066252Y-65056189D01*
X55198699Y-65149274D01*
X55205298Y-65152813D01*
X55356129Y-65211620D01*
X55363376Y-65213480D01*
X55486829Y-65229733D01*
X55490908Y-65230000D01*
X55772569Y-65230000D01*
X55781359Y-65226359D01*
X55785000Y-65217569D01*
X56385000Y-65217569D01*
X56388641Y-65226359D01*
X56397431Y-65230000D01*
X56675593Y-65230000D01*
X56679365Y-65229772D01*
X56799456Y-65215240D01*
X56806727Y-65213454D01*
X56958164Y-65156230D01*
X56964794Y-65152764D01*
X57098211Y-65061069D01*
X57103825Y-65056120D01*
X57211521Y-64935245D01*
X57215788Y-64929105D01*
X57262444Y-64840989D01*
X57263340Y-64831513D01*
X57262469Y-64830461D01*
X57260613Y-64830000D01*
X56397431Y-64830000D01*
X56388641Y-64833641D01*
X56385000Y-64842431D01*
X56385000Y-65217569D01*
X55785000Y-65217569D01*
X55785000Y-64842431D01*
X55781359Y-64833641D01*
X55772569Y-64830000D01*
X54914494Y-64830000D01*
X54905704Y-64833641D01*
X54905111Y-64835073D01*
X54325500Y-64835073D01*
X54325500Y-64228487D01*
X54906660Y-64228487D01*
X54907531Y-64229539D01*
X54909387Y-64230000D01*
X55772569Y-64230000D01*
X55781359Y-64226359D01*
X55785000Y-64217569D01*
X56385000Y-64217569D01*
X56388641Y-64226359D01*
X56397431Y-64230000D01*
X57255506Y-64230000D01*
X57264296Y-64226359D01*
X57264889Y-64224927D01*
X57264507Y-64223354D01*
X57219934Y-64136997D01*
X57215733Y-64130815D01*
X57109307Y-64008816D01*
X57103748Y-64003811D01*
X56971301Y-63910726D01*
X56964702Y-63907187D01*
X56813871Y-63848380D01*
X56806624Y-63846520D01*
X56683171Y-63830267D01*
X56679092Y-63830000D01*
X56397431Y-63830000D01*
X56388641Y-63833641D01*
X56385000Y-63842431D01*
X56385000Y-64217569D01*
X55785000Y-64217569D01*
X55785000Y-63842431D01*
X55781359Y-63833641D01*
X55772569Y-63830000D01*
X55494407Y-63830000D01*
X55490635Y-63830228D01*
X55370544Y-63844760D01*
X55363273Y-63846546D01*
X55211836Y-63903770D01*
X55205206Y-63907236D01*
X55071789Y-63998931D01*
X55066175Y-64003880D01*
X54958479Y-64124755D01*
X54954212Y-64130895D01*
X54907556Y-64219011D01*
X54906660Y-64228487D01*
X54325500Y-64228487D01*
X54325500Y-63593823D01*
X58494391Y-63593823D01*
X58494968Y-63598236D01*
X58494968Y-63598238D01*
X58498184Y-63622828D01*
X58512980Y-63735979D01*
X58514773Y-63740054D01*
X58562438Y-63848380D01*
X58570720Y-63867203D01*
X58573584Y-63870610D01*
X58660107Y-63973543D01*
X58660110Y-63973546D01*
X58662970Y-63976948D01*
X58782313Y-64056390D01*
X58786564Y-64057718D01*
X58914905Y-64097814D01*
X58914908Y-64097814D01*
X58919157Y-64099142D01*
X58923609Y-64099224D01*
X58923611Y-64099224D01*
X58994642Y-64100526D01*
X59062499Y-64101770D01*
X59066799Y-64100598D01*
X59071214Y-64100048D01*
X59071368Y-64101286D01*
X59113986Y-64106712D01*
X59127161Y-64116777D01*
X61331654Y-66321270D01*
X61339425Y-66330739D01*
X61351376Y-66348624D01*
X61356493Y-66352043D01*
X61374377Y-66363993D01*
X61374378Y-66363994D01*
X61437387Y-66406096D01*
X61437389Y-66406097D01*
X61442506Y-66409516D01*
X61550000Y-66430897D01*
X61556038Y-66429696D01*
X61556039Y-66429696D01*
X61571097Y-66426701D01*
X61583289Y-66425500D01*
X64199996Y-66425500D01*
X64244190Y-66443806D01*
X65156740Y-67356356D01*
X65175046Y-67400550D01*
X65174302Y-67410165D01*
X65165855Y-67464418D01*
X65164391Y-67473823D01*
X65164968Y-67478236D01*
X65164968Y-67478238D01*
X65166499Y-67489942D01*
X65182980Y-67615979D01*
X65184773Y-67620054D01*
X65210794Y-67679190D01*
X65240720Y-67747203D01*
X65243584Y-67750610D01*
X65330107Y-67853543D01*
X65330110Y-67853546D01*
X65332970Y-67856948D01*
X65452313Y-67936390D01*
X65456564Y-67937718D01*
X65584905Y-67977814D01*
X65584908Y-67977814D01*
X65589157Y-67979142D01*
X65593609Y-67979224D01*
X65593611Y-67979224D01*
X65664642Y-67980526D01*
X65732499Y-67981770D01*
X65870817Y-67944060D01*
X65992991Y-67869045D01*
X66004400Y-67856441D01*
X66086213Y-67766054D01*
X66089200Y-67762754D01*
X66151710Y-67633733D01*
X66154012Y-67620054D01*
X66160769Y-67579889D01*
X66175496Y-67492354D01*
X66175647Y-67480000D01*
X66155323Y-67338082D01*
X66095984Y-67207572D01*
X66002400Y-67098963D01*
X65882095Y-67020985D01*
X65744739Y-66979907D01*
X65674025Y-66979475D01*
X65605830Y-66979058D01*
X65605828Y-66979058D01*
X65601376Y-66979031D01*
X65597093Y-66980255D01*
X65595094Y-66980529D01*
X65548824Y-66968390D01*
X65542417Y-66962801D01*
X64558347Y-65978731D01*
X64550575Y-65969261D01*
X64542044Y-65956494D01*
X64542043Y-65956493D01*
X64538624Y-65951376D01*
X64524444Y-65941901D01*
X64515630Y-65936011D01*
X64515626Y-65936009D01*
X64515623Y-65936007D01*
X64515622Y-65936006D01*
X64489465Y-65918529D01*
X64452611Y-65893903D01*
X64452609Y-65893902D01*
X64447495Y-65890485D01*
X64441461Y-65889285D01*
X64441459Y-65889284D01*
X64406167Y-65882264D01*
X64367133Y-65874500D01*
X64367132Y-65874500D01*
X64340000Y-65869103D01*
X64318904Y-65873299D01*
X64306713Y-65874500D01*
X61690004Y-65874500D01*
X61645810Y-65856194D01*
X59513373Y-63723757D01*
X59495067Y-63679563D01*
X59495933Y-63669193D01*
X59497106Y-63662225D01*
X59503528Y-63624052D01*
X59505097Y-63614727D01*
X59505097Y-63614724D01*
X59505496Y-63612354D01*
X59505647Y-63600000D01*
X59485323Y-63458082D01*
X59425984Y-63327572D01*
X59332400Y-63218963D01*
X59212095Y-63140985D01*
X59199456Y-63137205D01*
X59103034Y-63108369D01*
X59074739Y-63099907D01*
X59003057Y-63099469D01*
X58935829Y-63099058D01*
X58935828Y-63099058D01*
X58931376Y-63099031D01*
X58793529Y-63138428D01*
X58672280Y-63214930D01*
X58669337Y-63218262D01*
X58669335Y-63218264D01*
X58599329Y-63297532D01*
X58577377Y-63322388D01*
X58516447Y-63452163D01*
X58494391Y-63593823D01*
X54325500Y-63593823D01*
X54325500Y-63043823D01*
X61344391Y-63043823D01*
X61344968Y-63048236D01*
X61344968Y-63048238D01*
X61348432Y-63074728D01*
X61362980Y-63185979D01*
X61364773Y-63190054D01*
X61412065Y-63297532D01*
X61420720Y-63317203D01*
X61428466Y-63326418D01*
X61510107Y-63423543D01*
X61510110Y-63423546D01*
X61512970Y-63426948D01*
X61632313Y-63506390D01*
X61636564Y-63507718D01*
X61764905Y-63547814D01*
X61764908Y-63547814D01*
X61769157Y-63549142D01*
X61773609Y-63549224D01*
X61773611Y-63549224D01*
X61844642Y-63550526D01*
X61912499Y-63551770D01*
X62050817Y-63514060D01*
X62158866Y-63447718D01*
X62169198Y-63441374D01*
X62172991Y-63439045D01*
X62269200Y-63332754D01*
X62331710Y-63203733D01*
X62333378Y-63193823D01*
X62344750Y-63126226D01*
X62355496Y-63062354D01*
X62355647Y-63050000D01*
X62335323Y-62908082D01*
X62275984Y-62777572D01*
X62182400Y-62668963D01*
X62154005Y-62650558D01*
X62126877Y-62611161D01*
X62125500Y-62598113D01*
X62125500Y-61249221D01*
X62143806Y-61205027D01*
X62155297Y-61195959D01*
X62164169Y-61190512D01*
X62247991Y-61139045D01*
X62320425Y-61059021D01*
X62341213Y-61036054D01*
X62344200Y-61032754D01*
X62406710Y-60903733D01*
X62409012Y-60890054D01*
X62430096Y-60764729D01*
X62430496Y-60762354D01*
X62430647Y-60750000D01*
X62410323Y-60608082D01*
X62350984Y-60477572D01*
X62257400Y-60368963D01*
X62137095Y-60290985D01*
X62124456Y-60287205D01*
X62069213Y-60270684D01*
X61999739Y-60249907D01*
X61928058Y-60249469D01*
X61860829Y-60249058D01*
X61860828Y-60249058D01*
X61856376Y-60249031D01*
X61718529Y-60288428D01*
X61597280Y-60364930D01*
X61594337Y-60368262D01*
X61594335Y-60368264D01*
X61518840Y-60453747D01*
X61502377Y-60472388D01*
X61441447Y-60602163D01*
X61419391Y-60743823D01*
X61419968Y-60748236D01*
X61419968Y-60748238D01*
X61421499Y-60759942D01*
X61437980Y-60885979D01*
X61439773Y-60890054D01*
X61489682Y-61003480D01*
X61495720Y-61017203D01*
X61546588Y-61077717D01*
X61559843Y-61093486D01*
X61574500Y-61133702D01*
X61574500Y-62597515D01*
X61556194Y-62641709D01*
X61545351Y-62650373D01*
X61545055Y-62650560D01*
X61522280Y-62664930D01*
X61519337Y-62668262D01*
X61519335Y-62668264D01*
X61475788Y-62717572D01*
X61427377Y-62772388D01*
X61366447Y-62902163D01*
X61344391Y-63043823D01*
X54325500Y-63043823D01*
X54325500Y-60625073D01*
X54905111Y-60625073D01*
X54905493Y-60626646D01*
X54950066Y-60713003D01*
X54954267Y-60719185D01*
X55060693Y-60841184D01*
X55066252Y-60846189D01*
X55198699Y-60939274D01*
X55205298Y-60942813D01*
X55356129Y-61001620D01*
X55363376Y-61003480D01*
X55486829Y-61019733D01*
X55490908Y-61020000D01*
X55772569Y-61020000D01*
X55781359Y-61016359D01*
X55785000Y-61007569D01*
X56385000Y-61007569D01*
X56388641Y-61016359D01*
X56397431Y-61020000D01*
X56675593Y-61020000D01*
X56679365Y-61019772D01*
X56799456Y-61005240D01*
X56806727Y-61003454D01*
X56958164Y-60946230D01*
X56964794Y-60942764D01*
X57098211Y-60851069D01*
X57103825Y-60846120D01*
X57211521Y-60725245D01*
X57215788Y-60719105D01*
X57262444Y-60630989D01*
X57263340Y-60621513D01*
X57262469Y-60620461D01*
X57260613Y-60620000D01*
X56397431Y-60620000D01*
X56388641Y-60623641D01*
X56385000Y-60632431D01*
X56385000Y-61007569D01*
X55785000Y-61007569D01*
X55785000Y-60632431D01*
X55781359Y-60623641D01*
X55772569Y-60620000D01*
X54914494Y-60620000D01*
X54905704Y-60623641D01*
X54905111Y-60625073D01*
X54325500Y-60625073D01*
X54325500Y-60018487D01*
X54906660Y-60018487D01*
X54907531Y-60019539D01*
X54909387Y-60020000D01*
X55772569Y-60020000D01*
X55781359Y-60016359D01*
X55785000Y-60007569D01*
X56385000Y-60007569D01*
X56388641Y-60016359D01*
X56397431Y-60020000D01*
X57255506Y-60020000D01*
X57264296Y-60016359D01*
X57264889Y-60014927D01*
X57264507Y-60013354D01*
X57219934Y-59926997D01*
X57215733Y-59920815D01*
X57109307Y-59798816D01*
X57103748Y-59793811D01*
X56971301Y-59700726D01*
X56964702Y-59697187D01*
X56813871Y-59638380D01*
X56806624Y-59636520D01*
X56683171Y-59620267D01*
X56679092Y-59620000D01*
X56397431Y-59620000D01*
X56388641Y-59623641D01*
X56385000Y-59632431D01*
X56385000Y-60007569D01*
X55785000Y-60007569D01*
X55785000Y-59632431D01*
X55781359Y-59623641D01*
X55772569Y-59620000D01*
X55494407Y-59620000D01*
X55490635Y-59620228D01*
X55370544Y-59634760D01*
X55363273Y-59636546D01*
X55211836Y-59693770D01*
X55205206Y-59697236D01*
X55071789Y-59788931D01*
X55066175Y-59793880D01*
X54958479Y-59914755D01*
X54954212Y-59920895D01*
X54907556Y-60009011D01*
X54906660Y-60018487D01*
X54325500Y-60018487D01*
X54325500Y-58923307D01*
X55025606Y-58923307D01*
X55039804Y-58993722D01*
X55051438Y-59051418D01*
X55054064Y-59064444D01*
X55119429Y-59192730D01*
X55216884Y-59298712D01*
X55220505Y-59300957D01*
X55220506Y-59300958D01*
X55335625Y-59372335D01*
X55335628Y-59372337D01*
X55339250Y-59374582D01*
X55343346Y-59375772D01*
X55474365Y-59413837D01*
X55474368Y-59413837D01*
X55477512Y-59414751D01*
X55480778Y-59414991D01*
X55480779Y-59414991D01*
X55486564Y-59415416D01*
X55486572Y-59415416D01*
X55487712Y-59415500D01*
X55591070Y-59415500D01*
X55697646Y-59400901D01*
X55790210Y-59360845D01*
X55825872Y-59345413D01*
X55825875Y-59345411D01*
X55829783Y-59343720D01*
X55941675Y-59253112D01*
X55962009Y-59224500D01*
X56022611Y-59139224D01*
X56022611Y-59139223D01*
X56025079Y-59135751D01*
X56073850Y-59000285D01*
X56077262Y-58953823D01*
X56084082Y-58860945D01*
X56084082Y-58860943D01*
X56084394Y-58856693D01*
X56062868Y-58749934D01*
X56056779Y-58719736D01*
X56056779Y-58719735D01*
X56055936Y-58715556D01*
X55990571Y-58587270D01*
X55893116Y-58481288D01*
X55839812Y-58448238D01*
X55774375Y-58407665D01*
X55774372Y-58407663D01*
X55770750Y-58405418D01*
X55685984Y-58380791D01*
X55635635Y-58366163D01*
X55635632Y-58366163D01*
X55632488Y-58365249D01*
X55629222Y-58365009D01*
X55629221Y-58365009D01*
X55623436Y-58364584D01*
X55623428Y-58364584D01*
X55622288Y-58364500D01*
X55518930Y-58364500D01*
X55412354Y-58379099D01*
X55354896Y-58403963D01*
X55284128Y-58434587D01*
X55284125Y-58434589D01*
X55280217Y-58436280D01*
X55265450Y-58448238D01*
X55197779Y-58503037D01*
X55168325Y-58526888D01*
X55165862Y-58530354D01*
X55165860Y-58530356D01*
X55126498Y-58585744D01*
X55084921Y-58644249D01*
X55083478Y-58648257D01*
X55083477Y-58648259D01*
X55072526Y-58678676D01*
X55036150Y-58779715D01*
X55035838Y-58783963D01*
X55026751Y-58907718D01*
X55025606Y-58923307D01*
X54325500Y-58923307D01*
X54325500Y-57986756D01*
X54343806Y-57942562D01*
X54884747Y-57401621D01*
X54928941Y-57383315D01*
X54947577Y-57386159D01*
X54987349Y-57398584D01*
X55064905Y-57422814D01*
X55064908Y-57422814D01*
X55069157Y-57424142D01*
X55073609Y-57424224D01*
X55073611Y-57424224D01*
X55144642Y-57425526D01*
X55212499Y-57426770D01*
X55350817Y-57389060D01*
X55472991Y-57314045D01*
X55569200Y-57207754D01*
X55631710Y-57078733D01*
X55635443Y-57056548D01*
X55648798Y-56977163D01*
X55655496Y-56937354D01*
X55655647Y-56925000D01*
X55635323Y-56783082D01*
X55575984Y-56652572D01*
X55482400Y-56543963D01*
X55482850Y-56543575D01*
X55462998Y-56503582D01*
X55479016Y-56457389D01*
X55566213Y-56361055D01*
X55566216Y-56361051D01*
X55569200Y-56357754D01*
X55631710Y-56228733D01*
X55633472Y-56218264D01*
X55647331Y-56135884D01*
X55655496Y-56087354D01*
X55655647Y-56075000D01*
X55635323Y-55933082D01*
X55575984Y-55802572D01*
X55482400Y-55693963D01*
X55362095Y-55615985D01*
X55349456Y-55612205D01*
X55303559Y-55598479D01*
X55224739Y-55574907D01*
X55153057Y-55574469D01*
X55085829Y-55574058D01*
X55085828Y-55574058D01*
X55081376Y-55574031D01*
X54943529Y-55613428D01*
X54822280Y-55689930D01*
X54819337Y-55693262D01*
X54819335Y-55693264D01*
X54745897Y-55776418D01*
X54727377Y-55797388D01*
X54666447Y-55927163D01*
X54644391Y-56068823D01*
X54644968Y-56073235D01*
X54644968Y-56073237D01*
X54650439Y-56115070D01*
X54638019Y-56161264D01*
X54632661Y-56167368D01*
X53401445Y-57398584D01*
X53396820Y-57402576D01*
X53392731Y-57404575D01*
X53388807Y-57408805D01*
X53358620Y-57441347D01*
X53356993Y-57443036D01*
X53342752Y-57457277D01*
X53341125Y-57459648D01*
X53339281Y-57461867D01*
X53339211Y-57461808D01*
X53336534Y-57465156D01*
X53316599Y-57486646D01*
X53310829Y-57501109D01*
X53304318Y-57513303D01*
X53298772Y-57521387D01*
X53298771Y-57521390D01*
X53295508Y-57526146D01*
X53294176Y-57531761D01*
X53288739Y-57554670D01*
X53285983Y-57563387D01*
X53275117Y-57590622D01*
X53274500Y-57596915D01*
X53274500Y-57607357D01*
X53272811Y-57621788D01*
X53269660Y-57635066D01*
X50700000Y-57635066D01*
X50700000Y-55456323D01*
X57706891Y-55456323D01*
X57707468Y-55460736D01*
X57707468Y-55460738D01*
X57712821Y-55501669D01*
X57725480Y-55598479D01*
X57727273Y-55602554D01*
X57766430Y-55691544D01*
X57783220Y-55729703D01*
X57796292Y-55745254D01*
X57872607Y-55836043D01*
X57872610Y-55836046D01*
X57875470Y-55839448D01*
X57908167Y-55861213D01*
X57921633Y-55870177D01*
X57948278Y-55909904D01*
X57949500Y-55922204D01*
X57949500Y-56313714D01*
X57931194Y-56357908D01*
X57927506Y-56361311D01*
X57926044Y-56362555D01*
X57922280Y-56364930D01*
X57919337Y-56368263D01*
X57919334Y-56368265D01*
X57834791Y-56463993D01*
X57827377Y-56472388D01*
X57766447Y-56602163D01*
X57744391Y-56743823D01*
X57744968Y-56748236D01*
X57744968Y-56748238D01*
X57746499Y-56759942D01*
X57762980Y-56885979D01*
X57764773Y-56890054D01*
X57813258Y-57000244D01*
X57820720Y-57017203D01*
X57823584Y-57020610D01*
X57910107Y-57123543D01*
X57910110Y-57123546D01*
X57912970Y-57126948D01*
X58032313Y-57206390D01*
X58036564Y-57207718D01*
X58164905Y-57247814D01*
X58164908Y-57247814D01*
X58169157Y-57249142D01*
X58173609Y-57249224D01*
X58173611Y-57249224D01*
X58244642Y-57250526D01*
X58312499Y-57251770D01*
X58450817Y-57214060D01*
X58572991Y-57139045D01*
X58607169Y-57101286D01*
X58666213Y-57036054D01*
X58669200Y-57032754D01*
X58731710Y-56903733D01*
X58734012Y-56890054D01*
X58746357Y-56816672D01*
X58755496Y-56762354D01*
X58755647Y-56750000D01*
X58735323Y-56608082D01*
X58675984Y-56477572D01*
X58582400Y-56368963D01*
X58578662Y-56366540D01*
X58575310Y-56363616D01*
X58576164Y-56362637D01*
X58551876Y-56327358D01*
X58550500Y-56314316D01*
X58550500Y-55859048D01*
X58566663Y-55817106D01*
X58579819Y-55802572D01*
X58631700Y-55745254D01*
X58694210Y-55616233D01*
X58696512Y-55602554D01*
X58712757Y-55505991D01*
X58717996Y-55474854D01*
X58718147Y-55462500D01*
X58697823Y-55320582D01*
X58638484Y-55190072D01*
X58544900Y-55081463D01*
X58424595Y-55003485D01*
X58411956Y-54999705D01*
X58378163Y-54989599D01*
X58287239Y-54962407D01*
X58215558Y-54961969D01*
X58148329Y-54961558D01*
X58148328Y-54961558D01*
X58143876Y-54961531D01*
X58006029Y-55000928D01*
X57884780Y-55077430D01*
X57881837Y-55080762D01*
X57881835Y-55080764D01*
X57809493Y-55162677D01*
X57789877Y-55184888D01*
X57728947Y-55314663D01*
X57728262Y-55319061D01*
X57728262Y-55319062D01*
X57727339Y-55324991D01*
X57706891Y-55456323D01*
X50700000Y-55456323D01*
X50700000Y-53143307D01*
X55025606Y-53143307D01*
X55044297Y-53236006D01*
X55052261Y-53275500D01*
X55054064Y-53284444D01*
X55119429Y-53412730D01*
X55216884Y-53518712D01*
X55220505Y-53520957D01*
X55220506Y-53520958D01*
X55335625Y-53592335D01*
X55335628Y-53592337D01*
X55339250Y-53594582D01*
X55343346Y-53595772D01*
X55474365Y-53633837D01*
X55474368Y-53633837D01*
X55477512Y-53634751D01*
X55480778Y-53634991D01*
X55480779Y-53634991D01*
X55486564Y-53635416D01*
X55486572Y-53635416D01*
X55487712Y-53635500D01*
X55591070Y-53635500D01*
X55697646Y-53620901D01*
X55780132Y-53585206D01*
X55825872Y-53565413D01*
X55825875Y-53565411D01*
X55829783Y-53563720D01*
X55941675Y-53473112D01*
X55963213Y-53442806D01*
X56022611Y-53359224D01*
X56022611Y-53359223D01*
X56025079Y-53355751D01*
X56031801Y-53337082D01*
X56054217Y-53274818D01*
X56073850Y-53220285D01*
X56075096Y-53203311D01*
X56084082Y-53080945D01*
X56084082Y-53080943D01*
X56084394Y-53076693D01*
X56055936Y-52935556D01*
X55990571Y-52807270D01*
X55893116Y-52701288D01*
X55873633Y-52689208D01*
X55774375Y-52627665D01*
X55774372Y-52627663D01*
X55770750Y-52625418D01*
X55680160Y-52599099D01*
X55635635Y-52586163D01*
X55635632Y-52586163D01*
X55632488Y-52585249D01*
X55629222Y-52585009D01*
X55629221Y-52585009D01*
X55623436Y-52584584D01*
X55623428Y-52584584D01*
X55622288Y-52584500D01*
X55518930Y-52584500D01*
X55412354Y-52599099D01*
X55354896Y-52623963D01*
X55284128Y-52654587D01*
X55284125Y-52654589D01*
X55280217Y-52656280D01*
X55168325Y-52746888D01*
X55165862Y-52750354D01*
X55165860Y-52750356D01*
X55111183Y-52827295D01*
X55084921Y-52864249D01*
X55083478Y-52868257D01*
X55083477Y-52868259D01*
X55066791Y-52914606D01*
X55036150Y-52999715D01*
X55035838Y-53003963D01*
X55028822Y-53099515D01*
X55025606Y-53143307D01*
X50700000Y-53143307D01*
X50700000Y-52029816D01*
X50701590Y-52015810D01*
X50703565Y-52007220D01*
X50705143Y-52000358D01*
X50703398Y-51992646D01*
X50702852Y-51985073D01*
X50975111Y-51985073D01*
X50975493Y-51986646D01*
X51020066Y-52073003D01*
X51024267Y-52079185D01*
X51130693Y-52201184D01*
X51136252Y-52206189D01*
X51268699Y-52299274D01*
X51275298Y-52302813D01*
X51426129Y-52361620D01*
X51433376Y-52363480D01*
X51556829Y-52379733D01*
X51560908Y-52380000D01*
X51592569Y-52380000D01*
X51601359Y-52376359D01*
X51605000Y-52367569D01*
X52205000Y-52367569D01*
X52208641Y-52376359D01*
X52217431Y-52380000D01*
X52245593Y-52380000D01*
X52249365Y-52379772D01*
X52369456Y-52365240D01*
X52376727Y-52363454D01*
X52528164Y-52306230D01*
X52534794Y-52302764D01*
X52668211Y-52211069D01*
X52673825Y-52206120D01*
X52781521Y-52085245D01*
X52785788Y-52079105D01*
X52832444Y-51990989D01*
X52833003Y-51985073D01*
X54905111Y-51985073D01*
X54905493Y-51986646D01*
X54950066Y-52073003D01*
X54954267Y-52079185D01*
X55060693Y-52201184D01*
X55066252Y-52206189D01*
X55198699Y-52299274D01*
X55205298Y-52302813D01*
X55356129Y-52361620D01*
X55363376Y-52363480D01*
X55486829Y-52379733D01*
X55490908Y-52380000D01*
X55772569Y-52380000D01*
X55781359Y-52376359D01*
X55785000Y-52367569D01*
X56385000Y-52367569D01*
X56388641Y-52376359D01*
X56397431Y-52380000D01*
X56675593Y-52380000D01*
X56679365Y-52379772D01*
X56799456Y-52365240D01*
X56806727Y-52363454D01*
X56958164Y-52306230D01*
X56964794Y-52302764D01*
X57098211Y-52211069D01*
X57103825Y-52206120D01*
X57211521Y-52085245D01*
X57215788Y-52079105D01*
X57262444Y-51990989D01*
X57263340Y-51981513D01*
X57262469Y-51980461D01*
X57260613Y-51980000D01*
X56397431Y-51980000D01*
X56388641Y-51983641D01*
X56385000Y-51992431D01*
X56385000Y-52367569D01*
X55785000Y-52367569D01*
X55785000Y-51992431D01*
X55781359Y-51983641D01*
X55772569Y-51980000D01*
X54914494Y-51980000D01*
X54905704Y-51983641D01*
X54905111Y-51985073D01*
X52833003Y-51985073D01*
X52833340Y-51981513D01*
X52832469Y-51980461D01*
X52830613Y-51980000D01*
X52217431Y-51980000D01*
X52208641Y-51983641D01*
X52205000Y-51992431D01*
X52205000Y-52367569D01*
X51605000Y-52367569D01*
X51605000Y-51992431D01*
X51601359Y-51983641D01*
X51592569Y-51980000D01*
X50984494Y-51980000D01*
X50975704Y-51983641D01*
X50975111Y-51985073D01*
X50702852Y-51985073D01*
X50702050Y-51973949D01*
X50715619Y-51801541D01*
X50717153Y-51791855D01*
X50754182Y-51637619D01*
X50762480Y-51603057D01*
X50765510Y-51593731D01*
X50772428Y-51577031D01*
X50839811Y-51414354D01*
X50844262Y-51405619D01*
X50864457Y-51372665D01*
X50903157Y-51344549D01*
X50950403Y-51352033D01*
X50965903Y-51365483D01*
X50977531Y-51379539D01*
X50979387Y-51380000D01*
X51592569Y-51380000D01*
X51601359Y-51376359D01*
X51605000Y-51367569D01*
X52205000Y-51367569D01*
X52208641Y-51376359D01*
X52217431Y-51380000D01*
X52825506Y-51380000D01*
X52829159Y-51378487D01*
X54906660Y-51378487D01*
X54907531Y-51379539D01*
X54909387Y-51380000D01*
X55772569Y-51380000D01*
X55781359Y-51376359D01*
X55785000Y-51367569D01*
X56385000Y-51367569D01*
X56388641Y-51376359D01*
X56397431Y-51380000D01*
X57255506Y-51380000D01*
X57264296Y-51376359D01*
X57264889Y-51374927D01*
X57264507Y-51373354D01*
X57219934Y-51286997D01*
X57215733Y-51280815D01*
X57109307Y-51158816D01*
X57103748Y-51153811D01*
X56971301Y-51060726D01*
X56964702Y-51057187D01*
X56813871Y-50998380D01*
X56806624Y-50996520D01*
X56683171Y-50980267D01*
X56679092Y-50980000D01*
X56397431Y-50980000D01*
X56388641Y-50983641D01*
X56385000Y-50992431D01*
X56385000Y-51367569D01*
X55785000Y-51367569D01*
X55785000Y-50992431D01*
X55781359Y-50983641D01*
X55772569Y-50980000D01*
X55494407Y-50980000D01*
X55490635Y-50980228D01*
X55370544Y-50994760D01*
X55363273Y-50996546D01*
X55211836Y-51053770D01*
X55205206Y-51057236D01*
X55071789Y-51148931D01*
X55066175Y-51153880D01*
X54958479Y-51274755D01*
X54954212Y-51280895D01*
X54907556Y-51369011D01*
X54906660Y-51378487D01*
X52829159Y-51378487D01*
X52834296Y-51376359D01*
X52834889Y-51374927D01*
X52834507Y-51373354D01*
X52789934Y-51286997D01*
X52785733Y-51280815D01*
X52679307Y-51158816D01*
X52673748Y-51153811D01*
X52541301Y-51060726D01*
X52534702Y-51057187D01*
X52383871Y-50998380D01*
X52376624Y-50996520D01*
X52253171Y-50980267D01*
X52249092Y-50980000D01*
X52217431Y-50980000D01*
X52208641Y-50983641D01*
X52205000Y-50992431D01*
X52205000Y-51367569D01*
X51605000Y-51367569D01*
X51605000Y-50992431D01*
X51601359Y-50983641D01*
X51592569Y-50980000D01*
X51564407Y-50980000D01*
X51560635Y-50980228D01*
X51440544Y-50994760D01*
X51433276Y-50996545D01*
X51331429Y-51035031D01*
X51283617Y-51033529D01*
X51250871Y-50998659D01*
X51252373Y-50950847D01*
X51276680Y-50923276D01*
X51364248Y-50869614D01*
X51405624Y-50844259D01*
X51414354Y-50839811D01*
X51593736Y-50765508D01*
X51603057Y-50762480D01*
X51657930Y-50749306D01*
X51791855Y-50717153D01*
X51801541Y-50715619D01*
X51973507Y-50702085D01*
X51992418Y-50703482D01*
X51992701Y-50703547D01*
X51999642Y-50705143D01*
X52006505Y-50703590D01*
X52006507Y-50703590D01*
X52015561Y-50701541D01*
X52029354Y-50700000D01*
X69669496Y-50700000D01*
X69713690Y-50718306D01*
G37*
G04 #@! TD.AperFunction*
G04 #@! TA.AperFunction,Conductor*
G36*
X72303534Y-63006507D02*
G01*
X72316547Y-63025529D01*
X72330871Y-63058082D01*
X72338195Y-63074728D01*
X72341059Y-63078135D01*
X72427582Y-63181068D01*
X72427585Y-63181071D01*
X72430445Y-63184473D01*
X72549788Y-63263915D01*
X72554039Y-63265243D01*
X72554041Y-63265244D01*
X72559276Y-63266880D01*
X72596001Y-63297532D01*
X72603138Y-63326536D01*
X72603138Y-65930881D01*
X72585558Y-65974337D01*
X72571406Y-65988966D01*
X72570680Y-65989704D01*
X72553481Y-66006903D01*
X72552469Y-66008418D01*
X72551075Y-66009981D01*
X72411726Y-66154023D01*
X72393925Y-66172423D01*
X72350040Y-66191458D01*
X72305549Y-66173887D01*
X72288699Y-66137558D01*
X72287133Y-66137782D01*
X72284264Y-66117750D01*
X72266809Y-65995864D01*
X72207470Y-65865354D01*
X72113886Y-65756745D01*
X71993581Y-65678767D01*
X71980942Y-65674987D01*
X71934393Y-65661066D01*
X71856225Y-65637689D01*
X71784543Y-65637251D01*
X71717315Y-65636840D01*
X71717314Y-65636840D01*
X71712862Y-65636813D01*
X71575015Y-65676210D01*
X71453766Y-65752712D01*
X71450823Y-65756044D01*
X71450821Y-65756046D01*
X71390705Y-65824115D01*
X71358863Y-65860170D01*
X71356971Y-65864200D01*
X71319799Y-65943373D01*
X71284446Y-65975598D01*
X71236662Y-65973386D01*
X71229231Y-65969258D01*
X71192727Y-65945598D01*
X71192722Y-65945596D01*
X71188989Y-65943176D01*
X71176350Y-65939396D01*
X71106581Y-65918531D01*
X71051633Y-65902098D01*
X70979951Y-65901660D01*
X70912723Y-65901249D01*
X70912722Y-65901249D01*
X70908270Y-65901222D01*
X70770423Y-65940619D01*
X70649174Y-66017121D01*
X70646231Y-66020453D01*
X70646229Y-66020455D01*
X70568666Y-66108280D01*
X70554271Y-66124579D01*
X70493341Y-66254354D01*
X70471285Y-66396014D01*
X70471862Y-66400427D01*
X70471862Y-66400430D01*
X70481144Y-66471413D01*
X70471139Y-66514238D01*
X70462902Y-66526566D01*
X70462902Y-66526567D01*
X70462901Y-66526568D01*
X70452131Y-66542687D01*
X70417380Y-66594695D01*
X70401506Y-66674500D01*
X70395998Y-66702190D01*
X70397199Y-66708227D01*
X70400194Y-66723283D01*
X70401395Y-66735477D01*
X70401395Y-66999599D01*
X70383089Y-67043793D01*
X68975180Y-68451702D01*
X68930986Y-68470008D01*
X68886792Y-68451702D01*
X68874091Y-68433377D01*
X68827827Y-68331624D01*
X68827825Y-68331620D01*
X68825984Y-68327572D01*
X68732400Y-68218963D01*
X68612095Y-68140985D01*
X68599436Y-68137199D01*
X68536398Y-68118347D01*
X68474739Y-68099907D01*
X68404025Y-68099475D01*
X68335830Y-68099058D01*
X68335828Y-68099058D01*
X68331376Y-68099031D01*
X68327093Y-68100255D01*
X68325094Y-68100529D01*
X68278824Y-68088390D01*
X68272417Y-68082801D01*
X67868806Y-67679190D01*
X67850500Y-67634996D01*
X67850500Y-66707494D01*
X67856754Y-66680243D01*
X67879768Y-66632741D01*
X67881710Y-66628733D01*
X67905496Y-66487354D01*
X67905647Y-66475000D01*
X67885323Y-66333082D01*
X67825984Y-66202572D01*
X67732400Y-66093963D01*
X67612095Y-66015985D01*
X67599456Y-66012205D01*
X67541334Y-65994823D01*
X67474739Y-65974907D01*
X67403057Y-65974469D01*
X67335829Y-65974058D01*
X67335828Y-65974058D01*
X67331376Y-65974031D01*
X67193529Y-66013428D01*
X67189766Y-66015802D01*
X67189760Y-66015805D01*
X67171350Y-66027421D01*
X67124206Y-66035522D01*
X67085142Y-66007913D01*
X67075500Y-65974563D01*
X67075500Y-64101750D01*
X67093806Y-64057556D01*
X67138000Y-64039250D01*
X67172632Y-64049723D01*
X67253447Y-64103518D01*
X67257698Y-64104846D01*
X67386039Y-64144942D01*
X67386042Y-64144942D01*
X67390291Y-64146270D01*
X67394743Y-64146352D01*
X67394745Y-64146352D01*
X67465776Y-64147654D01*
X67533633Y-64148898D01*
X67671951Y-64111188D01*
X67794125Y-64036173D01*
X67827835Y-63998931D01*
X67887347Y-63933182D01*
X67890334Y-63929882D01*
X67930710Y-63846546D01*
X67950902Y-63804870D01*
X67950903Y-63804868D01*
X67952844Y-63800861D01*
X67955070Y-63787631D01*
X67980455Y-63747086D01*
X68016704Y-63735500D01*
X71338751Y-63735500D01*
X71350942Y-63736701D01*
X71372038Y-63740897D01*
X71399170Y-63735500D01*
X71399171Y-63735500D01*
X71438205Y-63727736D01*
X71473497Y-63720716D01*
X71473499Y-63720715D01*
X71479533Y-63719515D01*
X71484647Y-63716098D01*
X71484649Y-63716097D01*
X71505846Y-63701933D01*
X71521503Y-63691471D01*
X71547660Y-63673994D01*
X71547661Y-63673993D01*
X71547664Y-63673991D01*
X71547668Y-63673989D01*
X71565545Y-63662043D01*
X71570662Y-63658624D01*
X71582613Y-63640739D01*
X71590384Y-63631270D01*
X71902603Y-63319051D01*
X72215146Y-63006507D01*
X72259340Y-62988201D01*
X72303534Y-63006507D01*
G37*
G04 #@! TD.AperFunction*
G04 #@! TA.AperFunction,Conductor*
G36*
X75695584Y-55043806D02*
G01*
X75713890Y-55088000D01*
X75709133Y-55111918D01*
X75660300Y-55229813D01*
X75658453Y-55234271D01*
X75657919Y-55238327D01*
X75657918Y-55238331D01*
X75646055Y-55328444D01*
X75640584Y-55370000D01*
X75641119Y-55374064D01*
X75656057Y-55487528D01*
X75658453Y-55505729D01*
X75660019Y-55509509D01*
X75660019Y-55509510D01*
X75703063Y-55613428D01*
X75710842Y-55632208D01*
X75794182Y-55740818D01*
X75823079Y-55762992D01*
X75836879Y-55773581D01*
X75860796Y-55815008D01*
X75848415Y-55861213D01*
X75843025Y-55867359D01*
X75627551Y-56082833D01*
X75583357Y-56101139D01*
X75577370Y-56100694D01*
X75574739Y-56099907D01*
X75507225Y-56099494D01*
X75435829Y-56099058D01*
X75435828Y-56099058D01*
X75431376Y-56099031D01*
X75293529Y-56138428D01*
X75172280Y-56214930D01*
X75169337Y-56218262D01*
X75169335Y-56218264D01*
X75084506Y-56314316D01*
X75077377Y-56322388D01*
X75016447Y-56452163D01*
X74994391Y-56593823D01*
X74994968Y-56598236D01*
X74994968Y-56598238D01*
X74999768Y-56634945D01*
X75012980Y-56735979D01*
X75014773Y-56740054D01*
X75052151Y-56825001D01*
X75070720Y-56867203D01*
X75073584Y-56870610D01*
X75160107Y-56973543D01*
X75160110Y-56973546D01*
X75162970Y-56976948D01*
X75282313Y-57056390D01*
X75286564Y-57057718D01*
X75414905Y-57097814D01*
X75414908Y-57097814D01*
X75419157Y-57099142D01*
X75423609Y-57099224D01*
X75423611Y-57099224D01*
X75494642Y-57100526D01*
X75562499Y-57101770D01*
X75566799Y-57100598D01*
X75571214Y-57100048D01*
X75571368Y-57101286D01*
X75613986Y-57106712D01*
X75627161Y-57116777D01*
X76090204Y-57579820D01*
X76097976Y-57589290D01*
X76102052Y-57595390D01*
X76109927Y-57607175D01*
X76131797Y-57621788D01*
X76132928Y-57622544D01*
X76132929Y-57622545D01*
X76151668Y-57635066D01*
X76195937Y-57664646D01*
X76195939Y-57664647D01*
X76201056Y-57668066D01*
X76281418Y-57684051D01*
X76281419Y-57684051D01*
X76308551Y-57689448D01*
X76329646Y-57685252D01*
X76341839Y-57684051D01*
X77108162Y-57684051D01*
X77120353Y-57685252D01*
X77141449Y-57689448D01*
X77168581Y-57684051D01*
X77168582Y-57684051D01*
X77248944Y-57668066D01*
X77254061Y-57664647D01*
X77254063Y-57664646D01*
X77298332Y-57635066D01*
X77317071Y-57622545D01*
X77317072Y-57622544D01*
X77318203Y-57621788D01*
X77340073Y-57607175D01*
X77347948Y-57595390D01*
X77352024Y-57589290D01*
X77359796Y-57579820D01*
X77893306Y-57046310D01*
X77937500Y-57028004D01*
X77981694Y-57046310D01*
X78000000Y-57090504D01*
X78000000Y-57449141D01*
X77981694Y-57493335D01*
X77543584Y-57931445D01*
X77499009Y-57949750D01*
X77440298Y-57949391D01*
X77385829Y-57949058D01*
X77385828Y-57949058D01*
X77381376Y-57949031D01*
X77243529Y-57988428D01*
X77122280Y-58064930D01*
X77119337Y-58068262D01*
X77119335Y-58068264D01*
X77044210Y-58153328D01*
X77027377Y-58172388D01*
X76966447Y-58302163D01*
X76944391Y-58443823D01*
X76944968Y-58448236D01*
X76944968Y-58448238D01*
X76946814Y-58462354D01*
X76962980Y-58585979D01*
X76964773Y-58590054D01*
X77018324Y-58711757D01*
X77020720Y-58717203D01*
X77023584Y-58720610D01*
X77110107Y-58823543D01*
X77110110Y-58823546D01*
X77112970Y-58826948D01*
X77232313Y-58906390D01*
X77236564Y-58907718D01*
X77364905Y-58947814D01*
X77364908Y-58947814D01*
X77369157Y-58949142D01*
X77373609Y-58949224D01*
X77373611Y-58949224D01*
X77444642Y-58950526D01*
X77512499Y-58951770D01*
X77650817Y-58914060D01*
X77772991Y-58839045D01*
X77785813Y-58824880D01*
X77866213Y-58736054D01*
X77869200Y-58732754D01*
X77881254Y-58707874D01*
X77916997Y-58676084D01*
X77964751Y-58678879D01*
X77996541Y-58714622D01*
X78000000Y-58735125D01*
X78000000Y-65322000D01*
X77981694Y-65366194D01*
X77937500Y-65384500D01*
X77311756Y-65384500D01*
X77267562Y-65366194D01*
X73724319Y-61822951D01*
X73706013Y-61778757D01*
X73724319Y-61734563D01*
X73768513Y-61716257D01*
X75300753Y-61716257D01*
X75344947Y-61734563D01*
X76476740Y-62866356D01*
X76495046Y-62910550D01*
X76494302Y-62920165D01*
X76488588Y-62956867D01*
X76484391Y-62983823D01*
X76484968Y-62988236D01*
X76484968Y-62988238D01*
X76486499Y-62999942D01*
X76502980Y-63125979D01*
X76504773Y-63130054D01*
X76542830Y-63216544D01*
X76560720Y-63257203D01*
X76563584Y-63260610D01*
X76650107Y-63363543D01*
X76650110Y-63363546D01*
X76652970Y-63366948D01*
X76772313Y-63446390D01*
X76789415Y-63451733D01*
X76904905Y-63487814D01*
X76904908Y-63487814D01*
X76909157Y-63489142D01*
X76913609Y-63489224D01*
X76913611Y-63489224D01*
X76984642Y-63490526D01*
X77052499Y-63491770D01*
X77190817Y-63454060D01*
X77312991Y-63379045D01*
X77409200Y-63272754D01*
X77471710Y-63143733D01*
X77472809Y-63137205D01*
X77486120Y-63058082D01*
X77495496Y-63002354D01*
X77495647Y-62990000D01*
X77475323Y-62848082D01*
X77415984Y-62717572D01*
X77322400Y-62608963D01*
X77202095Y-62530985D01*
X77064739Y-62489907D01*
X76994025Y-62489475D01*
X76925830Y-62489058D01*
X76925828Y-62489058D01*
X76921376Y-62489031D01*
X76917093Y-62490255D01*
X76915094Y-62490529D01*
X76868824Y-62478390D01*
X76862417Y-62472801D01*
X75659104Y-61269488D01*
X75651332Y-61260018D01*
X75642801Y-61247251D01*
X75642800Y-61247250D01*
X75639381Y-61242133D01*
X75616380Y-61226764D01*
X75616379Y-61226763D01*
X75562125Y-61190512D01*
X75548252Y-61181242D01*
X75542216Y-61180041D01*
X75542215Y-61180041D01*
X75520569Y-61175735D01*
X75467890Y-61165257D01*
X75467889Y-61165257D01*
X75440757Y-61159860D01*
X75419661Y-61164056D01*
X75407470Y-61165257D01*
X73372693Y-61165257D01*
X73325345Y-61143555D01*
X73297228Y-61110923D01*
X73253108Y-61059720D01*
X73132803Y-60981742D01*
X73120164Y-60977962D01*
X73022645Y-60948798D01*
X72995447Y-60940664D01*
X72923765Y-60940226D01*
X72856537Y-60939815D01*
X72856536Y-60939815D01*
X72852084Y-60939788D01*
X72714237Y-60979185D01*
X72592988Y-61055687D01*
X72590045Y-61059019D01*
X72590043Y-61059021D01*
X72519369Y-61139045D01*
X72498085Y-61163145D01*
X72437155Y-61292920D01*
X72415099Y-61434580D01*
X72415676Y-61438993D01*
X72415676Y-61438995D01*
X72416296Y-61443733D01*
X72433688Y-61576736D01*
X72435481Y-61580812D01*
X72435482Y-61580814D01*
X72449339Y-61612308D01*
X72450382Y-61660132D01*
X72417303Y-61694686D01*
X72404327Y-61698777D01*
X72345469Y-61710485D01*
X72340352Y-61713904D01*
X72340350Y-61713905D01*
X72333128Y-61718731D01*
X72318659Y-61728399D01*
X72277342Y-61756006D01*
X72277341Y-61756007D01*
X72254340Y-61771376D01*
X72250921Y-61776493D01*
X72250920Y-61776494D01*
X72242389Y-61789261D01*
X72234617Y-61798731D01*
X72107824Y-61925524D01*
X72063630Y-61943830D01*
X72019436Y-61925524D01*
X72006735Y-61907199D01*
X71967827Y-61821624D01*
X71967825Y-61821620D01*
X71965984Y-61817572D01*
X71963080Y-61814202D01*
X71963077Y-61814197D01*
X71900390Y-61741445D01*
X71885410Y-61696016D01*
X71901401Y-61658706D01*
X71976213Y-61576054D01*
X71979200Y-61572754D01*
X72041710Y-61443733D01*
X72043311Y-61434220D01*
X72065096Y-61304729D01*
X72065496Y-61302354D01*
X72065647Y-61290000D01*
X72045323Y-61148082D01*
X72002651Y-61054229D01*
X72001023Y-61006422D01*
X72026843Y-60975100D01*
X72049193Y-60961377D01*
X72052991Y-60959045D01*
X72149200Y-60852754D01*
X72211710Y-60723733D01*
X72212476Y-60719185D01*
X72218109Y-60685697D01*
X72243493Y-60645152D01*
X72290112Y-60634432D01*
X72298380Y-60636410D01*
X72414903Y-60672813D01*
X72419157Y-60674142D01*
X72423609Y-60674224D01*
X72423611Y-60674224D01*
X72494642Y-60675526D01*
X72562499Y-60676770D01*
X72700817Y-60639060D01*
X72822991Y-60564045D01*
X72919200Y-60457754D01*
X72981710Y-60328733D01*
X72988678Y-60287320D01*
X72991476Y-60270684D01*
X73005496Y-60187354D01*
X73005647Y-60175000D01*
X72985323Y-60033082D01*
X72925984Y-59902572D01*
X72832400Y-59793963D01*
X72832850Y-59793575D01*
X72812998Y-59753582D01*
X72829016Y-59707389D01*
X72916213Y-59611055D01*
X72916216Y-59611051D01*
X72919200Y-59607754D01*
X72981710Y-59478733D01*
X73005496Y-59337354D01*
X73005647Y-59325000D01*
X72985323Y-59183082D01*
X72925984Y-59052572D01*
X72832400Y-58943963D01*
X72712095Y-58865985D01*
X72695243Y-58860945D01*
X72622013Y-58839045D01*
X72574739Y-58824907D01*
X72503058Y-58824469D01*
X72435829Y-58824058D01*
X72435828Y-58824058D01*
X72431376Y-58824031D01*
X72399702Y-58833084D01*
X72333618Y-58851970D01*
X72286095Y-58846513D01*
X72256349Y-58809051D01*
X72261806Y-58761528D01*
X72270106Y-58749934D01*
X72297713Y-58719435D01*
X72304550Y-58711881D01*
X72367060Y-58582860D01*
X72390846Y-58441481D01*
X72390997Y-58429127D01*
X72370673Y-58287209D01*
X72311334Y-58156699D01*
X72217750Y-58048090D01*
X72097445Y-57970112D01*
X71960089Y-57929034D01*
X71816726Y-57928158D01*
X71816736Y-57926468D01*
X71776290Y-57915856D01*
X71769884Y-57910268D01*
X71043806Y-57184190D01*
X71025500Y-57139996D01*
X71025500Y-55440939D01*
X71043806Y-55396745D01*
X71088000Y-55378439D01*
X71122633Y-55388912D01*
X71132964Y-55395789D01*
X71150066Y-55401132D01*
X71265556Y-55437213D01*
X71265559Y-55437213D01*
X71269808Y-55438541D01*
X71274260Y-55438623D01*
X71274262Y-55438623D01*
X71345293Y-55439925D01*
X71413150Y-55441169D01*
X71551468Y-55403459D01*
X71673642Y-55328444D01*
X71676768Y-55324991D01*
X71705953Y-55292747D01*
X71749182Y-55272266D01*
X71794232Y-55288352D01*
X71800129Y-55294469D01*
X71873993Y-55382341D01*
X71993336Y-55461783D01*
X71997587Y-55463111D01*
X72125928Y-55503207D01*
X72125931Y-55503207D01*
X72130180Y-55504535D01*
X72134632Y-55504617D01*
X72134634Y-55504617D01*
X72205665Y-55505919D01*
X72273522Y-55507163D01*
X72383443Y-55477195D01*
X72430895Y-55483231D01*
X72460181Y-55521054D01*
X72460717Y-55523724D01*
X72461463Y-55526395D01*
X72462040Y-55530809D01*
X72463833Y-55534884D01*
X72511689Y-55643644D01*
X72519780Y-55662033D01*
X72522644Y-55665440D01*
X72609167Y-55768373D01*
X72609170Y-55768376D01*
X72612030Y-55771778D01*
X72731373Y-55851220D01*
X72735625Y-55852548D01*
X72739641Y-55854464D01*
X72738785Y-55856259D01*
X72770297Y-55882554D01*
X72774596Y-55930195D01*
X72771513Y-55938125D01*
X72741447Y-56002163D01*
X72719391Y-56143823D01*
X72719968Y-56148236D01*
X72719968Y-56148238D01*
X72725436Y-56190054D01*
X72737980Y-56285979D01*
X72739773Y-56290054D01*
X72788060Y-56399794D01*
X72795720Y-56417203D01*
X72798584Y-56420610D01*
X72885107Y-56523543D01*
X72885110Y-56523546D01*
X72887970Y-56526948D01*
X73007313Y-56606390D01*
X73098720Y-56634947D01*
X73135443Y-56665597D01*
X73139738Y-56713239D01*
X73122159Y-56739823D01*
X73122280Y-56739930D01*
X73027377Y-56847388D01*
X72966447Y-56977163D01*
X72944391Y-57118823D01*
X72944968Y-57123236D01*
X72944968Y-57123238D01*
X72947340Y-57141374D01*
X72962980Y-57260979D01*
X72964773Y-57265054D01*
X73018061Y-57386159D01*
X73020720Y-57392203D01*
X73023584Y-57395610D01*
X73110107Y-57498543D01*
X73110110Y-57498546D01*
X73112970Y-57501948D01*
X73232313Y-57581390D01*
X73236564Y-57582718D01*
X73364905Y-57622814D01*
X73364908Y-57622814D01*
X73369157Y-57624142D01*
X73373609Y-57624224D01*
X73373611Y-57624224D01*
X73444642Y-57625526D01*
X73512499Y-57626770D01*
X73650817Y-57589060D01*
X73772991Y-57514045D01*
X73869200Y-57407754D01*
X73931710Y-57278733D01*
X73934012Y-57265054D01*
X73942982Y-57211733D01*
X73955496Y-57137354D01*
X73955647Y-57125000D01*
X73945844Y-57056547D01*
X73955748Y-57012962D01*
X73964247Y-57000244D01*
X74006095Y-56937614D01*
X74006096Y-56937612D01*
X74009515Y-56932495D01*
X74030896Y-56825001D01*
X74029695Y-56818962D01*
X74026700Y-56803904D01*
X74025499Y-56791712D01*
X74025499Y-56390005D01*
X74043805Y-56345811D01*
X75345810Y-55043806D01*
X75390004Y-55025500D01*
X75651390Y-55025500D01*
X75695584Y-55043806D01*
G37*
G04 #@! TD.AperFunction*
G04 #@! TA.AperFunction,Conductor*
G36*
X71034407Y-62183806D02*
G01*
X71050931Y-62217354D01*
X71051206Y-62217277D01*
X71051615Y-62218741D01*
X71052185Y-62219899D01*
X71052980Y-62225979D01*
X71054773Y-62230054D01*
X71075909Y-62278088D01*
X71110720Y-62357203D01*
X71113584Y-62360610D01*
X71200107Y-62463543D01*
X71200110Y-62463546D01*
X71202970Y-62466948D01*
X71322313Y-62546390D01*
X71349164Y-62554779D01*
X71385888Y-62585428D01*
X71390183Y-62633070D01*
X71374720Y-62658628D01*
X71167154Y-62866194D01*
X71122960Y-62884500D01*
X68191886Y-62884500D01*
X68147692Y-62866194D01*
X68130017Y-62830860D01*
X68125323Y-62798082D01*
X68065984Y-62667572D01*
X67972400Y-62558963D01*
X67852095Y-62480985D01*
X67824730Y-62472801D01*
X67793773Y-62463543D01*
X67714739Y-62439907D01*
X67687356Y-62439740D01*
X67643275Y-62421165D01*
X67625869Y-62386101D01*
X67611879Y-62288416D01*
X67611248Y-62284007D01*
X67597545Y-62253869D01*
X67595917Y-62206061D01*
X67628571Y-62171105D01*
X67654440Y-62165500D01*
X70990213Y-62165500D01*
X71034407Y-62183806D01*
G37*
G04 #@! TD.AperFunction*
G04 #@! TA.AperFunction,Conductor*
G36*
X75200534Y-51086525D02*
G01*
X75218840Y-51130719D01*
X75209401Y-51160833D01*
X75210549Y-51161441D01*
X75132032Y-51309733D01*
X75091155Y-51472473D01*
X75091135Y-51476238D01*
X75091135Y-51476240D01*
X75090804Y-51539551D01*
X75090276Y-51640267D01*
X75091156Y-51643931D01*
X75091156Y-51643934D01*
X75115149Y-51743872D01*
X75129447Y-51803426D01*
X75131174Y-51806773D01*
X75131176Y-51806777D01*
X75204678Y-51949183D01*
X75206407Y-51952532D01*
X75233545Y-51983641D01*
X75311500Y-52073003D01*
X75316711Y-52078977D01*
X75453993Y-52175460D01*
X75457504Y-52176829D01*
X75457506Y-52176830D01*
X75606817Y-52235044D01*
X75606821Y-52235045D01*
X75610327Y-52236412D01*
X75614064Y-52236904D01*
X75736268Y-52252993D01*
X75736274Y-52252993D01*
X75738299Y-52253260D01*
X75826079Y-52253260D01*
X75909002Y-52243225D01*
X75946838Y-52238647D01*
X75946839Y-52238647D01*
X75950580Y-52238194D01*
X75953757Y-52236994D01*
X76000926Y-52244212D01*
X76012742Y-52253478D01*
X76156210Y-52396946D01*
X76165000Y-52400587D01*
X76173790Y-52396946D01*
X76309329Y-52261407D01*
X76312571Y-52253580D01*
X76307887Y-52251270D01*
X76212783Y-52238749D01*
X76171356Y-52214831D01*
X76158976Y-52168626D01*
X76185541Y-52125276D01*
X76194521Y-52119104D01*
X76245828Y-52083842D01*
X76357451Y-51958559D01*
X76435968Y-51810267D01*
X76476845Y-51647527D01*
X76477724Y-51479733D01*
X76438553Y-51316574D01*
X76436826Y-51313227D01*
X76436824Y-51313223D01*
X76363321Y-51170816D01*
X76361593Y-51167468D01*
X76359872Y-51165495D01*
X76350245Y-51119007D01*
X76376509Y-51079026D01*
X76411638Y-51068219D01*
X77188340Y-51068219D01*
X77232534Y-51086525D01*
X77250840Y-51130719D01*
X77241401Y-51160833D01*
X77242549Y-51161441D01*
X77164032Y-51309733D01*
X77123155Y-51472473D01*
X77123135Y-51476238D01*
X77123135Y-51476240D01*
X77122804Y-51539551D01*
X77122276Y-51640267D01*
X77123156Y-51643931D01*
X77123156Y-51643934D01*
X77147149Y-51743872D01*
X77161447Y-51803426D01*
X77163174Y-51806773D01*
X77163176Y-51806777D01*
X77236678Y-51949183D01*
X77238407Y-51952532D01*
X77265545Y-51983641D01*
X77343500Y-52073003D01*
X77348711Y-52078977D01*
X77485993Y-52175460D01*
X77534703Y-52194451D01*
X77569229Y-52227560D01*
X77570231Y-52275385D01*
X77537122Y-52309911D01*
X77503842Y-52314647D01*
X77439064Y-52306119D01*
X77435000Y-52305584D01*
X77430936Y-52306119D01*
X77303331Y-52322918D01*
X77303327Y-52322919D01*
X77299271Y-52323453D01*
X77295491Y-52325019D01*
X77295490Y-52325019D01*
X77198388Y-52365240D01*
X77172792Y-52375842D01*
X77064182Y-52459182D01*
X76980842Y-52567792D01*
X76979275Y-52571575D01*
X76944891Y-52654587D01*
X76928453Y-52694271D01*
X76927919Y-52698327D01*
X76927918Y-52698331D01*
X76920465Y-52754946D01*
X76910584Y-52830000D01*
X76911119Y-52834064D01*
X76927882Y-52961391D01*
X76928453Y-52965729D01*
X76930019Y-52969509D01*
X76930019Y-52969510D01*
X76942530Y-52999715D01*
X76979755Y-53089583D01*
X76980842Y-53092208D01*
X76980139Y-53092499D01*
X76985944Y-53136587D01*
X76956824Y-53174537D01*
X76913380Y-53181710D01*
X76877133Y-53174500D01*
X76877132Y-53174500D01*
X76850000Y-53169103D01*
X76828904Y-53173299D01*
X76816713Y-53174500D01*
X76757083Y-53174500D01*
X76712889Y-53156194D01*
X76694583Y-53112000D01*
X76699340Y-53088082D01*
X76740614Y-52988436D01*
X76742716Y-52980592D01*
X76762007Y-52834064D01*
X76762007Y-52825936D01*
X76744006Y-52689208D01*
X76739769Y-52681869D01*
X76735085Y-52684179D01*
X76263070Y-53156194D01*
X76218876Y-53174500D01*
X76111124Y-53174500D01*
X76066930Y-53156194D01*
X75596407Y-52685671D01*
X75588580Y-52682429D01*
X75586270Y-52687113D01*
X75567993Y-52825936D01*
X75567993Y-52834064D01*
X75585464Y-52966769D01*
X75573084Y-53012975D01*
X75531657Y-53036892D01*
X75485451Y-53024512D01*
X75476151Y-53015724D01*
X75460306Y-52997335D01*
X75460304Y-52997333D01*
X75457400Y-52993963D01*
X75337095Y-52915985D01*
X75324456Y-52912205D01*
X75272911Y-52896790D01*
X75199739Y-52874907D01*
X75128058Y-52874469D01*
X75060829Y-52874058D01*
X75060828Y-52874058D01*
X75056376Y-52874031D01*
X74918529Y-52913428D01*
X74811595Y-52980898D01*
X74764452Y-52988999D01*
X74725387Y-52961391D01*
X74717286Y-52914247D01*
X74724118Y-52896790D01*
X74802578Y-52760893D01*
X74802579Y-52760891D01*
X74804214Y-52758059D01*
X74861085Y-52583029D01*
X74880322Y-52400000D01*
X74861085Y-52216971D01*
X74855956Y-52201184D01*
X74829286Y-52119104D01*
X74804214Y-52041941D01*
X74793119Y-52022723D01*
X74754151Y-51955230D01*
X74712195Y-51882560D01*
X74589050Y-51745793D01*
X74440161Y-51637619D01*
X74272034Y-51562764D01*
X74268827Y-51562082D01*
X74268826Y-51562082D01*
X74095228Y-51525182D01*
X74095227Y-51525182D01*
X74092019Y-51524500D01*
X73907981Y-51524500D01*
X73904773Y-51525182D01*
X73904772Y-51525182D01*
X73731174Y-51562082D01*
X73731173Y-51562082D01*
X73727966Y-51562764D01*
X73559839Y-51637619D01*
X73410950Y-51745793D01*
X73287805Y-51882560D01*
X73245849Y-51955230D01*
X73206882Y-52022723D01*
X73195786Y-52041941D01*
X73170714Y-52119104D01*
X73144045Y-52201184D01*
X73138915Y-52216971D01*
X73134245Y-52261407D01*
X73124257Y-52356430D01*
X73106293Y-52394091D01*
X72979277Y-52521107D01*
X72935083Y-52539413D01*
X72890889Y-52521107D01*
X72872583Y-52476913D01*
X72872925Y-52470380D01*
X72879980Y-52403254D01*
X72880322Y-52400000D01*
X72861085Y-52216971D01*
X72855956Y-52201184D01*
X72829286Y-52119104D01*
X72804214Y-52041941D01*
X72793119Y-52022723D01*
X72754151Y-51955230D01*
X72712195Y-51882560D01*
X72589050Y-51745793D01*
X72440161Y-51637619D01*
X72272034Y-51562764D01*
X72268827Y-51562082D01*
X72268826Y-51562082D01*
X72095228Y-51525182D01*
X72095227Y-51525182D01*
X72092019Y-51524500D01*
X71907981Y-51524500D01*
X71904773Y-51525182D01*
X71904772Y-51525182D01*
X71731174Y-51562082D01*
X71731173Y-51562082D01*
X71727966Y-51562764D01*
X71559839Y-51637619D01*
X71410950Y-51745793D01*
X71287805Y-51882560D01*
X71245849Y-51955230D01*
X71206882Y-52022723D01*
X71195786Y-52041941D01*
X71170714Y-52119104D01*
X71144045Y-52201184D01*
X71138915Y-52216971D01*
X71119678Y-52400000D01*
X71138915Y-52583029D01*
X71195786Y-52758059D01*
X71197421Y-52760891D01*
X71197422Y-52760893D01*
X71220135Y-52800233D01*
X71287805Y-52917440D01*
X71289994Y-52919871D01*
X71289998Y-52919876D01*
X71364264Y-53002357D01*
X71380232Y-53047449D01*
X71362012Y-53088372D01*
X70382194Y-54068190D01*
X70338000Y-54086496D01*
X70293806Y-54068190D01*
X70275500Y-54023996D01*
X70275500Y-53276281D01*
X70293806Y-53232087D01*
X70312578Y-53219185D01*
X70440161Y-53162381D01*
X70589050Y-53054207D01*
X70712195Y-52917440D01*
X70779865Y-52800233D01*
X70802578Y-52760893D01*
X70802579Y-52760891D01*
X70804214Y-52758059D01*
X70861085Y-52583029D01*
X70880322Y-52400000D01*
X70861085Y-52216971D01*
X70855956Y-52201184D01*
X70829286Y-52119104D01*
X70804214Y-52041941D01*
X70793119Y-52022723D01*
X70754151Y-51955230D01*
X70712195Y-51882560D01*
X70589050Y-51745793D01*
X70440161Y-51637619D01*
X70272034Y-51562764D01*
X70268827Y-51562082D01*
X70268826Y-51562082D01*
X70095228Y-51525182D01*
X70095227Y-51525182D01*
X70092019Y-51524500D01*
X69926004Y-51524500D01*
X69881810Y-51506194D01*
X69863504Y-51462000D01*
X69881810Y-51417806D01*
X70213091Y-51086525D01*
X70257285Y-51068219D01*
X75156340Y-51068219D01*
X75200534Y-51086525D01*
G37*
G04 #@! TD.AperFunction*
M02*
